<?xml version="1.0" encoding="utf-8"?>
<!-- Generator: Adobe Illustrator 18.0.0, SVG Export Plug-In . SVG Version: 6.00 Build 0)  -->
<!DOCTYPE svg PUBLIC "-//W3C//DTD SVG 1.1//EN" "http://www.w3.org/Graphics/SVG/1.1/DTD/svg11.dtd">
<svg version="1.1" id="Layer_1" xmlns="http://www.w3.org/2000/svg" xmlns:xlink="http://www.w3.org/1999/xlink" x="0px" y="0px"
	 viewBox="0 0 504 504" enable-background="new 0 0 504 504" xml:space="preserve">
<rect x="-0.3" y="-16" fill="none" stroke="#FFFFFF" stroke-width="1.06" stroke-linecap="round" stroke-linejoin="round" stroke-miterlimit="10" width="504" height="504"/>
<rect x="59.7" y="31.8" fill="#3B6E8F" width="71.6" height="353.6"/>
<rect x="139.3" y="202.9" fill="#3B6E8F" width="71.6" height="182.5"/>
<rect x="218.8" y="325.8" fill="#3B6E8F" width="71.6" height="59.6"/>
<rect x="298.4" y="194.4" fill="#3B6E8F" width="71.6" height="191"/>
<rect x="377.9" y="129.9" fill="#3B6E8F" width="71.6" height="255.5"/>
<g>
	<path fill="#FFFFFF" d="M83.5,42.4c0-0.6,0.2-1.1,0.5-1.5s0.8-0.8,1.4-1.2c-0.2-0.1-0.5-0.3-0.7-0.4c-0.2-0.2-0.4-0.3-0.5-0.5
		c-0.2-0.2-0.3-0.4-0.4-0.7c-0.1-0.2-0.1-0.5-0.1-0.8c0-0.4,0.1-0.7,0.2-1c0.1-0.3,0.3-0.6,0.5-0.8c0.2-0.2,0.5-0.4,0.9-0.5
		c0.3-0.1,0.7-0.2,1.1-0.2c0.4,0,0.7,0.1,1.1,0.2c0.3,0.1,0.6,0.3,0.8,0.5c0.2,0.2,0.4,0.4,0.5,0.7c0.1,0.3,0.2,0.6,0.2,0.9
		c0,0.5-0.1,1-0.4,1.4c-0.2,0.4-0.6,0.8-1.2,1.2c0.2,0.1,0.5,0.3,0.7,0.5c0.2,0.2,0.4,0.4,0.6,0.6c0.2,0.2,0.3,0.4,0.4,0.7
		s0.1,0.5,0.1,0.9c0,0.4-0.1,0.8-0.2,1.1c-0.1,0.3-0.3,0.6-0.6,0.9c-0.3,0.2-0.6,0.4-0.9,0.6c-0.4,0.1-0.8,0.2-1.2,0.2
		c-0.4,0-0.8-0.1-1.2-0.2c-0.3-0.1-0.6-0.3-0.9-0.5c-0.2-0.2-0.4-0.5-0.5-0.8C83.6,43.1,83.5,42.7,83.5,42.4z M88.1,42.2
		c0-0.3-0.1-0.5-0.2-0.7s-0.3-0.4-0.4-0.6c-0.2-0.2-0.4-0.3-0.6-0.5c-0.2-0.1-0.5-0.3-0.7-0.4c-0.6,0.3-1,0.7-1.2,1.1
		c-0.2,0.4-0.4,0.8-0.4,1.1c0,0.2,0,0.4,0.1,0.6c0.1,0.2,0.2,0.4,0.3,0.5c0.1,0.1,0.3,0.3,0.6,0.4s0.5,0.1,0.8,0.1
		c0.2,0,0.5,0,0.7-0.1s0.4-0.2,0.6-0.3c0.2-0.1,0.3-0.3,0.4-0.5S88.1,42.5,88.1,42.2z M84.8,37.2c0,0.3,0.1,0.5,0.2,0.7
		s0.2,0.4,0.4,0.5s0.4,0.3,0.6,0.4c0.2,0.1,0.5,0.3,0.7,0.4c0.4-0.3,0.7-0.6,0.9-1c0.2-0.3,0.3-0.7,0.3-1c0-0.5-0.1-0.8-0.4-1.1
		c-0.3-0.3-0.6-0.4-1.1-0.4c-0.3,0-0.5,0-0.7,0.1c-0.2,0.1-0.4,0.2-0.5,0.3c-0.1,0.1-0.2,0.3-0.3,0.5S84.8,37,84.8,37.2z"/>
	<path fill="#FFFFFF" d="M91.1,42.4c0-0.6,0.2-1.1,0.5-1.5s0.8-0.8,1.4-1.2c-0.2-0.1-0.5-0.3-0.7-0.4c-0.2-0.2-0.4-0.3-0.5-0.5
		c-0.2-0.2-0.3-0.4-0.4-0.7c-0.1-0.2-0.1-0.5-0.1-0.8c0-0.4,0.1-0.7,0.2-1c0.1-0.3,0.3-0.6,0.5-0.8c0.2-0.2,0.5-0.4,0.9-0.5
		c0.3-0.1,0.7-0.2,1.1-0.2c0.4,0,0.7,0.1,1.1,0.2c0.3,0.1,0.6,0.3,0.8,0.5c0.2,0.2,0.4,0.4,0.5,0.7c0.1,0.3,0.2,0.6,0.2,0.9
		c0,0.5-0.1,1-0.4,1.4c-0.2,0.4-0.6,0.8-1.2,1.2c0.2,0.1,0.5,0.3,0.7,0.5c0.2,0.2,0.4,0.4,0.6,0.6c0.2,0.2,0.3,0.4,0.4,0.7
		s0.1,0.5,0.1,0.9c0,0.4-0.1,0.8-0.2,1.1c-0.1,0.3-0.3,0.6-0.6,0.9c-0.3,0.2-0.6,0.4-0.9,0.6c-0.4,0.1-0.8,0.2-1.2,0.2
		c-0.4,0-0.8-0.1-1.2-0.2c-0.3-0.1-0.6-0.3-0.9-0.5c-0.2-0.2-0.4-0.5-0.5-0.8C91.2,43.1,91.1,42.7,91.1,42.4z M95.8,42.2
		c0-0.3-0.1-0.5-0.2-0.7s-0.3-0.4-0.4-0.6c-0.2-0.2-0.4-0.3-0.6-0.5c-0.2-0.1-0.5-0.3-0.7-0.4c-0.6,0.3-1,0.7-1.2,1.1
		c-0.2,0.4-0.4,0.8-0.4,1.1c0,0.2,0,0.4,0.1,0.6c0.1,0.2,0.2,0.4,0.3,0.5c0.1,0.1,0.3,0.3,0.6,0.4s0.5,0.1,0.8,0.1
		c0.2,0,0.5,0,0.7-0.1s0.4-0.2,0.6-0.3c0.2-0.1,0.3-0.3,0.4-0.5S95.8,42.5,95.8,42.2z M92.4,37.2c0,0.3,0.1,0.5,0.2,0.7
		s0.2,0.4,0.4,0.5s0.4,0.3,0.6,0.4c0.2,0.1,0.5,0.3,0.7,0.4c0.4-0.3,0.7-0.6,0.9-1c0.2-0.3,0.3-0.7,0.3-1c0-0.5-0.1-0.8-0.4-1.1
		c-0.3-0.3-0.6-0.4-1.1-0.4c-0.3,0-0.5,0-0.7,0.1c-0.2,0.1-0.4,0.2-0.5,0.3c-0.1,0.1-0.2,0.3-0.3,0.5S92.4,37,92.4,37.2z"/>
	<path fill="#FFFFFF" d="M98.5,44.1c0-0.3,0.1-0.5,0.2-0.6c0.1-0.1,0.3-0.2,0.6-0.2c0.3,0,0.5,0.1,0.6,0.2c0.1,0.1,0.2,0.3,0.2,0.6
		c0,0.2-0.1,0.4-0.2,0.6c-0.1,0.1-0.4,0.2-0.6,0.2c-0.2,0-0.4-0.1-0.6-0.2C98.6,44.5,98.5,44.3,98.5,44.1z"/>
	<path fill="#FFFFFF" d="M101.5,37.9c0-0.4,0.1-0.9,0.2-1.2c0.1-0.4,0.3-0.7,0.6-1c0.3-0.3,0.6-0.5,0.9-0.7s0.8-0.2,1.3-0.2
		c1,0,1.7,0.3,2.2,0.9c0.5,0.6,0.8,1.5,0.8,2.6c0,1.1-0.1,2-0.4,2.8c-0.2,0.8-0.6,1.5-1,2c-0.4,0.5-0.9,1-1.5,1.3
		c-0.6,0.3-1.2,0.5-1.9,0.6l-0.3-0.9c0.5-0.1,1-0.2,1.5-0.5c0.4-0.2,0.8-0.5,1.1-0.9c0.3-0.4,0.6-0.8,0.8-1.2
		c0.2-0.5,0.3-0.9,0.4-1.5c-0.3,0.3-0.5,0.5-0.8,0.6s-0.7,0.2-1.2,0.2c-0.4,0-0.7-0.1-1.1-0.2c-0.3-0.1-0.6-0.3-0.9-0.6
		s-0.5-0.5-0.6-0.9C101.6,38.7,101.5,38.3,101.5,37.9z M102.7,37.8c0,0.7,0.2,1.2,0.5,1.5c0.4,0.3,0.8,0.5,1.4,0.5
		c0.5,0,0.8-0.1,1.2-0.2c0.3-0.1,0.6-0.3,0.7-0.6c0-0.1,0-0.2,0-0.3s0-0.2,0-0.3c0-0.3,0-0.7-0.1-1c-0.1-0.3-0.2-0.6-0.4-0.8
		c-0.2-0.2-0.4-0.4-0.6-0.6c-0.3-0.1-0.6-0.2-0.9-0.2c-0.6,0-1,0.2-1.3,0.5C102.9,36.6,102.7,37.1,102.7,37.8z"/>
</g>
<g>
	<path fill="#FFFFFF" d="M333.9,204.3h-1.7v3h-1.1v-3h-4.3v-0.5l4.6-6.5h0.8v6h1.7V204.3z M331.1,200.2l0.1-1.1h0l-0.5,1l-2,2.7
		l-0.7,0.7l1-0.1h2.1V200.2z"/>
	<path fill="#FFFFFF" d="M335.1,204.9c0-0.6,0.2-1.1,0.5-1.5s0.8-0.8,1.4-1.2c-0.2-0.1-0.5-0.3-0.7-0.4c-0.2-0.2-0.4-0.3-0.5-0.5
		s-0.3-0.4-0.4-0.7c-0.1-0.2-0.1-0.5-0.1-0.8c0-0.4,0.1-0.7,0.2-1c0.1-0.3,0.3-0.6,0.5-0.8c0.2-0.2,0.5-0.4,0.9-0.5
		c0.3-0.1,0.7-0.2,1.1-0.2c0.4,0,0.7,0.1,1.1,0.2c0.3,0.1,0.6,0.3,0.8,0.5c0.2,0.2,0.4,0.4,0.5,0.7c0.1,0.3,0.2,0.6,0.2,0.9
		c0,0.5-0.1,1-0.4,1.4c-0.2,0.4-0.6,0.8-1.2,1.2c0.2,0.1,0.5,0.3,0.7,0.5c0.2,0.2,0.4,0.4,0.6,0.6c0.2,0.2,0.3,0.4,0.4,0.7
		c0.1,0.3,0.1,0.5,0.1,0.9c0,0.4-0.1,0.8-0.2,1.1c-0.1,0.3-0.3,0.6-0.6,0.9c-0.3,0.2-0.6,0.4-0.9,0.6c-0.4,0.1-0.8,0.2-1.2,0.2
		c-0.4,0-0.8-0.1-1.2-0.2c-0.3-0.1-0.6-0.3-0.9-0.5s-0.4-0.5-0.5-0.8C335.2,205.6,335.1,205.3,335.1,204.9z M339.8,204.8
		c0-0.3-0.1-0.5-0.2-0.7s-0.3-0.4-0.4-0.6c-0.2-0.2-0.4-0.3-0.6-0.5c-0.2-0.1-0.5-0.3-0.7-0.4c-0.6,0.3-1,0.7-1.2,1.1
		c-0.2,0.4-0.4,0.8-0.4,1.1c0,0.2,0,0.4,0.1,0.6c0.1,0.2,0.2,0.4,0.3,0.5c0.1,0.1,0.3,0.3,0.6,0.4s0.5,0.1,0.8,0.1
		c0.2,0,0.5,0,0.7-0.1c0.2-0.1,0.4-0.2,0.6-0.3c0.2-0.1,0.3-0.3,0.4-0.5C339.7,205.3,339.8,205.1,339.8,204.8z M336.4,199.7
		c0,0.3,0.1,0.5,0.2,0.7s0.2,0.4,0.4,0.5s0.4,0.3,0.6,0.4c0.2,0.1,0.5,0.3,0.7,0.4c0.4-0.3,0.7-0.6,0.9-1c0.2-0.3,0.3-0.7,0.3-1
		c0-0.5-0.1-0.8-0.4-1.1c-0.3-0.3-0.6-0.4-1.1-0.4c-0.3,0-0.5,0-0.7,0.1c-0.2,0.1-0.4,0.2-0.5,0.3c-0.1,0.1-0.2,0.3-0.3,0.5
		S336.4,199.5,336.4,199.7z"/>
</g>
<g>
	<path fill="#FFFFFF" d="M248.5,337.6h2v-6.8l0.1-0.8l-0.6,0.7l-1.5,1.1l-0.5-0.7l3.1-2.4h0.5v8.9h1.9v1h-5V337.6z"/>
	<path fill="#FFFFFF" d="M257.6,337.9c0.6,0,1.2-0.2,1.6-0.6s0.6-0.9,0.6-1.6c0-0.7-0.2-1.2-0.6-1.5c-0.4-0.3-1-0.5-1.7-0.5
		l-1.2,0.1v-4.8h4.4v1h-3.3v2.8l0.6,0c0.9,0,1.7,0.3,2.2,0.8c0.5,0.5,0.8,1.2,0.8,2.2c0,0.5-0.1,1-0.3,1.4c-0.2,0.4-0.4,0.7-0.7,1
		c-0.3,0.3-0.7,0.5-1.1,0.6c-0.4,0.1-0.8,0.2-1.3,0.2c-0.4,0-0.8,0-1.1-0.1s-0.6-0.1-0.8-0.2l0.3-1c0.2,0.1,0.4,0.1,0.7,0.2
		C256.9,337.8,257.2,337.9,257.6,337.9z"/>
</g>
<g>
	<path fill="#FFFFFF" d="M407.7,139.8c0,0.4-0.1,0.8-0.2,1.2c-0.1,0.4-0.3,0.7-0.6,1s-0.6,0.5-0.9,0.7c-0.4,0.2-0.8,0.2-1.3,0.2
		c-0.5,0-0.9-0.1-1.3-0.2c-0.4-0.1-0.7-0.4-1-0.7c-0.3-0.3-0.5-0.7-0.6-1.1c-0.1-0.4-0.2-0.9-0.2-1.5c0-0.9,0.1-1.8,0.4-2.6
		c0.2-0.8,0.6-1.5,1-2s0.9-1,1.5-1.4c0.6-0.4,1.2-0.6,1.9-0.7l0.2,0.9c-0.5,0.1-1,0.3-1.4,0.5c-0.4,0.3-0.8,0.6-1.1,1
		c-0.3,0.4-0.6,0.8-0.8,1.3c-0.2,0.5-0.3,1-0.4,1.5c0.1-0.3,0.4-0.5,0.8-0.7c0.4-0.2,0.8-0.3,1.3-0.3c0.9,0,1.6,0.3,2.1,0.8
		C407.4,138.2,407.7,138.9,407.7,139.8z M406.5,139.9c0-0.7-0.2-1.2-0.5-1.5c-0.3-0.3-0.8-0.5-1.4-0.5c-0.5,0-0.9,0.1-1.2,0.3
		c-0.3,0.2-0.6,0.5-0.7,0.8c0,0.1,0,0.2,0,0.3s0,0.2,0,0.3c0,0.3,0,0.6,0.1,0.9c0.1,0.3,0.2,0.5,0.4,0.7s0.4,0.4,0.6,0.5
		c0.2,0.1,0.5,0.2,0.9,0.2c0.3,0,0.5-0.1,0.7-0.2c0.2-0.1,0.4-0.2,0.6-0.4c0.2-0.2,0.3-0.4,0.4-0.6
		C406.5,140.5,406.5,140.2,406.5,139.9z"/>
	<path fill="#FFFFFF" d="M415.8,139.8h-1.7v3H413v-3h-4.3v-0.5l4.6-6.5h0.8v6h1.7V139.8z M413,135.7l0.1-1.1h0l-0.5,1l-2,2.7
		l-0.7,0.7l1-0.1h2.1V135.7z"/>
	<path fill="#FFFFFF" d="M416.7,142.1c0-0.3,0.1-0.5,0.2-0.6c0.1-0.1,0.3-0.2,0.6-0.2c0.3,0,0.5,0.1,0.6,0.2
		c0.1,0.1,0.2,0.3,0.2,0.6c0,0.2-0.1,0.4-0.2,0.6c-0.1,0.1-0.3,0.2-0.6,0.2c-0.2,0-0.4-0.1-0.6-0.2
		C416.8,142.6,416.7,142.4,416.7,142.1z"/>
	<path fill="#FFFFFF" d="M425.3,135.2c0,0.5-0.1,1-0.3,1.5c-0.2,0.5-0.4,1-0.7,1.6c-0.3,0.5-0.6,1-1,1.5c-0.4,0.5-0.7,1-1.1,1.4
		l-0.7,0.6v0.1l0.9-0.2h3.1v1h-5.6v-0.4c0.2-0.2,0.5-0.5,0.7-0.8c0.3-0.3,0.6-0.7,0.9-1.1c0.3-0.4,0.6-0.8,0.9-1.2
		c0.3-0.4,0.6-0.9,0.8-1.3c0.2-0.4,0.4-0.9,0.6-1.3c0.1-0.4,0.2-0.9,0.2-1.2c0-0.5-0.1-0.8-0.4-1.1c-0.3-0.3-0.7-0.5-1.2-0.5
		c-0.4,0-0.7,0.1-1,0.2c-0.3,0.1-0.6,0.3-0.9,0.5l-0.5-0.8c0.3-0.3,0.7-0.5,1.2-0.7s0.9-0.2,1.4-0.2c0.4,0,0.8,0.1,1.1,0.2
		c0.3,0.1,0.6,0.3,0.8,0.5s0.4,0.5,0.5,0.8C425.2,134.5,425.3,134.9,425.3,135.2z"/>
</g>
<g>
	<path fill="#FFFFFF" d="M169.5,212.7h-1.7v3h-1.1v-3h-4.3v-0.5l4.6-6.5h0.8v6h1.7V212.7z M166.7,208.7l0.1-1.1h0l-0.5,1l-2,2.7
		l-0.7,0.7l1-0.1h2.1V208.7z"/>
	<path fill="#FFFFFF" d="M172.7,214.9c0.6,0,1.2-0.2,1.6-0.6c0.4-0.4,0.6-0.9,0.6-1.6c0-0.7-0.2-1.2-0.6-1.5c-0.4-0.3-1-0.5-1.7-0.5
		l-1.2,0.1v-4.8h4.4v1h-3.3v2.8l0.6,0c0.9,0,1.7,0.3,2.2,0.8c0.5,0.5,0.8,1.2,0.8,2.2c0,0.5-0.1,1-0.3,1.4c-0.2,0.4-0.4,0.7-0.7,1
		c-0.3,0.3-0.7,0.5-1.1,0.6s-0.8,0.2-1.3,0.2c-0.4,0-0.8,0-1.1-0.1c-0.3,0-0.6-0.1-0.8-0.2l0.3-1c0.2,0.1,0.4,0.1,0.7,0.2
		C172.1,214.9,172.4,214.9,172.7,214.9z"/>
	<path fill="#FFFFFF" d="M178.1,215.1c0-0.3,0.1-0.5,0.2-0.6c0.1-0.1,0.3-0.2,0.6-0.2c0.3,0,0.5,0.1,0.6,0.2
		c0.1,0.1,0.2,0.3,0.2,0.6c0,0.2-0.1,0.4-0.2,0.6c-0.1,0.1-0.4,0.2-0.6,0.2c-0.2,0-0.4-0.1-0.6-0.2
		C178.1,215.5,178.1,215.3,178.1,215.1z"/>
	<path fill="#FFFFFF" d="M181.1,208.9c0-0.4,0.1-0.9,0.2-1.2c0.1-0.4,0.3-0.7,0.6-1c0.3-0.3,0.6-0.5,0.9-0.7s0.8-0.2,1.3-0.2
		c1,0,1.7,0.3,2.2,0.9c0.5,0.6,0.8,1.5,0.8,2.6c0,1.1-0.1,2-0.4,2.8c-0.2,0.8-0.6,1.5-1,2c-0.4,0.5-0.9,1-1.5,1.3
		c-0.6,0.3-1.2,0.5-1.9,0.6l-0.3-0.9c0.5-0.1,1-0.2,1.5-0.5c0.4-0.2,0.8-0.5,1.1-0.9c0.3-0.4,0.6-0.8,0.8-1.2
		c0.2-0.5,0.3-0.9,0.4-1.5c-0.3,0.3-0.5,0.5-0.8,0.6s-0.7,0.2-1.2,0.2c-0.4,0-0.7-0.1-1.1-0.2c-0.3-0.1-0.6-0.3-0.9-0.6
		s-0.5-0.5-0.6-0.9C181.2,209.8,181.1,209.4,181.1,208.9z M182.3,208.8c0,0.7,0.2,1.2,0.5,1.5c0.4,0.3,0.8,0.5,1.4,0.5
		c0.5,0,0.8-0.1,1.2-0.2c0.3-0.1,0.6-0.3,0.7-0.6c0-0.1,0-0.2,0-0.3s0-0.2,0-0.3c0-0.3,0-0.7-0.1-1c-0.1-0.3-0.2-0.6-0.4-0.8
		c-0.2-0.2-0.4-0.4-0.6-0.6c-0.3-0.1-0.6-0.2-0.9-0.2c-0.6,0-1,0.2-1.3,0.5C182.4,207.7,182.3,208.2,182.3,208.8z"/>
</g>
<g>
	<path d="M35.7,385.4c0-1.2,0.2-2.1,0.6-2.7c0.4-0.6,1-0.9,1.7-0.9c0.8,0,1.4,0.3,1.8,0.9c0.4,0.6,0.5,1.5,0.5,2.7
		c0,1.2-0.2,2.1-0.6,2.7s-1,0.9-1.7,0.9c-0.8,0-1.4-0.3-1.7-1C35.8,387.5,35.7,386.6,35.7,385.4z M36.5,385.4c0,0.4,0,0.8,0.1,1.2
		c0.1,0.4,0.1,0.7,0.3,0.9c0.1,0.3,0.3,0.5,0.5,0.6c0.2,0.1,0.4,0.2,0.7,0.2c0.5,0,0.9-0.2,1.1-0.7s0.4-1.2,0.4-2.2
		c0-0.4,0-0.8-0.1-1.2c-0.1-0.4-0.1-0.7-0.2-0.9c-0.1-0.3-0.3-0.5-0.5-0.6c-0.2-0.1-0.4-0.2-0.7-0.2c-0.5,0-0.9,0.2-1.1,0.7
		C36.6,383.7,36.5,384.4,36.5,385.4z"/>
</g>
<g>
	<path d="M34.2,284.1c0,0.4-0.1,0.7-0.2,1.1c-0.1,0.4-0.3,0.7-0.5,1.1s-0.4,0.7-0.7,1.1c-0.3,0.4-0.5,0.7-0.8,1l-0.5,0.4v0l0.6-0.1
		h2.2v0.7h-4v-0.3c0.1-0.2,0.3-0.3,0.5-0.6c0.2-0.2,0.4-0.5,0.6-0.8c0.2-0.3,0.4-0.6,0.7-0.9c0.2-0.3,0.4-0.6,0.6-0.9
		c0.2-0.3,0.3-0.6,0.4-0.9c0.1-0.3,0.2-0.6,0.2-0.9c0-0.3-0.1-0.6-0.3-0.8c-0.2-0.2-0.5-0.3-0.9-0.3c-0.3,0-0.5,0.1-0.7,0.2
		c-0.2,0.1-0.4,0.2-0.6,0.4l-0.3-0.6c0.2-0.2,0.5-0.4,0.8-0.5c0.3-0.1,0.7-0.2,1-0.2c0.3,0,0.5,0,0.8,0.1c0.2,0.1,0.4,0.2,0.6,0.4
		c0.2,0.2,0.3,0.3,0.3,0.5S34.2,283.8,34.2,284.1z"/>
	<path d="M37.4,288.9c0.5,0,0.8-0.1,1.1-0.4c0.3-0.3,0.5-0.7,0.5-1.2c0-0.5-0.1-0.9-0.4-1.1c-0.3-0.2-0.7-0.4-1.2-0.4l-0.8,0v-3.5
		h3.1v0.7h-2.4v2l0.4,0c0.7,0,1.2,0.2,1.6,0.5c0.4,0.4,0.6,0.9,0.6,1.5c0,0.4-0.1,0.7-0.2,1c-0.1,0.3-0.3,0.5-0.5,0.7
		s-0.5,0.3-0.8,0.4c-0.3,0.1-0.6,0.2-0.9,0.2c-0.3,0-0.6,0-0.8,0c-0.2,0-0.4-0.1-0.6-0.2l0.2-0.7c0.2,0.1,0.3,0.1,0.5,0.1
		C36.9,288.9,37.1,288.9,37.4,288.9z"/>
</g>
<g>
	<path d="M31.9,189.4c0.5,0,0.8-0.1,1.1-0.4s0.5-0.7,0.5-1.2c0-0.5-0.1-0.9-0.4-1.1c-0.3-0.2-0.7-0.4-1.2-0.4l-0.8,0V183h3.1v0.7
		h-2.4v2l0.4,0c0.7,0,1.2,0.2,1.6,0.5c0.4,0.4,0.6,0.9,0.6,1.6c0,0.4-0.1,0.7-0.2,1c-0.1,0.3-0.3,0.5-0.5,0.7
		c-0.2,0.2-0.5,0.3-0.8,0.4c-0.3,0.1-0.6,0.1-0.9,0.1c-0.3,0-0.6,0-0.8-0.1c-0.2,0-0.4-0.1-0.6-0.1l0.2-0.7c0.2,0.1,0.3,0.1,0.5,0.1
		C31.4,189.4,31.6,189.4,31.9,189.4z"/>
	<path d="M35.7,186.5c0-1.2,0.2-2.1,0.6-2.7c0.4-0.6,1-0.9,1.7-0.9c0.8,0,1.4,0.3,1.8,0.9c0.4,0.6,0.5,1.5,0.5,2.7
		c0,1.2-0.2,2.1-0.6,2.7c-0.4,0.6-1,0.9-1.7,0.9c-0.8,0-1.4-0.3-1.7-1S35.7,187.7,35.7,186.5z M36.5,186.5c0,0.4,0,0.8,0.1,1.2
		c0.1,0.4,0.1,0.7,0.3,0.9c0.1,0.3,0.3,0.5,0.5,0.6c0.2,0.1,0.4,0.2,0.7,0.2c0.5,0,0.9-0.2,1.1-0.7c0.2-0.5,0.4-1.2,0.4-2.2
		c0-0.4,0-0.8-0.1-1.2c-0.1-0.4-0.1-0.7-0.2-0.9c-0.1-0.3-0.3-0.5-0.5-0.6c-0.2-0.1-0.4-0.2-0.7-0.2c-0.5,0-0.9,0.2-1.1,0.7
		C36.6,184.8,36.5,185.5,36.5,186.5z"/>
</g>
<g>
	<path d="M30.9,90.6l2.5-5.9l0.4-0.5l-0.6,0.1h-2.9v-0.7h4.2v0.3l-2.9,6.7H30.9z"/>
	<path d="M37.4,90c0.5,0,0.8-0.1,1.1-0.4s0.5-0.7,0.5-1.2c0-0.5-0.1-0.9-0.4-1.1c-0.3-0.2-0.7-0.4-1.2-0.4l-0.8,0v-3.5h3.1v0.7h-2.4
		v2l0.4,0c0.7,0,1.2,0.2,1.6,0.5c0.4,0.4,0.6,0.9,0.6,1.6c0,0.4-0.1,0.7-0.2,1c-0.1,0.3-0.3,0.5-0.5,0.7c-0.2,0.2-0.5,0.3-0.8,0.4
		c-0.3,0.1-0.6,0.1-0.9,0.1c-0.3,0-0.6,0-0.8-0.1c-0.2,0-0.4-0.1-0.6-0.1l0.2-0.7c0.2,0.1,0.3,0.1,0.5,0.1C36.9,90,37.1,90,37.4,90z
		"/>
</g>
<line fill="none" stroke="#3B6E8F" stroke-width="2.13" stroke-linejoin="round" stroke-miterlimit="10" x1="43.5" y1="385.4" x2="47.8" y2="385.4"/>
<line fill="none" stroke="#3B6E8F" stroke-width="2.13" stroke-linejoin="round" stroke-miterlimit="10" x1="43.5" y1="286" x2="47.8" y2="286"/>
<line fill="none" stroke="#3B6E8F" stroke-width="2.13" stroke-linejoin="round" stroke-miterlimit="10" x1="43.5" y1="186.5" x2="47.8" y2="186.5"/>
<line fill="none" stroke="#3B6E8F" stroke-width="2.13" stroke-linejoin="round" stroke-miterlimit="10" x1="43.5" y1="87.1" x2="47.8" y2="87.1"/>
<line fill="none" stroke="#3B6E8F" stroke-width="2.13" stroke-linejoin="round" stroke-miterlimit="10" x1="95.2" y1="391.4" x2="95.2" y2="387.1"/>
<line fill="none" stroke="#3B6E8F" stroke-width="2.13" stroke-linejoin="round" stroke-miterlimit="10" x1="174.7" y1="391.4" x2="174.7" y2="387.1"/>
<line fill="none" stroke="#3B6E8F" stroke-width="2.13" stroke-linejoin="round" stroke-miterlimit="10" x1="254.3" y1="391.4" x2="254.3" y2="387.1"/>
<line fill="none" stroke="#3B6E8F" stroke-width="2.13" stroke-linejoin="round" stroke-miterlimit="10" x1="333.8" y1="391.4" x2="333.8" y2="387.1"/>
<line fill="none" stroke="#3B6E8F" stroke-width="2.13" stroke-linejoin="round" stroke-miterlimit="10" x1="413.4" y1="391.4" x2="413.4" y2="387.1"/>
<g>
	<path d="M96.8,400.5l-2.3-1.1l-1.5,1.5l-0.8-0.4l5.4-5.3l0.3,0.2l-0.6,7.6l-0.8-0.4L96.8,400.5z M95,398.9l1.9,0.9l0.2-2.3l0.2-1.1
		l0,0l-0.7,0.9L95,398.9z"/>
	<path d="M100.9,404.6l1.2-2.6c0.1-0.2,0.2-0.5,0.3-0.6c0.1-0.2,0.1-0.4,0.1-0.5c0-0.1,0-0.3-0.1-0.4c-0.1-0.1-0.2-0.2-0.4-0.3
		c-0.3-0.1-0.5-0.2-0.8-0.1c-0.3,0.1-0.5,0.2-0.7,0.5l-1.5,3.1l-0.7-0.3l2.1-4.5l0.5,0.2l-0.1,0.6l0,0c0.3-0.1,0.5-0.2,0.8-0.2
		c0.3,0,0.6,0,0.9,0.2c0.3,0.1,0.5,0.3,0.6,0.5c0.1,0.2,0.2,0.5,0.2,0.8c0.2-0.2,0.5-0.3,0.8-0.3s0.6,0,0.9,0.2
		c0.3,0.1,0.5,0.2,0.6,0.4c0.1,0.1,0.2,0.3,0.3,0.5c0,0.2,0,0.4,0,0.7c-0.1,0.3-0.2,0.6-0.4,1l-1.3,2.7l-0.7-0.3l1.3-2.7
		c0.1-0.2,0.2-0.4,0.2-0.6s0.1-0.3,0.1-0.5c0-0.1-0.1-0.3-0.2-0.4c-0.1-0.1-0.2-0.2-0.4-0.3c-0.3-0.1-0.6-0.2-0.8-0.1
		c-0.2,0.1-0.5,0.3-0.7,0.6l-1.4,3L100.9,404.6z"/>
	<path d="M109,407.9c-0.2,0.1-0.5,0.1-0.8,0c-0.3,0-0.6-0.1-0.9-0.3c-0.3-0.2-0.6-0.4-0.8-0.6c-0.2-0.2-0.3-0.5-0.4-0.8
		c-0.1-0.3-0.1-0.6,0-0.9c0.1-0.3,0.2-0.7,0.3-1c0.4-0.8,0.8-1.3,1.3-1.5s1.1-0.2,1.8,0.1c0.2,0.1,0.4,0.2,0.6,0.4
		c0.2,0.1,0.3,0.3,0.4,0.5c0.1,0.2,0.2,0.4,0.1,0.7c0,0.3-0.1,0.6-0.3,1c-0.1,0.2-0.2,0.4-0.4,0.6l-2.9-1.4
		c-0.1,0.3-0.2,0.5-0.2,0.7c0,0.2,0,0.4,0,0.6c0,0.2,0.1,0.4,0.3,0.5c0.1,0.2,0.4,0.3,0.6,0.4c0.2,0.1,0.4,0.2,0.7,0.2
		c0.2,0,0.4,0,0.6,0L109,407.9z M109.2,403.6c-0.4-0.2-0.7-0.2-1-0.1c-0.3,0.1-0.6,0.3-0.8,0.8l2.2,1c0.2-0.5,0.3-0.8,0.2-1.1
		C109.7,403.9,109.5,403.7,109.2,403.6z"/>
	<path d="M114.1,406.1c-0.2-0.1-0.3-0.3-0.5-0.3c-0.3-0.1-0.5-0.1-0.7-0.1c-0.2,0.1-0.4,0.2-0.5,0.4l-1.5,3.2l-0.7-0.3l2.1-4.5
		l0.5,0.2l-0.1,0.6l0,0c0.2-0.2,0.4-0.2,0.6-0.3c0.2,0,0.4,0,0.7,0.1c0.2,0.1,0.4,0.2,0.5,0.4L114.1,406.1z"/>
	<path d="M115.5,405.9l0.7,0.3l-2.1,4.5l-0.7-0.3L115.5,405.9z M116,404.4c0.1-0.1,0.2-0.2,0.3-0.3c0.1-0.1,0.3-0.1,0.4,0
		c0.1,0.1,0.2,0.2,0.3,0.3c0.1,0.1,0.1,0.3,0,0.4s-0.2,0.2-0.3,0.3c-0.1,0-0.3,0-0.4,0c-0.1-0.1-0.2-0.2-0.3-0.3
		C115.9,404.7,115.9,404.6,116,404.4z"/>
	<path d="M118.9,412.6c-0.2,0-0.5,0-0.8,0c-0.3,0-0.6-0.1-0.8-0.3c-0.4-0.2-0.6-0.4-0.8-0.6c-0.2-0.2-0.3-0.5-0.4-0.8
		c-0.1-0.3-0.1-0.6,0-0.9s0.2-0.7,0.4-1c0.4-0.8,0.8-1.3,1.3-1.5c0.5-0.2,1.1-0.2,1.7,0.1c0.3,0.1,0.5,0.3,0.7,0.4
		c0.2,0.1,0.3,0.3,0.5,0.5l-0.5,0.5c-0.1-0.1-0.2-0.3-0.4-0.4c-0.1-0.1-0.3-0.2-0.5-0.3c-0.9-0.4-1.6,0-2.1,1.1
		c-0.1,0.2-0.2,0.5-0.2,0.7c-0.1,0.2-0.1,0.4,0,0.7c0,0.2,0.1,0.4,0.2,0.6c0.1,0.2,0.3,0.3,0.6,0.4c0.2,0.1,0.4,0.2,0.6,0.2
		c0.2,0,0.4,0,0.5,0L118.9,412.6z"/>
	<path d="M121.6,409.2c0.3,0,0.6,0,0.9,0.1c0.3,0.1,0.7,0.2,1,0.3c0.3,0.1,0.5,0.3,0.7,0.5c0.2,0.2,0.2,0.4,0.3,0.5
		c0,0.2,0,0.4,0,0.5c0,0.2-0.1,0.3-0.2,0.5c-0.2,0.4-0.3,0.7-0.5,1c-0.2,0.3-0.3,0.7-0.5,1c-0.1,0.2-0.2,0.4-0.3,0.6
		c-0.1,0.2-0.1,0.4-0.2,0.6l-0.5-0.2l0.1-0.7l0,0c-0.1,0.1-0.2,0.1-0.3,0.2c-0.1,0-0.3,0.1-0.4,0.1c-0.1,0-0.3,0-0.5,0
		c-0.2,0-0.4-0.1-0.5-0.2c-0.2-0.1-0.4-0.2-0.5-0.3c-0.1-0.1-0.2-0.3-0.3-0.5c-0.1-0.2-0.1-0.3-0.1-0.5s0.1-0.4,0.1-0.6
		c0.1-0.3,0.3-0.5,0.5-0.6c0.2-0.1,0.4-0.2,0.7-0.2c0.2,0,0.5,0,0.8,0.1c0.3,0.1,0.6,0.2,0.9,0.4c0.1,0,0.2,0.1,0.2,0.1
		c0.1,0,0.2,0.1,0.2,0.1c0.1-0.2,0.2-0.3,0.3-0.5c0.2-0.3,0.2-0.6,0.1-0.8c-0.1-0.2-0.3-0.4-0.6-0.5c-0.1,0-0.2-0.1-0.3-0.1
		c-0.1,0-0.3-0.1-0.4-0.1c-0.1,0-0.3-0.1-0.4-0.1c-0.1,0-0.2,0-0.4,0L121.6,409.2z M121.2,413.4c0.2,0.1,0.3,0.1,0.5,0.1
		c0.2,0,0.3,0,0.4,0c0.1,0,0.2-0.1,0.3-0.1c0.1-0.1,0.2-0.1,0.3-0.2l0.4-0.8c-0.1,0-0.2-0.1-0.3-0.1c-0.1,0-0.2-0.1-0.3-0.1
		c-0.2-0.1-0.4-0.2-0.6-0.2c-0.2-0.1-0.4-0.1-0.5-0.1c-0.2,0-0.3,0-0.4,0.1c-0.1,0.1-0.2,0.2-0.3,0.3c-0.1,0.2-0.1,0.4,0,0.6
		C120.8,413.1,121,413.3,121.2,413.4z"/>
	<path d="M127.2,416.8l1.2-2.6c0.2-0.5,0.3-0.9,0.3-1.2c0-0.3-0.2-0.5-0.6-0.7c-0.3-0.1-0.6-0.2-0.9-0.1c-0.3,0.1-0.5,0.2-0.7,0.4
		l-1.4,3.1l-0.7-0.3l2.1-4.5l0.5,0.2l-0.1,0.6l0,0c0.2-0.1,0.5-0.2,0.8-0.2s0.6,0.1,1,0.2c0.2,0.1,0.5,0.2,0.6,0.4
		c0.2,0.1,0.3,0.3,0.3,0.5s0.1,0.4,0,0.7c-0.1,0.3-0.2,0.6-0.3,1l-1.3,2.7L127.2,416.8z"/>
	<path d="M134.8,412.7l0.8,0.4l-3,6.3l-0.8-0.4L134.8,412.7z"/>
	<path d="M137.2,421.5l1.2-2.6c0.2-0.5,0.3-0.9,0.3-1.2c0-0.3-0.2-0.5-0.6-0.7c-0.3-0.1-0.6-0.2-0.9-0.1c-0.3,0.1-0.5,0.2-0.7,0.4
		l-1.4,3.1l-0.7-0.3l2.1-4.5l0.5,0.2l-0.1,0.6l0,0c0.2-0.1,0.5-0.2,0.8-0.2s0.6,0.1,1,0.2c0.2,0.1,0.5,0.2,0.6,0.4
		c0.2,0.1,0.3,0.3,0.3,0.5c0.1,0.2,0.1,0.4,0,0.7c-0.1,0.3-0.2,0.6-0.3,1l-1.3,2.7L137.2,421.5z"/>
	<path d="M143.4,422.5c-0.1,0.3-0.3,0.6-0.4,0.8c-0.1,0.3-0.2,0.5-0.3,0.8l-0.5-0.2l0.1-0.7l0,0c-0.2,0.2-0.5,0.2-0.8,0.3
		c-0.3,0-0.6,0-0.9-0.2c-0.6-0.3-1-0.7-1.1-1.2c-0.1-0.5,0-1.2,0.4-2c0.4-0.8,0.8-1.3,1.4-1.5c0.6-0.2,1.2-0.2,1.8,0.1
		c0.2,0.1,0.4,0.2,0.5,0.3c0.1,0.1,0.2,0.2,0.4,0.3l0.9-1.9l0.7,0.3L143.4,422.5z M141.1,422.7c0.3,0.1,0.6,0.2,0.8,0.1
		c0.3-0.1,0.5-0.3,0.7-0.6l1-2.2c-0.1-0.1-0.2-0.3-0.3-0.4c-0.1-0.1-0.3-0.2-0.5-0.3c-0.4-0.2-0.8-0.2-1.2,0c-0.4,0.2-0.7,0.5-1,1.2
		c-0.1,0.2-0.2,0.5-0.3,0.7c-0.1,0.2-0.1,0.4-0.1,0.6c0,0.2,0.1,0.4,0.2,0.5C140.7,422.5,140.9,422.6,141.1,422.7z"/>
	<path d="M146.4,420.3l0.7,0.3l-2.1,4.5l-0.7-0.3L146.4,420.3z M146.8,418.8c0.1-0.1,0.2-0.2,0.3-0.3c0.1-0.1,0.3,0,0.4,0
		c0.1,0.1,0.2,0.2,0.3,0.3c0.1,0.1,0.1,0.3,0,0.4c-0.1,0.1-0.2,0.2-0.3,0.3c-0.1,0-0.3,0-0.4,0c-0.1-0.1-0.2-0.2-0.3-0.3
		C146.8,419.1,146.8,419,146.8,418.8z"/>
	<path d="M148.4,421.7c0.3,0,0.6,0,0.9,0.1c0.3,0.1,0.7,0.2,1,0.3c0.3,0.1,0.5,0.3,0.7,0.5c0.2,0.2,0.2,0.4,0.3,0.5
		c0,0.2,0,0.4,0,0.5s-0.1,0.3-0.2,0.5c-0.2,0.4-0.3,0.7-0.5,1c-0.2,0.3-0.3,0.7-0.5,1c-0.1,0.2-0.2,0.4-0.3,0.6
		c-0.1,0.2-0.1,0.4-0.2,0.6l-0.5-0.2l0.1-0.7l0,0c-0.1,0.1-0.2,0.1-0.3,0.2c-0.1,0-0.3,0.1-0.4,0.1c-0.1,0-0.3,0-0.5,0
		c-0.2,0-0.4-0.1-0.5-0.2c-0.2-0.1-0.4-0.2-0.5-0.3c-0.1-0.1-0.2-0.3-0.3-0.5c-0.1-0.2-0.1-0.3-0.1-0.5c0-0.2,0.1-0.4,0.1-0.6
		c0.1-0.3,0.3-0.5,0.5-0.6c0.2-0.1,0.4-0.2,0.7-0.2c0.2,0,0.5,0,0.8,0.1c0.3,0.1,0.6,0.2,0.9,0.4c0.1,0,0.2,0.1,0.2,0.1
		c0.1,0,0.2,0.1,0.2,0.1c0.1-0.2,0.2-0.3,0.3-0.5c0.2-0.3,0.2-0.6,0.1-0.8c-0.1-0.2-0.3-0.4-0.6-0.5c-0.1,0-0.2-0.1-0.3-0.1
		c-0.1,0-0.3-0.1-0.4-0.1c-0.1,0-0.3-0.1-0.4-0.1c-0.1,0-0.2,0-0.4,0L148.4,421.7z M148,425.9c0.2,0.1,0.3,0.1,0.5,0.1
		c0.2,0,0.3,0,0.4,0c0.1,0,0.2-0.1,0.3-0.1c0.1-0.1,0.2-0.1,0.3-0.2l0.4-0.8c-0.1,0-0.2-0.1-0.3-0.1c-0.1,0-0.2-0.1-0.3-0.1
		c-0.2-0.1-0.4-0.2-0.6-0.2c-0.2-0.1-0.4-0.1-0.5-0.1c-0.2,0-0.3,0-0.4,0.1c-0.1,0.1-0.2,0.2-0.3,0.3c-0.1,0.2-0.1,0.4,0,0.6
		C147.6,425.6,147.8,425.8,148,425.9z"/>
	<path d="M153.9,429.3l1.2-2.6c0.2-0.5,0.3-0.9,0.3-1.2c0-0.3-0.2-0.5-0.6-0.7c-0.3-0.1-0.6-0.2-0.9-0.1c-0.3,0.1-0.5,0.2-0.7,0.4
		l-1.4,3.1L151,428l2.1-4.5l0.5,0.2l-0.1,0.6l0,0c0.2-0.1,0.5-0.2,0.8-0.2s0.6,0.1,1,0.2c0.2,0.1,0.5,0.2,0.6,0.4
		c0.2,0.1,0.3,0.3,0.3,0.5c0.1,0.2,0.1,0.4,0,0.7c-0.1,0.3-0.2,0.6-0.3,1l-1.3,2.7L153.9,429.3z"/>
	<path d="M161.2,424.9l0.5,0.5l-6.8,5.9l-0.5-0.5L161.2,424.9z"/>
	<path d="M163.1,431.5l-2.3-1.1l-1.5,1.5l-0.8-0.4l5.4-5.3l0.3,0.2l-0.6,7.6l-0.8-0.4L163.1,431.5z M161.3,429.9l1.9,0.9l0.2-2.3
		l0.2-1.1l0,0l-0.7,0.9L161.3,429.9z"/>
	<path d="M165.8,433.5c-0.1,0.2-0.1,0.4-0.1,0.5c0,0.1,0.1,0.2,0.2,0.3c0.1,0,0.2,0.1,0.3,0.1c0.1,0,0.2,0.1,0.3,0.1l-0.2,0.6
		c-0.1,0-0.3,0-0.5-0.1c-0.2,0-0.3-0.1-0.5-0.2c-0.3-0.1-0.5-0.3-0.6-0.5c-0.1-0.2-0.1-0.5,0.1-0.9l2.5-5.4l0.7,0.3L165.8,433.5z"/>
	<path d="M169,431.3c0.3,0,0.6,0,0.9,0.1c0.3,0.1,0.7,0.2,1,0.3c0.3,0.1,0.5,0.3,0.7,0.5c0.2,0.2,0.2,0.4,0.3,0.5c0,0.2,0,0.4,0,0.5
		c0,0.2-0.1,0.3-0.2,0.5c-0.2,0.4-0.3,0.7-0.5,1s-0.3,0.7-0.5,1c-0.1,0.2-0.2,0.4-0.3,0.6c-0.1,0.2-0.1,0.4-0.2,0.6l-0.5-0.2
		l0.1-0.7l0,0c-0.1,0.1-0.2,0.1-0.3,0.2c-0.1,0-0.3,0.1-0.4,0.1s-0.3,0-0.5,0c-0.2,0-0.4-0.1-0.5-0.2s-0.4-0.2-0.5-0.3
		c-0.1-0.1-0.2-0.3-0.3-0.5c-0.1-0.2-0.1-0.3-0.1-0.5c0-0.2,0.1-0.4,0.1-0.6c0.1-0.3,0.3-0.5,0.5-0.6c0.2-0.1,0.4-0.2,0.7-0.2
		c0.2,0,0.5,0,0.8,0.1c0.3,0.1,0.6,0.2,0.9,0.4c0.1,0,0.2,0.1,0.2,0.1c0.1,0,0.2,0.1,0.2,0.1c0.1-0.2,0.2-0.3,0.3-0.5
		c0.2-0.3,0.2-0.6,0.1-0.8c-0.1-0.2-0.3-0.4-0.6-0.5c-0.1,0-0.2-0.1-0.3-0.1c-0.1,0-0.3-0.1-0.4-0.1c-0.1,0-0.3-0.1-0.4-0.1
		c-0.1,0-0.2,0-0.4,0L169,431.3z M168.6,435.5c0.2,0.1,0.3,0.1,0.5,0.1c0.2,0,0.3,0,0.4,0c0.1,0,0.2-0.1,0.3-0.1
		c0.1-0.1,0.2-0.1,0.3-0.2l0.4-0.8c-0.1,0-0.2-0.1-0.3-0.1c-0.1,0-0.2-0.1-0.3-0.1c-0.2-0.1-0.4-0.2-0.6-0.2
		c-0.2-0.1-0.4-0.1-0.5-0.1c-0.2,0-0.3,0-0.4,0.1c-0.1,0.1-0.2,0.2-0.3,0.3c-0.1,0.2-0.1,0.4,0,0.6
		C168.2,435.2,168.4,435.4,168.6,435.5z"/>
	<path d="M174.2,437.3c0.1-0.2,0.1-0.3,0-0.5c-0.1-0.2-0.2-0.3-0.3-0.4c-0.1-0.1-0.3-0.3-0.4-0.4c-0.2-0.2-0.3-0.3-0.4-0.5
		c-0.1-0.2-0.2-0.4-0.2-0.6c0-0.2,0-0.4,0.1-0.7c0.2-0.4,0.5-0.7,0.8-0.8c0.3-0.1,0.7,0,1.2,0.2c0.3,0.2,0.6,0.3,0.8,0.5
		c0.2,0.2,0.4,0.3,0.5,0.5l-0.5,0.5c-0.1-0.1-0.2-0.3-0.4-0.4c-0.2-0.1-0.4-0.3-0.6-0.4c-0.3-0.1-0.5-0.2-0.6-0.1
		c-0.2,0-0.3,0.2-0.4,0.4c-0.1,0.2-0.1,0.3,0,0.4c0.1,0.1,0.2,0.3,0.3,0.4c0.1,0.1,0.3,0.3,0.4,0.5c0.2,0.2,0.3,0.3,0.4,0.5
		c0.1,0.2,0.2,0.4,0.2,0.6c0,0.2,0,0.5-0.1,0.7c-0.1,0.2-0.2,0.4-0.3,0.5c-0.1,0.1-0.3,0.2-0.5,0.3c-0.2,0.1-0.4,0.1-0.6,0.1
		c-0.2,0-0.5-0.1-0.7-0.2c-0.3-0.2-0.6-0.3-0.8-0.5c-0.2-0.2-0.4-0.4-0.5-0.5l0.5-0.5c0.1,0.1,0.2,0.3,0.4,0.5
		c0.2,0.2,0.4,0.3,0.6,0.4c0.3,0.1,0.5,0.2,0.7,0.1C173.9,437.7,174.1,437.6,174.2,437.3z"/>
	<path d="M177.5,437.9l-0.4-0.2l-1,2l-0.7-0.3l3-6.3l0.7,0.3l-1.8,3.9l0.4,0l2.3-1.3l0.8,0.4l-2.2,1.2l-0.5,0.1l0.3,0.6l0.6,2.8
		l-0.9-0.4L177.5,437.9z"/>
	<path d="M181.6,437.2c0.3,0,0.6,0,0.9,0.1c0.3,0.1,0.7,0.2,1,0.3c0.3,0.1,0.5,0.3,0.7,0.5c0.2,0.2,0.2,0.4,0.3,0.5
		c0,0.2,0,0.4,0,0.5c0,0.2-0.1,0.3-0.2,0.5c-0.2,0.4-0.3,0.7-0.5,1s-0.3,0.7-0.5,1c-0.1,0.2-0.2,0.4-0.3,0.6
		c-0.1,0.2-0.1,0.4-0.2,0.6l-0.5-0.2l0.1-0.7l0,0c-0.1,0.1-0.2,0.1-0.3,0.2c-0.1,0-0.3,0.1-0.4,0.1c-0.1,0-0.3,0-0.5,0
		c-0.2,0-0.4-0.1-0.5-0.2c-0.2-0.1-0.4-0.2-0.5-0.3c-0.1-0.1-0.2-0.3-0.3-0.5c-0.1-0.2-0.1-0.3-0.1-0.5c0-0.2,0.1-0.4,0.1-0.6
		c0.1-0.3,0.3-0.5,0.5-0.6c0.2-0.1,0.4-0.2,0.7-0.2c0.2,0,0.5,0,0.8,0.1c0.3,0.1,0.6,0.2,0.9,0.4c0.1,0,0.2,0.1,0.2,0.1
		c0.1,0,0.2,0.1,0.2,0.1c0.1-0.2,0.2-0.3,0.3-0.5c0.2-0.3,0.2-0.6,0.1-0.8c-0.1-0.2-0.3-0.4-0.6-0.5c-0.1,0-0.2-0.1-0.3-0.1
		c-0.1,0-0.3-0.1-0.4-0.1c-0.1,0-0.3-0.1-0.4-0.1c-0.1,0-0.2,0-0.4,0L181.6,437.2z M181.2,441.4c0.2,0.1,0.3,0.1,0.5,0.1
		c0.2,0,0.3,0,0.4,0c0.1,0,0.2-0.1,0.3-0.1s0.2-0.1,0.3-0.2l0.4-0.8c-0.1,0-0.2-0.1-0.3-0.1c-0.1,0-0.2-0.1-0.3-0.1
		c-0.2-0.1-0.4-0.2-0.6-0.2c-0.2-0.1-0.4-0.1-0.5-0.1c-0.2,0-0.3,0-0.4,0.1c-0.1,0.1-0.2,0.2-0.3,0.3c-0.1,0.2-0.1,0.4,0,0.6
		C180.8,441.1,181,441.3,181.2,441.4z"/>
	<path d="M187.2,444.9l1.2-2.6c0.2-0.5,0.3-0.9,0.3-1.2c0-0.3-0.2-0.5-0.6-0.7c-0.3-0.1-0.6-0.2-0.9-0.1c-0.3,0.1-0.5,0.2-0.7,0.4
		l-1.4,3.1l-0.7-0.3l2.1-4.5l0.5,0.2l-0.1,0.6l0,0c0.2-0.1,0.5-0.2,0.8-0.2c0.3,0,0.6,0.1,1,0.2c0.2,0.1,0.5,0.2,0.6,0.4
		s0.3,0.3,0.3,0.5c0.1,0.2,0.1,0.4,0,0.7c-0.1,0.3-0.2,0.6-0.3,1l-1.3,2.7L187.2,444.9z"/>
	<path d="M194.8,443.4l-0.1-1.1l0,0l-0.3,1l-1.9,4.1l-0.7-0.3l3-6.4l0.4,0.2l1.1,5.6l0.1,1.1l0,0l0.3-0.9l1.9-4.1l0.7,0.3l-3,6.4
		l-0.4-0.2L194.8,443.4z"/>
	<path d="M199.6,445.6c0.3,0,0.6,0,0.9,0.1c0.3,0.1,0.7,0.2,1,0.3c0.3,0.1,0.5,0.3,0.7,0.5c0.2,0.2,0.2,0.4,0.3,0.5
		c0,0.2,0,0.4,0,0.5c0,0.2-0.1,0.3-0.2,0.5c-0.2,0.4-0.3,0.7-0.5,1c-0.2,0.3-0.3,0.7-0.5,1c-0.1,0.2-0.2,0.4-0.3,0.6
		c-0.1,0.2-0.1,0.4-0.2,0.6l-0.5-0.2l0.1-0.7l0,0c-0.1,0.1-0.2,0.1-0.3,0.2c-0.1,0-0.3,0.1-0.4,0.1s-0.3,0-0.5,0
		c-0.2,0-0.4-0.1-0.5-0.2c-0.2-0.1-0.4-0.2-0.5-0.3c-0.1-0.1-0.2-0.3-0.3-0.5c-0.1-0.2-0.1-0.3-0.1-0.5c0-0.2,0.1-0.4,0.1-0.6
		c0.1-0.3,0.3-0.5,0.5-0.6c0.2-0.1,0.4-0.2,0.7-0.2c0.2,0,0.5,0,0.8,0.1c0.3,0.1,0.6,0.2,0.9,0.4c0.1,0,0.2,0.1,0.2,0.1
		c0.1,0,0.2,0.1,0.2,0.1c0.1-0.2,0.2-0.3,0.3-0.5c0.2-0.3,0.2-0.6,0.1-0.8c-0.1-0.2-0.3-0.4-0.6-0.5c-0.1,0-0.2-0.1-0.3-0.1
		c-0.1,0-0.3-0.1-0.4-0.1c-0.1,0-0.3-0.1-0.4-0.1c-0.1,0-0.2,0-0.4,0L199.6,445.6z M199.2,449.8c0.2,0.1,0.3,0.1,0.5,0.1
		c0.2,0,0.3,0,0.4,0c0.1,0,0.2-0.1,0.3-0.1c0.1-0.1,0.2-0.1,0.3-0.2l0.4-0.8c-0.1,0-0.2-0.1-0.3-0.1c-0.1,0-0.2-0.1-0.3-0.1
		c-0.2-0.1-0.4-0.2-0.6-0.2c-0.2-0.1-0.4-0.1-0.5-0.1c-0.2,0-0.3,0-0.4,0.1s-0.2,0.2-0.3,0.3c-0.1,0.2-0.1,0.4,0,0.6
		C198.8,449.5,199,449.7,199.2,449.8z"/>
	<path d="M203.7,447.1l0.7,0.3l0.4-0.9l0.8,0.1l-0.5,1.1l1.2,0.6l-0.3,0.6l-1.2-0.6l-1.2,2.5c-0.1,0.3-0.2,0.6-0.2,0.7
		c0,0.2,0.1,0.3,0.3,0.4c0.2,0.1,0.3,0.1,0.4,0.1c0.1,0,0.3,0,0.4,0l-0.1,0.6c-0.2,0-0.4,0-0.6-0.1c-0.2,0-0.4-0.1-0.7-0.2
		c-0.4-0.2-0.6-0.4-0.6-0.7c-0.1-0.3,0-0.7,0.3-1.2l1.2-2.6l-0.7-0.3L203.7,447.1z"/>
	<path d="M207.6,448.9l0.7,0.3l-2.1,4.5l-0.7-0.3L207.6,448.9z M208.1,447.4c0.1-0.1,0.2-0.2,0.3-0.3c0.1-0.1,0.3,0,0.4,0
		c0.1,0.1,0.2,0.2,0.3,0.3c0.1,0.1,0.1,0.3,0,0.4s-0.2,0.2-0.3,0.3c-0.1,0-0.3,0-0.4,0c-0.1-0.1-0.2-0.2-0.3-0.3
		C208,447.7,208,447.6,208.1,447.4z"/>
	<path d="M209.9,453.2l-0.1,1l0,0l0.6-0.8l2.2-2.2l0.8,0.4l-4.1,3.7l-0.3-0.1l0.2-5.5l0.8,0.4L209.9,453.2z"/>
	<path d="M215.5,457.6c-0.2,0.1-0.5,0.1-0.8,0c-0.3,0-0.6-0.1-0.9-0.3c-0.3-0.2-0.6-0.4-0.8-0.6c-0.2-0.2-0.3-0.5-0.4-0.8
		c-0.1-0.3-0.1-0.6,0-0.9c0.1-0.3,0.2-0.7,0.3-1c0.4-0.8,0.8-1.3,1.3-1.5c0.5-0.2,1.1-0.2,1.8,0.1c0.2,0.1,0.4,0.2,0.6,0.4
		c0.2,0.1,0.3,0.3,0.4,0.5c0.1,0.2,0.2,0.4,0.1,0.7c0,0.3-0.1,0.6-0.3,1c-0.1,0.2-0.2,0.4-0.4,0.6l-2.9-1.4
		c-0.1,0.3-0.2,0.5-0.2,0.7c0,0.2,0,0.4,0,0.6c0,0.2,0.1,0.4,0.3,0.5c0.1,0.2,0.4,0.3,0.6,0.4c0.2,0.1,0.4,0.2,0.7,0.2s0.4,0,0.6,0
		L215.5,457.6z M215.6,453.3c-0.4-0.2-0.7-0.2-1-0.1c-0.3,0.1-0.6,0.3-0.8,0.8l2.2,1c0.2-0.5,0.3-0.8,0.2-1.1
		C216.1,453.6,215.9,453.4,215.6,453.3z"/>
</g>
<g>
	<path d="M175.6,397.3l-0.1-1.1l0,0l-0.3,1l-1.9,4.1l-0.7-0.3l3-6.4l0.4,0.2l1.1,5.6l0.1,1.1l0,0l0.3-0.9l1.9-4.1l0.7,0.3l-3,6.4
		l-0.4-0.2L175.6,397.3z"/>
	<path d="M179.4,401.3c0.4-0.8,0.8-1.3,1.3-1.5c0.5-0.2,1.1-0.2,1.8,0.1c0.3,0.2,0.6,0.4,0.8,0.6c0.2,0.2,0.3,0.5,0.4,0.8
		c0.1,0.3,0.1,0.6,0,0.9c-0.1,0.3-0.2,0.7-0.3,1c-0.4,0.8-0.8,1.3-1.3,1.5c-0.5,0.2-1.1,0.2-1.8-0.1c-0.3-0.2-0.6-0.4-0.8-0.6
		c-0.2-0.2-0.3-0.5-0.4-0.8c-0.1-0.3-0.1-0.6,0-0.9C179.1,402,179.2,401.7,179.4,401.3z M180.1,401.7c-0.1,0.2-0.2,0.5-0.2,0.7
		c-0.1,0.2-0.1,0.5,0,0.7c0,0.2,0.1,0.4,0.2,0.6c0.1,0.2,0.3,0.3,0.5,0.4c0.8,0.4,1.5,0,2-1.2c0.1-0.2,0.2-0.5,0.2-0.7
		c0.1-0.2,0.1-0.5,0-0.7c0-0.2-0.1-0.4-0.2-0.6c-0.1-0.2-0.3-0.3-0.5-0.4C181.3,400.1,180.7,400.5,180.1,401.7z"/>
	<path d="M186.3,407.3l1.2-2.6c0.2-0.5,0.3-0.9,0.3-1.2s-0.2-0.5-0.6-0.7c-0.3-0.1-0.6-0.2-0.9-0.1c-0.3,0.1-0.5,0.2-0.7,0.4
		l-1.4,3.1l-0.7-0.3l2.1-4.5l0.5,0.2l-0.1,0.6l0,0c0.2-0.1,0.5-0.2,0.8-0.2c0.3,0,0.6,0.1,1,0.2c0.2,0.1,0.5,0.2,0.6,0.4
		c0.2,0.1,0.3,0.3,0.3,0.5c0.1,0.2,0.1,0.4,0,0.7c-0.1,0.3-0.2,0.6-0.3,1l-1.3,2.7L186.3,407.3z"/>
	<path d="M189.6,404.7l3.8,1.8l-0.3,0.7l-3.8-1.8L189.6,404.7z"/>
	<path d="M198.2,409.3l-3-1.4l-1.4,2.9l-0.8-0.4l3-6.3l0.8,0.4l-1.3,2.8l3,1.4l1.3-2.8l0.8,0.4l-3,6.3l-0.8-0.4L198.2,409.3z"/>
	<path d="M201.3,408.8l0.7,0.3l-2.1,4.5l-0.7-0.3L201.3,408.8z M201.8,407.4c0.1-0.1,0.2-0.2,0.3-0.3c0.1-0.1,0.3,0,0.4,0
		c0.1,0.1,0.2,0.2,0.3,0.3c0.1,0.1,0.1,0.3,0,0.4s-0.2,0.2-0.3,0.3c-0.1,0-0.3,0-0.4,0c-0.1-0.1-0.2-0.2-0.3-0.3
		C201.7,407.6,201.7,407.5,201.8,407.4z"/>
	<path d="M204,414.1c0.1-0.2,0.1-0.3,0-0.5c-0.1-0.2-0.2-0.3-0.3-0.4s-0.3-0.3-0.4-0.4c-0.2-0.2-0.3-0.3-0.4-0.5
		c-0.1-0.2-0.2-0.4-0.2-0.6c0-0.2,0-0.4,0.1-0.7c0.2-0.4,0.5-0.7,0.8-0.8c0.3-0.1,0.7,0,1.2,0.2c0.3,0.2,0.6,0.3,0.8,0.5
		c0.2,0.2,0.4,0.3,0.5,0.5l-0.5,0.5c-0.1-0.1-0.2-0.3-0.4-0.4c-0.2-0.1-0.4-0.3-0.6-0.4c-0.3-0.1-0.5-0.2-0.6-0.1
		c-0.2,0-0.3,0.2-0.4,0.4c-0.1,0.2-0.1,0.3,0,0.4c0.1,0.1,0.2,0.3,0.3,0.4c0.1,0.1,0.3,0.3,0.4,0.5c0.2,0.2,0.3,0.3,0.4,0.5
		c0.1,0.2,0.2,0.4,0.2,0.6c0,0.2,0,0.5-0.1,0.7c-0.1,0.2-0.2,0.4-0.3,0.5c-0.1,0.1-0.3,0.2-0.5,0.3s-0.4,0.1-0.6,0.1
		c-0.2,0-0.5-0.1-0.7-0.2c-0.3-0.2-0.6-0.3-0.8-0.5c-0.2-0.2-0.4-0.4-0.5-0.5l0.5-0.5c0.1,0.1,0.2,0.3,0.4,0.5
		c0.2,0.2,0.4,0.3,0.6,0.4c0.3,0.1,0.5,0.2,0.7,0.1C203.7,414.5,203.9,414.4,204,414.1z"/>
	<path d="M207.4,411.6l0.5,0.2l-0.1,0.6l0,0c0.2-0.1,0.5-0.2,0.8-0.2c0.3,0,0.5,0.1,0.8,0.2c0.6,0.3,1,0.7,1.1,1.2
		c0.1,0.5,0,1.1-0.4,2c-0.2,0.4-0.4,0.7-0.6,1s-0.5,0.5-0.8,0.6c-0.3,0.1-0.6,0.2-0.9,0.2c-0.3,0-0.6-0.1-0.9-0.2
		c-0.2-0.1-0.4-0.2-0.5-0.3c-0.1-0.1-0.2-0.2-0.4-0.3l-0.9,1.9l-0.7-0.3L207.4,411.6z M209,413c-0.3-0.1-0.6-0.2-0.8-0.1
		c-0.3,0.1-0.5,0.3-0.7,0.6l-1,2.2c0.1,0.1,0.2,0.3,0.3,0.4c0.1,0.1,0.3,0.2,0.5,0.3c0.4,0.2,0.8,0.2,1.2,0c0.4-0.2,0.7-0.6,1-1.2
		c0.1-0.2,0.2-0.5,0.3-0.7c0.1-0.2,0.1-0.4,0-0.6s-0.1-0.4-0.2-0.5C209.4,413.3,209.2,413.1,209,413z"/>
	<path d="M212.1,414.2c0.3,0,0.6,0,0.9,0.1c0.3,0.1,0.7,0.2,1,0.3c0.3,0.1,0.5,0.3,0.7,0.5c0.2,0.2,0.2,0.4,0.3,0.5
		c0,0.2,0,0.4,0,0.5s-0.1,0.3-0.2,0.5c-0.2,0.4-0.3,0.7-0.5,1c-0.2,0.3-0.3,0.7-0.5,1c-0.1,0.2-0.2,0.4-0.3,0.6
		c-0.1,0.2-0.1,0.4-0.2,0.6l-0.5-0.2l0.1-0.7l0,0c-0.1,0.1-0.2,0.1-0.3,0.2c-0.1,0-0.3,0.1-0.4,0.1c-0.1,0-0.3,0-0.5,0
		c-0.2,0-0.4-0.1-0.5-0.2c-0.2-0.1-0.4-0.2-0.5-0.3c-0.1-0.1-0.2-0.3-0.3-0.5c-0.1-0.2-0.1-0.3-0.1-0.5c0-0.2,0.1-0.4,0.1-0.6
		c0.1-0.3,0.3-0.5,0.5-0.6c0.2-0.1,0.4-0.2,0.7-0.2c0.2,0,0.5,0,0.8,0.1s0.6,0.2,0.9,0.4c0.1,0,0.2,0.1,0.2,0.1s0.2,0.1,0.2,0.1
		c0.1-0.2,0.2-0.3,0.3-0.5c0.2-0.3,0.2-0.6,0.1-0.8c-0.1-0.2-0.3-0.4-0.6-0.5c-0.1,0-0.2-0.1-0.3-0.1c-0.1,0-0.3-0.1-0.4-0.1
		c-0.1,0-0.3-0.1-0.4-0.1c-0.1,0-0.2,0-0.4,0L212.1,414.2z M211.7,418.5c0.2,0.1,0.3,0.1,0.5,0.1c0.2,0,0.3,0,0.4,0
		c0.1,0,0.2-0.1,0.3-0.1c0.1-0.1,0.2-0.1,0.3-0.2l0.4-0.8c-0.1,0-0.2-0.1-0.3-0.1c-0.1,0-0.2-0.1-0.3-0.1c-0.2-0.1-0.4-0.2-0.6-0.2
		c-0.2-0.1-0.4-0.1-0.5-0.1c-0.2,0-0.3,0-0.4,0.1c-0.1,0.1-0.2,0.2-0.3,0.3c-0.1,0.2-0.1,0.4,0,0.6
		C211.3,418.2,211.4,418.4,211.7,418.5z"/>
	<path d="M217.6,421.9l1.2-2.6c0.2-0.5,0.3-0.9,0.3-1.2c0-0.3-0.2-0.5-0.6-0.7c-0.3-0.1-0.6-0.2-0.9-0.1c-0.3,0.1-0.5,0.2-0.7,0.4
		l-1.4,3.1l-0.7-0.3l2.1-4.5l0.5,0.2l-0.1,0.6l0,0c0.2-0.1,0.5-0.2,0.8-0.2c0.3,0,0.6,0.1,1,0.2c0.2,0.1,0.5,0.2,0.6,0.4
		c0.2,0.1,0.3,0.3,0.3,0.5c0.1,0.2,0.1,0.4,0,0.7c-0.1,0.3-0.2,0.6-0.3,1l-1.3,2.7L217.6,421.9z"/>
	<path d="M221.9,418.4l0.7,0.3l-2.1,4.5l-0.7-0.3L221.9,418.4z M222.4,417c0.1-0.1,0.2-0.2,0.3-0.3c0.1-0.1,0.3,0,0.4,0
		c0.1,0.1,0.2,0.2,0.3,0.3c0.1,0.1,0.1,0.3,0,0.4c-0.1,0.1-0.2,0.2-0.3,0.3c-0.1,0-0.3,0-0.4,0c-0.1-0.1-0.2-0.2-0.3-0.3
		C222.3,417.2,222.3,417.1,222.4,417z"/>
	<path d="M225.3,425.2c-0.2,0-0.5,0.1-0.8,0c-0.3,0-0.6-0.1-0.8-0.3c-0.4-0.2-0.6-0.4-0.8-0.6c-0.2-0.2-0.3-0.5-0.4-0.8
		c-0.1-0.3-0.1-0.6,0-0.9c0.1-0.3,0.2-0.7,0.4-1c0.4-0.8,0.8-1.3,1.3-1.5s1.1-0.2,1.7,0.1c0.3,0.1,0.5,0.3,0.7,0.4
		c0.2,0.1,0.3,0.3,0.5,0.5l-0.5,0.5c-0.1-0.1-0.2-0.3-0.4-0.4c-0.1-0.1-0.3-0.2-0.5-0.3c-0.9-0.4-1.6,0-2.1,1.1
		c-0.1,0.2-0.2,0.5-0.2,0.7c-0.1,0.2-0.1,0.4,0,0.7c0,0.2,0.1,0.4,0.2,0.6c0.1,0.2,0.3,0.3,0.6,0.4c0.2,0.1,0.4,0.2,0.6,0.2
		c0.2,0,0.4,0,0.5,0L225.3,425.2z"/>
	<path d="M234.7,424c-0.1,0.2-0.2,0.3-0.3,0.4c-0.1,0.1-0.3,0.2-0.4,0.3c-0.2,0.1-0.3,0.2-0.5,0.2c-0.2,0-0.4,0-0.6,0l0,0
		c0.2,0.1,0.3,0.2,0.4,0.4s0.2,0.3,0.3,0.5c0.1,0.2,0.1,0.4,0.1,0.6s-0.1,0.5-0.2,0.7c-0.2,0.3-0.4,0.6-0.6,0.8
		c-0.2,0.2-0.5,0.3-0.8,0.3c-0.3,0-0.6,0-0.9,0c-0.3-0.1-0.6-0.2-0.9-0.3c-0.1,0-0.2-0.1-0.4-0.2c-0.1-0.1-0.3-0.1-0.4-0.2
		c-0.1-0.1-0.3-0.2-0.4-0.2c-0.1-0.1-0.3-0.2-0.4-0.3l2.9-6.2c0.2,0.1,0.5,0.2,0.8,0.3c0.3,0.1,0.6,0.3,1,0.4
		c0.2,0.1,0.5,0.2,0.7,0.4c0.2,0.2,0.4,0.3,0.6,0.5c0.1,0.2,0.2,0.4,0.3,0.7C234.9,423.4,234.9,423.7,234.7,424z M230.6,427.3
		c0.2,0.1,0.4,0.2,0.6,0.2c0.2,0,0.4,0,0.6,0c0.2,0,0.4-0.1,0.5-0.2c0.1-0.1,0.3-0.3,0.4-0.5c0.1-0.2,0.2-0.5,0.1-0.7
		s-0.1-0.4-0.2-0.5c-0.1-0.2-0.3-0.3-0.5-0.4c-0.2-0.1-0.4-0.2-0.6-0.3l-0.8-0.4l-1.1,2.3c0,0,0.1,0.1,0.2,0.1
		c0.1,0,0.2,0.1,0.2,0.1s0.2,0.1,0.3,0.1C230.5,427.2,230.5,427.3,230.6,427.3z M231.5,424.1c0.1,0,0.2,0.1,0.4,0.2
		c0.1,0.1,0.3,0.1,0.4,0.1c0.2,0,0.3,0,0.5,0c0.2,0,0.3,0,0.5-0.1c0.1,0,0.3-0.1,0.4-0.2c0.1-0.1,0.2-0.2,0.3-0.4
		c0.1-0.2,0.1-0.4,0.1-0.5s-0.1-0.3-0.2-0.5s-0.2-0.3-0.4-0.4c-0.1-0.1-0.3-0.2-0.5-0.3c-0.2-0.1-0.4-0.2-0.6-0.2
		c-0.2-0.1-0.3-0.1-0.4-0.1l-1,2.2L231.5,424.1z"/>
	<path d="M235.2,428.8c-0.1,0.2-0.1,0.4-0.1,0.5c0,0.1,0.1,0.2,0.2,0.3c0.1,0,0.2,0.1,0.3,0.1s0.2,0.1,0.3,0.1l-0.2,0.6
		c-0.1,0-0.3,0-0.5-0.1c-0.2-0.1-0.3-0.1-0.5-0.2c-0.3-0.1-0.5-0.3-0.6-0.5c-0.1-0.2-0.1-0.5,0.1-0.9l2.5-5.4l0.7,0.3L235.2,428.8z"
		/>
	<path d="M238.4,426.5c0.3,0,0.6,0,0.9,0.1c0.3,0.1,0.7,0.2,1,0.3c0.3,0.1,0.5,0.3,0.7,0.5c0.2,0.2,0.2,0.4,0.3,0.5
		c0,0.2,0,0.4,0,0.5c0,0.2-0.1,0.3-0.2,0.5c-0.2,0.4-0.3,0.7-0.5,1s-0.3,0.7-0.5,1c-0.1,0.2-0.2,0.4-0.3,0.6
		c-0.1,0.2-0.1,0.4-0.2,0.6l-0.5-0.2l0.1-0.7l0,0c-0.1,0.1-0.2,0.1-0.3,0.2c-0.1,0-0.3,0.1-0.4,0.1c-0.1,0-0.3,0-0.5,0
		c-0.2,0-0.4-0.1-0.5-0.2c-0.2-0.1-0.4-0.2-0.5-0.3c-0.1-0.1-0.2-0.3-0.3-0.5c-0.1-0.2-0.1-0.3-0.1-0.5c0-0.2,0.1-0.4,0.1-0.6
		c0.1-0.3,0.3-0.5,0.5-0.6c0.2-0.1,0.4-0.2,0.7-0.2c0.2,0,0.5,0,0.8,0.1c0.3,0.1,0.6,0.2,0.9,0.4c0.1,0,0.2,0.1,0.2,0.1
		c0.1,0,0.2,0.1,0.2,0.1c0.1-0.2,0.2-0.3,0.3-0.5c0.2-0.3,0.2-0.6,0.1-0.8c-0.1-0.2-0.3-0.4-0.6-0.5c-0.1,0-0.2-0.1-0.3-0.1
		c-0.1,0-0.3-0.1-0.4-0.1c-0.1,0-0.3-0.1-0.4-0.1c-0.1,0-0.2,0-0.4,0L238.4,426.5z M238,430.8c0.2,0.1,0.3,0.1,0.5,0.1
		c0.2,0,0.3,0,0.4,0c0.1,0,0.2-0.1,0.3-0.1c0.1-0.1,0.2-0.1,0.3-0.2l0.4-0.8c-0.1,0-0.2-0.1-0.3-0.1c-0.1,0-0.2-0.1-0.3-0.1
		c-0.2-0.1-0.4-0.2-0.6-0.2c-0.2-0.1-0.4-0.1-0.5-0.1c-0.2,0-0.3,0-0.4,0.1s-0.2,0.2-0.3,0.3c-0.1,0.2-0.1,0.4,0,0.6
		C237.6,430.5,237.7,430.6,238,430.8z"/>
	<path d="M244.2,434c-0.2,0-0.5,0-0.8,0c-0.3,0-0.6-0.1-0.8-0.3c-0.3-0.2-0.6-0.4-0.8-0.6c-0.2-0.2-0.3-0.5-0.4-0.8
		c-0.1-0.3-0.1-0.6,0-0.9s0.2-0.7,0.4-1c0.4-0.8,0.8-1.3,1.3-1.5s1.1-0.2,1.7,0.1c0.3,0.1,0.5,0.3,0.7,0.4c0.2,0.1,0.3,0.3,0.5,0.5
		l-0.5,0.5c-0.1-0.1-0.2-0.3-0.4-0.4c-0.1-0.1-0.3-0.2-0.5-0.3c-0.9-0.4-1.6,0-2.1,1.1c-0.1,0.2-0.2,0.5-0.2,0.7
		c-0.1,0.2-0.1,0.4,0,0.7c0,0.2,0.1,0.4,0.2,0.6c0.1,0.2,0.3,0.3,0.6,0.4c0.2,0.1,0.4,0.2,0.6,0.2c0.2,0,0.4,0,0.5,0L244.2,434z"/>
	<path d="M247.2,433.3l-0.4-0.2l-1,2l-0.7-0.3l3-6.3l0.7,0.3l-1.8,3.9l0.4,0l2.3-1.3l0.8,0.4l-2.2,1.2l-0.5,0.1l0.3,0.6l0.6,2.8
		l-0.9-0.4L247.2,433.3z"/>
</g>
<g>
	<path d="M257.2,399.8l-3-1.4l-1.4,2.9l-0.8-0.3l3-6.3l0.8,0.3l-1.3,2.8l3,1.4l1.3-2.8l0.8,0.4l-3,6.3l-0.8-0.4L257.2,399.8z"/>
	<path d="M260.4,399.2l0.7,0.3l-2.1,4.5l-0.7-0.3L260.4,399.2z M260.9,397.8c0.1-0.1,0.2-0.2,0.3-0.3c0.1-0.1,0.3,0,0.4,0
		c0.1,0.1,0.2,0.2,0.3,0.3c0.1,0.1,0.1,0.3,0,0.4c-0.1,0.1-0.2,0.2-0.3,0.3c-0.1,0-0.3,0-0.4,0c-0.1-0.1-0.2-0.2-0.3-0.3
		C260.8,398.1,260.8,397.9,260.9,397.8z"/>
	<path d="M263.1,404.5c0.1-0.2,0.1-0.3,0-0.5c-0.1-0.2-0.2-0.3-0.3-0.4s-0.3-0.3-0.4-0.4c-0.2-0.2-0.3-0.3-0.4-0.5
		c-0.1-0.2-0.2-0.4-0.2-0.6c0-0.2,0-0.4,0.1-0.7c0.2-0.4,0.5-0.7,0.8-0.8c0.3-0.1,0.7,0,1.2,0.2c0.3,0.2,0.6,0.3,0.8,0.5
		s0.4,0.3,0.5,0.5l-0.5,0.5c-0.1-0.1-0.2-0.3-0.4-0.4c-0.2-0.1-0.4-0.3-0.6-0.4c-0.3-0.1-0.5-0.2-0.6-0.1c-0.2,0-0.3,0.2-0.4,0.4
		c-0.1,0.2-0.1,0.3,0,0.4s0.2,0.3,0.3,0.4s0.3,0.3,0.4,0.4c0.2,0.2,0.3,0.3,0.4,0.5s0.2,0.4,0.2,0.6c0,0.2,0,0.5-0.1,0.7
		c-0.1,0.2-0.2,0.4-0.3,0.5c-0.1,0.1-0.3,0.2-0.5,0.3c-0.2,0.1-0.4,0.1-0.6,0.1c-0.2,0-0.5-0.1-0.7-0.2c-0.3-0.2-0.6-0.3-0.8-0.5
		c-0.2-0.2-0.4-0.4-0.5-0.5l0.5-0.5c0.1,0.1,0.2,0.3,0.4,0.5c0.2,0.2,0.4,0.3,0.6,0.4c0.3,0.1,0.5,0.2,0.7,0.1
		C262.8,404.9,263,404.8,263.1,404.5z"/>
	<path d="M266.5,402.1l0.5,0.2l-0.1,0.6l0,0c0.2-0.1,0.5-0.2,0.8-0.2s0.6,0.1,0.8,0.2c0.6,0.3,1,0.7,1.1,1.2c0.1,0.5,0,1.1-0.4,2
		c-0.2,0.4-0.4,0.7-0.6,1c-0.2,0.3-0.5,0.5-0.8,0.6c-0.3,0.1-0.6,0.2-0.9,0.2c-0.3,0-0.6-0.1-0.9-0.2c-0.2-0.1-0.4-0.2-0.5-0.3
		s-0.2-0.2-0.4-0.3l-0.9,1.9l-0.7-0.3L266.5,402.1z M268,403.5c-0.3-0.1-0.6-0.2-0.8-0.1c-0.3,0.1-0.5,0.3-0.7,0.6l-1,2.2
		c0.1,0.1,0.2,0.3,0.3,0.4c0.1,0.1,0.3,0.2,0.5,0.3c0.4,0.2,0.8,0.2,1.2,0c0.4-0.2,0.7-0.6,1-1.2c0.1-0.2,0.2-0.5,0.3-0.7
		c0.1-0.2,0.1-0.4,0-0.6c0-0.2-0.1-0.4-0.2-0.5C268.4,403.7,268.3,403.6,268,403.5z"/>
	<path d="M271.1,404.7c0.3,0,0.6,0,0.9,0.1c0.3,0.1,0.7,0.2,1,0.3c0.3,0.1,0.5,0.3,0.7,0.5c0.2,0.2,0.2,0.3,0.3,0.5
		c0,0.2,0,0.4,0,0.5c0,0.2-0.1,0.3-0.2,0.5c-0.2,0.4-0.3,0.7-0.5,1s-0.3,0.7-0.5,1c-0.1,0.2-0.2,0.4-0.3,0.6
		c-0.1,0.2-0.1,0.4-0.2,0.6l-0.5-0.2l0.1-0.7l0,0c-0.1,0.1-0.2,0.1-0.3,0.2s-0.3,0.1-0.4,0.1c-0.1,0-0.3,0-0.5,0
		c-0.2,0-0.4-0.1-0.5-0.2s-0.4-0.2-0.5-0.3c-0.1-0.1-0.2-0.3-0.3-0.5c-0.1-0.2-0.1-0.3-0.1-0.5c0-0.2,0.1-0.4,0.1-0.6
		c0.1-0.3,0.3-0.5,0.5-0.6c0.2-0.1,0.4-0.2,0.7-0.2c0.2,0,0.5,0,0.8,0.1s0.6,0.2,0.9,0.4c0.1,0,0.2,0.1,0.2,0.1
		c0.1,0,0.2,0.1,0.2,0.1c0.1-0.2,0.2-0.3,0.3-0.5c0.2-0.3,0.2-0.6,0.1-0.8c-0.1-0.2-0.3-0.4-0.6-0.5c-0.1,0-0.2-0.1-0.3-0.1
		s-0.3-0.1-0.4-0.1c-0.1,0-0.3-0.1-0.4-0.1c-0.1,0-0.2,0-0.4,0L271.1,404.7z M270.7,408.9c0.2,0.1,0.3,0.1,0.5,0.1
		c0.2,0,0.3,0,0.4,0c0.1,0,0.2-0.1,0.3-0.1s0.2-0.1,0.3-0.2l0.4-0.8c-0.1,0-0.2-0.1-0.3-0.1c-0.1,0-0.2-0.1-0.3-0.1
		c-0.2-0.1-0.4-0.2-0.6-0.2c-0.2-0.1-0.4-0.1-0.5-0.1c-0.2,0-0.3,0-0.4,0.1s-0.2,0.2-0.3,0.3c-0.1,0.2-0.1,0.4,0,0.6
		C270.3,408.6,270.5,408.8,270.7,408.9z"/>
	<path d="M276.7,412.4l1.2-2.6c0.2-0.5,0.3-0.9,0.3-1.2c0-0.3-0.2-0.5-0.6-0.7c-0.3-0.2-0.6-0.2-0.9-0.1c-0.3,0.1-0.5,0.2-0.7,0.4
		l-1.4,3.1l-0.7-0.3l2.1-4.5l0.5,0.2l-0.1,0.6l0,0c0.2-0.1,0.5-0.2,0.8-0.2s0.6,0.1,1,0.2c0.2,0.1,0.5,0.2,0.6,0.4
		c0.2,0.1,0.3,0.3,0.3,0.5c0.1,0.2,0.1,0.4,0,0.7c-0.1,0.3-0.2,0.6-0.3,1l-1.3,2.7L276.7,412.4z"/>
	<path d="M281,408.9l0.7,0.3l-2.1,4.5l-0.7-0.3L281,408.9z M281.5,407.4c0.1-0.1,0.2-0.2,0.3-0.3c0.1-0.1,0.3,0,0.4,0
		c0.1,0.1,0.2,0.2,0.3,0.3c0.1,0.1,0.1,0.3,0,0.4c-0.1,0.1-0.2,0.2-0.3,0.3s-0.3,0-0.4,0s-0.2-0.2-0.3-0.3
		C281.4,407.7,281.4,407.5,281.5,407.4z"/>
	<path d="M284.4,415.6c-0.2,0-0.5,0.1-0.8,0c-0.3,0-0.6-0.1-0.8-0.3c-0.4-0.2-0.6-0.4-0.8-0.6c-0.2-0.2-0.3-0.5-0.4-0.8
		c-0.1-0.3-0.1-0.6,0-0.9c0.1-0.3,0.2-0.7,0.4-1c0.4-0.8,0.8-1.3,1.3-1.5c0.5-0.2,1.1-0.2,1.7,0.1c0.3,0.1,0.5,0.3,0.7,0.4
		c0.2,0.1,0.3,0.3,0.5,0.4l-0.5,0.5c-0.1-0.1-0.2-0.3-0.4-0.4c-0.1-0.1-0.3-0.2-0.5-0.3c-0.9-0.4-1.6,0-2.1,1.1
		c-0.1,0.2-0.2,0.5-0.2,0.7c-0.1,0.2-0.1,0.4,0,0.7c0,0.2,0.1,0.4,0.2,0.6c0.1,0.2,0.3,0.3,0.6,0.4c0.2,0.1,0.4,0.2,0.6,0.2
		s0.4,0,0.5,0L284.4,415.6z"/>
	<path d="M288.4,415.1c0.4-0.8,0.8-1.3,1.3-1.5c0.5-0.2,1.1-0.2,1.8,0.1c0.3,0.2,0.6,0.4,0.8,0.6c0.2,0.2,0.3,0.5,0.4,0.8
		c0.1,0.3,0.1,0.6,0,0.9c-0.1,0.3-0.2,0.7-0.3,1c-0.4,0.8-0.8,1.3-1.3,1.5c-0.5,0.2-1.1,0.2-1.8-0.1c-0.3-0.2-0.6-0.4-0.8-0.6
		s-0.3-0.5-0.4-0.8c-0.1-0.3-0.1-0.6,0-0.9C288.2,415.8,288.3,415.5,288.4,415.1z M289.2,415.5c-0.1,0.2-0.2,0.5-0.2,0.7
		c-0.1,0.2-0.1,0.5,0,0.7c0,0.2,0.1,0.4,0.2,0.6c0.1,0.2,0.3,0.3,0.5,0.4c0.8,0.4,1.5,0,2-1.2c0.1-0.2,0.2-0.5,0.2-0.7
		c0.1-0.2,0.1-0.4,0-0.7c0-0.2-0.1-0.4-0.2-0.6c-0.1-0.2-0.3-0.3-0.5-0.4C290.4,413.9,289.7,414.3,289.2,415.5z"/>
	<path d="M296.4,416.9c-0.2-0.1-0.3-0.3-0.5-0.3c-0.3-0.1-0.5-0.1-0.7-0.1c-0.2,0.1-0.4,0.2-0.5,0.4l-1.5,3.2l-0.7-0.3l2.1-4.5
		l0.5,0.2l-0.1,0.6l0,0c0.2-0.2,0.4-0.2,0.6-0.3c0.2,0,0.4,0,0.7,0.1c0.2,0.1,0.4,0.2,0.5,0.4L296.4,416.9z"/>
	<path d="M301.8,424.1l-3.8-1.8l3-6.3l0.8,0.3l-2.6,5.7l3,1.4L301.8,424.1z"/>
	<path d="M304.4,420.2c0.3,0,0.6,0,0.9,0.1c0.3,0.1,0.7,0.2,1,0.3c0.3,0.1,0.5,0.3,0.7,0.5c0.2,0.2,0.2,0.4,0.3,0.5
		c0,0.2,0,0.4,0,0.5c0,0.2-0.1,0.3-0.2,0.5c-0.2,0.4-0.3,0.7-0.5,1c-0.2,0.3-0.3,0.7-0.5,1c-0.1,0.2-0.2,0.4-0.3,0.6
		c-0.1,0.2-0.1,0.4-0.2,0.6l-0.5-0.2l0.1-0.7l0,0c-0.1,0.1-0.2,0.1-0.3,0.2c-0.1,0-0.3,0.1-0.4,0.1c-0.1,0-0.3,0-0.5,0
		c-0.2,0-0.4-0.1-0.5-0.2c-0.2-0.1-0.4-0.2-0.5-0.3c-0.1-0.1-0.2-0.3-0.3-0.5s-0.1-0.3-0.1-0.5c0-0.2,0.1-0.4,0.1-0.6
		c0.1-0.3,0.3-0.5,0.5-0.6s0.4-0.2,0.7-0.2c0.2,0,0.5,0,0.8,0.1c0.3,0.1,0.6,0.2,0.9,0.4c0.1,0,0.2,0.1,0.2,0.1
		c0.1,0,0.2,0.1,0.2,0.1c0.1-0.2,0.2-0.3,0.3-0.5c0.2-0.3,0.2-0.6,0.1-0.8c-0.1-0.2-0.3-0.4-0.6-0.5c-0.1,0-0.2-0.1-0.3-0.1
		s-0.3-0.1-0.4-0.1s-0.3-0.1-0.4-0.1c-0.1,0-0.2,0-0.4,0L304.4,420.2z M304,424.4c0.2,0.1,0.3,0.1,0.5,0.1c0.2,0,0.3,0,0.4,0
		c0.1,0,0.2-0.1,0.3-0.1s0.2-0.1,0.3-0.2l0.4-0.8c-0.1,0-0.2-0.1-0.3-0.1c-0.1,0-0.2-0.1-0.3-0.1c-0.2-0.1-0.4-0.2-0.6-0.2
		c-0.2-0.1-0.4-0.1-0.5-0.1c-0.2,0-0.3,0-0.4,0.1c-0.1,0.1-0.2,0.2-0.3,0.3c-0.1,0.2-0.1,0.4,0,0.6S303.7,424.3,304,424.4z"/>
	<path d="M308.5,421.7l0.7,0.3l0.4-0.9l0.8,0.1l-0.5,1.1l1.2,0.6l-0.3,0.6l-1.2-0.6l-1.2,2.5c-0.1,0.3-0.2,0.6-0.2,0.7
		c0,0.2,0.1,0.3,0.3,0.4c0.2,0.1,0.3,0.1,0.4,0.1c0.1,0,0.3,0,0.4,0l-0.1,0.6c-0.2,0-0.4,0-0.6-0.1c-0.2,0-0.4-0.1-0.7-0.2
		c-0.4-0.2-0.6-0.4-0.6-0.7c-0.1-0.3,0-0.7,0.3-1.2l1.2-2.6l-0.7-0.3L308.5,421.7z"/>
	<path d="M312.3,423.5l0.7,0.3l-2.1,4.5l-0.7-0.3L312.3,423.5z M312.8,422c0.1-0.1,0.2-0.2,0.3-0.3c0.1-0.1,0.3-0.1,0.4,0
		c0.1,0.1,0.2,0.2,0.3,0.3c0.1,0.1,0.1,0.3,0,0.4s-0.2,0.2-0.3,0.3s-0.3,0-0.4,0c-0.1-0.1-0.2-0.2-0.3-0.3
		C312.8,422.3,312.8,422.2,312.8,422z"/>
	<path d="M315.4,430.4l1.2-2.6c0.2-0.5,0.3-0.9,0.3-1.2s-0.2-0.5-0.6-0.7c-0.3-0.2-0.6-0.2-0.9-0.1s-0.5,0.2-0.7,0.4l-1.4,3.1
		l-0.7-0.3l2.1-4.5l0.5,0.2l-0.1,0.6l0,0c0.2-0.1,0.5-0.2,0.8-0.2c0.3,0,0.6,0.1,1,0.2c0.2,0.1,0.5,0.2,0.6,0.4
		c0.2,0.1,0.3,0.3,0.3,0.5c0.1,0.2,0.1,0.4,0,0.7c-0.1,0.3-0.2,0.6-0.3,1l-1.3,2.7L315.4,430.4z"/>
	<path d="M318.3,429c0.4-0.8,0.8-1.3,1.3-1.5s1.1-0.2,1.8,0.1c0.3,0.2,0.6,0.4,0.8,0.6s0.3,0.5,0.4,0.8c0.1,0.3,0.1,0.6,0,0.9
		c-0.1,0.3-0.2,0.7-0.3,1c-0.4,0.8-0.8,1.3-1.3,1.5s-1.1,0.2-1.8-0.1c-0.3-0.2-0.6-0.4-0.8-0.6c-0.2-0.2-0.3-0.5-0.4-0.8
		c-0.1-0.3-0.1-0.6,0-0.9C318,429.7,318.1,429.4,318.3,429z M319,429.4c-0.1,0.2-0.2,0.5-0.2,0.7c-0.1,0.2-0.1,0.5,0,0.7
		c0,0.2,0.1,0.4,0.2,0.6c0.1,0.2,0.3,0.3,0.5,0.4c0.8,0.4,1.5,0,2-1.2c0.1-0.2,0.2-0.5,0.2-0.7s0.1-0.4,0-0.7c0-0.2-0.1-0.4-0.2-0.6
		c-0.1-0.2-0.3-0.3-0.5-0.4C320.2,427.8,319.5,428.2,319,429.4z"/>
</g>
<g>
	<path d="M338.4,397.1l-2-0.9l-2.6,5.7l-0.8-0.4l2.6-5.7l-2-0.9l0.3-0.7l4.7,2.2L338.4,397.1z"/>
	<path d="M340.5,399.5l-0.2,3.1l-0.2,1l0,0l0.6-0.8l2-2.3l0.7,0.3l-3.7,3.9l-0.4-0.2l0.2-3.5l0.2-0.8l0,0l-0.5,0.7l-2.5,2.4
		l-0.4-0.2l0.6-5.4l0.8,0.4l-0.3,3.1l-0.3,1l0,0l0.6-0.8l2.2-2.2L340.5,399.5z"/>
	<path d="M342.8,403.3c0.4-0.8,0.8-1.3,1.3-1.5c0.5-0.2,1.1-0.2,1.8,0.1c0.3,0.2,0.6,0.4,0.8,0.6s0.3,0.5,0.4,0.8s0.1,0.6,0,0.9
		c-0.1,0.3-0.2,0.7-0.3,1c-0.4,0.8-0.8,1.3-1.3,1.5c-0.5,0.2-1.1,0.2-1.8-0.1c-0.3-0.2-0.6-0.4-0.8-0.6c-0.2-0.2-0.3-0.5-0.4-0.8
		s-0.1-0.6,0-0.9C342.5,404,342.7,403.7,342.8,403.3z M343.6,403.7c-0.1,0.2-0.2,0.5-0.2,0.7c-0.1,0.2-0.1,0.5,0,0.7
		c0,0.2,0.1,0.4,0.2,0.6c0.1,0.2,0.3,0.3,0.5,0.4c0.8,0.4,1.5,0,2-1.2c0.1-0.2,0.2-0.5,0.2-0.7c0.1-0.2,0.1-0.5,0-0.7
		c0-0.2-0.1-0.4-0.2-0.6c-0.1-0.2-0.3-0.3-0.5-0.4C344.8,402.1,344.1,402.5,343.6,403.7z"/>
	<path d="M350.1,406.7c0.4-0.8,0.8-1.3,1.3-1.5c0.5-0.2,1.1-0.2,1.8,0.1c0.3,0.2,0.6,0.4,0.8,0.6c0.2,0.2,0.3,0.5,0.4,0.8
		c0.1,0.3,0.1,0.6,0,0.9c-0.1,0.3-0.2,0.7-0.3,1c-0.4,0.8-0.8,1.3-1.3,1.5c-0.5,0.2-1.1,0.2-1.8-0.1c-0.3-0.2-0.6-0.4-0.8-0.6
		c-0.2-0.2-0.3-0.5-0.4-0.8s-0.1-0.6,0-0.9C349.8,407.4,349.9,407.1,350.1,406.7z M350.9,407.1c-0.1,0.2-0.2,0.5-0.2,0.7
		c-0.1,0.2-0.1,0.4,0,0.7c0,0.2,0.1,0.4,0.2,0.6c0.1,0.2,0.3,0.3,0.5,0.4c0.8,0.4,1.5,0,2-1.2c0.1-0.2,0.2-0.5,0.2-0.7
		c0.1-0.2,0.1-0.5,0-0.7c0-0.2-0.1-0.4-0.2-0.6c-0.1-0.2-0.3-0.3-0.5-0.4C352.1,405.5,351.4,405.9,350.9,407.1z"/>
	<path d="M358.1,408.6c-0.2-0.1-0.3-0.3-0.5-0.3c-0.3-0.1-0.5-0.1-0.7-0.1c-0.2,0.1-0.4,0.2-0.5,0.4l-1.5,3.2l-0.7-0.3l2.1-4.5
		l0.5,0.2l-0.1,0.6l0,0c0.2-0.2,0.4-0.2,0.6-0.3c0.2,0,0.4,0,0.7,0.1c0.2,0.1,0.4,0.2,0.5,0.4L358.1,408.6z"/>
	<path d="M366.6,412l0.5-0.9l0,0l-0.8,0.7l-3,2.1l-0.2-0.1l-0.4-3.7l0.1-1l0,0l-0.3,1l-2,4.3l-0.7-0.3l3-6.3l0.6,0.3l0.5,4.2l0,0.8
		l0,0l0.6-0.6l3.4-2.3l0.6,0.3l-3,6.3l-0.8-0.4L366.6,412z"/>
	<path d="M367.6,414.9c0.4-0.8,0.8-1.3,1.3-1.5c0.5-0.2,1.1-0.2,1.8,0.1c0.3,0.2,0.6,0.4,0.8,0.6s0.3,0.5,0.4,0.8
		c0.1,0.3,0.1,0.6,0,0.9c-0.1,0.3-0.2,0.7-0.3,1c-0.4,0.8-0.8,1.3-1.3,1.5s-1.1,0.2-1.8-0.1c-0.3-0.2-0.6-0.4-0.8-0.6
		c-0.2-0.2-0.3-0.5-0.4-0.8c-0.1-0.3-0.1-0.6,0-0.9C367.3,415.6,367.5,415.3,367.6,414.9z M368.4,415.3c-0.1,0.2-0.2,0.5-0.2,0.7
		c-0.1,0.2-0.1,0.5,0,0.7s0.1,0.4,0.2,0.6c0.1,0.2,0.3,0.3,0.5,0.4c0.8,0.4,1.5,0,2-1.2c0.1-0.2,0.2-0.5,0.2-0.7
		c0.1-0.2,0.1-0.4,0-0.7c0-0.2-0.1-0.4-0.2-0.6c-0.1-0.2-0.3-0.3-0.5-0.4C369.6,413.7,368.9,414.1,368.4,415.3z"/>
	<path d="M375.6,416.7c-0.2-0.1-0.3-0.3-0.5-0.3c-0.3-0.1-0.5-0.1-0.7-0.1c-0.2,0.1-0.4,0.2-0.5,0.4l-1.5,3.2l-0.7-0.3l2.1-4.5
		l0.5,0.2l-0.1,0.6l0,0c0.2-0.2,0.4-0.2,0.6-0.3c0.2,0,0.4,0,0.7,0.1c0.2,0.1,0.4,0.2,0.5,0.4L375.6,416.7z"/>
	<path d="M378.2,422.2c-0.2,0.1-0.5,0.1-0.8,0c-0.3,0-0.6-0.1-0.9-0.3c-0.3-0.2-0.6-0.4-0.8-0.6c-0.2-0.2-0.3-0.5-0.4-0.8
		c-0.1-0.3-0.1-0.6,0-0.9c0.1-0.3,0.2-0.7,0.3-1c0.4-0.8,0.8-1.3,1.3-1.5c0.5-0.2,1.1-0.2,1.8,0.1c0.2,0.1,0.4,0.2,0.6,0.4
		c0.2,0.1,0.3,0.3,0.4,0.5c0.1,0.2,0.2,0.4,0.1,0.7c0,0.3-0.1,0.6-0.3,1c-0.1,0.2-0.2,0.4-0.4,0.6l-2.9-1.4
		c-0.1,0.3-0.2,0.5-0.2,0.7c0,0.2,0,0.4,0,0.6c0,0.2,0.1,0.4,0.3,0.5c0.1,0.2,0.4,0.3,0.6,0.4c0.2,0.1,0.4,0.2,0.7,0.2
		c0.2,0,0.4,0,0.6,0L378.2,422.2z M378.4,417.8c-0.4-0.2-0.7-0.2-1-0.1c-0.3,0.1-0.6,0.3-0.8,0.8l2.2,1c0.2-0.5,0.3-0.8,0.2-1.1
		S378.7,418,378.4,417.8z"/>
	<path d="M384.8,418c0.2,0.1,0.5,0.2,0.8,0.3s0.6,0.2,0.8,0.3c0.3,0.1,0.5,0.3,0.8,0.5c0.2,0.2,0.4,0.4,0.5,0.6
		c0.1,0.2,0.2,0.5,0.2,0.8s-0.1,0.6-0.2,0.9c-0.2,0.5-0.6,0.8-1,1c-0.4,0.2-0.9,0.2-1.3,0.1l0.3,0.5l0.4,3.2l-0.9-0.4l-0.5-3.6
		l-0.8-0.6l-1.3,2.9l-0.8-0.4L384.8,418z M386.2,419.3c-0.1,0-0.2-0.1-0.2-0.1c-0.1,0-0.2-0.1-0.2-0.1c-0.1,0-0.2-0.1-0.2-0.1
		s-0.1,0-0.2-0.1l-1.1,2.3l0.7,0.3c0.4,0.2,0.8,0.3,1.2,0.2c0.4-0.1,0.7-0.3,0.9-0.8c0.2-0.3,0.2-0.6,0-1
		C386.8,419.8,386.6,419.5,386.2,419.3z"/>
	<path d="M389,422.5c0.3,0,0.6,0,0.9,0.1c0.3,0.1,0.7,0.2,1,0.3c0.3,0.1,0.5,0.3,0.7,0.5c0.2,0.2,0.2,0.4,0.3,0.5c0,0.2,0,0.4,0,0.5
		c0,0.2-0.1,0.3-0.2,0.5c-0.2,0.4-0.3,0.7-0.5,1c-0.2,0.3-0.3,0.7-0.5,1c-0.1,0.2-0.2,0.4-0.3,0.6c-0.1,0.2-0.1,0.4-0.2,0.6
		l-0.5-0.2l0.1-0.7l0,0c-0.1,0.1-0.2,0.1-0.3,0.2c-0.1,0-0.3,0.1-0.4,0.1c-0.1,0-0.3,0-0.5,0c-0.2,0-0.4-0.1-0.5-0.2
		c-0.2-0.1-0.4-0.2-0.5-0.3s-0.2-0.3-0.3-0.5c-0.1-0.2-0.1-0.3-0.1-0.5c0-0.2,0.1-0.4,0.1-0.6c0.1-0.3,0.3-0.5,0.5-0.6
		c0.2-0.1,0.4-0.2,0.7-0.2c0.2,0,0.5,0,0.8,0.1c0.3,0.1,0.6,0.2,0.9,0.4c0.1,0,0.2,0.1,0.2,0.1c0.1,0,0.2,0.1,0.2,0.1
		c0.1-0.2,0.2-0.3,0.3-0.5c0.2-0.3,0.2-0.6,0.1-0.8s-0.3-0.4-0.6-0.5c-0.1,0-0.2-0.1-0.3-0.1c-0.1,0-0.3-0.1-0.4-0.1
		c-0.1,0-0.3-0.1-0.4-0.1c-0.1,0-0.2,0-0.4,0L389,422.5z M388.6,426.8c0.2,0.1,0.3,0.1,0.5,0.1s0.3,0,0.4,0c0.1,0,0.2-0.1,0.3-0.1
		c0.1-0.1,0.2-0.1,0.3-0.2l0.4-0.8c-0.1,0-0.2-0.1-0.3-0.1s-0.2-0.1-0.3-0.1c-0.2-0.1-0.4-0.2-0.6-0.2c-0.2-0.1-0.4-0.1-0.5-0.1
		c-0.2,0-0.3,0-0.4,0.1c-0.1,0.1-0.2,0.2-0.3,0.3c-0.1,0.2-0.1,0.4,0,0.6S388.3,426.7,388.6,426.8z"/>
	<path d="M394.8,430c-0.2,0-0.5,0-0.8,0c-0.3,0-0.6-0.1-0.8-0.3c-0.4-0.2-0.6-0.4-0.8-0.6c-0.2-0.2-0.3-0.5-0.4-0.8
		c-0.1-0.3-0.1-0.6,0-0.9c0.1-0.3,0.2-0.7,0.4-1c0.4-0.8,0.8-1.3,1.3-1.5c0.5-0.2,1.1-0.2,1.7,0.1c0.3,0.1,0.5,0.3,0.7,0.4
		c0.2,0.1,0.3,0.3,0.5,0.5l-0.5,0.5c-0.1-0.1-0.2-0.3-0.4-0.4c-0.1-0.1-0.3-0.2-0.5-0.3c-0.9-0.4-1.6,0-2.1,1.1
		c-0.1,0.2-0.2,0.5-0.2,0.7c-0.1,0.2-0.1,0.4,0,0.7c0,0.2,0.1,0.4,0.2,0.6c0.1,0.2,0.3,0.3,0.6,0.4c0.2,0.1,0.4,0.2,0.6,0.2
		c0.2,0,0.4,0,0.5,0L394.8,430z"/>
	<path d="M398.9,431.9c-0.2,0.1-0.5,0.1-0.8,0c-0.3,0-0.6-0.1-0.9-0.3c-0.3-0.2-0.6-0.4-0.8-0.6c-0.2-0.2-0.3-0.5-0.4-0.8
		c-0.1-0.3-0.1-0.6,0-0.9c0.1-0.3,0.2-0.7,0.3-1c0.4-0.8,0.8-1.3,1.3-1.5s1.1-0.2,1.8,0.1c0.2,0.1,0.4,0.2,0.6,0.4
		c0.2,0.1,0.3,0.3,0.4,0.5s0.2,0.4,0.1,0.7c0,0.3-0.1,0.6-0.3,1c-0.1,0.2-0.2,0.4-0.4,0.6l-2.9-1.4c-0.1,0.3-0.2,0.5-0.2,0.7
		c0,0.2,0,0.4,0,0.6c0,0.2,0.1,0.4,0.3,0.5c0.1,0.2,0.4,0.3,0.6,0.4c0.2,0.1,0.4,0.2,0.7,0.2s0.4,0,0.6,0L398.9,431.9z M399.1,427.5
		c-0.4-0.2-0.7-0.2-1-0.1c-0.3,0.1-0.6,0.3-0.8,0.8l2.2,1c0.2-0.5,0.3-0.8,0.2-1.1C399.6,427.9,399.4,427.6,399.1,427.5z"/>
	<path d="M402.6,432.5c0.1-0.2,0.1-0.3,0-0.5s-0.2-0.3-0.3-0.4s-0.3-0.3-0.4-0.4c-0.2-0.2-0.3-0.3-0.4-0.5c-0.1-0.2-0.2-0.4-0.2-0.6
		c0-0.2,0-0.4,0.1-0.7c0.2-0.4,0.5-0.7,0.8-0.8c0.3-0.1,0.7,0,1.2,0.2c0.3,0.2,0.6,0.3,0.8,0.5c0.2,0.2,0.4,0.3,0.5,0.5l-0.5,0.5
		c-0.1-0.1-0.2-0.3-0.4-0.4c-0.2-0.1-0.4-0.3-0.6-0.4c-0.3-0.1-0.5-0.2-0.6-0.1c-0.2,0-0.3,0.2-0.4,0.4c-0.1,0.2-0.1,0.3,0,0.4
		s0.2,0.3,0.3,0.4c0.1,0.1,0.3,0.3,0.4,0.4c0.2,0.2,0.3,0.3,0.4,0.5c0.1,0.2,0.2,0.4,0.2,0.6c0,0.2,0,0.5-0.1,0.7
		c-0.1,0.2-0.2,0.4-0.3,0.5c-0.1,0.1-0.3,0.2-0.5,0.3c-0.2,0.1-0.4,0.1-0.6,0.1s-0.5-0.1-0.7-0.2c-0.3-0.2-0.6-0.3-0.8-0.5
		c-0.2-0.2-0.4-0.4-0.5-0.5l0.5-0.5c0.1,0.1,0.2,0.3,0.4,0.5c0.2,0.2,0.4,0.3,0.6,0.4c0.3,0.1,0.5,0.2,0.7,0.1
		C402.3,432.9,402.5,432.8,402.6,432.5z"/>
</g>
<g>
	<path d="M414.3,397.3l-0.1-1.1l0,0l-0.3,1l-1.9,4.1l-0.7-0.3l3-6.4l0.4,0.2l1.1,5.6l0.1,1.1l0,0l0.3-0.9l1.9-4.1l0.7,0.3l-3,6.4
		l-0.4-0.2L414.3,397.3z"/>
	<path d="M418,401.3c0.4-0.8,0.8-1.3,1.3-1.5c0.5-0.2,1.1-0.2,1.8,0.1c0.3,0.2,0.6,0.4,0.8,0.6c0.2,0.2,0.3,0.5,0.4,0.8
		c0.1,0.3,0.1,0.6,0,0.9c-0.1,0.3-0.2,0.7-0.3,1c-0.4,0.8-0.8,1.3-1.3,1.5c-0.5,0.2-1.1,0.2-1.8-0.1c-0.3-0.2-0.6-0.4-0.8-0.6
		c-0.2-0.2-0.3-0.5-0.4-0.8c-0.1-0.3-0.1-0.6,0-0.9C417.8,402,417.9,401.7,418,401.3z M418.8,401.7c-0.1,0.2-0.2,0.5-0.2,0.7
		c-0.1,0.2-0.1,0.5,0,0.7s0.1,0.4,0.2,0.6c0.1,0.2,0.3,0.3,0.5,0.4c0.8,0.4,1.5,0,2-1.2c0.1-0.2,0.2-0.5,0.2-0.7
		c0.1-0.2,0.1-0.4,0-0.7c0-0.2-0.1-0.4-0.2-0.6s-0.3-0.3-0.5-0.4C420,400.1,419.3,400.5,418.8,401.7z"/>
	<path d="M425,407.3l1.2-2.6c0.2-0.5,0.3-0.9,0.3-1.2c0-0.3-0.2-0.5-0.6-0.7c-0.3-0.1-0.6-0.2-0.9-0.1c-0.3,0.1-0.5,0.2-0.7,0.4
		l-1.4,3.1l-0.7-0.3l2.1-4.5l0.5,0.2l-0.1,0.6l0,0c0.2-0.1,0.5-0.2,0.8-0.2c0.3,0,0.6,0.1,1,0.2c0.2,0.1,0.5,0.2,0.6,0.4
		c0.2,0.1,0.3,0.3,0.3,0.5c0.1,0.2,0.1,0.4,0,0.7c-0.1,0.3-0.2,0.6-0.3,1l-1.3,2.7L425,407.3z"/>
	<path d="M428.3,404.7l3.8,1.8l-0.3,0.7l-3.8-1.8L428.3,404.7z"/>
	<path d="M436.9,409.3l-3-1.4l-1.4,2.9l-0.8-0.4l3-6.3l0.8,0.4l-1.3,2.8l3,1.4l1.3-2.8l0.8,0.4l-3,6.3l-0.8-0.4L436.9,409.3z"/>
	<path d="M440,408.8l0.7,0.3l-2.1,4.5l-0.7-0.3L440,408.8z M440.5,407.4c0.1-0.1,0.2-0.2,0.3-0.3s0.3,0,0.4,0
		c0.1,0.1,0.2,0.2,0.3,0.3c0.1,0.1,0.1,0.3,0,0.4c-0.1,0.1-0.2,0.2-0.3,0.3s-0.3,0-0.4,0c-0.1-0.1-0.2-0.2-0.3-0.3
		C440.4,407.6,440.4,407.5,440.5,407.4z"/>
	<path d="M442.7,414.1c0.1-0.2,0.1-0.3,0-0.5c-0.1-0.2-0.2-0.3-0.3-0.4c-0.1-0.1-0.3-0.3-0.4-0.4c-0.2-0.2-0.3-0.3-0.4-0.5
		c-0.1-0.2-0.2-0.4-0.2-0.6c0-0.2,0-0.4,0.1-0.7c0.2-0.4,0.5-0.7,0.8-0.8c0.3-0.1,0.7,0,1.2,0.2c0.3,0.2,0.6,0.3,0.8,0.5
		c0.2,0.2,0.4,0.3,0.5,0.5l-0.5,0.5c-0.1-0.1-0.2-0.3-0.4-0.4c-0.2-0.1-0.4-0.3-0.6-0.4c-0.3-0.1-0.5-0.2-0.6-0.1
		c-0.2,0-0.3,0.2-0.4,0.4c-0.1,0.2-0.1,0.3,0,0.4c0.1,0.1,0.2,0.3,0.3,0.4c0.1,0.1,0.3,0.3,0.4,0.5s0.3,0.3,0.4,0.5
		c0.1,0.2,0.2,0.4,0.2,0.6s0,0.5-0.1,0.7c-0.1,0.2-0.2,0.4-0.3,0.5c-0.1,0.1-0.3,0.2-0.5,0.3c-0.2,0.1-0.4,0.1-0.6,0.1
		c-0.2,0-0.5-0.1-0.7-0.2c-0.3-0.2-0.6-0.3-0.8-0.5c-0.2-0.2-0.4-0.4-0.5-0.5l0.5-0.5c0.1,0.1,0.2,0.3,0.4,0.5s0.4,0.3,0.6,0.4
		c0.3,0.1,0.5,0.2,0.7,0.1C442.4,414.5,442.6,414.4,442.7,414.1z"/>
	<path d="M446.1,411.6l0.5,0.2l-0.1,0.6l0,0c0.2-0.1,0.5-0.2,0.8-0.2c0.3,0,0.5,0.1,0.8,0.2c0.6,0.3,1,0.7,1.1,1.2
		c0.1,0.5,0,1.1-0.4,2c-0.2,0.4-0.4,0.7-0.6,1s-0.5,0.5-0.8,0.6c-0.3,0.1-0.6,0.2-0.9,0.2c-0.3,0-0.6-0.1-0.9-0.2
		c-0.2-0.1-0.4-0.2-0.5-0.3c-0.1-0.1-0.2-0.2-0.4-0.3l-0.9,1.9l-0.7-0.3L446.1,411.6z M447.7,413c-0.3-0.1-0.6-0.2-0.8-0.1
		c-0.3,0.1-0.5,0.3-0.7,0.6l-1,2.2c0.1,0.1,0.2,0.3,0.3,0.4c0.1,0.1,0.3,0.2,0.5,0.3c0.4,0.2,0.8,0.2,1.2,0c0.4-0.2,0.7-0.6,1-1.2
		c0.1-0.2,0.2-0.5,0.3-0.7c0.1-0.2,0.1-0.4,0-0.6c0-0.2-0.1-0.4-0.2-0.5C448,413.3,447.9,413.1,447.7,413z"/>
	<path d="M450.8,414.2c0.3,0,0.6,0,0.9,0.1c0.3,0.1,0.7,0.2,1,0.3c0.3,0.1,0.5,0.3,0.7,0.5c0.2,0.2,0.2,0.4,0.3,0.5
		c0,0.2,0,0.4,0,0.5c0,0.2-0.1,0.3-0.2,0.5c-0.2,0.4-0.3,0.7-0.5,1c-0.2,0.3-0.3,0.7-0.5,1c-0.1,0.2-0.2,0.4-0.3,0.6
		c-0.1,0.2-0.1,0.4-0.2,0.6l-0.5-0.2l0.1-0.7l0,0c-0.1,0.1-0.2,0.1-0.3,0.2c-0.1,0-0.3,0.1-0.4,0.1c-0.1,0-0.3,0-0.5,0
		c-0.2,0-0.4-0.1-0.5-0.2c-0.2-0.1-0.4-0.2-0.5-0.3c-0.1-0.1-0.2-0.3-0.3-0.5c-0.1-0.2-0.1-0.3-0.1-0.5c0-0.2,0.1-0.4,0.1-0.6
		c0.1-0.3,0.3-0.5,0.5-0.6c0.2-0.1,0.4-0.2,0.7-0.2c0.2,0,0.5,0,0.8,0.1c0.3,0.1,0.6,0.2,0.9,0.4c0.1,0,0.2,0.1,0.2,0.1
		s0.2,0.1,0.2,0.1c0.1-0.2,0.2-0.3,0.3-0.5c0.2-0.3,0.2-0.6,0.1-0.8c-0.1-0.2-0.3-0.4-0.6-0.5c-0.1,0-0.2-0.1-0.3-0.1
		c-0.1,0-0.3-0.1-0.4-0.1c-0.1,0-0.3-0.1-0.4-0.1c-0.1,0-0.2,0-0.4,0L450.8,414.2z M450.3,418.5c0.2,0.1,0.3,0.1,0.5,0.1
		c0.2,0,0.3,0,0.4,0c0.1,0,0.2-0.1,0.3-0.1c0.1-0.1,0.2-0.1,0.3-0.2l0.4-0.8c-0.1,0-0.2-0.1-0.3-0.1c-0.1,0-0.2-0.1-0.3-0.1
		c-0.2-0.1-0.4-0.2-0.6-0.2c-0.2-0.1-0.4-0.1-0.5-0.1s-0.3,0-0.4,0.1c-0.1,0.1-0.2,0.2-0.3,0.3c-0.1,0.2-0.1,0.4,0,0.6
		C449.9,418.2,450.1,418.4,450.3,418.5z"/>
	<path d="M456.3,421.9l1.2-2.6c0.2-0.5,0.3-0.9,0.3-1.2c0-0.3-0.2-0.5-0.6-0.7c-0.3-0.2-0.6-0.2-0.9-0.1c-0.3,0.1-0.5,0.2-0.7,0.4
		l-1.4,3.1l-0.7-0.3l2.1-4.5l0.5,0.2l-0.1,0.6l0,0c0.2-0.1,0.5-0.2,0.8-0.2c0.3,0,0.6,0.1,1,0.2c0.2,0.1,0.5,0.2,0.6,0.4
		c0.2,0.1,0.3,0.3,0.3,0.5s0.1,0.4,0,0.7c-0.1,0.3-0.2,0.6-0.3,1l-1.3,2.7L456.3,421.9z"/>
	<path d="M460.6,418.4l0.7,0.3l-2.1,4.5l-0.7-0.3L460.6,418.4z M461.1,417c0.1-0.1,0.2-0.2,0.3-0.3c0.1-0.1,0.3-0.1,0.4,0
		c0.1,0.1,0.2,0.2,0.3,0.3c0.1,0.1,0.1,0.3,0,0.4s-0.2,0.2-0.3,0.3c-0.1,0-0.3,0-0.4,0c-0.1-0.1-0.2-0.2-0.3-0.3
		C461,417.2,461,417.1,461.1,417z"/>
	<path d="M464,425.2c-0.2,0-0.5,0-0.8,0c-0.3,0-0.6-0.1-0.8-0.3c-0.4-0.2-0.6-0.4-0.8-0.6c-0.2-0.2-0.3-0.5-0.4-0.8
		c-0.1-0.3-0.1-0.6,0-0.9s0.2-0.7,0.4-1c0.4-0.8,0.8-1.3,1.3-1.5s1.1-0.2,1.7,0.1c0.3,0.1,0.5,0.3,0.7,0.4c0.2,0.1,0.3,0.3,0.5,0.5
		l-0.5,0.5c-0.1-0.1-0.2-0.3-0.4-0.4c-0.1-0.1-0.3-0.2-0.5-0.3c-0.9-0.4-1.6,0-2.1,1.1c-0.1,0.2-0.2,0.5-0.2,0.7
		c-0.1,0.2-0.1,0.4,0,0.7c0,0.2,0.1,0.4,0.2,0.6c0.1,0.2,0.3,0.3,0.6,0.4c0.2,0.1,0.4,0.2,0.6,0.2c0.2,0,0.4,0,0.5,0L464,425.2z"/>
	<path d="M469.5,425.6l-0.3,1.1l0,0l0.7-1l3.3-3.6l0.4,0.2l-0.7,4.9l-0.3,1.1l0,0l0.7-1l3-3.7l0.7,0.3l-4.8,5.6l-0.4-0.2l0.7-4.9
		l0.3-1l0,0l-0.6,0.9l-3.3,3.6l-0.4-0.2l1.2-7.3l0.8,0.4L469.5,425.6z"/>
	<path d="M477.7,431.9l1.2-2.6c0.1-0.2,0.2-0.4,0.2-0.6c0.1-0.2,0.1-0.4,0.1-0.5c0-0.2-0.1-0.3-0.2-0.4c-0.1-0.1-0.2-0.2-0.4-0.3
		c-0.3-0.1-0.6-0.2-0.9-0.1c-0.3,0.1-0.6,0.2-0.8,0.5l-1.4,3l-0.7-0.3l3-6.3l0.7,0.3l-1.1,2.3l0,0c0.2-0.1,0.5-0.2,0.8-0.2
		c0.3,0,0.6,0.1,0.9,0.2c0.3,0.1,0.5,0.2,0.6,0.4c0.2,0.1,0.3,0.3,0.3,0.5c0.1,0.2,0.1,0.4,0,0.7c-0.1,0.3-0.2,0.6-0.3,1l-1.3,2.7
		L477.7,431.9z"/>
	<path d="M482,428.4l0.7,0.3l-2.1,4.5l-0.7-0.3L482,428.4z M482.5,427c0.1-0.1,0.2-0.2,0.3-0.3s0.3,0,0.4,0c0.1,0.1,0.2,0.2,0.3,0.3
		c0.1,0.1,0.1,0.3,0,0.4c-0.1,0.1-0.2,0.2-0.3,0.3c-0.1,0-0.3,0-0.4,0s-0.2-0.2-0.3-0.3C482.4,427.2,482.4,427.1,482.5,427z"/>
	<path d="M483.6,429.2l0.7,0.3l0.4-0.9l0.8,0.1l-0.5,1.1l1.2,0.6l-0.3,0.6l-1.2-0.6l-1.2,2.5c-0.1,0.3-0.2,0.6-0.2,0.7
		s0.1,0.3,0.3,0.4c0.2,0.1,0.3,0.1,0.4,0.1c0.1,0,0.3,0,0.4,0l-0.1,0.6c-0.2,0-0.4,0-0.6-0.1c-0.2,0-0.4-0.1-0.7-0.2
		c-0.4-0.2-0.6-0.4-0.6-0.7c-0.1-0.3,0-0.7,0.3-1.2l1.2-2.6l-0.7-0.3L483.6,429.2z"/>
	<path d="M488.6,436.6c-0.2,0.1-0.5,0.1-0.8,0c-0.3,0-0.6-0.1-0.9-0.3c-0.3-0.2-0.6-0.4-0.8-0.6c-0.2-0.2-0.3-0.5-0.4-0.8
		c-0.1-0.3-0.1-0.6,0-0.9c0.1-0.3,0.2-0.7,0.3-1c0.4-0.8,0.8-1.3,1.3-1.5c0.5-0.2,1.1-0.2,1.8,0.1c0.2,0.1,0.4,0.2,0.6,0.4
		c0.2,0.1,0.3,0.3,0.4,0.5c0.1,0.2,0.2,0.4,0.1,0.7c0,0.3-0.1,0.6-0.3,1c-0.1,0.2-0.2,0.4-0.4,0.6l-2.9-1.4
		c-0.1,0.3-0.2,0.5-0.2,0.7s0,0.4,0,0.6c0,0.2,0.1,0.4,0.3,0.5c0.1,0.2,0.4,0.3,0.6,0.4c0.2,0.1,0.4,0.2,0.7,0.2c0.2,0,0.4,0,0.6,0
		L488.6,436.6z M488.7,432.2c-0.4-0.2-0.7-0.2-1-0.1s-0.6,0.3-0.8,0.8l2.2,1c0.2-0.5,0.3-0.8,0.2-1.1
		C489.2,432.6,489,432.3,488.7,432.2z"/>
</g>
<g>
	<path d="M17.9,275.7c-0.1-0.3-0.1-0.7-0.1-1c0-0.4,0-0.8,0-1.1c0-0.4,0-0.7,0.1-1.1s0.2-0.6,0.4-0.9c0.2-0.3,0.4-0.5,0.7-0.6
		c0.3-0.2,0.7-0.2,1.1-0.2c0.7,0,1.2,0.2,1.6,0.5s0.7,0.8,0.8,1.4l0.4-0.6l3.3-2.1v1.2l-3.6,2.3l-0.2,1.2h3.8v1H17.9z M18.5,273.5
		c0,0.1,0,0.2,0,0.3c0,0.1,0,0.2,0,0.3c0,0.1,0,0.2,0,0.3c0,0.1,0,0.2,0,0.2h3.1v-0.9c0-0.6-0.1-1-0.4-1.4c-0.3-0.4-0.7-0.5-1.3-0.5
		c-0.4,0-0.8,0.1-1.1,0.4S18.5,273,18.5,273.5z"/>
	<path d="M20.6,268.8c-0.2-0.3-0.3-0.7-0.4-1.1c-0.1-0.4-0.1-0.8-0.1-1.3c0-0.4,0.1-0.8,0.2-1c0.1-0.3,0.3-0.4,0.4-0.6
		c0.2-0.1,0.4-0.2,0.6-0.3c0.2,0,0.4-0.1,0.6-0.1c0.5,0,0.9,0,1.4,0s0.9,0,1.3,0c0.3,0,0.6,0,0.8,0s0.5-0.1,0.7-0.1v0.7l-0.8,0.3
		v0.1c0.1,0.1,0.2,0.2,0.3,0.3c0.1,0.1,0.2,0.2,0.3,0.4s0.2,0.3,0.2,0.5c0.1,0.2,0.1,0.4,0.1,0.7s0,0.5-0.1,0.7
		c-0.1,0.2-0.2,0.4-0.3,0.6c-0.1,0.2-0.3,0.3-0.5,0.4c-0.2,0.1-0.4,0.1-0.7,0.1c-0.4,0-0.6-0.1-0.9-0.2c-0.2-0.1-0.4-0.3-0.6-0.6
		c-0.1-0.3-0.2-0.6-0.3-0.9c-0.1-0.4-0.1-0.8-0.1-1.2c0-0.1,0-0.2,0-0.3c0-0.1,0-0.2,0-0.3c-0.2,0-0.5,0-0.6,0
		c-0.4,0-0.7,0.1-0.9,0.3s-0.3,0.5-0.3,1c0,0.1,0,0.3,0,0.4c0,0.2,0,0.3,0.1,0.5s0.1,0.3,0.1,0.5s0.1,0.3,0.2,0.4L20.6,268.8z
		 M25.4,267.1c0-0.2,0-0.4-0.1-0.6c-0.1-0.2-0.1-0.3-0.2-0.5c-0.1-0.1-0.2-0.2-0.3-0.3c-0.1-0.1-0.2-0.1-0.3-0.2h-1
		c0,0.1,0,0.2,0,0.3c0,0.1,0,0.2,0,0.3c0,0.2,0,0.5,0,0.7s0.1,0.4,0.2,0.6c0.1,0.2,0.2,0.3,0.3,0.4c0.1,0.1,0.3,0.2,0.5,0.2
		c0.3,0,0.5-0.1,0.7-0.3C25.3,267.7,25.4,267.4,25.4,267.1z"/>
	<path d="M20.2,263.6v-0.9H19l-0.3-1h1.5V260H21v1.6h3.3c0.4,0,0.7-0.1,0.9-0.2s0.3-0.3,0.3-0.5c0-0.2,0-0.4-0.1-0.5
		c0-0.1-0.1-0.3-0.2-0.5l0.7-0.2c0.1,0.2,0.2,0.5,0.3,0.7c0.1,0.3,0.1,0.5,0.1,0.8c0,0.5-0.1,0.8-0.4,1c-0.3,0.2-0.7,0.3-1.4,0.3H21
		v0.9H20.2z"/>
	<path d="M25.7,254.5c0.2,0.2,0.3,0.5,0.5,0.9c0.1,0.4,0.2,0.8,0.2,1.2c0,0.5-0.1,0.9-0.2,1.2c-0.1,0.3-0.4,0.6-0.6,0.8
		c-0.3,0.2-0.6,0.4-1,0.5s-0.8,0.2-1.3,0.2c-1,0-1.8-0.2-2.3-0.7s-0.8-1.1-0.8-2c0-0.3,0-0.5,0.1-0.8c0.1-0.3,0.2-0.5,0.3-0.7
		s0.4-0.4,0.7-0.5c0.3-0.1,0.7-0.2,1.2-0.2c0.3,0,0.6,0,0.9,0.1v3.9c0.4,0,0.7,0,0.9-0.1c0.3-0.1,0.5-0.2,0.7-0.3
		c0.2-0.2,0.3-0.4,0.4-0.6c0.1-0.2,0.1-0.5,0.1-0.9c0-0.3,0-0.5-0.1-0.8c-0.1-0.3-0.2-0.5-0.3-0.6L25.7,254.5z M20.9,256.5
		c0,0.5,0.1,0.8,0.4,1.1s0.7,0.5,1.3,0.5v-3c-0.6,0-1,0.1-1.3,0.3C21,255.8,20.9,256.1,20.9,256.5z"/>
	<path d="M28.8,247.7c-0.4,0.4-0.8,0.7-1.3,0.9c-0.5,0.3-0.9,0.5-1.4,0.6c-0.5,0.2-1,0.3-1.5,0.3c-0.5,0.1-1,0.1-1.4,0.1
		c-0.4,0-0.9,0-1.4-0.1c-0.5-0.1-1-0.2-1.5-0.3c-0.5-0.2-1-0.4-1.4-0.6c-0.5-0.3-0.9-0.6-1.3-1l0.4-0.6c0.4,0.3,0.8,0.6,1.3,0.8
		c0.4,0.2,0.9,0.4,1.3,0.5c0.4,0.1,0.9,0.2,1.3,0.3c0.4,0.1,0.9,0.1,1.3,0.1c0.4,0,0.8,0,1.3-0.1s0.9-0.2,1.4-0.3
		c0.5-0.1,0.9-0.3,1.3-0.5c0.4-0.2,0.8-0.5,1.2-0.8L28.8,247.7z"/>
	<path d="M20.2,246.2v-0.7l0.7-0.2v0c-0.3-0.2-0.5-0.4-0.6-0.7s-0.2-0.6-0.2-1c0-0.8,0.2-1.4,0.7-1.8c0.5-0.4,1.2-0.6,2.3-0.6
		c0.5,0,1,0.1,1.4,0.2s0.7,0.3,1,0.6c0.3,0.2,0.5,0.5,0.6,0.9c0.2,0.3,0.2,0.7,0.2,1.1c0,0.3,0,0.5-0.1,0.7s-0.1,0.4-0.2,0.6h2.5v1
		H20.2z M20.9,243.8c0,0.4,0.1,0.7,0.3,1s0.5,0.4,1,0.5h3c0.1-0.1,0.2-0.3,0.3-0.5c0.1-0.2,0.1-0.4,0.1-0.7c0-0.6-0.2-1-0.6-1.3
		c-0.4-0.3-1-0.5-1.8-0.5c-0.3,0-0.6,0-0.9,0.1c-0.3,0.1-0.5,0.1-0.7,0.3c-0.2,0.1-0.3,0.3-0.4,0.5
		C20.9,243.2,20.9,243.5,20.9,243.8z"/>
	<path d="M25.7,235.3c0.2,0.2,0.3,0.5,0.5,0.9c0.1,0.4,0.2,0.8,0.2,1.2c0,0.5-0.1,0.9-0.2,1.2c-0.1,0.3-0.4,0.6-0.6,0.8
		c-0.3,0.2-0.6,0.4-1,0.5c-0.4,0.1-0.8,0.2-1.3,0.2c-1,0-1.8-0.2-2.3-0.7s-0.8-1.1-0.8-2c0-0.3,0-0.5,0.1-0.8
		c0.1-0.3,0.2-0.5,0.3-0.7c0.2-0.2,0.4-0.4,0.7-0.5c0.3-0.1,0.7-0.2,1.2-0.2c0.3,0,0.6,0,0.9,0.1v3.9c0.4,0,0.7,0,0.9-0.1
		c0.3-0.1,0.5-0.2,0.7-0.3c0.2-0.2,0.3-0.4,0.4-0.6c0.1-0.2,0.1-0.5,0.1-0.9c0-0.3,0-0.5-0.1-0.8s-0.2-0.5-0.3-0.6L25.7,235.3z
		 M20.9,237.4c0,0.5,0.1,0.9,0.4,1.1c0.2,0.3,0.7,0.5,1.3,0.5v-3c-0.6,0-1,0.1-1.3,0.3C21,236.6,20.9,237,20.9,237.4z"/>
	<path d="M21.1,230.8c-0.1,0.2-0.1,0.5-0.1,0.7c0,0.3,0.1,0.6,0.3,0.8c0.2,0.2,0.4,0.3,0.7,0.4h4.2v1h-6v-0.7l0.7-0.2v0
		c-0.3-0.2-0.5-0.3-0.6-0.5c-0.1-0.2-0.2-0.5-0.2-0.8c0-0.2,0-0.5,0.1-0.8L21.1,230.8z"/>
	<path d="M25.3,225.9v-1.7h-5.8l-0.7-0.1l0.6,0.5l0.9,1.3l-0.6,0.5l-2-2.6v-0.4h7.7v-1.6h0.9v4.3H25.3z"/>
	<path d="M25.7,220.1c-0.2,0-0.3-0.1-0.5-0.2c-0.1-0.1-0.2-0.3-0.2-0.5c0-0.2,0.1-0.5,0.3-0.6c0.2-0.2,0.4-0.2,0.8-0.2
		c0.3,0,0.5,0,0.8,0.1c0.2,0.1,0.4,0.2,0.6,0.3c0.2,0.1,0.3,0.3,0.4,0.4c0.1,0.2,0.2,0.3,0.2,0.5l-0.5,0.3c-0.1-0.3-0.3-0.5-0.5-0.6
		c-0.2-0.1-0.5-0.2-0.7-0.2c0,0.1,0,0.1,0,0.2c0,0.2-0.1,0.3-0.2,0.4S25.9,220.1,25.7,220.1z"/>
	<path d="M22,217.8c-1.4,0-2.5-0.2-3.3-0.7c-0.7-0.5-1.1-1.2-1.1-2c0-1,0.4-1.7,1.1-2.1s1.8-0.7,3.3-0.7c1.4,0,2.5,0.2,3.3,0.7
		c0.7,0.5,1.1,1.2,1.1,2.1c0,1-0.4,1.6-1.1,2.1S23.3,217.8,22,217.8z M22,216.8c0.5,0,1,0,1.4-0.1c0.4-0.1,0.8-0.2,1.1-0.3
		s0.5-0.3,0.7-0.5c0.2-0.2,0.3-0.5,0.3-0.8c0-0.6-0.3-1.1-0.8-1.3c-0.6-0.3-1.5-0.4-2.7-0.4c-0.5,0-1,0-1.4,0.1
		c-0.4,0.1-0.8,0.2-1.1,0.3c-0.3,0.1-0.6,0.3-0.7,0.5c-0.2,0.2-0.3,0.5-0.3,0.8c0,0.6,0.3,1,0.9,1.3C19.9,216.7,20.8,216.8,22,216.8
		z"/>
	<path d="M22,211.3c-1.4,0-2.5-0.2-3.3-0.7c-0.7-0.5-1.1-1.2-1.1-2c0-1,0.4-1.7,1.1-2.1s1.8-0.7,3.3-0.7c1.4,0,2.5,0.2,3.3,0.7
		c0.7,0.5,1.1,1.2,1.1,2.1c0,1-0.4,1.6-1.1,2.1S23.3,211.3,22,211.3z M22,210.3c0.5,0,1,0,1.4-0.1c0.4-0.1,0.8-0.2,1.1-0.3
		s0.5-0.3,0.7-0.5c0.2-0.2,0.3-0.5,0.3-0.8c0-0.6-0.3-1.1-0.8-1.3c-0.6-0.3-1.5-0.4-2.7-0.4c-0.5,0-1,0-1.4,0.1
		c-0.4,0.1-0.8,0.2-1.1,0.3c-0.3,0.1-0.6,0.3-0.7,0.5c-0.2,0.2-0.3,0.5-0.3,0.8c0,0.6,0.3,1,0.9,1.3C19.9,210.2,20.8,210.3,22,210.3
		z"/>
	<path d="M22,204.8c-1.4,0-2.5-0.2-3.3-0.7c-0.7-0.5-1.1-1.2-1.1-2c0-1,0.4-1.7,1.1-2.1s1.8-0.7,3.3-0.7c1.4,0,2.5,0.2,3.3,0.7
		c0.7,0.5,1.1,1.2,1.1,2.1c0,1-0.4,1.6-1.1,2.1S23.3,204.8,22,204.8z M22,203.8c0.5,0,1,0,1.4-0.1c0.4-0.1,0.8-0.2,1.1-0.3
		s0.5-0.3,0.7-0.5c0.2-0.2,0.3-0.5,0.3-0.8c0-0.6-0.3-1.1-0.8-1.3c-0.6-0.3-1.5-0.4-2.7-0.4c-0.5,0-1,0-1.4,0.1
		c-0.4,0.1-0.8,0.2-1.1,0.3c-0.3,0.1-0.6,0.3-0.7,0.5c-0.2,0.2-0.3,0.5-0.3,0.8c0,0.6,0.3,1,0.9,1.3C19.9,203.6,20.8,203.8,22,203.8
		z"/>
	<path d="M18.3,194.6c-0.2,0-0.3-0.1-0.5-0.2s-0.2-0.3-0.2-0.5s0.1-0.4,0.2-0.5c0.1-0.1,0.3-0.2,0.5-0.2c0.2,0,0.3,0.1,0.5,0.2
		c0.1,0.1,0.2,0.3,0.2,0.5s-0.1,0.4-0.2,0.5S18.5,194.6,18.3,194.6z M20.2,194.4v-1h6v1H20.2z"/>
	<path d="M26.2,187.5h-3.4c-0.6,0-1.1,0.1-1.4,0.3c-0.3,0.2-0.5,0.5-0.5,1c0,0.4,0.1,0.8,0.3,1.1c0.2,0.3,0.5,0.5,0.9,0.6h4.1v1h-6
		v-0.7l0.7-0.2v0c-0.3-0.2-0.5-0.4-0.6-0.8c-0.2-0.3-0.2-0.7-0.2-1.2c0-0.3,0-0.6,0.1-0.9c0.1-0.2,0.2-0.5,0.4-0.6s0.5-0.3,0.8-0.4
		c0.3-0.1,0.7-0.1,1.2-0.1h3.6V187.5z"/>
	<path d="M20.2,181.6V181l0.7-0.2v0c-0.3-0.2-0.5-0.4-0.6-0.7s-0.2-0.6-0.2-1c0-0.8,0.2-1.4,0.7-1.8c0.5-0.4,1.2-0.6,2.3-0.6
		c0.5,0,1,0.1,1.4,0.2s0.7,0.3,1,0.6c0.3,0.2,0.5,0.5,0.6,0.9c0.2,0.3,0.2,0.7,0.2,1.1c0,0.3,0,0.5-0.1,0.7s-0.1,0.4-0.2,0.6h2.5v1
		H20.2z M20.9,179.2c0,0.4,0.1,0.7,0.3,1s0.5,0.4,1,0.5h3c0.1-0.1,0.2-0.3,0.3-0.5c0.1-0.2,0.1-0.4,0.1-0.7c0-0.6-0.2-1-0.6-1.3
		c-0.4-0.3-1-0.5-1.8-0.5c-0.3,0-0.6,0-0.9,0.1c-0.3,0.1-0.5,0.1-0.7,0.3c-0.2,0.1-0.3,0.3-0.4,0.5
		C20.9,178.7,20.9,178.9,20.9,179.2z"/>
	<path d="M23.2,175.5c-1,0-1.8-0.2-2.3-0.7c-0.5-0.5-0.8-1.1-0.8-1.9c0-0.4,0.1-0.8,0.2-1.2c0.1-0.3,0.4-0.6,0.6-0.8
		c0.3-0.2,0.6-0.4,1-0.5s0.8-0.2,1.3-0.2c1,0,1.8,0.2,2.3,0.7c0.5,0.5,0.8,1.1,0.8,2c0,0.4-0.1,0.8-0.2,1.2
		c-0.1,0.3-0.4,0.6-0.6,0.8c-0.3,0.2-0.6,0.4-1,0.5C24.1,175.4,23.6,175.5,23.2,175.5z M23.2,174.5c0.3,0,0.6,0,0.9-0.1
		s0.5-0.2,0.7-0.3s0.4-0.3,0.5-0.5s0.2-0.5,0.2-0.8c0-1.1-0.8-1.6-2.3-1.6c-0.3,0-0.6,0-0.9,0.1c-0.3,0.1-0.5,0.2-0.7,0.3
		s-0.4,0.3-0.5,0.5c-0.1,0.2-0.2,0.5-0.2,0.8C20.9,173.9,21.6,174.5,23.2,174.5z"/>
	<path d="M23.7,167.1l1.1-0.3v0l-1.2-0.3l-3.5-1.3v-1l6.1,2.6v0.4l-6.1,2.6v-1.1L23.7,167.1z"/>
	<path d="M25.7,158.8c0.2,0.2,0.3,0.5,0.5,0.9c0.1,0.4,0.2,0.8,0.2,1.2c0,0.5-0.1,0.9-0.2,1.2c-0.1,0.3-0.4,0.6-0.6,0.8
		c-0.3,0.2-0.6,0.4-1,0.5c-0.4,0.1-0.8,0.2-1.3,0.2c-1,0-1.8-0.2-2.3-0.7s-0.8-1.1-0.8-2c0-0.3,0-0.5,0.1-0.8
		c0.1-0.3,0.2-0.5,0.3-0.7c0.2-0.2,0.4-0.4,0.7-0.5c0.3-0.1,0.7-0.2,1.2-0.2c0.3,0,0.6,0,0.9,0.1v3.9c0.4,0,0.7,0,0.9-0.1
		c0.3-0.1,0.5-0.2,0.7-0.3c0.2-0.2,0.3-0.4,0.4-0.6c0.1-0.2,0.1-0.5,0.1-0.9c0-0.3,0-0.5-0.1-0.8s-0.2-0.5-0.3-0.6L25.7,158.8z
		 M20.9,160.9c0,0.5,0.1,0.9,0.4,1.1c0.2,0.3,0.7,0.5,1.3,0.5v-3c-0.6,0-1,0.1-1.3,0.3C21,160.1,20.9,160.4,20.9,160.9z"/>
	<path d="M21.1,154.3c-0.1,0.2-0.1,0.5-0.1,0.7c0,0.3,0.1,0.6,0.3,0.8c0.2,0.2,0.4,0.3,0.7,0.4h4.2v1h-6v-0.7l0.7-0.2v0
		c-0.3-0.2-0.5-0.3-0.6-0.5c-0.1-0.2-0.2-0.5-0.2-0.8c0-0.2,0-0.5,0.1-0.8L21.1,154.3z"/>
	<path d="M20.2,153.4v-0.9H19l-0.3-1h1.5v-1.6H21v1.6h3.3c0.4,0,0.7-0.1,0.9-0.2s0.3-0.3,0.3-0.5c0-0.2,0-0.4-0.1-0.5
		c0-0.1-0.1-0.3-0.2-0.5l0.7-0.2c0.1,0.2,0.2,0.5,0.3,0.7c0.1,0.3,0.1,0.5,0.1,0.8c0,0.5-0.1,0.8-0.4,1c-0.3,0.2-0.7,0.3-1.4,0.3H21
		v0.9H20.2z"/>
	<path d="M24.1,146.8l1.2-0.3v-0.1l-1.2-0.3l-3.9-1.2v-1l5.4,1.8c0.4,0.1,0.8,0.3,1.1,0.4c0.4,0.1,0.7,0.3,1,0.4
		c0.3,0.2,0.5,0.3,0.7,0.5c0.2,0.2,0.3,0.4,0.3,0.7c0,0.3,0,0.5-0.1,0.7l-0.8-0.2c0-0.1,0.1-0.2,0.1-0.3c0-0.2-0.1-0.4-0.4-0.6
		c-0.2-0.2-0.6-0.4-1.2-0.5l-6,2.4v-1.1L24.1,146.8z"/>
	<path d="M17.6,143.3c0.4-0.4,0.8-0.7,1.3-0.9c0.5-0.3,0.9-0.5,1.4-0.6c0.5-0.2,1-0.3,1.5-0.3c0.5-0.1,1-0.1,1.4-0.1
		c0.4,0,0.9,0,1.4,0.1c0.5,0.1,1,0.2,1.5,0.3c0.5,0.2,1,0.4,1.4,0.6c0.5,0.3,0.9,0.6,1.3,1l-0.4,0.6c-0.4-0.3-0.8-0.6-1.3-0.8
		c-0.4-0.2-0.9-0.4-1.3-0.5c-0.4-0.1-0.9-0.2-1.3-0.3c-0.4-0.1-0.9-0.1-1.3-0.1c-0.4,0-0.8,0-1.2,0.1c-0.4,0.1-0.9,0.2-1.4,0.3
		s-0.9,0.3-1.3,0.5c-0.4,0.2-0.8,0.5-1.2,0.8L17.6,143.3z"/>
</g>
<line fill="none" stroke="#3B6E8F" stroke-miterlimit="10" x1="47.8" y1="31.8" x2="47.8" y2="385.4"/>
<line fill="none" stroke="#3B6E8F" stroke-miterlimit="10" x1="45.6" y1="385.4" x2="449.5" y2="385.4"/>
</svg>
