<?xml version="1.0" encoding="utf-8"?>
<!-- Generator: Adobe Illustrator 18.0.0, SVG Export Plug-In . SVG Version: 6.00 Build 0)  -->
<!DOCTYPE svg PUBLIC "-//W3C//DTD SVG 1.1//EN" "http://www.w3.org/Graphics/SVG/1.1/DTD/svg11.dtd">
<svg version="1.1" id="Layer_1" xmlns="http://www.w3.org/2000/svg" xmlns:xlink="http://www.w3.org/1999/xlink" x="0px" y="0px"
	 viewBox="0 0 593.5 443.5" enable-background="new 0 0 593.5 443.5" xml:space="preserve">
<rect x="17.5" fill="none" stroke="#FFFFFF" stroke-width="1.06" stroke-linecap="round" stroke-linejoin="round" stroke-miterlimit="10" width="576" height="432"/>
<line fill="none" stroke="#FAFAFA" stroke-width="1.06" stroke-linejoin="round" stroke-miterlimit="10" x1="52.9" y1="349.7" x2="342.8" y2="349.7"/>
<line fill="none" stroke="#FAFAFA" stroke-width="1.06" stroke-linejoin="round" stroke-miterlimit="10" x1="52.9" y1="258.7" x2="342.8" y2="258.7"/>
<line fill="none" stroke="#FAFAFA" stroke-width="1.06" stroke-linejoin="round" stroke-miterlimit="10" x1="52.9" y1="167.8" x2="342.8" y2="167.8"/>
<line fill="none" stroke="#FAFAFA" stroke-width="1.06" stroke-linejoin="round" stroke-miterlimit="10" x1="52.9" y1="76.9" x2="342.8" y2="76.9"/>
<line fill="none" stroke="#FAFAFA" stroke-width="1.06" stroke-linejoin="round" stroke-miterlimit="10" x1="89.7" y1="395.2" x2="89.7" y2="31.4"/>
<line fill="none" stroke="#FAFAFA" stroke-width="1.06" stroke-linejoin="round" stroke-miterlimit="10" x1="135.7" y1="395.2" x2="135.7" y2="31.4"/>
<line fill="none" stroke="#FAFAFA" stroke-width="1.06" stroke-linejoin="round" stroke-miterlimit="10" x1="181.8" y1="395.2" x2="181.8" y2="31.4"/>
<line fill="none" stroke="#FAFAFA" stroke-width="1.06" stroke-linejoin="round" stroke-miterlimit="10" x1="227.7" y1="395.2" x2="227.7" y2="31.4"/>
<line fill="none" stroke="#FAFAFA" stroke-width="1.06" stroke-linejoin="round" stroke-miterlimit="10" x1="273.7" y1="395.2" x2="273.7" y2="31.4"/>
<line fill="none" stroke="#FAFAFA" stroke-width="1.06" stroke-linejoin="round" stroke-miterlimit="10" x1="319.8" y1="395.2" x2="319.8" y2="31.4"/>
<line fill="none" stroke="#E5E5E5" stroke-width="0.43" stroke-linejoin="round" stroke-miterlimit="10" x1="52.9" y1="395.2" x2="342.8" y2="395.2"/>
<line fill="none" stroke="#E5E5E5" stroke-width="0.43" stroke-linejoin="round" stroke-miterlimit="10" x1="52.9" y1="304.2" x2="342.8" y2="304.2"/>
<line fill="none" stroke="#E5E5E5" stroke-width="0.43" stroke-linejoin="round" stroke-miterlimit="10" x1="52.9" y1="213.3" x2="342.8" y2="213.3"/>
<line fill="none" stroke="#E5E5E5" stroke-width="0.43" stroke-linejoin="round" stroke-miterlimit="10" x1="52.9" y1="122.3" x2="342.8" y2="122.3"/>
<line fill="none" stroke="#E5E5E5" stroke-width="0.43" stroke-linejoin="round" stroke-miterlimit="10" x1="52.9" y1="31.4" x2="342.8" y2="31.4"/>
<line fill="none" stroke="#E5E5E5" stroke-width="0.43" stroke-linejoin="round" stroke-miterlimit="10" x1="66.7" y1="395.2" x2="66.7" y2="31.4"/>
<line fill="none" stroke="#E5E5E5" stroke-width="0.43" stroke-linejoin="round" stroke-miterlimit="10" x1="112.7" y1="395.2" x2="112.7" y2="31.4"/>
<line fill="none" stroke="#E5E5E5" stroke-width="0.43" stroke-linejoin="round" stroke-miterlimit="10" x1="158.8" y1="395.2" x2="158.8" y2="31.4"/>
<line fill="none" stroke="#E5E5E5" stroke-width="0.43" stroke-linejoin="round" stroke-miterlimit="10" x1="204.8" y1="395.2" x2="204.8" y2="31.4"/>
<line fill="none" stroke="#E5E5E5" stroke-width="0.43" stroke-linejoin="round" stroke-miterlimit="10" x1="250.7" y1="395.2" x2="250.7" y2="31.4"/>
<line fill="none" stroke="#E5E5E5" stroke-width="0.43" stroke-linejoin="round" stroke-miterlimit="10" x1="296.7" y1="395.2" x2="296.7" y2="31.4"/>
<line fill="none" stroke="#E5E5E5" stroke-width="0.43" stroke-linejoin="round" stroke-miterlimit="10" x1="342.8" y1="395.2" x2="342.8" y2="31.4"/>
<polyline fill="none" stroke="#66C2A5" stroke-width="2.13" stroke-linejoin="round" stroke-miterlimit="1" points="66.7,75 
	112.7,91.4 158.8,113.7 204.8,70 250.7,114.1 296.7,105 342.8,79.6 "/>
<polyline fill="none" stroke="#FC8D62" stroke-width="2.13" stroke-linejoin="round" stroke-miterlimit="1" points="66.7,258.3 
	112.7,261.5 158.8,270.1 204.8,262.4 250.7,264.2 296.7,262.8 342.8,245.1 "/>
<polyline fill="none" stroke="#8DA0CB" stroke-width="2.13" stroke-linejoin="round" stroke-miterlimit="1" points="66.7,253.3 
	112.7,261.5 158.8,275.6 204.8,280.6 250.7,293.8 296.7,296 342.8,293.3 "/>
<polyline fill="none" stroke="#FFD92F" stroke-width="2.13" stroke-linejoin="round" stroke-miterlimit="1" points="66.7,206.9 
	112.7,219.6 158.8,251 204.8,267.8 250.7,286.5 296.7,295.1 342.8,291 "/>
<g>
	<path d="M40.7,395.2c0-1.2,0.2-2.1,0.6-2.7c0.4-0.6,1-0.9,1.7-0.9c0.8,0,1.4,0.3,1.8,0.9c0.4,0.6,0.5,1.5,0.5,2.7
		c0,1.2-0.2,2.1-0.6,2.7s-1,0.9-1.7,0.9c-0.8,0-1.4-0.3-1.7-1C40.9,397.2,40.7,396.3,40.7,395.2z M41.5,395.2c0,0.4,0,0.8,0.1,1.2
		c0.1,0.4,0.1,0.7,0.3,0.9c0.1,0.3,0.3,0.5,0.5,0.6c0.2,0.1,0.4,0.2,0.7,0.2c0.5,0,0.9-0.2,1.1-0.7s0.4-1.2,0.4-2.2
		c0-0.4,0-0.8-0.1-1.2c-0.1-0.4-0.1-0.7-0.2-0.9c-0.1-0.3-0.3-0.5-0.5-0.6c-0.2-0.1-0.4-0.2-0.7-0.2c-0.5,0-0.9,0.2-1.1,0.7
		C41.7,393.4,41.5,394.2,41.5,395.2z"/>
</g>
<g>
	<path d="M40.7,307.7v-0.5l0.7-0.7c1.7-1.6,2.4-2.4,2.4-3.4c0-0.7-0.3-1.3-1.3-1.3c-0.6,0-1.1,0.3-1.4,0.5l-0.3-0.6
		c0.4-0.4,1.1-0.7,1.8-0.7c1.4,0,2,1,2,1.9c0,1.2-0.9,2.2-2.2,3.5L42,307v0h2.9v0.7H40.7z"/>
</g>
<g>
	<path d="M45.5,214.6h-1.2v2.1h-0.8v-2.1h-3.1v-0.3l3.3-4.6h0.5v4.3h1.2V214.6z M43.6,211.7l0.1-0.8h0l-0.4,0.7l-1.4,1.9l-0.5,0.5
		l0.7-0.1h1.5V211.7z"/>
</g>
<g>
	<path d="M45.2,123.7c0,0.3,0,0.6-0.1,0.9s-0.2,0.5-0.4,0.7c-0.2,0.2-0.4,0.4-0.7,0.5c-0.3,0.1-0.6,0.2-0.9,0.2
		c-0.3,0-0.6-0.1-0.9-0.2c-0.3-0.1-0.5-0.3-0.7-0.5c-0.2-0.2-0.3-0.5-0.4-0.8s-0.2-0.7-0.2-1.1c0-0.7,0.1-1.3,0.3-1.8s0.4-1,0.7-1.5
		c0.3-0.4,0.7-0.7,1.1-1c0.4-0.3,0.9-0.4,1.3-0.5l0.2,0.6c-0.4,0.1-0.7,0.2-1,0.4c-0.3,0.2-0.6,0.4-0.8,0.7
		c-0.2,0.3-0.4,0.6-0.6,0.9c-0.1,0.3-0.2,0.7-0.3,1.1c0.1-0.2,0.3-0.3,0.5-0.5s0.6-0.2,0.9-0.2c0.6,0,1.1,0.2,1.5,0.5
		C45,122.6,45.2,123.1,45.2,123.7z M44.4,123.8c0-0.5-0.1-0.8-0.3-1.1c-0.2-0.2-0.6-0.4-1-0.4c-0.3,0-0.6,0.1-0.8,0.2
		c-0.2,0.2-0.4,0.3-0.5,0.5c0,0.1,0,0.2,0,0.2c0,0.1,0,0.1,0,0.2c0,0.2,0,0.4,0.1,0.6c0.1,0.2,0.1,0.4,0.3,0.5s0.3,0.3,0.4,0.4
		s0.4,0.1,0.6,0.1c0.2,0,0.4,0,0.5-0.1c0.2-0.1,0.3-0.2,0.4-0.3c0.1-0.1,0.2-0.3,0.3-0.5C44.3,124.2,44.4,124,44.4,123.8z"/>
</g>
<g>
	<path d="M41,33.2c0-0.4,0.1-0.8,0.3-1.1c0.2-0.3,0.6-0.6,1-0.8c-0.2-0.1-0.3-0.2-0.5-0.3c-0.1-0.1-0.3-0.2-0.4-0.4
		c-0.1-0.1-0.2-0.3-0.3-0.5c-0.1-0.2-0.1-0.4-0.1-0.6c0-0.3,0-0.5,0.1-0.7c0.1-0.2,0.2-0.4,0.4-0.5c0.2-0.2,0.4-0.3,0.6-0.4
		c0.2-0.1,0.5-0.1,0.8-0.1c0.3,0,0.5,0,0.8,0.1s0.4,0.2,0.6,0.3c0.2,0.1,0.3,0.3,0.4,0.5c0.1,0.2,0.1,0.4,0.1,0.6
		c0,0.4-0.1,0.7-0.3,1s-0.5,0.6-0.9,0.9c0.2,0.1,0.3,0.2,0.5,0.3c0.2,0.1,0.3,0.3,0.4,0.4s0.2,0.3,0.3,0.5c0.1,0.2,0.1,0.4,0.1,0.6
		c0,0.3,0,0.5-0.1,0.8c-0.1,0.2-0.2,0.4-0.4,0.6c-0.2,0.2-0.4,0.3-0.7,0.4C43.6,34.9,43.3,35,43,35c-0.3,0-0.6,0-0.9-0.1
		s-0.5-0.2-0.6-0.4c-0.2-0.2-0.3-0.3-0.4-0.6C41,33.7,41,33.4,41,33.2z M44.3,33.1c0-0.2,0-0.4-0.1-0.5s-0.2-0.3-0.3-0.4
		c-0.1-0.1-0.3-0.2-0.4-0.3s-0.3-0.2-0.5-0.3c-0.4,0.2-0.7,0.5-0.9,0.8c-0.2,0.3-0.3,0.5-0.3,0.8c0,0.2,0,0.3,0.1,0.5
		c0.1,0.1,0.1,0.3,0.2,0.4c0.1,0.1,0.2,0.2,0.4,0.3s0.3,0.1,0.5,0.1c0.2,0,0.3,0,0.5-0.1c0.2-0.1,0.3-0.1,0.4-0.2s0.2-0.2,0.3-0.4
		C44.2,33.5,44.3,33.3,44.3,33.1z M41.9,29.5c0,0.2,0,0.4,0.1,0.5c0.1,0.1,0.2,0.3,0.3,0.4s0.3,0.2,0.4,0.3c0.2,0.1,0.3,0.2,0.5,0.3
		c0.3-0.2,0.5-0.5,0.7-0.7c0.1-0.2,0.2-0.5,0.2-0.8c0-0.3-0.1-0.6-0.3-0.8c-0.2-0.2-0.5-0.3-0.8-0.3c-0.2,0-0.3,0-0.5,0.1
		c-0.1,0.1-0.3,0.1-0.4,0.2C42.1,28.9,42,29,42,29.1C41.9,29.2,41.9,29.3,41.9,29.5z"/>
</g>
<line fill="none" stroke="#3B6E8F" stroke-width="1.06" stroke-linejoin="round" stroke-miterlimit="10" x1="48.7" y1="395.2" x2="52.9" y2="395.2"/>
<line fill="none" stroke="#3B6E8F" stroke-width="1.06" stroke-linejoin="round" stroke-miterlimit="10" x1="48.7" y1="304.2" x2="52.9" y2="304.2"/>
<line fill="none" stroke="#3B6E8F" stroke-width="1.06" stroke-linejoin="round" stroke-miterlimit="10" x1="48.7" y1="213.3" x2="52.9" y2="213.3"/>
<line fill="none" stroke="#3B6E8F" stroke-width="1.06" stroke-linejoin="round" stroke-miterlimit="10" x1="48.7" y1="122.3" x2="52.9" y2="122.3"/>
<line fill="none" stroke="#3B6E8F" stroke-width="1.06" stroke-linejoin="round" stroke-miterlimit="10" x1="48.7" y1="31.4" x2="52.9" y2="31.4"/>
<line fill="none" stroke="#3B6E8F" stroke-width="1.06" stroke-linejoin="round" stroke-miterlimit="10" x1="66.7" y1="399.4" x2="66.7" y2="395.2"/>
<line fill="none" stroke="#3B6E8F" stroke-width="1.06" stroke-linejoin="round" stroke-miterlimit="10" x1="112.7" y1="399.4" x2="112.7" y2="395.2"/>
<line fill="none" stroke="#3B6E8F" stroke-width="1.06" stroke-linejoin="round" stroke-miterlimit="10" x1="158.8" y1="399.4" x2="158.8" y2="395.2"/>
<line fill="none" stroke="#3B6E8F" stroke-width="1.06" stroke-linejoin="round" stroke-miterlimit="10" x1="204.8" y1="399.4" x2="204.8" y2="395.2"/>
<line fill="none" stroke="#3B6E8F" stroke-width="1.06" stroke-linejoin="round" stroke-miterlimit="10" x1="250.7" y1="399.4" x2="250.7" y2="395.2"/>
<line fill="none" stroke="#3B6E8F" stroke-width="1.06" stroke-linejoin="round" stroke-miterlimit="10" x1="296.7" y1="399.4" x2="296.7" y2="395.2"/>
<line fill="none" stroke="#3B6E8F" stroke-width="1.06" stroke-linejoin="round" stroke-miterlimit="10" x1="342.8" y1="399.4" x2="342.8" y2="395.2"/>
<g>
	<path d="M171.5,419.3h4.6v0.9h-3.6v2.7h3.3v0.9h-3.3v3h3.6v0.9h-4.6V419.3z"/>
	<path d="M181.6,427.7v-3.4c0-0.6-0.1-1.1-0.3-1.4c-0.2-0.3-0.5-0.5-1-0.5c-0.4,0-0.8,0.1-1.1,0.3c-0.3,0.2-0.5,0.5-0.6,0.9v4.1h-1
		v-6h0.7l0.2,0.7h0c0.2-0.3,0.4-0.5,0.8-0.6c0.3-0.2,0.7-0.2,1.2-0.2c0.3,0,0.6,0,0.9,0.1c0.2,0.1,0.5,0.2,0.6,0.4s0.3,0.5,0.4,0.8
		c0.1,0.3,0.1,0.7,0.1,1.2v3.6H181.6z"/>
	<path d="M183.6,421.7h0.9v-1.2l1-0.3v1.5h1.6v0.8h-1.6v3.3c0,0.4,0.1,0.7,0.2,0.9s0.3,0.3,0.5,0.3c0.2,0,0.4,0,0.5-0.1
		c0.1,0,0.3-0.1,0.5-0.2l0.2,0.7c-0.2,0.1-0.5,0.2-0.7,0.3c-0.3,0.1-0.5,0.1-0.8,0.1c-0.5,0-0.8-0.1-1-0.4c-0.2-0.3-0.3-0.7-0.3-1.4
		v-3.5h-0.9V421.7z"/>
	<path d="M191.2,422.6c-0.2-0.1-0.5-0.1-0.7-0.1c-0.3,0-0.6,0.1-0.8,0.3c-0.2,0.2-0.3,0.4-0.4,0.7v4.2h-1v-6h0.7l0.2,0.7h0
		c0.2-0.3,0.3-0.5,0.5-0.6c0.2-0.1,0.5-0.2,0.8-0.2c0.2,0,0.5,0,0.8,0.1L191.2,422.6z"/>
	<path d="M194.3,425.6l0.3,1.2h0.1l0.3-1.2l1.2-3.9h1l-1.8,5.4c-0.1,0.4-0.3,0.8-0.4,1.1c-0.1,0.4-0.3,0.7-0.4,1
		c-0.2,0.3-0.3,0.5-0.5,0.7c-0.2,0.2-0.4,0.3-0.7,0.3c-0.3,0-0.5,0-0.7-0.1l0.2-0.8c0.1,0,0.2,0.1,0.3,0.1c0.2,0,0.4-0.1,0.6-0.4
		c0.2-0.2,0.4-0.6,0.5-1.2l-2.4-6h1.1L194.3,425.6z"/>
	<path d="M201,423.5c0-1.4,0.3-2.5,0.9-3.2c0.6-0.7,1.4-1.1,2.5-1.1c0.6,0,1.1,0.1,1.5,0.3c0.4,0.2,0.8,0.5,1.1,0.9
		c0.3,0.4,0.5,0.8,0.6,1.4c0.1,0.5,0.2,1.1,0.2,1.8c0,1.4-0.3,2.5-0.9,3.2c-0.6,0.7-1.4,1.1-2.6,1.1c-0.6,0-1.1-0.1-1.5-0.3
		c-0.4-0.2-0.8-0.5-1.1-0.9c-0.3-0.4-0.5-0.8-0.6-1.4C201.1,424.8,201,424.2,201,423.5z M202.1,423.5c0,0.5,0,0.9,0.1,1.3
		c0.1,0.4,0.2,0.8,0.4,1.1c0.2,0.3,0.4,0.6,0.7,0.8c0.3,0.2,0.7,0.3,1.1,0.3c0.7,0,1.3-0.3,1.8-0.8c0.4-0.6,0.6-1.4,0.6-2.6
		c0-0.5,0-0.9-0.1-1.3c-0.1-0.4-0.2-0.8-0.4-1.1c-0.2-0.3-0.4-0.6-0.7-0.8c-0.3-0.2-0.7-0.3-1.1-0.3c-0.7,0-1.3,0.3-1.7,0.8
		C202.3,421.5,202.1,422.3,202.1,423.5z M208.8,429.8c-0.2,0.1-0.4,0.1-0.6,0.1c-0.2,0-0.4,0-0.6,0c-0.4,0-0.8,0-1.2-0.1
		c-0.4-0.1-0.7-0.2-1.1-0.3s-0.7-0.2-1-0.3c-0.3-0.1-0.6-0.1-0.9-0.1c-0.2,0-0.4,0-0.6,0.1v-0.9c0.1,0,0.2,0,0.3-0.1
		c0.1,0,0.2,0,0.3,0c0.3,0,0.7,0,1,0.1s0.7,0.2,1,0.3c0.3,0.1,0.7,0.2,1.1,0.3c0.4,0.1,0.7,0.1,1.1,0.1c0.4,0,0.7,0,1-0.1V429.8z"/>
	<path d="M210.4,421.7v3.4c0,0.3,0,0.6,0.1,0.8c0,0.2,0.1,0.4,0.2,0.6s0.2,0.3,0.4,0.4c0.2,0.1,0.3,0.1,0.6,0.1c0.2,0,0.4,0,0.6-0.1
		s0.3-0.2,0.5-0.3c0.1-0.1,0.2-0.3,0.3-0.4s0.2-0.3,0.2-0.5v-4h1v4.3c0,0.3,0,0.6,0,0.9c0,0.3,0.1,0.6,0.1,0.8h-0.7l-0.2-0.9h-0.1
		c-0.2,0.3-0.4,0.6-0.7,0.8s-0.7,0.3-1.2,0.3c-0.3,0-0.6,0-0.8-0.1c-0.2-0.1-0.4-0.2-0.6-0.4c-0.2-0.2-0.3-0.5-0.4-0.8
		c-0.1-0.3-0.1-0.7-0.1-1.2v-3.6H210.4z"/>
	<path d="M215.9,422.1c0.3-0.2,0.7-0.3,1.1-0.4c0.4-0.1,0.8-0.1,1.3-0.1c0.4,0,0.8,0.1,1,0.2c0.3,0.1,0.4,0.3,0.6,0.4
		c0.1,0.2,0.2,0.4,0.3,0.6c0,0.2,0.1,0.4,0.1,0.6c0,0.5,0,0.9,0,1.4s0,0.9,0,1.3c0,0.3,0,0.6,0,0.8s0.1,0.5,0.1,0.7h-0.7l-0.3-0.8
		h-0.1c-0.1,0.1-0.2,0.2-0.3,0.3c-0.1,0.1-0.2,0.2-0.4,0.3s-0.3,0.2-0.5,0.2c-0.2,0.1-0.4,0.1-0.7,0.1c-0.3,0-0.5,0-0.7-0.1
		c-0.2-0.1-0.4-0.2-0.6-0.3c-0.2-0.1-0.3-0.3-0.4-0.5c-0.1-0.2-0.1-0.4-0.1-0.7c0-0.4,0.1-0.6,0.2-0.9c0.1-0.2,0.3-0.4,0.6-0.6
		c0.3-0.1,0.6-0.2,0.9-0.3c0.4-0.1,0.8-0.1,1.2-0.1c0.1,0,0.2,0,0.3,0c0.1,0,0.2,0,0.3,0c0-0.2,0-0.5,0-0.6c0-0.4-0.1-0.7-0.3-0.9
		c-0.2-0.2-0.5-0.3-1-0.3c-0.1,0-0.3,0-0.4,0c-0.2,0-0.3,0-0.5,0.1s-0.3,0.1-0.5,0.1s-0.3,0.1-0.4,0.2L215.9,422.1z M217.6,427
		c0.2,0,0.4,0,0.6-0.1c0.2-0.1,0.3-0.1,0.5-0.2c0.1-0.1,0.2-0.2,0.3-0.3c0.1-0.1,0.1-0.2,0.2-0.3v-1c-0.1,0-0.2,0-0.3,0
		c-0.1,0-0.2,0-0.3,0c-0.2,0-0.5,0-0.7,0c-0.2,0-0.4,0.1-0.6,0.2c-0.2,0.1-0.3,0.2-0.4,0.3s-0.2,0.3-0.2,0.5c0,0.3,0.1,0.5,0.3,0.7
		C217,426.9,217.3,427,217.6,427z"/>
	<path d="M224.8,422.6c-0.2-0.1-0.5-0.1-0.7-0.1c-0.3,0-0.6,0.1-0.8,0.3c-0.2,0.2-0.3,0.4-0.4,0.7v4.2h-1v-6h0.7l0.2,0.7h0
		c0.2-0.3,0.3-0.5,0.5-0.6c0.2-0.1,0.5-0.2,0.8-0.2c0.2,0,0.5,0,0.8,0.1L224.8,422.6z"/>
	<path d="M225.2,421.7h0.9v-1.2l1-0.3v1.5h1.6v0.8h-1.6v3.3c0,0.4,0.1,0.7,0.2,0.9s0.3,0.3,0.5,0.3c0.2,0,0.4,0,0.5-0.1
		c0.1,0,0.3-0.1,0.5-0.2l0.2,0.7c-0.2,0.1-0.5,0.2-0.7,0.3c-0.3,0.1-0.5,0.1-0.8,0.1c-0.5,0-0.8-0.1-1-0.4c-0.2-0.3-0.3-0.7-0.3-1.4
		v-3.5h-0.9V421.7z"/>
	<path d="M234.4,427.2c-0.2,0.2-0.5,0.3-0.9,0.5c-0.4,0.1-0.8,0.2-1.2,0.2c-0.5,0-0.9-0.1-1.2-0.2c-0.3-0.1-0.6-0.4-0.8-0.6
		c-0.2-0.3-0.4-0.6-0.5-1c-0.1-0.4-0.2-0.8-0.2-1.3c0-1,0.2-1.8,0.7-2.3s1.1-0.8,2-0.8c0.3,0,0.5,0,0.8,0.1c0.3,0.1,0.5,0.2,0.7,0.3
		c0.2,0.2,0.4,0.4,0.5,0.7c0.1,0.3,0.2,0.7,0.2,1.2c0,0.3,0,0.6-0.1,0.9h-3.9c0,0.4,0,0.7,0.1,0.9c0.1,0.3,0.2,0.5,0.3,0.7
		c0.2,0.2,0.4,0.3,0.6,0.4c0.2,0.1,0.5,0.1,0.9,0.1c0.3,0,0.5,0,0.8-0.1s0.5-0.2,0.6-0.3L234.4,427.2z M232.4,422.4
		c-0.5,0-0.9,0.1-1.1,0.4c-0.3,0.2-0.5,0.7-0.5,1.3h3c0-0.6-0.1-1-0.3-1.3C233.1,422.5,232.8,422.4,232.4,422.4z"/>
	<path d="M239,422.6c-0.2-0.1-0.5-0.1-0.7-0.1c-0.3,0-0.6,0.1-0.8,0.3c-0.2,0.2-0.3,0.4-0.4,0.7v4.2h-1v-6h0.7l0.2,0.7h0
		c0.2-0.3,0.3-0.5,0.5-0.6c0.2-0.1,0.5-0.2,0.8-0.2c0.2,0,0.5,0,0.8,0.1L239,422.6z"/>
</g>
<g>
	<path d="M18.4,308.6c-0.1-0.3-0.1-0.7-0.1-1c0-0.4,0-0.8,0-1.1c0-0.4,0-0.7,0.1-1.1s0.2-0.6,0.4-0.9c0.2-0.3,0.4-0.5,0.7-0.6
		s0.7-0.2,1.1-0.2c0.7,0,1.2,0.2,1.6,0.5c0.4,0.4,0.7,0.8,0.8,1.4l0.4-0.6l3.3-2.1v1.2l-3.6,2.3l-0.2,1.2h3.8v1H18.4z M19,306.5
		c0,0.1,0,0.2,0,0.3s0,0.2,0,0.3c0,0.1,0,0.2,0,0.3s0,0.2,0,0.2h3.1v-0.9c0-0.6-0.1-1-0.4-1.4c-0.3-0.4-0.7-0.5-1.3-0.5
		c-0.4,0-0.8,0.1-1.1,0.4C19.2,305.5,19,305.9,19,306.5z"/>
	<path d="M21.1,301.7c-0.2-0.3-0.3-0.7-0.4-1.1c-0.1-0.4-0.1-0.8-0.1-1.3c0-0.4,0.1-0.8,0.2-1c0.1-0.3,0.3-0.4,0.4-0.6
		c0.2-0.1,0.4-0.2,0.6-0.3c0.2,0,0.4-0.1,0.6-0.1c0.5,0,0.9,0,1.4,0s0.9,0,1.3,0c0.3,0,0.6,0,0.8,0s0.5-0.1,0.7-0.1v0.7l-0.8,0.3
		v0.1c0.1,0.1,0.2,0.2,0.3,0.3c0.1,0.1,0.2,0.2,0.3,0.4s0.2,0.3,0.2,0.5c0.1,0.2,0.1,0.4,0.1,0.7s0,0.5-0.1,0.7
		c-0.1,0.2-0.2,0.4-0.3,0.6c-0.1,0.2-0.3,0.3-0.5,0.4c-0.2,0.1-0.4,0.1-0.7,0.1c-0.4,0-0.6-0.1-0.9-0.2c-0.2-0.1-0.4-0.3-0.6-0.6
		c-0.1-0.3-0.2-0.6-0.3-0.9c-0.1-0.4-0.1-0.8-0.1-1.2c0-0.1,0-0.2,0-0.3c0-0.1,0-0.2,0-0.3c-0.2,0-0.5,0-0.6,0
		c-0.4,0-0.7,0.1-0.9,0.3s-0.3,0.5-0.3,1c0,0.1,0,0.3,0,0.4c0,0.2,0,0.3,0.1,0.5s0.1,0.3,0.1,0.5s0.1,0.3,0.2,0.4L21.1,301.7z
		 M25.9,300c0-0.2,0-0.4-0.1-0.6c-0.1-0.2-0.1-0.3-0.2-0.5c-0.1-0.1-0.2-0.2-0.3-0.3c-0.1-0.1-0.2-0.1-0.3-0.2h-1c0,0.1,0,0.2,0,0.3
		c0,0.1,0,0.2,0,0.3c0,0.2,0,0.5,0,0.7s0.1,0.4,0.2,0.6c0.1,0.2,0.2,0.3,0.3,0.4c0.1,0.1,0.3,0.2,0.5,0.2c0.3,0,0.5-0.1,0.7-0.3
		C25.8,300.5,25.9,300.3,25.9,300z"/>
	<path d="M20.7,296.4v-0.9h-1.2l-0.3-1h1.5v-1.6h0.8v1.6h3.3c0.4,0,0.7-0.1,0.9-0.2s0.3-0.3,0.3-0.5c0-0.2,0-0.4-0.1-0.5
		c0-0.1-0.1-0.3-0.2-0.5l0.7-0.2c0.1,0.2,0.2,0.5,0.3,0.7c0.1,0.3,0.1,0.5,0.1,0.8c0,0.5-0.1,0.8-0.4,1c-0.3,0.2-0.7,0.3-1.4,0.3
		h-3.5v0.9H20.7z"/>
	<path d="M26.2,287.2c0.2,0.2,0.3,0.5,0.5,0.9c0.1,0.4,0.2,0.8,0.2,1.2c0,0.5-0.1,0.9-0.2,1.2c-0.1,0.3-0.4,0.6-0.6,0.8
		c-0.3,0.2-0.6,0.4-1,0.5s-0.8,0.2-1.3,0.2c-1,0-1.8-0.2-2.3-0.7c-0.5-0.5-0.8-1.1-0.8-2c0-0.3,0-0.5,0.1-0.8
		c0.1-0.3,0.2-0.5,0.3-0.7c0.2-0.2,0.4-0.4,0.7-0.5c0.3-0.1,0.7-0.2,1.2-0.2c0.3,0,0.6,0,0.9,0.1v3.9c0.4,0,0.7,0,0.9-0.1
		c0.3-0.1,0.5-0.2,0.7-0.3c0.2-0.2,0.3-0.4,0.4-0.6c0.1-0.2,0.1-0.5,0.1-0.9c0-0.3,0-0.5-0.1-0.8s-0.2-0.5-0.3-0.6L26.2,287.2z
		 M21.4,289.2c0,0.5,0.1,0.9,0.4,1.1c0.2,0.3,0.7,0.5,1.3,0.5v-3c-0.6,0-1,0.1-1.3,0.3C21.5,288.5,21.4,288.8,21.4,289.2z"/>
	<path d="M23.7,282.6c-1,0-1.8-0.2-2.3-0.7c-0.5-0.5-0.8-1.1-0.8-1.9c0-0.4,0.1-0.8,0.2-1.2s0.4-0.6,0.6-0.8c0.3-0.2,0.6-0.4,1-0.5
		c0.4-0.1,0.8-0.2,1.3-0.2c1,0,1.8,0.2,2.3,0.7s0.8,1.1,0.8,2c0,0.4-0.1,0.8-0.2,1.2c-0.1,0.3-0.4,0.6-0.6,0.8
		c-0.3,0.2-0.6,0.4-1,0.5C24.6,282.5,24.2,282.6,23.7,282.6z M23.7,281.6c0.3,0,0.6,0,0.9-0.1s0.5-0.2,0.7-0.3s0.4-0.3,0.5-0.5
		s0.2-0.5,0.2-0.8c0-1.1-0.8-1.6-2.3-1.6c-0.3,0-0.6,0-0.9,0.1s-0.5,0.2-0.7,0.3c-0.2,0.1-0.4,0.3-0.5,0.5c-0.1,0.2-0.2,0.5-0.2,0.8
		C21.4,281,22.1,281.6,23.7,281.6z"/>
	<path d="M20.7,276.5v-0.9h-0.3c-0.4,0-0.7,0-1-0.1c-0.3-0.1-0.5-0.2-0.7-0.3c-0.2-0.1-0.3-0.3-0.4-0.5c-0.1-0.2-0.1-0.5-0.1-0.8
		c0-0.3,0-0.5,0-0.7c0-0.2,0.1-0.4,0.2-0.6l0.8,0.2c-0.1,0.2-0.1,0.4-0.2,0.5c0,0.2,0,0.3,0,0.5c0,0.2,0,0.4,0.1,0.5
		c0.1,0.1,0.2,0.2,0.3,0.3s0.3,0.1,0.5,0.1s0.4,0,0.6,0h0.2V273h0.8v1.6h5.2v1h-5.2v0.9H20.7z"/>
	<path d="M18.3,268.7v-4.6h0.9v3.6h2.7v-3.3h0.9v3.3h3v-3.6h0.9v4.6H18.3z"/>
	<path d="M26.7,258.5h-3.4c-0.6,0-1.1,0.1-1.4,0.3c-0.3,0.2-0.5,0.5-0.5,1c0,0.4,0.1,0.8,0.3,1c0.2,0.3,0.5,0.5,0.9,0.6h4.1v1h-6
		v-0.7l0.7-0.2v0c-0.3-0.2-0.5-0.4-0.6-0.8c-0.2-0.3-0.2-0.7-0.2-1.2c0-0.3,0-0.6,0.1-0.9c0.1-0.2,0.2-0.5,0.4-0.6s0.5-0.3,0.8-0.4
		c0.3-0.1,0.7-0.1,1.2-0.1h3.6V258.5z"/>
	<path d="M20.7,256.6v-0.9h-1.2l-0.3-1h1.5v-1.6h0.8v1.6h3.3c0.4,0,0.7-0.1,0.9-0.2s0.3-0.3,0.3-0.5c0-0.2,0-0.4-0.1-0.5
		c0-0.1-0.1-0.3-0.2-0.5l0.7-0.2c0.1,0.2,0.2,0.5,0.3,0.7c0.1,0.3,0.1,0.5,0.1,0.8c0,0.5-0.1,0.8-0.4,1c-0.3,0.2-0.7,0.3-1.4,0.3
		h-3.5v0.9H20.7z"/>
	<path d="M21.6,248.9c-0.1,0.2-0.1,0.5-0.1,0.7c0,0.3,0.1,0.6,0.3,0.8c0.2,0.2,0.4,0.3,0.7,0.4h4.2v1h-6V251l0.7-0.2v0
		c-0.3-0.2-0.5-0.3-0.6-0.5c-0.1-0.2-0.2-0.5-0.2-0.8c0-0.2,0-0.5,0.1-0.8L21.6,248.9z"/>
	<path d="M18.9,247.6c-0.2,0-0.3-0.1-0.5-0.2c-0.1-0.1-0.2-0.3-0.2-0.5s0.1-0.4,0.2-0.5s0.3-0.2,0.5-0.2c0.2,0,0.3,0.1,0.5,0.2
		s0.2,0.3,0.2,0.5s-0.1,0.4-0.2,0.5C19.2,247.6,19,247.6,18.9,247.6z M20.7,247.4v-1h6v1H20.7z"/>
	<path d="M26.2,240c0.2,0.2,0.3,0.5,0.5,0.9c0.1,0.4,0.2,0.8,0.2,1.2c0,0.5-0.1,0.9-0.2,1.2c-0.1,0.3-0.4,0.6-0.6,0.8
		c-0.3,0.2-0.6,0.4-1,0.5s-0.8,0.2-1.3,0.2c-1,0-1.8-0.2-2.3-0.7c-0.5-0.5-0.8-1.1-0.8-2c0-0.3,0-0.5,0.1-0.8
		c0.1-0.3,0.2-0.5,0.3-0.7c0.2-0.2,0.4-0.4,0.7-0.5c0.3-0.1,0.7-0.2,1.2-0.2c0.3,0,0.6,0,0.9,0.1v3.9c0.4,0,0.7,0,0.9-0.1
		c0.3-0.1,0.5-0.2,0.7-0.3c0.2-0.2,0.3-0.4,0.4-0.6c0.1-0.2,0.1-0.5,0.1-0.9c0-0.3,0-0.5-0.1-0.8s-0.2-0.5-0.3-0.6L26.2,240z
		 M21.4,242.1c0,0.5,0.1,0.9,0.4,1.1c0.2,0.3,0.7,0.5,1.3,0.5v-3c-0.6,0-1,0.1-1.3,0.3C21.5,241.4,21.4,241.7,21.4,242.1z"/>
	<path d="M25,235.7c-0.2,0-0.4,0.1-0.6,0.2c-0.1,0.1-0.2,0.3-0.3,0.5s-0.2,0.4-0.3,0.7s-0.2,0.5-0.3,0.7c-0.1,0.2-0.3,0.4-0.5,0.5
		s-0.5,0.2-0.8,0.2c-0.6,0-1-0.2-1.3-0.5c-0.3-0.3-0.4-0.8-0.4-1.4c0-0.4,0-0.8,0.1-1.1c0.1-0.3,0.2-0.5,0.3-0.8l0.8,0.2
		c-0.1,0.2-0.2,0.4-0.2,0.7c-0.1,0.3-0.1,0.5-0.1,0.8c0,0.4,0.1,0.6,0.2,0.8s0.3,0.2,0.6,0.2c0.2,0,0.4-0.1,0.5-0.2s0.2-0.3,0.3-0.5
		c0.1-0.2,0.2-0.4,0.3-0.7s0.2-0.5,0.3-0.7s0.3-0.4,0.5-0.5s0.5-0.2,0.9-0.2c0.3,0,0.5,0,0.7,0.1c0.2,0.1,0.4,0.2,0.6,0.4
		c0.2,0.2,0.3,0.4,0.4,0.7c0.1,0.3,0.1,0.6,0.1,0.9c0,0.5,0,0.8-0.1,1.2s-0.2,0.6-0.3,0.8l-0.8-0.3c0.1-0.2,0.2-0.4,0.3-0.7
		s0.1-0.6,0.1-0.9c0-0.3-0.1-0.6-0.2-0.9C25.6,235.8,25.4,235.7,25,235.7z"/>
	<path d="M29.3,228.3c-0.4,0.4-0.8,0.7-1.3,0.9c-0.5,0.3-0.9,0.5-1.4,0.6c-0.5,0.2-1,0.3-1.5,0.3s-1,0.1-1.4,0.1
		c-0.4,0-0.9,0-1.4-0.1c-0.5-0.1-1-0.2-1.5-0.3c-0.5-0.2-1-0.4-1.4-0.6c-0.5-0.3-0.9-0.6-1.3-1l0.4-0.6c0.4,0.3,0.8,0.6,1.3,0.8
		c0.4,0.2,0.9,0.4,1.3,0.5c0.4,0.1,0.9,0.2,1.3,0.3c0.4,0.1,0.9,0.1,1.3,0.1c0.4,0,0.8,0,1.3-0.1s0.9-0.2,1.4-0.3
		c0.5-0.1,0.9-0.3,1.3-0.5c0.4-0.2,0.8-0.5,1.2-0.8L29.3,228.3z"/>
	<path d="M20.7,226.7v-0.7l0.7-0.2v0c-0.3-0.2-0.5-0.4-0.6-0.7c-0.1-0.3-0.2-0.6-0.2-1c0-0.8,0.2-1.4,0.7-1.8
		c0.5-0.4,1.2-0.6,2.3-0.6c0.5,0,1,0.1,1.4,0.2s0.7,0.3,1,0.6c0.3,0.2,0.5,0.5,0.6,0.9s0.2,0.7,0.2,1.1c0,0.3,0,0.5-0.1,0.7
		s-0.1,0.4-0.2,0.6h2.5v1H20.7z M21.4,224.3c0,0.4,0.1,0.7,0.3,1s0.5,0.4,1,0.5h3c0.1-0.1,0.2-0.3,0.3-0.5c0.1-0.2,0.1-0.4,0.1-0.7
		c0-0.6-0.2-1-0.6-1.3c-0.4-0.3-1-0.5-1.8-0.5c-0.3,0-0.6,0-0.9,0.1c-0.3,0.1-0.5,0.1-0.7,0.3c-0.2,0.1-0.3,0.3-0.4,0.5
		C21.4,223.8,21.4,224,21.4,224.3z"/>
	<path d="M26.2,215.8c0.2,0.2,0.3,0.5,0.5,0.9c0.1,0.4,0.2,0.8,0.2,1.2c0,0.5-0.1,0.9-0.2,1.2c-0.1,0.3-0.4,0.6-0.6,0.8
		c-0.3,0.2-0.6,0.4-1,0.5s-0.8,0.2-1.3,0.2c-1,0-1.8-0.2-2.3-0.7s-0.8-1.1-0.8-2c0-0.3,0-0.5,0.1-0.8c0.1-0.3,0.2-0.5,0.3-0.7
		s0.4-0.4,0.7-0.5c0.3-0.1,0.7-0.2,1.2-0.2c0.3,0,0.6,0,0.9,0.1v3.9c0.4,0,0.7,0,0.9-0.1c0.3-0.1,0.5-0.2,0.7-0.3
		c0.2-0.2,0.3-0.4,0.4-0.6c0.1-0.2,0.1-0.5,0.1-0.9c0-0.3,0-0.5-0.1-0.8c-0.1-0.3-0.2-0.5-0.3-0.6L26.2,215.8z M21.4,217.9
		c0,0.5,0.1,0.8,0.4,1.1s0.7,0.5,1.3,0.5v-3c-0.6,0-1,0.1-1.3,0.3C21.5,217.2,21.4,217.5,21.4,217.9z"/>
	<path d="M21.6,211.3c-0.1,0.2-0.1,0.5-0.1,0.7c0,0.3,0.1,0.6,0.3,0.8c0.2,0.2,0.4,0.3,0.7,0.4h4.2v1h-6v-0.7l0.7-0.2v0
		c-0.3-0.2-0.5-0.3-0.6-0.5c-0.1-0.2-0.2-0.5-0.2-0.8c0-0.2,0-0.5,0.1-0.8L21.6,211.3z"/>
	<path d="M25.8,206.5v-1.7H20l-0.7-0.1l0.6,0.5l0.9,1.3l-0.6,0.5l-2-2.6v-0.4h7.7v-1.6h0.9v4.3H25.8z"/>
	<path d="M26.2,200.6c-0.2,0-0.3-0.1-0.5-0.2c-0.1-0.1-0.2-0.3-0.2-0.5c0-0.2,0.1-0.5,0.3-0.6c0.2-0.2,0.4-0.2,0.8-0.2
		c0.3,0,0.5,0,0.8,0.1c0.2,0.1,0.4,0.2,0.6,0.3c0.2,0.1,0.3,0.3,0.4,0.4c0.1,0.2,0.2,0.3,0.2,0.5l-0.5,0.3c-0.1-0.3-0.3-0.5-0.5-0.6
		c-0.2-0.1-0.5-0.2-0.7-0.2c0,0.1,0,0.1,0,0.2c0,0.2-0.1,0.3-0.2,0.4S26.4,200.6,26.2,200.6z"/>
	<path d="M22.5,198.4c-1.4,0-2.5-0.2-3.3-0.7c-0.7-0.5-1.1-1.2-1.1-2c0-1,0.4-1.7,1.1-2.1s1.8-0.7,3.3-0.7c1.4,0,2.5,0.2,3.3,0.7
		c0.7,0.5,1.1,1.2,1.1,2.1c0,1-0.4,1.6-1.1,2.1S23.9,198.4,22.5,198.4z M22.5,197.4c0.5,0,1,0,1.4-0.1c0.4-0.1,0.8-0.2,1.1-0.3
		s0.5-0.3,0.7-0.5c0.2-0.2,0.3-0.5,0.3-0.8c0-0.6-0.3-1.1-0.8-1.3c-0.6-0.3-1.5-0.4-2.7-0.4c-0.5,0-1,0-1.4,0.1
		c-0.4,0.1-0.8,0.2-1.1,0.3c-0.3,0.1-0.6,0.3-0.7,0.5c-0.2,0.2-0.3,0.5-0.3,0.8c0,0.6,0.3,1,0.9,1.3
		C20.4,197.2,21.3,197.4,22.5,197.4z"/>
	<path d="M22.5,191.8c-1.4,0-2.5-0.2-3.3-0.7c-0.7-0.5-1.1-1.2-1.1-2c0-1,0.4-1.7,1.1-2.1s1.8-0.7,3.3-0.7c1.4,0,2.5,0.2,3.3,0.7
		c0.7,0.5,1.1,1.2,1.1,2.1c0,1-0.4,1.6-1.1,2.1S23.9,191.8,22.5,191.8z M22.5,190.8c0.5,0,1,0,1.4-0.1c0.4-0.1,0.8-0.2,1.1-0.3
		s0.5-0.3,0.7-0.5c0.2-0.2,0.3-0.5,0.3-0.8c0-0.6-0.3-1.1-0.8-1.3c-0.6-0.3-1.5-0.4-2.7-0.4c-0.5,0-1,0-1.4,0.1
		c-0.4,0.1-0.8,0.2-1.1,0.3c-0.3,0.1-0.6,0.3-0.7,0.5c-0.2,0.2-0.3,0.5-0.3,0.8c0,0.6,0.3,1,0.9,1.3
		C20.4,190.7,21.3,190.8,22.5,190.8z"/>
	<path d="M22.5,185.3c-1.4,0-2.5-0.2-3.3-0.7c-0.7-0.5-1.1-1.2-1.1-2c0-1,0.4-1.7,1.1-2.1s1.8-0.7,3.3-0.7c1.4,0,2.5,0.2,3.3,0.7
		c0.7,0.5,1.1,1.2,1.1,2.1c0,1-0.4,1.6-1.1,2.1S23.9,185.3,22.5,185.3z M22.5,184.3c0.5,0,1,0,1.4-0.1c0.4-0.1,0.8-0.2,1.1-0.3
		s0.5-0.3,0.7-0.5c0.2-0.2,0.3-0.5,0.3-0.8c0-0.6-0.3-1.1-0.8-1.3c-0.6-0.3-1.5-0.4-2.7-0.4c-0.5,0-1,0-1.4,0.1
		c-0.4,0.1-0.8,0.2-1.1,0.3c-0.3,0.1-0.6,0.3-0.7,0.5c-0.2,0.2-0.3,0.5-0.3,0.8c0,0.6,0.3,1,0.9,1.3
		C20.4,184.2,21.3,184.3,22.5,184.3z"/>
	<path d="M20.7,175.1v-0.7l0.7-0.2v0c-0.3-0.2-0.5-0.4-0.6-0.7s-0.2-0.6-0.2-1c0-0.8,0.2-1.4,0.7-1.8c0.5-0.4,1.2-0.6,2.3-0.6
		c0.5,0,1,0.1,1.4,0.2s0.7,0.3,1,0.6c0.3,0.2,0.5,0.5,0.6,0.9c0.2,0.3,0.2,0.7,0.2,1.1c0,0.3,0,0.5-0.1,0.7s-0.1,0.4-0.2,0.6h2.5v1
		H20.7z M21.4,172.7c0,0.4,0.1,0.7,0.3,1s0.5,0.4,1,0.5h3c0.1-0.1,0.2-0.3,0.3-0.5c0.1-0.2,0.1-0.4,0.1-0.7c0-0.6-0.2-1-0.6-1.3
		c-0.4-0.3-1-0.5-1.8-0.5c-0.3,0-0.6,0-0.9,0.1c-0.3,0.1-0.5,0.1-0.7,0.3c-0.2,0.1-0.3,0.3-0.4,0.5
		C21.4,172.2,21.4,172.4,21.4,172.7z"/>
	<path d="M23.7,169c-1,0-1.8-0.2-2.3-0.7c-0.5-0.5-0.8-1.1-0.8-1.9c0-0.4,0.1-0.8,0.2-1.2c0.1-0.3,0.4-0.6,0.6-0.8
		c0.3-0.2,0.6-0.4,1-0.5s0.8-0.2,1.3-0.2c1,0,1.8,0.2,2.3,0.7c0.5,0.5,0.8,1.1,0.8,2c0,0.4-0.1,0.8-0.2,1.2
		c-0.1,0.3-0.4,0.6-0.6,0.8c-0.3,0.2-0.6,0.4-1,0.5C24.6,168.9,24.2,169,23.7,169z M23.7,168c0.3,0,0.6,0,0.9-0.1s0.5-0.2,0.7-0.3
		s0.4-0.3,0.5-0.5s0.2-0.5,0.2-0.8c0-1.1-0.8-1.6-2.3-1.6c-0.3,0-0.6,0-0.9,0.1c-0.3,0.1-0.5,0.2-0.7,0.3s-0.4,0.3-0.5,0.5
		c-0.1,0.2-0.2,0.5-0.2,0.8C21.4,167.4,22.1,168,23.7,168z"/>
	<path d="M20.7,162.2v-0.7l0.7-0.2v0c-0.3-0.2-0.5-0.4-0.6-0.7s-0.2-0.6-0.2-1c0-0.8,0.2-1.4,0.7-1.8c0.5-0.4,1.2-0.6,2.3-0.6
		c0.5,0,1,0.1,1.4,0.2s0.7,0.3,1,0.6c0.3,0.2,0.5,0.5,0.6,0.9c0.2,0.3,0.2,0.7,0.2,1.1c0,0.3,0,0.5-0.1,0.7s-0.1,0.4-0.2,0.6h2.5v1
		H20.7z M21.4,159.8c0,0.4,0.1,0.7,0.3,1s0.5,0.4,1,0.5h3c0.1-0.1,0.2-0.3,0.3-0.5c0.1-0.2,0.1-0.4,0.1-0.7c0-0.6-0.2-1-0.6-1.3
		c-0.4-0.3-1-0.5-1.8-0.5c-0.3,0-0.6,0-0.9,0.1c-0.3,0.1-0.5,0.1-0.7,0.3c-0.2,0.1-0.3,0.3-0.4,0.5
		C21.4,159.3,21.4,159.5,21.4,159.8z"/>
	<path d="M20.7,154.9h3.4c0.3,0,0.6,0,0.8-0.1c0.2,0,0.4-0.1,0.6-0.2s0.3-0.2,0.4-0.4c0.1-0.2,0.1-0.3,0.1-0.6c0-0.2,0-0.4-0.1-0.6
		s-0.2-0.3-0.3-0.5c-0.1-0.1-0.3-0.2-0.4-0.3s-0.3-0.2-0.5-0.2h-4v-1H25c0.3,0,0.6,0,0.9,0c0.3,0,0.6-0.1,0.8-0.1v0.7l-0.9,0.2v0.1
		c0.3,0.2,0.6,0.4,0.8,0.7s0.3,0.7,0.3,1.2c0,0.3,0,0.6-0.1,0.8c-0.1,0.2-0.2,0.4-0.4,0.6c-0.2,0.2-0.5,0.3-0.8,0.4
		c-0.3,0.1-0.7,0.1-1.2,0.1h-3.6V154.9z"/>
	<path d="M25.2,148.2c0.3,0,0.5,0,0.6-0.1c0.1-0.1,0.2-0.2,0.2-0.4c0-0.1,0-0.2,0-0.3c0-0.1-0.1-0.3-0.1-0.4l0.8-0.1
		c0.1,0.1,0.1,0.3,0.2,0.5s0.1,0.4,0.1,0.6c0,0.4-0.1,0.7-0.3,0.9s-0.5,0.3-1,0.3h-7.2v-1H25.2z"/>
	<path d="M21.1,145.8c-0.2-0.3-0.3-0.7-0.4-1.1c-0.1-0.4-0.1-0.8-0.1-1.3c0-0.4,0.1-0.8,0.2-1c0.1-0.3,0.3-0.4,0.4-0.6
		c0.2-0.1,0.4-0.2,0.6-0.3c0.2,0,0.4-0.1,0.6-0.1c0.5,0,0.9,0,1.4,0s0.9,0,1.3,0c0.3,0,0.6,0,0.8,0s0.5-0.1,0.7-0.1v0.7l-0.8,0.3
		v0.1c0.1,0.1,0.2,0.2,0.3,0.3c0.1,0.1,0.2,0.2,0.3,0.4s0.2,0.3,0.2,0.5c0.1,0.2,0.1,0.4,0.1,0.7c0,0.3,0,0.5-0.1,0.7
		c-0.1,0.2-0.2,0.4-0.3,0.6c-0.1,0.2-0.3,0.3-0.5,0.4c-0.2,0.1-0.4,0.1-0.7,0.1c-0.4,0-0.6-0.1-0.9-0.2c-0.2-0.1-0.4-0.3-0.6-0.6
		c-0.1-0.3-0.2-0.6-0.3-0.9c-0.1-0.4-0.1-0.8-0.1-1.2c0-0.1,0-0.2,0-0.3c0-0.1,0-0.2,0-0.3c-0.2,0-0.5,0-0.6,0
		c-0.4,0-0.7,0.1-0.9,0.3c-0.2,0.2-0.3,0.5-0.3,1c0,0.1,0,0.3,0,0.4c0,0.2,0,0.3,0.1,0.5s0.1,0.3,0.1,0.5s0.1,0.3,0.2,0.4
		L21.1,145.8z M25.9,144.1c0-0.2,0-0.4-0.1-0.6c-0.1-0.2-0.1-0.3-0.2-0.5c-0.1-0.1-0.2-0.2-0.3-0.3c-0.1-0.1-0.2-0.1-0.3-0.2h-1
		c0,0.1,0,0.2,0,0.3c0,0.1,0,0.2,0,0.3c0,0.2,0,0.5,0,0.7c0,0.2,0.1,0.4,0.2,0.6c0.1,0.2,0.2,0.3,0.3,0.4s0.3,0.2,0.5,0.2
		c0.3,0,0.5-0.1,0.7-0.3C25.8,144.7,25.9,144.5,25.9,144.1z"/>
	<path d="M20.7,140.6v-0.9h-1.2l-0.3-1h1.5v-1.6h0.8v1.6h3.3c0.4,0,0.7-0.1,0.9-0.2s0.3-0.3,0.3-0.5c0-0.2,0-0.4-0.1-0.5
		c0-0.1-0.1-0.3-0.2-0.5l0.7-0.2c0.1,0.2,0.2,0.5,0.3,0.7c0.1,0.3,0.1,0.5,0.1,0.8c0,0.5-0.1,0.8-0.4,1c-0.3,0.2-0.7,0.3-1.4,0.3
		h-3.5v0.9H20.7z"/>
	<path d="M18.9,135.7c-0.2,0-0.3-0.1-0.5-0.2s-0.2-0.3-0.2-0.5s0.1-0.4,0.2-0.5c0.1-0.1,0.3-0.2,0.5-0.2c0.2,0,0.3,0.1,0.5,0.2
		c0.1,0.1,0.2,0.3,0.2,0.5s-0.1,0.4-0.2,0.5S19,135.7,18.9,135.7z M20.7,135.5v-1h6v1H20.7z"/>
	<path d="M23.7,132.8c-1,0-1.8-0.2-2.3-0.7c-0.5-0.5-0.8-1.1-0.8-1.9c0-0.4,0.1-0.8,0.2-1.2c0.1-0.3,0.4-0.6,0.6-0.8
		c0.3-0.2,0.6-0.4,1-0.5s0.8-0.2,1.3-0.2c1,0,1.8,0.2,2.3,0.7c0.5,0.5,0.8,1.1,0.8,2c0,0.4-0.1,0.8-0.2,1.2
		c-0.1,0.3-0.4,0.6-0.6,0.8c-0.3,0.2-0.6,0.4-1,0.5C24.6,132.8,24.2,132.8,23.7,132.8z M23.7,131.9c0.3,0,0.6,0,0.9-0.1
		s0.5-0.2,0.7-0.3s0.4-0.3,0.5-0.5s0.2-0.5,0.2-0.8c0-1.1-0.8-1.6-2.3-1.6c-0.3,0-0.6,0-0.9,0.1c-0.3,0.1-0.5,0.2-0.7,0.3
		s-0.4,0.3-0.5,0.5c-0.1,0.2-0.2,0.5-0.2,0.8C21.4,131.3,22.1,131.9,23.7,131.9z"/>
	<path d="M26.7,122.2h-3.4c-0.6,0-1.1,0.1-1.4,0.3c-0.3,0.2-0.5,0.5-0.5,1c0,0.4,0.1,0.8,0.3,1.1c0.2,0.3,0.5,0.5,0.9,0.6h4.1v1h-6
		v-0.7l0.7-0.2v0c-0.3-0.2-0.5-0.4-0.6-0.8c-0.2-0.3-0.2-0.7-0.2-1.2c0-0.3,0-0.6,0.1-0.9c0.1-0.2,0.2-0.5,0.4-0.6s0.5-0.3,0.8-0.4
		c0.3-0.1,0.7-0.1,1.2-0.1h3.6V122.2z"/>
	<path d="M18.1,119.8c0.4-0.4,0.8-0.7,1.3-0.9c0.5-0.3,0.9-0.5,1.4-0.6c0.5-0.2,1-0.3,1.5-0.3c0.5-0.1,1-0.1,1.4-0.1
		c0.4,0,0.9,0,1.4,0.1c0.5,0.1,1,0.2,1.5,0.3c0.5,0.2,1,0.4,1.4,0.6c0.5,0.3,0.9,0.6,1.3,1l-0.4,0.6c-0.4-0.3-0.8-0.6-1.3-0.8
		c-0.4-0.2-0.9-0.4-1.3-0.5c-0.4-0.1-0.9-0.2-1.3-0.3c-0.4-0.1-0.9-0.1-1.3-0.1c-0.4,0-0.8,0-1.2,0.1c-0.4,0.1-0.9,0.2-1.4,0.3
		s-0.9,0.3-1.3,0.5c-0.4,0.2-0.8,0.5-1.2,0.8L18.1,119.8z"/>
</g>
<g>
	<path d="M375.9,172.2h-3.1l-0.8,2.3h-1l3.2-8.5h0.5l3.2,8.5h-1.1L375.9,172.2z M373.1,171.3h2.5l-0.9-2.6l-0.3-1.3h0l-0.3,1.3
		L373.1,171.3z"/>
	<path d="M383.4,174.8c0,0.8-0.2,1.3-0.6,1.7c-0.4,0.4-1,0.6-1.8,0.6c-0.5,0-0.9,0-1.2-0.1s-0.5-0.1-0.8-0.2l0.3-0.8
		c0.2,0.1,0.4,0.1,0.6,0.2c0.2,0.1,0.5,0.1,0.9,0.1c0.3,0,0.6,0,0.8-0.1c0.2-0.1,0.4-0.2,0.5-0.3s0.2-0.3,0.3-0.5s0.1-0.5,0.1-0.8
		v-0.6h0c-0.2,0.2-0.4,0.4-0.6,0.5c-0.2,0.1-0.6,0.2-1,0.2c-0.8,0-1.4-0.3-1.8-0.8s-0.6-1.3-0.6-2.4c0-1,0.2-1.8,0.7-2.3
		c0.5-0.5,1.2-0.8,2.2-0.8c0.5,0,0.8,0,1.2,0.1c0.3,0.1,0.6,0.2,0.9,0.3V174.8z M381,173.8c0.4,0,0.7-0.1,1-0.3
		c0.2-0.2,0.4-0.5,0.5-1v-3.1c-0.3-0.2-0.7-0.2-1.2-0.2c-0.5,0-1,0.2-1.3,0.6c-0.3,0.4-0.5,0.9-0.5,1.7c0,0.3,0,0.6,0.1,0.9
		c0.1,0.3,0.1,0.5,0.3,0.7c0.1,0.2,0.3,0.4,0.5,0.5C380.5,173.8,380.7,173.8,381,173.8z"/>
	<path d="M389.6,174c-0.2,0.2-0.5,0.3-0.9,0.5c-0.4,0.1-0.8,0.2-1.2,0.2c-0.5,0-0.9-0.1-1.2-0.2s-0.6-0.4-0.8-0.6
		c-0.2-0.3-0.4-0.6-0.5-1c-0.1-0.4-0.2-0.8-0.2-1.3c0-1,0.2-1.8,0.7-2.3c0.5-0.5,1.1-0.8,2-0.8c0.3,0,0.5,0,0.8,0.1
		c0.3,0.1,0.5,0.2,0.7,0.3c0.2,0.2,0.4,0.4,0.5,0.7c0.1,0.3,0.2,0.7,0.2,1.2c0,0.3,0,0.6-0.1,0.9h-3.9c0,0.4,0,0.7,0.1,0.9
		c0.1,0.3,0.2,0.5,0.3,0.7c0.2,0.2,0.3,0.3,0.6,0.4c0.2,0.1,0.5,0.2,0.9,0.2c0.3,0,0.5,0,0.8-0.1c0.3-0.1,0.5-0.2,0.6-0.3L389.6,174
		z M387.6,169.2c-0.5,0-0.9,0.1-1.1,0.4c-0.3,0.2-0.5,0.7-0.5,1.3h3c0-0.6-0.1-1-0.3-1.3C388.3,169.3,388,169.2,387.6,169.2z"/>
	<path d="M397.5,170.3h2.8v3.7c-0.1,0.1-0.3,0.2-0.5,0.3s-0.4,0.1-0.6,0.2c-0.2,0.1-0.4,0.1-0.6,0.1c-0.2,0-0.4,0-0.6,0
		c-0.5,0-1-0.1-1.5-0.3c-0.4-0.2-0.8-0.4-1.2-0.8s-0.6-0.8-0.8-1.4c-0.2-0.5-0.3-1.2-0.3-1.9c0-0.8,0.1-1.4,0.3-2
		c0.2-0.6,0.5-1,0.9-1.4c0.4-0.3,0.8-0.6,1.2-0.8c0.4-0.2,0.9-0.2,1.3-0.2c0.5,0,0.9,0,1.2,0.1c0.3,0.1,0.6,0.1,0.8,0.2l-0.3,0.9
		c-0.4-0.2-0.9-0.3-1.6-0.3c-0.3,0-0.7,0.1-1,0.2c-0.3,0.1-0.6,0.3-0.9,0.6s-0.5,0.6-0.6,1.1c-0.2,0.4-0.3,1-0.3,1.6
		c0,0.6,0.1,1.1,0.2,1.5s0.3,0.8,0.6,1.1c0.2,0.3,0.5,0.5,0.9,0.6c0.3,0.1,0.7,0.2,1.1,0.2c0.5,0,0.9-0.1,1.3-0.3v-2.3l-2-0.2V170.3
		z"/>
	<path d="M404.7,169.5c-0.2-0.1-0.5-0.1-0.7-0.1c-0.3,0-0.6,0.1-0.8,0.3s-0.3,0.4-0.4,0.7v4.2h-1v-6h0.7l0.2,0.7h0
		c0.2-0.3,0.3-0.5,0.5-0.6s0.5-0.2,0.8-0.2c0.2,0,0.5,0,0.8,0.1L404.7,169.5z"/>
	<path d="M405.7,171.5c0-1,0.2-1.8,0.7-2.3s1.1-0.8,2-0.8c0.4,0,0.8,0.1,1.2,0.2s0.6,0.4,0.8,0.6c0.2,0.3,0.4,0.6,0.5,1
		c0.1,0.4,0.2,0.8,0.2,1.3c0,1-0.2,1.8-0.7,2.3s-1.1,0.8-2,0.8c-0.4,0-0.8-0.1-1.2-0.2s-0.6-0.4-0.8-0.6c-0.2-0.3-0.4-0.6-0.5-1
		C405.7,172.4,405.7,172,405.7,171.5z M406.7,171.5c0,0.3,0,0.6,0.1,0.9c0.1,0.3,0.2,0.5,0.3,0.7s0.3,0.4,0.5,0.5
		c0.2,0.1,0.5,0.2,0.8,0.2c1.1,0,1.6-0.8,1.6-2.3c0-0.3,0-0.6-0.1-0.9c-0.1-0.3-0.2-0.5-0.3-0.7s-0.3-0.4-0.5-0.5
		c-0.2-0.1-0.5-0.2-0.8-0.2C407.2,169.2,406.7,170,406.7,171.5z"/>
	<path d="M413.3,168.5v3.4c0,0.3,0,0.6,0.1,0.8s0.1,0.4,0.2,0.6c0.1,0.2,0.2,0.3,0.4,0.4c0.2,0.1,0.3,0.1,0.6,0.1
		c0.2,0,0.4,0,0.6-0.1s0.3-0.2,0.5-0.3s0.2-0.3,0.3-0.4c0.1-0.2,0.2-0.3,0.2-0.5v-4h1v4.3c0,0.3,0,0.6,0,0.9c0,0.3,0.1,0.6,0.1,0.8
		h-0.7l-0.2-0.9h-0.1c-0.2,0.3-0.4,0.6-0.7,0.8c-0.3,0.2-0.7,0.3-1.2,0.3c-0.3,0-0.6,0-0.8-0.1c-0.2-0.1-0.4-0.2-0.6-0.4
		s-0.3-0.4-0.4-0.8s-0.1-0.7-0.1-1.2v-3.6H413.3z"/>
	<path d="M418.9,168.5h0.7l0.2,0.7h0c0.2-0.3,0.4-0.5,0.7-0.6c0.3-0.1,0.6-0.2,1-0.2c0.8,0,1.4,0.2,1.8,0.7c0.4,0.5,0.6,1.2,0.6,2.3
		c0,0.5-0.1,1-0.2,1.4c-0.1,0.4-0.3,0.7-0.6,1c-0.2,0.3-0.5,0.5-0.9,0.6c-0.3,0.2-0.7,0.2-1.1,0.2c-0.3,0-0.5,0-0.7-0.1
		c-0.2,0-0.4-0.1-0.6-0.2v2.5h-1V168.5z M421.3,169.2c-0.4,0-0.7,0.1-1,0.3s-0.4,0.5-0.5,1v3c0.1,0.1,0.3,0.2,0.5,0.3
		c0.2,0.1,0.4,0.1,0.7,0.1c0.6,0,1-0.2,1.3-0.6s0.5-1,0.5-1.8c0-0.3,0-0.6-0.1-0.9c-0.1-0.3-0.1-0.5-0.3-0.7s-0.3-0.3-0.5-0.4
		C421.8,169.3,421.6,169.2,421.3,169.2z"/>
</g>
<rect x="370.9" y="184.3" fill="#FFFFFF" width="17.3" height="17.3"/>
<line fill="none" stroke="#66C2A5" stroke-width="2.13" stroke-linejoin="round" stroke-miterlimit="10" x1="372.6" y1="193" x2="386.4" y2="193"/>
<line fill="none" stroke="#FC8D62" stroke-width="2.13" stroke-linejoin="round" stroke-miterlimit="10" x1="372.6" y1="210.3" x2="386.4" y2="210.3"/>
<rect x="370.9" y="218.9" fill="#FFFFFF" width="17.3" height="17.3"/>
<line fill="none" stroke="#8DA0CB" stroke-width="2.13" stroke-linejoin="round" stroke-miterlimit="10" x1="372.6" y1="227.6" x2="386.4" y2="227.6"/>
<line fill="none" stroke="#FFD92F" stroke-width="2.13" stroke-linejoin="round" stroke-miterlimit="10" x1="372.6" y1="244.8" x2="386.4" y2="244.8"/>
<g>
	<path d="M391.2,189.5h3.8v0.7h-3v2.3h2.7v0.7H392v2.5h3v0.7h-3.9V189.5z"/>
	<path d="M396.4,191.9c0.3-0.2,0.5-0.3,0.9-0.3c0.3-0.1,0.7-0.1,1.1-0.1c0.3,0,0.6,0,0.8,0.1s0.4,0.2,0.5,0.4
		c0.1,0.2,0.2,0.3,0.2,0.5c0,0.2,0.1,0.4,0.1,0.5c0,0.4,0,0.8,0,1.2c0,0.4,0,0.7,0,1.1c0,0.2,0,0.5,0,0.7c0,0.2,0.1,0.4,0.1,0.6
		h-0.6l-0.2-0.7h0c-0.1,0.1-0.1,0.2-0.2,0.3c-0.1,0.1-0.2,0.2-0.3,0.2c-0.1,0.1-0.3,0.1-0.4,0.2c-0.2,0-0.4,0.1-0.6,0.1
		c-0.2,0-0.4,0-0.6-0.1s-0.3-0.2-0.5-0.3c-0.1-0.1-0.2-0.3-0.3-0.4c-0.1-0.2-0.1-0.4-0.1-0.6c0-0.3,0.1-0.5,0.2-0.7
		c0.1-0.2,0.3-0.4,0.5-0.5s0.5-0.2,0.8-0.2c0.3-0.1,0.6-0.1,1-0.1c0.1,0,0.2,0,0.3,0s0.2,0,0.3,0c0-0.2,0-0.4,0-0.5
		c0-0.4-0.1-0.6-0.2-0.8c-0.1-0.1-0.4-0.2-0.8-0.2c-0.1,0-0.2,0-0.4,0c-0.1,0-0.3,0-0.4,0.1s-0.3,0.1-0.4,0.1
		c-0.1,0-0.2,0.1-0.3,0.1L396.4,191.9z M397.8,195.9c0.2,0,0.4,0,0.5-0.1c0.1-0.1,0.3-0.1,0.4-0.2c0.1-0.1,0.2-0.2,0.3-0.3
		c0.1-0.1,0.1-0.2,0.2-0.3v-0.8c-0.1,0-0.2,0-0.3,0s-0.2,0-0.3,0c-0.2,0-0.4,0-0.6,0c-0.2,0-0.4,0.1-0.5,0.1
		c-0.1,0.1-0.3,0.2-0.4,0.3c-0.1,0.1-0.1,0.2-0.1,0.4c0,0.2,0.1,0.4,0.2,0.6C397.3,195.8,397.5,195.9,397.8,195.9z"/>
	<path d="M403.8,192.2c-0.2-0.1-0.4-0.1-0.6-0.1c-0.3,0-0.5,0.1-0.7,0.2c-0.2,0.2-0.3,0.4-0.3,0.6v3.5h-0.8v-5h0.6l0.2,0.6h0
		c0.1-0.2,0.3-0.4,0.5-0.5c0.2-0.1,0.4-0.2,0.7-0.2c0.2,0,0.4,0,0.6,0.1L403.8,192.2z"/>
	<path d="M405.7,195.2c0,0.2,0,0.4,0.1,0.5s0.2,0.1,0.3,0.1c0.1,0,0.2,0,0.3,0c0.1,0,0.2,0,0.3-0.1l0.1,0.6
		c-0.1,0.1-0.3,0.1-0.4,0.1c-0.2,0-0.4,0.1-0.5,0.1c-0.3,0-0.5-0.1-0.7-0.3c-0.2-0.2-0.3-0.5-0.3-0.9v-6h0.8V195.2z"/>
	<path d="M409.2,194.7l0.3,1h0l0.2-1l1-3.2h0.8L410,196c-0.1,0.3-0.2,0.6-0.3,0.9s-0.2,0.6-0.4,0.8c-0.1,0.2-0.3,0.4-0.4,0.6
		c-0.2,0.1-0.4,0.2-0.6,0.2c-0.2,0-0.4,0-0.6-0.1l0.1-0.7c0.1,0,0.2,0.1,0.2,0.1c0.2,0,0.4-0.1,0.5-0.3c0.2-0.2,0.3-0.5,0.4-1l-2-5
		h0.9L409.2,194.7z"/>
	<path d="M419.6,196.2c-0.2,0.2-0.5,0.3-0.8,0.3c-0.3,0.1-0.6,0.1-1,0.1c-0.4,0-0.8-0.1-1.2-0.2c-0.4-0.1-0.7-0.4-1-0.7
		s-0.5-0.7-0.7-1.1s-0.2-1-0.2-1.6c0-0.7,0.1-1.2,0.3-1.7s0.4-0.8,0.7-1.1s0.6-0.5,1-0.6s0.7-0.2,1.1-0.2c0.4,0,0.7,0,1,0.1
		c0.3,0,0.5,0.1,0.7,0.2l-0.2,0.7c-0.3-0.2-0.8-0.2-1.4-0.2c-0.3,0-0.5,0-0.8,0.1s-0.5,0.3-0.7,0.5c-0.2,0.2-0.4,0.5-0.5,0.9
		s-0.2,0.8-0.2,1.4c0,0.5,0.1,0.9,0.2,1.3c0.1,0.4,0.3,0.7,0.5,0.9c0.2,0.2,0.5,0.4,0.7,0.5c0.3,0.1,0.6,0.2,0.9,0.2
		c0.3,0,0.6,0,0.8-0.1c0.2-0.1,0.4-0.1,0.6-0.2L419.6,196.2z"/>
	<path d="M424,196.5v-2.9c0-0.3,0-0.5,0-0.7c0-0.2-0.1-0.4-0.2-0.5c-0.1-0.1-0.2-0.2-0.3-0.3c-0.1-0.1-0.3-0.1-0.5-0.1
		c-0.3,0-0.6,0.1-0.9,0.3c-0.3,0.2-0.4,0.5-0.5,0.8v3.3h-0.8v-7h0.8v2.6h0c0.2-0.2,0.4-0.4,0.6-0.5c0.2-0.1,0.5-0.2,0.9-0.2
		c0.3,0,0.5,0,0.7,0.1c0.2,0.1,0.4,0.2,0.5,0.3s0.2,0.4,0.3,0.6s0.1,0.6,0.1,1v3H424z"/>
	<path d="M426.2,190c0-0.2,0.1-0.3,0.2-0.4s0.2-0.2,0.4-0.2s0.3,0.1,0.4,0.2c0.1,0.1,0.2,0.2,0.2,0.4s-0.1,0.3-0.2,0.4
		c-0.1,0.1-0.2,0.1-0.4,0.1s-0.3,0-0.4-0.1S426.2,190.1,426.2,190z M426.4,191.5h0.8v5h-0.8V191.5z"/>
	<path d="M429.8,195.2c0,0.2,0,0.4,0.1,0.5s0.2,0.1,0.3,0.1c0.1,0,0.2,0,0.3,0c0.1,0,0.2,0,0.3-0.1l0.1,0.6
		c-0.1,0.1-0.3,0.1-0.4,0.1c-0.2,0-0.4,0.1-0.5,0.1c-0.3,0-0.5-0.1-0.7-0.3c-0.2-0.2-0.3-0.5-0.3-0.9v-6h0.8V195.2z"/>
	<path d="M435.7,194.8c0,0.3,0,0.6,0,0.9s0,0.5,0.1,0.8h-0.5l-0.2-0.7h0c-0.1,0.2-0.3,0.4-0.6,0.6c-0.3,0.2-0.5,0.2-0.9,0.2
		c-0.7,0-1.2-0.2-1.5-0.6c-0.3-0.4-0.5-1.1-0.5-2c0-0.9,0.2-1.5,0.6-1.9s1-0.7,1.7-0.7c0.2,0,0.4,0,0.6,0c0.1,0,0.3,0.1,0.5,0.1
		v-2.1h0.8V194.8z M433.7,195.9c0.3,0,0.6-0.1,0.8-0.3c0.2-0.2,0.3-0.4,0.4-0.8v-2.5c-0.1-0.1-0.3-0.2-0.4-0.2
		c-0.2,0-0.4-0.1-0.6-0.1c-0.5,0-0.8,0.2-1.1,0.5c-0.3,0.3-0.4,0.8-0.4,1.5c0,0.3,0,0.5,0.1,0.8c0,0.2,0.1,0.4,0.2,0.6
		c0.1,0.2,0.2,0.3,0.4,0.4S433.4,195.9,433.7,195.9z"/>
	<path d="M440.4,196.5v-2.9c0-0.3,0-0.5,0-0.7c0-0.2-0.1-0.4-0.2-0.5c-0.1-0.1-0.2-0.2-0.3-0.3c-0.1-0.1-0.3-0.1-0.5-0.1
		c-0.3,0-0.6,0.1-0.9,0.3c-0.3,0.2-0.4,0.5-0.5,0.8v3.3h-0.8v-7h0.8v2.6h0c0.2-0.2,0.4-0.4,0.6-0.5c0.2-0.1,0.5-0.2,0.9-0.2
		c0.3,0,0.5,0,0.7,0.1c0.2,0.1,0.4,0.2,0.5,0.3s0.2,0.4,0.3,0.6s0.1,0.6,0.1,1v3H440.4z"/>
	<path d="M442.4,194c0-0.8,0.2-1.5,0.6-1.9c0.4-0.5,0.9-0.7,1.6-0.7c0.4,0,0.7,0.1,1,0.2c0.3,0.1,0.5,0.3,0.7,0.5s0.3,0.5,0.4,0.8
		c0.1,0.3,0.1,0.7,0.1,1.1c0,0.8-0.2,1.5-0.6,1.9c-0.4,0.5-0.9,0.7-1.6,0.7c-0.4,0-0.7-0.1-1-0.2c-0.3-0.1-0.5-0.3-0.7-0.5
		c-0.2-0.2-0.3-0.5-0.4-0.8S442.4,194.4,442.4,194z M443.2,194c0,0.3,0,0.5,0.1,0.7c0.1,0.2,0.1,0.4,0.2,0.6
		c0.1,0.2,0.2,0.3,0.4,0.4c0.2,0.1,0.4,0.2,0.6,0.2c0.9,0,1.4-0.6,1.4-1.9c0-0.3,0-0.5-0.1-0.7c0-0.2-0.1-0.4-0.2-0.6
		c-0.1-0.2-0.2-0.3-0.4-0.4c-0.2-0.1-0.4-0.2-0.6-0.2C443.7,192.1,443.2,192.7,443.2,194z"/>
	<path d="M447.8,194c0-0.8,0.2-1.5,0.6-1.9c0.4-0.5,0.9-0.7,1.6-0.7c0.4,0,0.7,0.1,1,0.2c0.3,0.1,0.5,0.3,0.7,0.5s0.3,0.5,0.4,0.8
		c0.1,0.3,0.1,0.7,0.1,1.1c0,0.8-0.2,1.5-0.6,1.9c-0.4,0.5-0.9,0.7-1.6,0.7c-0.4,0-0.7-0.1-1-0.2c-0.3-0.1-0.5-0.3-0.7-0.5
		c-0.2-0.2-0.3-0.5-0.4-0.8S447.8,194.4,447.8,194z M448.6,194c0,0.3,0,0.5,0.1,0.7c0.1,0.2,0.1,0.4,0.2,0.6
		c0.1,0.2,0.2,0.3,0.4,0.4c0.2,0.1,0.4,0.2,0.6,0.2c0.9,0,1.4-0.6,1.4-1.9c0-0.3,0-0.5-0.1-0.7c0-0.2-0.1-0.4-0.2-0.6
		c-0.1-0.2-0.2-0.3-0.4-0.4c-0.2-0.1-0.4-0.2-0.6-0.2C449.1,192.1,448.6,192.7,448.6,194z"/>
	<path d="M457.2,194.8c0,0.3,0,0.6,0,0.9s0,0.5,0.1,0.8h-0.5l-0.2-0.7h0c-0.1,0.2-0.3,0.4-0.6,0.6c-0.3,0.2-0.5,0.2-0.9,0.2
		c-0.7,0-1.2-0.2-1.5-0.6c-0.3-0.4-0.5-1.1-0.5-2c0-0.9,0.2-1.5,0.6-1.9s1-0.7,1.7-0.7c0.2,0,0.4,0,0.6,0c0.1,0,0.3,0.1,0.5,0.1
		v-2.1h0.8V194.8z M455.2,195.9c0.3,0,0.6-0.1,0.8-0.3c0.2-0.2,0.3-0.4,0.4-0.8v-2.5c-0.1-0.1-0.3-0.2-0.4-0.2
		c-0.2,0-0.4-0.1-0.6-0.1c-0.5,0-0.8,0.2-1.1,0.5c-0.3,0.3-0.4,0.8-0.4,1.5c0,0.3,0,0.5,0.1,0.8c0,0.2,0.1,0.4,0.2,0.6
		c0.1,0.2,0.2,0.3,0.4,0.4S455,195.9,455.2,195.9z"/>
	<path d="M463,198.7c-0.3-0.3-0.6-0.7-0.8-1.1c-0.2-0.4-0.4-0.8-0.5-1.2c-0.1-0.4-0.2-0.8-0.3-1.2c-0.1-0.4-0.1-0.8-0.1-1.2
		c0-0.4,0-0.8,0.1-1.2c0.1-0.4,0.2-0.8,0.3-1.2c0.1-0.4,0.3-0.8,0.5-1.2c0.2-0.4,0.5-0.8,0.8-1.1l0.5,0.4c-0.3,0.3-0.5,0.7-0.7,1.1
		s-0.3,0.7-0.4,1.1c-0.1,0.4-0.2,0.7-0.2,1.1s-0.1,0.7-0.1,1.1c0,0.3,0,0.7,0.1,1c0.1,0.4,0.1,0.8,0.2,1.1c0.1,0.4,0.3,0.7,0.4,1.1
		c0.2,0.4,0.4,0.7,0.6,1L463,198.7z"/>
	<path d="M463.9,193c0-1.2,0.2-2.1,0.6-2.7c0.4-0.6,1-0.9,1.7-0.9c0.8,0,1.4,0.3,1.8,0.9s0.5,1.5,0.5,2.7c0,1.2-0.2,2.1-0.6,2.7
		c-0.4,0.6-1,0.9-1.7,0.9c-0.8,0-1.4-0.3-1.7-1C464.1,195,463.9,194.1,463.9,193z M464.7,193c0,0.4,0,0.8,0.1,1.2s0.1,0.7,0.3,0.9
		c0.1,0.3,0.3,0.5,0.5,0.6c0.2,0.1,0.4,0.2,0.7,0.2c0.5,0,0.9-0.2,1.1-0.7c0.2-0.5,0.4-1.2,0.4-2.2c0-0.4,0-0.8-0.1-1.2
		c0-0.4-0.1-0.7-0.2-0.9c-0.1-0.3-0.3-0.5-0.5-0.6s-0.4-0.2-0.7-0.2c-0.5,0-0.9,0.2-1.1,0.7C464.9,191.2,464.7,192,464.7,193z"/>
	<path d="M471.7,191.5h0.8v-1l0.8-0.2v1.2h1.4v0.7h-1.4v2.8c0,0.3,0,0.6,0.1,0.7c0.1,0.1,0.2,0.2,0.4,0.2c0.2,0,0.3,0,0.4-0.1
		s0.3-0.1,0.4-0.1l0.2,0.6c-0.2,0.1-0.4,0.2-0.6,0.2c-0.2,0.1-0.4,0.1-0.7,0.1c-0.4,0-0.7-0.1-0.9-0.3c-0.2-0.2-0.2-0.6-0.2-1.2
		v-2.9h-0.8V191.5z"/>
	<path d="M479,196.5v-2.9c0-0.3,0-0.5,0-0.7c0-0.2-0.1-0.4-0.2-0.5c-0.1-0.1-0.2-0.2-0.3-0.3c-0.1-0.1-0.3-0.1-0.5-0.1
		c-0.3,0-0.6,0.1-0.9,0.3c-0.3,0.2-0.4,0.5-0.5,0.8v3.3h-0.8v-7h0.8v2.6h0c0.2-0.2,0.4-0.4,0.6-0.5c0.2-0.1,0.5-0.2,0.9-0.2
		c0.3,0,0.5,0,0.7,0.1c0.2,0.1,0.4,0.2,0.5,0.3s0.2,0.4,0.3,0.6s0.1,0.6,0.1,1v3H479z"/>
	<path d="M483.6,192.2c-0.2-0.1-0.4-0.1-0.6-0.1c-0.3,0-0.5,0.1-0.7,0.2c-0.2,0.2-0.3,0.4-0.3,0.6v3.5h-0.8v-5h0.6l0.2,0.6h0
		c0.1-0.2,0.3-0.4,0.5-0.5c0.2-0.1,0.4-0.2,0.7-0.2c0.2,0,0.4,0,0.6,0.1L483.6,192.2z"/>
	<path d="M484.4,194c0-0.8,0.2-1.5,0.6-1.9c0.4-0.5,0.9-0.7,1.6-0.7c0.4,0,0.7,0.1,1,0.2c0.3,0.1,0.5,0.3,0.7,0.5s0.3,0.5,0.4,0.8
		c0.1,0.3,0.1,0.7,0.1,1.1c0,0.8-0.2,1.5-0.6,1.9c-0.4,0.5-0.9,0.7-1.6,0.7c-0.4,0-0.7-0.1-1-0.2c-0.3-0.1-0.5-0.3-0.7-0.5
		c-0.2-0.2-0.3-0.5-0.4-0.8S484.4,194.4,484.4,194z M485.2,194c0,0.3,0,0.5,0.1,0.7c0.1,0.2,0.1,0.4,0.2,0.6
		c0.1,0.2,0.2,0.3,0.4,0.4c0.2,0.1,0.4,0.2,0.6,0.2c0.9,0,1.4-0.6,1.4-1.9c0-0.3,0-0.5-0.1-0.7c0-0.2-0.1-0.4-0.2-0.6
		c-0.1-0.2-0.2-0.3-0.4-0.4c-0.2-0.1-0.4-0.2-0.6-0.2C485.6,192.1,485.2,192.7,485.2,194z"/>
	<path d="M490.7,191.5v2.9c0,0.3,0,0.5,0,0.7s0.1,0.4,0.2,0.5c0.1,0.1,0.2,0.2,0.3,0.3c0.1,0.1,0.3,0.1,0.5,0.1c0.2,0,0.3,0,0.5-0.1
		c0.1-0.1,0.3-0.1,0.4-0.2c0.1-0.1,0.2-0.2,0.3-0.3c0.1-0.1,0.2-0.3,0.2-0.4v-3.3h0.8v3.6c0,0.2,0,0.5,0,0.7c0,0.3,0,0.5,0.1,0.7
		h-0.6l-0.2-0.8h-0.1c-0.2,0.3-0.4,0.5-0.6,0.6c-0.3,0.2-0.6,0.3-1,0.3c-0.3,0-0.5,0-0.7-0.1c-0.2-0.1-0.4-0.2-0.5-0.3
		c-0.1-0.2-0.2-0.4-0.3-0.6s-0.1-0.6-0.1-1v-3H490.7z"/>
	<path d="M499.2,196.7c0,0.6-0.2,1.1-0.5,1.4s-0.9,0.5-1.5,0.5c-0.4,0-0.7,0-1-0.1c-0.2,0-0.5-0.1-0.6-0.2l0.2-0.7
		c0.2,0.1,0.3,0.1,0.5,0.2c0.2,0.1,0.4,0.1,0.7,0.1c0.3,0,0.5,0,0.7-0.1c0.2-0.1,0.3-0.1,0.4-0.2c0.1-0.1,0.2-0.3,0.2-0.5
		c0-0.2,0.1-0.4,0.1-0.7V196h0c-0.1,0.2-0.3,0.3-0.5,0.4c-0.2,0.1-0.5,0.2-0.8,0.2c-0.7,0-1.2-0.2-1.5-0.6s-0.5-1.1-0.5-2
		c0-0.9,0.2-1.5,0.6-1.9c0.4-0.4,1-0.7,1.8-0.7c0.4,0,0.7,0,1,0.1s0.5,0.1,0.7,0.2V196.7z M497.2,195.9c0.3,0,0.6-0.1,0.8-0.3
		c0.2-0.2,0.3-0.4,0.4-0.8v-2.6c-0.3-0.1-0.6-0.2-1-0.2c-0.5,0-0.8,0.2-1.1,0.5c-0.3,0.3-0.4,0.8-0.4,1.4c0,0.3,0,0.5,0.1,0.8
		c0,0.2,0.1,0.4,0.2,0.6c0.1,0.2,0.2,0.3,0.4,0.4S497,195.9,497.2,195.9z"/>
	<path d="M504,196.5v-2.9c0-0.3,0-0.5,0-0.7c0-0.2-0.1-0.4-0.2-0.5c-0.1-0.1-0.2-0.2-0.3-0.3c-0.1-0.1-0.3-0.1-0.5-0.1
		c-0.3,0-0.6,0.1-0.9,0.3c-0.3,0.2-0.4,0.5-0.5,0.8v3.3h-0.8v-7h0.8v2.6h0c0.2-0.2,0.4-0.4,0.6-0.5c0.2-0.1,0.5-0.2,0.9-0.2
		c0.3,0,0.5,0,0.7,0.1c0.2,0.1,0.4,0.2,0.5,0.3s0.2,0.4,0.3,0.6s0.1,0.6,0.1,1v3H504z"/>
	<path d="M513.4,194.3h-1.2v2.1h-0.8v-2.1h-3.1V194l3.3-4.6h0.5v4.3h1.2V194.3z M511.4,191.5l0.1-0.8h0l-0.3,0.7l-1.4,1.9l-0.5,0.5
		l0.7-0.1h1.5V191.5z"/>
	<path d="M514.1,189.4c0.3,0.3,0.6,0.7,0.8,1.1c0.2,0.4,0.4,0.8,0.5,1.2s0.2,0.8,0.3,1.2c0.1,0.4,0.1,0.8,0.1,1.2
		c0,0.4,0,0.8-0.1,1.2c-0.1,0.4-0.2,0.8-0.3,1.2c-0.1,0.4-0.3,0.8-0.5,1.2c-0.2,0.4-0.5,0.8-0.8,1.1l-0.5-0.4
		c0.3-0.3,0.5-0.7,0.7-1.1c0.2-0.4,0.3-0.7,0.4-1.1c0.1-0.4,0.2-0.7,0.2-1.1c0-0.4,0.1-0.7,0.1-1.1c0-0.3,0-0.7-0.1-1
		c-0.1-0.4-0.1-0.8-0.2-1.1c-0.1-0.4-0.3-0.8-0.4-1.1c-0.2-0.4-0.4-0.7-0.6-1L514.1,189.4z"/>
</g>
<g>
	<path d="M391.2,206.8h3.8v0.7h-3v2.3h2.7v0.7H392v2.5h3v0.7h-3.9V206.8z"/>
	<path d="M397.3,212.5c0,0.2,0,0.4,0.1,0.5s0.2,0.1,0.3,0.1c0.1,0,0.2,0,0.3,0c0.1,0,0.2,0,0.3-0.1l0.1,0.6
		c-0.1,0.1-0.3,0.1-0.4,0.1c-0.2,0-0.4,0.1-0.5,0.1c-0.3,0-0.5-0.1-0.7-0.3c-0.2-0.2-0.3-0.5-0.3-0.9v-6h0.8V212.5z"/>
	<path d="M403,213.4c-0.2,0.2-0.5,0.3-0.8,0.4s-0.6,0.1-1,0.1c-0.4,0-0.7-0.1-1-0.2c-0.3-0.1-0.5-0.3-0.7-0.5
		c-0.2-0.2-0.3-0.5-0.4-0.8c-0.1-0.3-0.1-0.7-0.1-1.1c0-0.9,0.2-1.5,0.6-2c0.4-0.4,0.9-0.7,1.6-0.7c0.2,0,0.5,0,0.7,0.1
		c0.2,0,0.4,0.1,0.6,0.3c0.2,0.1,0.3,0.3,0.4,0.6c0.1,0.3,0.2,0.6,0.2,1c0,0.2,0,0.5-0.1,0.7h-3.2c0,0.3,0,0.6,0.1,0.8
		c0.1,0.2,0.2,0.4,0.3,0.6c0.1,0.2,0.3,0.3,0.5,0.4c0.2,0.1,0.5,0.1,0.7,0.1c0.2,0,0.5,0,0.7-0.1c0.2-0.1,0.4-0.2,0.5-0.3L403,213.4
		z M401.3,209.3c-0.4,0-0.7,0.1-0.9,0.3s-0.4,0.6-0.4,1.1h2.5c0-0.5-0.1-0.9-0.3-1.1C401.9,209.4,401.7,209.3,401.3,209.3z"/>
	<path d="M407.4,213.8v-2.8c0-0.3,0-0.5,0-0.7s-0.1-0.4-0.1-0.5c-0.1-0.1-0.2-0.2-0.3-0.3c-0.1-0.1-0.3-0.1-0.5-0.1
		c-0.3,0-0.6,0.1-0.8,0.3c-0.2,0.2-0.3,0.4-0.4,0.7v3.4h-0.8v-5h0.6l0.2,0.6h0c0.2-0.2,0.4-0.4,0.6-0.5c0.2-0.1,0.5-0.2,0.9-0.2
		c0.3,0,0.6,0.1,0.8,0.2c0.2,0.1,0.4,0.3,0.5,0.6c0.2-0.3,0.4-0.5,0.6-0.6c0.3-0.1,0.6-0.2,0.9-0.2c0.3,0,0.5,0,0.7,0.1
		s0.4,0.2,0.5,0.3c0.1,0.2,0.2,0.4,0.3,0.6s0.1,0.6,0.1,1v3h-0.8v-3c0-0.2,0-0.4,0-0.6c0-0.2-0.1-0.3-0.1-0.4
		c-0.1-0.1-0.2-0.2-0.3-0.3s-0.3-0.1-0.5-0.1c-0.3,0-0.6,0.1-0.8,0.3c-0.2,0.2-0.3,0.5-0.4,0.8v3.3H407.4z"/>
	<path d="M416.2,213.4c-0.2,0.2-0.5,0.3-0.8,0.4s-0.6,0.1-1,0.1c-0.4,0-0.7-0.1-1-0.2c-0.3-0.1-0.5-0.3-0.7-0.5
		c-0.2-0.2-0.3-0.5-0.4-0.8c-0.1-0.3-0.1-0.7-0.1-1.1c0-0.9,0.2-1.5,0.6-2c0.4-0.4,0.9-0.7,1.6-0.7c0.2,0,0.5,0,0.7,0.1
		c0.2,0,0.4,0.1,0.6,0.3c0.2,0.1,0.3,0.3,0.4,0.6c0.1,0.3,0.2,0.6,0.2,1c0,0.2,0,0.5-0.1,0.7h-3.2c0,0.3,0,0.6,0.1,0.8
		c0.1,0.2,0.2,0.4,0.3,0.6c0.1,0.2,0.3,0.3,0.5,0.4c0.2,0.1,0.5,0.1,0.7,0.1c0.2,0,0.5,0,0.7-0.1c0.2-0.1,0.4-0.2,0.5-0.3
		L416.2,213.4z M414.5,209.3c-0.4,0-0.7,0.1-0.9,0.3s-0.4,0.6-0.4,1.1h2.5c0-0.5-0.1-0.9-0.3-1.1
		C415.1,209.4,414.9,209.3,414.5,209.3z"/>
	<path d="M420.9,213.8v-2.9c0-0.5-0.1-0.9-0.2-1.2c-0.1-0.3-0.4-0.4-0.8-0.4c-0.4,0-0.6,0.1-0.9,0.3c-0.2,0.2-0.4,0.4-0.5,0.7v3.4
		h-0.8v-5h0.6l0.2,0.6h0c0.2-0.2,0.4-0.4,0.6-0.5c0.3-0.1,0.6-0.2,1-0.2c0.3,0,0.5,0,0.7,0.1c0.2,0.1,0.4,0.2,0.5,0.3
		s0.2,0.4,0.3,0.6c0.1,0.3,0.1,0.6,0.1,1v3H420.9z"/>
	<path d="M422.5,208.8h0.8v-1l0.8-0.2v1.2h1.4v0.7H424v2.8c0,0.3,0,0.6,0.1,0.7c0.1,0.1,0.2,0.2,0.4,0.2c0.2,0,0.3,0,0.4-0.1
		s0.3-0.1,0.4-0.1l0.2,0.6c-0.2,0.1-0.4,0.2-0.6,0.2c-0.2,0.1-0.4,0.1-0.7,0.1c-0.4,0-0.7-0.1-0.9-0.3c-0.2-0.2-0.2-0.6-0.2-1.2
		v-2.9h-0.8V208.8z"/>
	<path d="M426.4,209.1c0.3-0.2,0.5-0.3,0.9-0.3c0.3-0.1,0.7-0.1,1.1-0.1c0.3,0,0.6,0,0.8,0.1s0.4,0.2,0.5,0.4
		c0.1,0.2,0.2,0.3,0.2,0.5c0,0.2,0.1,0.4,0.1,0.5c0,0.4,0,0.8,0,1.2c0,0.4,0,0.7,0,1.1c0,0.2,0,0.5,0,0.7c0,0.2,0.1,0.4,0.1,0.6
		h-0.6l-0.2-0.7h0c-0.1,0.1-0.1,0.2-0.2,0.3c-0.1,0.1-0.2,0.2-0.3,0.2c-0.1,0.1-0.3,0.1-0.4,0.2c-0.2,0-0.4,0.1-0.6,0.1
		c-0.2,0-0.4,0-0.6-0.1s-0.3-0.2-0.5-0.3c-0.1-0.1-0.2-0.3-0.3-0.4c-0.1-0.2-0.1-0.4-0.1-0.6c0-0.3,0.1-0.5,0.2-0.7
		c0.1-0.2,0.3-0.4,0.5-0.5s0.5-0.2,0.8-0.2c0.3-0.1,0.6-0.1,1-0.1c0.1,0,0.2,0,0.3,0s0.2,0,0.3,0c0-0.2,0-0.4,0-0.5
		c0-0.4-0.1-0.6-0.2-0.8c-0.1-0.1-0.4-0.2-0.8-0.2c-0.1,0-0.2,0-0.4,0c-0.1,0-0.3,0-0.4,0.1s-0.3,0.1-0.4,0.1
		c-0.1,0-0.2,0.1-0.3,0.1L426.4,209.1z M427.9,213.1c0.2,0,0.4,0,0.5-0.1c0.1-0.1,0.3-0.1,0.4-0.2c0.1-0.1,0.2-0.2,0.3-0.3
		c0.1-0.1,0.1-0.2,0.2-0.3v-0.8c-0.1,0-0.2,0-0.3,0s-0.2,0-0.3,0c-0.2,0-0.4,0-0.6,0c-0.2,0-0.4,0.1-0.5,0.1
		c-0.1,0.1-0.3,0.2-0.4,0.3c-0.1,0.1-0.1,0.2-0.1,0.4c0,0.2,0.1,0.4,0.2,0.6C427.4,213.1,427.6,213.1,427.9,213.1z"/>
	<path d="M433.8,209.5c-0.2-0.1-0.4-0.1-0.6-0.1c-0.3,0-0.5,0.1-0.7,0.2c-0.2,0.2-0.3,0.4-0.3,0.6v3.5h-0.8v-5h0.6l0.2,0.6h0
		c0.1-0.2,0.3-0.4,0.5-0.5c0.2-0.1,0.4-0.2,0.7-0.2c0.2,0,0.4,0,0.6,0.1L433.8,209.5z"/>
	<path d="M436.3,212l0.3,1h0l0.2-1l1-3.2h0.8l-1.5,4.5c-0.1,0.3-0.2,0.6-0.3,0.9s-0.2,0.6-0.4,0.8c-0.1,0.2-0.3,0.4-0.4,0.6
		c-0.2,0.1-0.4,0.2-0.6,0.2c-0.2,0-0.4,0-0.6-0.1l0.1-0.7c0.1,0,0.2,0.1,0.2,0.1c0.2,0,0.4-0.1,0.5-0.3c0.2-0.2,0.3-0.5,0.4-1l-2-5
		h0.9L436.3,212z"/>
	<path d="M445.4,212c0-0.3-0.1-0.5-0.2-0.7c-0.2-0.2-0.4-0.3-0.6-0.5s-0.5-0.3-0.8-0.4c-0.3-0.1-0.6-0.3-0.8-0.4s-0.5-0.4-0.6-0.6
		s-0.2-0.6-0.2-1c0-0.5,0.2-1,0.6-1.3c0.4-0.3,0.9-0.5,1.6-0.5c0.4,0,0.8,0,1.1,0.1c0.3,0.1,0.6,0.1,0.8,0.2l-0.2,0.7
		c-0.2-0.1-0.4-0.1-0.7-0.2s-0.6-0.1-1-0.1c-0.4,0-0.8,0.1-1,0.3s-0.3,0.4-0.3,0.7c0,0.3,0.1,0.5,0.2,0.6c0.2,0.2,0.4,0.3,0.6,0.5
		s0.5,0.3,0.8,0.4c0.3,0.1,0.6,0.3,0.8,0.5c0.2,0.2,0.5,0.4,0.6,0.6s0.2,0.6,0.2,0.9c0,0.3-0.1,0.6-0.2,0.8
		c-0.1,0.2-0.3,0.4-0.5,0.6s-0.5,0.3-0.8,0.4s-0.6,0.1-1,0.1c-0.5,0-0.9,0-1.2-0.1c-0.3-0.1-0.6-0.2-0.8-0.3l0.3-0.7
		c0.2,0.1,0.4,0.2,0.7,0.2s0.6,0.1,1,0.1c0.2,0,0.4,0,0.6-0.1s0.4-0.1,0.5-0.2c0.1-0.1,0.3-0.2,0.3-0.4
		C445.4,212.4,445.4,212.2,445.4,212z"/>
	<path d="M450.9,213.4c-0.2,0.1-0.4,0.3-0.7,0.3s-0.6,0.1-0.9,0.1c-0.4,0-0.7-0.1-1-0.2c-0.3-0.1-0.5-0.3-0.7-0.5s-0.3-0.5-0.4-0.8
		c-0.1-0.3-0.1-0.7-0.1-1.1c0-0.8,0.2-1.5,0.6-1.9c0.4-0.5,0.9-0.7,1.6-0.7c0.3,0,0.6,0,0.8,0.1c0.2,0,0.4,0.1,0.6,0.2l-0.2,0.7
		c-0.2-0.1-0.3-0.2-0.5-0.2c-0.2,0-0.4-0.1-0.6-0.1c-0.9,0-1.4,0.6-1.4,1.9c0,0.3,0,0.5,0.1,0.7c0.1,0.2,0.1,0.4,0.2,0.6
		c0.1,0.2,0.3,0.3,0.5,0.4c0.2,0.1,0.4,0.2,0.7,0.2c0.2,0,0.5,0,0.6-0.1c0.2-0.1,0.3-0.2,0.5-0.2L450.9,213.4z"/>
	<path d="M455.2,213.8v-2.9c0-0.3,0-0.5,0-0.7c0-0.2-0.1-0.4-0.2-0.5c-0.1-0.1-0.2-0.2-0.3-0.3c-0.1-0.1-0.3-0.1-0.5-0.1
		c-0.3,0-0.6,0.1-0.9,0.3c-0.3,0.2-0.4,0.5-0.5,0.8v3.3H452v-7h0.8v2.6h0c0.2-0.2,0.4-0.4,0.6-0.5c0.2-0.1,0.5-0.2,0.9-0.2
		c0.3,0,0.5,0,0.7,0.1c0.2,0.1,0.4,0.2,0.5,0.3s0.2,0.4,0.3,0.6s0.1,0.6,0.1,1v3H455.2z"/>
	<path d="M457.2,211.3c0-0.8,0.2-1.5,0.6-1.9c0.4-0.5,0.9-0.7,1.6-0.7c0.4,0,0.7,0.1,1,0.2c0.3,0.1,0.5,0.3,0.7,0.5s0.3,0.5,0.4,0.8
		c0.1,0.3,0.1,0.7,0.1,1.1c0,0.8-0.2,1.5-0.6,1.9c-0.4,0.5-0.9,0.7-1.6,0.7c-0.4,0-0.7-0.1-1-0.2c-0.3-0.1-0.5-0.3-0.7-0.5
		c-0.2-0.2-0.3-0.5-0.4-0.8S457.2,211.7,457.2,211.3z M458,211.3c0,0.3,0,0.5,0.1,0.7c0.1,0.2,0.1,0.4,0.2,0.6
		c0.1,0.2,0.2,0.3,0.4,0.4c0.2,0.1,0.4,0.2,0.6,0.2c0.9,0,1.4-0.6,1.4-1.9c0-0.3,0-0.5-0.1-0.7c0-0.2-0.1-0.4-0.2-0.6
		c-0.1-0.2-0.2-0.3-0.4-0.4c-0.2-0.1-0.4-0.2-0.6-0.2C458.5,209.3,458,210,458,211.3z"/>
	<path d="M462.6,211.3c0-0.8,0.2-1.5,0.6-1.9c0.4-0.5,0.9-0.7,1.6-0.7c0.4,0,0.7,0.1,1,0.2c0.3,0.1,0.5,0.3,0.7,0.5s0.3,0.5,0.4,0.8
		c0.1,0.3,0.1,0.7,0.1,1.1c0,0.8-0.2,1.5-0.6,1.9c-0.4,0.5-0.9,0.7-1.6,0.7c-0.4,0-0.7-0.1-1-0.2c-0.3-0.1-0.5-0.3-0.7-0.5
		c-0.2-0.2-0.3-0.5-0.4-0.8S462.6,211.7,462.6,211.3z M463.4,211.3c0,0.3,0,0.5,0.1,0.7c0.1,0.2,0.1,0.4,0.2,0.6
		c0.1,0.2,0.2,0.3,0.4,0.4c0.2,0.1,0.4,0.2,0.6,0.2c0.9,0,1.4-0.6,1.4-1.9c0-0.3,0-0.5-0.1-0.7c0-0.2-0.1-0.4-0.2-0.6
		c-0.1-0.2-0.2-0.3-0.4-0.4c-0.2-0.1-0.4-0.2-0.6-0.2C463.9,209.3,463.4,210,463.4,211.3z"/>
	<path d="M469.1,212.5c0,0.2,0,0.4,0.1,0.5s0.2,0.1,0.3,0.1c0.1,0,0.2,0,0.3,0c0.1,0,0.2,0,0.3-0.1l0.1,0.6
		c-0.1,0.1-0.3,0.1-0.4,0.1c-0.2,0-0.4,0.1-0.5,0.1c-0.3,0-0.5-0.1-0.7-0.3c-0.2-0.2-0.3-0.5-0.3-0.9v-6h0.8V212.5z"/>
	<path d="M477.2,211.8h-2.6l-0.7,1.9h-0.8l2.7-7.1h0.4l2.7,7.1h-0.9L477.2,211.8z M474.9,211.1h2l-0.8-2.1l-0.2-1.1h0l-0.2,1.1
		L474.9,211.1z"/>
	<path d="M483.5,214c0,0.6-0.2,1.1-0.5,1.4s-0.9,0.5-1.5,0.5c-0.4,0-0.7,0-1-0.1c-0.2,0-0.5-0.1-0.6-0.2l0.2-0.7
		c0.2,0.1,0.3,0.1,0.5,0.2c0.2,0.1,0.4,0.1,0.7,0.1c0.3,0,0.5,0,0.7-0.1c0.2-0.1,0.3-0.1,0.4-0.2c0.1-0.1,0.2-0.3,0.2-0.5
		c0-0.2,0.1-0.4,0.1-0.7v-0.5h0c-0.1,0.2-0.3,0.3-0.5,0.4c-0.2,0.1-0.5,0.2-0.8,0.2c-0.7,0-1.2-0.2-1.5-0.6s-0.5-1.1-0.5-2
		c0-0.9,0.2-1.5,0.6-1.9c0.4-0.4,1-0.7,1.8-0.7c0.4,0,0.7,0,1,0.1s0.5,0.1,0.7,0.2V214z M481.5,213.2c0.3,0,0.6-0.1,0.8-0.3
		c0.2-0.2,0.3-0.4,0.4-0.8v-2.6c-0.3-0.1-0.6-0.2-1-0.2c-0.5,0-0.8,0.2-1.1,0.5c-0.3,0.3-0.4,0.8-0.4,1.4c0,0.3,0,0.5,0.1,0.8
		c0,0.2,0.1,0.4,0.2,0.6c0.1,0.2,0.2,0.3,0.4,0.4S481.2,213.2,481.5,213.2z"/>
	<path d="M488.7,213.4c-0.2,0.2-0.5,0.3-0.8,0.4s-0.6,0.1-1,0.1c-0.4,0-0.7-0.1-1-0.2c-0.3-0.1-0.5-0.3-0.7-0.5
		c-0.2-0.2-0.3-0.5-0.4-0.8c-0.1-0.3-0.1-0.7-0.1-1.1c0-0.9,0.2-1.5,0.6-2c0.4-0.4,0.9-0.7,1.6-0.7c0.2,0,0.5,0,0.7,0.1
		c0.2,0,0.4,0.1,0.6,0.3c0.2,0.1,0.3,0.3,0.4,0.6c0.1,0.3,0.2,0.6,0.2,1c0,0.2,0,0.5-0.1,0.7h-3.2c0,0.3,0,0.6,0.1,0.8
		c0.1,0.2,0.2,0.4,0.3,0.6c0.1,0.2,0.3,0.3,0.5,0.4c0.2,0.1,0.5,0.1,0.7,0.1c0.2,0,0.5,0,0.7-0.1c0.2-0.1,0.4-0.2,0.5-0.3
		L488.7,213.4z M486.9,209.3c-0.4,0-0.7,0.1-0.9,0.3s-0.4,0.6-0.4,1.1h2.5c0-0.5-0.1-0.9-0.3-1.1
		C487.6,209.4,487.3,209.3,486.9,209.3z"/>
	<path d="M494.3,216c-0.3-0.3-0.6-0.7-0.8-1.1c-0.2-0.4-0.4-0.8-0.5-1.2c-0.1-0.4-0.2-0.8-0.3-1.2c-0.1-0.4-0.1-0.8-0.1-1.2
		c0-0.4,0-0.8,0.1-1.2c0.1-0.4,0.2-0.8,0.3-1.2c0.1-0.4,0.3-0.8,0.5-1.2c0.2-0.4,0.5-0.8,0.8-1.1l0.5,0.4c-0.3,0.3-0.5,0.7-0.7,1.1
		s-0.3,0.7-0.4,1.1c-0.1,0.4-0.2,0.7-0.2,1.1s-0.1,0.7-0.1,1.1c0,0.3,0,0.7,0.1,1c0.1,0.4,0.1,0.8,0.2,1.1c0.1,0.4,0.3,0.7,0.4,1.1
		c0.2,0.4,0.4,0.7,0.6,1L494.3,216z"/>
	<path d="M496.9,213.2c0.5,0,0.8-0.1,1.1-0.4c0.3-0.3,0.5-0.7,0.5-1.2c0-0.5-0.1-0.9-0.4-1.1c-0.3-0.2-0.7-0.4-1.2-0.4l-0.8,0v-3.5
		h3.1v0.7h-2.4v2l0.4,0c0.7,0,1.2,0.2,1.6,0.5c0.4,0.4,0.6,0.9,0.6,1.6c0,0.4-0.1,0.7-0.2,1s-0.3,0.5-0.5,0.7
		c-0.2,0.2-0.5,0.3-0.8,0.4c-0.3,0.1-0.6,0.1-0.9,0.1c-0.3,0-0.6,0-0.8-0.1c-0.2,0-0.4-0.1-0.6-0.1l0.2-0.7c0.2,0.1,0.3,0.1,0.5,0.1
		S496.7,213.2,496.9,213.2z"/>
	<path d="M503,208.8h0.8v-1l0.8-0.2v1.2h1.4v0.7h-1.4v2.8c0,0.3,0,0.6,0.1,0.7c0.1,0.1,0.2,0.2,0.4,0.2c0.2,0,0.3,0,0.4-0.1
		s0.3-0.1,0.4-0.1l0.2,0.6c-0.2,0.1-0.4,0.2-0.6,0.2c-0.2,0.1-0.4,0.1-0.7,0.1c-0.4,0-0.7-0.1-0.9-0.3c-0.2-0.2-0.2-0.6-0.2-1.2
		v-2.9H503V208.8z"/>
	<path d="M510.3,213.8v-2.9c0-0.3,0-0.5,0-0.7c0-0.2-0.1-0.4-0.2-0.5c-0.1-0.1-0.2-0.2-0.3-0.3c-0.1-0.1-0.3-0.1-0.5-0.1
		c-0.3,0-0.6,0.1-0.9,0.3c-0.3,0.2-0.4,0.5-0.5,0.8v3.3h-0.8v-7h0.8v2.6h0c0.2-0.2,0.4-0.4,0.6-0.5c0.2-0.1,0.5-0.2,0.9-0.2
		c0.3,0,0.5,0,0.7,0.1c0.2,0.1,0.4,0.2,0.5,0.3s0.2,0.4,0.3,0.6s0.1,0.6,0.1,1v3H510.3z"/>
	<path d="M514.9,209.5c-0.2-0.1-0.4-0.1-0.6-0.1c-0.3,0-0.5,0.1-0.7,0.2c-0.2,0.2-0.3,0.4-0.3,0.6v3.5h-0.8v-5h0.6l0.2,0.6h0
		c0.1-0.2,0.3-0.4,0.5-0.5c0.2-0.1,0.4-0.2,0.7-0.2c0.2,0,0.4,0,0.6,0.1L514.9,209.5z"/>
	<path d="M515.7,211.3c0-0.8,0.2-1.5,0.6-1.9c0.4-0.5,0.9-0.7,1.6-0.7c0.4,0,0.7,0.1,1,0.2c0.3,0.1,0.5,0.3,0.7,0.5s0.3,0.5,0.4,0.8
		c0.1,0.3,0.1,0.7,0.1,1.1c0,0.8-0.2,1.5-0.6,1.9c-0.4,0.5-0.9,0.7-1.6,0.7c-0.4,0-0.7-0.1-1-0.2c-0.3-0.1-0.5-0.3-0.7-0.5
		c-0.2-0.2-0.3-0.5-0.4-0.8S515.7,211.7,515.7,211.3z M516.5,211.3c0,0.3,0,0.5,0.1,0.7c0.1,0.2,0.1,0.4,0.2,0.6
		c0.1,0.2,0.2,0.3,0.4,0.4c0.2,0.1,0.4,0.2,0.6,0.2c0.9,0,1.4-0.6,1.4-1.9c0-0.3,0-0.5-0.1-0.7c0-0.2-0.1-0.4-0.2-0.6
		c-0.1-0.2-0.2-0.3-0.4-0.4c-0.2-0.1-0.4-0.2-0.6-0.2C517,209.3,516.5,210,516.5,211.3z"/>
	<path d="M522,208.8v2.9c0,0.3,0,0.5,0,0.7s0.1,0.4,0.2,0.5c0.1,0.1,0.2,0.2,0.3,0.3c0.1,0.1,0.3,0.1,0.5,0.1c0.2,0,0.3,0,0.5-0.1
		c0.1-0.1,0.3-0.1,0.4-0.2c0.1-0.1,0.2-0.2,0.3-0.3c0.1-0.1,0.2-0.3,0.2-0.4v-3.3h0.8v3.6c0,0.2,0,0.5,0,0.7c0,0.3,0,0.5,0.1,0.7
		h-0.6l-0.2-0.8h-0.1c-0.2,0.3-0.4,0.5-0.6,0.6c-0.3,0.2-0.6,0.3-1,0.3c-0.3,0-0.5,0-0.7-0.1c-0.2-0.1-0.4-0.2-0.5-0.3
		c-0.1-0.2-0.2-0.4-0.3-0.6s-0.1-0.6-0.1-1v-3H522z"/>
	<path d="M530.5,214c0,0.6-0.2,1.1-0.5,1.4s-0.9,0.5-1.5,0.5c-0.4,0-0.7,0-1-0.1c-0.2,0-0.5-0.1-0.6-0.2l0.2-0.7
		c0.2,0.1,0.3,0.1,0.5,0.2c0.2,0.1,0.4,0.1,0.7,0.1c0.3,0,0.5,0,0.7-0.1c0.2-0.1,0.3-0.1,0.4-0.2c0.1-0.1,0.2-0.3,0.2-0.5
		c0-0.2,0.1-0.4,0.1-0.7v-0.5h0c-0.1,0.2-0.3,0.3-0.5,0.4c-0.2,0.1-0.5,0.2-0.8,0.2c-0.7,0-1.2-0.2-1.5-0.6s-0.5-1.1-0.5-2
		c0-0.9,0.2-1.5,0.6-1.9c0.4-0.4,1-0.7,1.8-0.7c0.4,0,0.7,0,1,0.1s0.5,0.1,0.7,0.2V214z M528.5,213.2c0.3,0,0.6-0.1,0.8-0.3
		c0.2-0.2,0.3-0.4,0.4-0.8v-2.6c-0.3-0.1-0.6-0.2-1-0.2c-0.5,0-0.8,0.2-1.1,0.5c-0.3,0.3-0.4,0.8-0.4,1.4c0,0.3,0,0.5,0.1,0.8
		c0,0.2,0.1,0.4,0.2,0.6c0.1,0.2,0.2,0.3,0.4,0.4S528.3,213.2,528.5,213.2z"/>
	<path d="M535.3,213.8v-2.9c0-0.3,0-0.5,0-0.7c0-0.2-0.1-0.4-0.2-0.5c-0.1-0.1-0.2-0.2-0.3-0.3c-0.1-0.1-0.3-0.1-0.5-0.1
		c-0.3,0-0.6,0.1-0.9,0.3c-0.3,0.2-0.4,0.5-0.5,0.8v3.3h-0.8v-7h0.8v2.6h0c0.2-0.2,0.4-0.4,0.6-0.5c0.2-0.1,0.5-0.2,0.9-0.2
		c0.3,0,0.5,0,0.7,0.1c0.2,0.1,0.4,0.2,0.5,0.3s0.2,0.4,0.3,0.6s0.1,0.6,0.1,1v3H535.3z"/>
	<path d="M540,208.9c0-0.3,0-0.6,0.1-0.9c0.1-0.3,0.2-0.5,0.4-0.7c0.2-0.2,0.4-0.4,0.7-0.5c0.3-0.1,0.6-0.2,0.9-0.2
		c0.7,0,1.2,0.2,1.6,0.7s0.6,1.1,0.6,1.9c0,0.8-0.1,1.4-0.3,2s-0.4,1-0.7,1.4c-0.3,0.4-0.7,0.7-1.1,0.9s-0.9,0.4-1.3,0.4l-0.2-0.6
		c0.4-0.1,0.7-0.2,1-0.3c0.3-0.2,0.6-0.4,0.8-0.6c0.2-0.3,0.4-0.5,0.5-0.9c0.1-0.3,0.2-0.7,0.3-1.1c-0.2,0.2-0.4,0.4-0.6,0.4
		c-0.2,0.1-0.5,0.1-0.9,0.1c-0.3,0-0.5,0-0.8-0.1c-0.2-0.1-0.5-0.2-0.6-0.4s-0.3-0.4-0.4-0.6S540,209.2,540,208.9z M540.8,208.8
		c0,0.5,0.1,0.8,0.4,1.1c0.2,0.2,0.6,0.4,1,0.4c0.3,0,0.6-0.1,0.8-0.2c0.2-0.1,0.4-0.2,0.5-0.4c0-0.1,0-0.2,0-0.2c0-0.1,0-0.1,0-0.2
		c0-0.2,0-0.5-0.1-0.7c-0.1-0.2-0.1-0.4-0.3-0.6c-0.1-0.2-0.3-0.3-0.4-0.4s-0.4-0.1-0.6-0.1c-0.4,0-0.7,0.1-0.9,0.4
		C540.9,208,540.8,208.3,540.8,208.8z"/>
	<path d="M545.4,206.6c0.3,0.3,0.6,0.7,0.8,1.1c0.2,0.4,0.4,0.8,0.5,1.2s0.2,0.8,0.3,1.2c0.1,0.4,0.1,0.8,0.1,1.2
		c0,0.4,0,0.8-0.1,1.2c-0.1,0.4-0.2,0.8-0.3,1.2c-0.1,0.4-0.3,0.8-0.5,1.2c-0.2,0.4-0.5,0.8-0.8,1.1l-0.5-0.4
		c0.3-0.3,0.5-0.7,0.7-1.1c0.2-0.4,0.3-0.7,0.4-1.1c0.1-0.4,0.2-0.7,0.2-1.1c0-0.4,0.1-0.7,0.1-1.1c0-0.3,0-0.7-0.1-1
		c-0.1-0.4-0.1-0.8-0.2-1.1c-0.1-0.4-0.3-0.8-0.4-1.1c-0.2-0.4-0.4-0.7-0.6-1L545.4,206.6z"/>
</g>
<g>
	<path d="M391.2,224.1c0.3-0.1,0.5-0.1,0.8-0.1c0.3,0,0.6,0,0.9,0c0.3,0,0.6,0,0.9,0.1c0.3,0.1,0.6,0.2,0.9,0.3s0.5,0.4,0.6,0.7
		c0.2,0.3,0.2,0.6,0.2,1.1c0,0.4-0.1,0.8-0.2,1.1c-0.2,0.3-0.4,0.5-0.6,0.7s-0.5,0.3-0.9,0.4c-0.3,0.1-0.7,0.1-1,0.1
		c0,0-0.1,0-0.2,0c-0.1,0-0.2,0-0.2,0c-0.1,0-0.2,0-0.2,0s-0.1,0-0.2,0v2.7h-0.8V224.1z M392.9,224.7c-0.2,0-0.3,0-0.5,0
		c-0.2,0-0.3,0-0.4,0v2.9c0,0,0.1,0,0.2,0c0.1,0,0.2,0,0.2,0c0.1,0,0.2,0,0.2,0s0.1,0,0.2,0c0.2,0,0.5,0,0.7-0.1
		c0.2,0,0.4-0.1,0.6-0.2c0.2-0.1,0.3-0.3,0.4-0.5c0.1-0.2,0.2-0.5,0.2-0.8c0-0.3-0.1-0.5-0.2-0.7c-0.1-0.2-0.2-0.3-0.4-0.4
		c-0.2-0.1-0.4-0.2-0.6-0.2C393.3,224.7,393.1,224.7,392.9,224.7z"/>
	<path d="M399,226.8c-0.2-0.1-0.4-0.1-0.6-0.1c-0.3,0-0.5,0.1-0.7,0.2c-0.2,0.2-0.3,0.4-0.3,0.6v3.5h-0.8v-5h0.6l0.2,0.6h0
		c0.1-0.2,0.3-0.4,0.5-0.5s0.4-0.2,0.7-0.2c0.2,0,0.4,0,0.6,0.1L399,226.8z"/>
	<path d="M403.7,230.6c-0.2,0.2-0.5,0.3-0.8,0.4c-0.3,0.1-0.6,0.1-1,0.1c-0.4,0-0.7-0.1-1-0.2c-0.3-0.1-0.5-0.3-0.7-0.5
		c-0.2-0.2-0.3-0.5-0.4-0.8s-0.1-0.7-0.1-1.1c0-0.9,0.2-1.5,0.6-2c0.4-0.4,0.9-0.7,1.6-0.7c0.2,0,0.5,0,0.7,0.1s0.4,0.1,0.6,0.3
		c0.2,0.1,0.3,0.3,0.4,0.6s0.2,0.6,0.2,1c0,0.2,0,0.5-0.1,0.7h-3.2c0,0.3,0,0.6,0.1,0.8c0.1,0.2,0.2,0.4,0.3,0.6
		c0.1,0.2,0.3,0.3,0.5,0.4c0.2,0.1,0.5,0.1,0.7,0.1c0.2,0,0.5,0,0.7-0.1c0.2-0.1,0.4-0.2,0.5-0.3L403.7,230.6z M402,226.6
		c-0.4,0-0.7,0.1-0.9,0.3c-0.2,0.2-0.4,0.6-0.4,1.1h2.5c0-0.5-0.1-0.9-0.3-1.1C402.6,226.7,402.4,226.6,402,226.6z"/>
	<path d="M407.2,226h0.8v-1l0.8-0.2v1.2h1.4v0.7h-1.4v2.8c0,0.3,0,0.6,0.1,0.7c0.1,0.1,0.2,0.2,0.4,0.2c0.2,0,0.3,0,0.4-0.1
		c0.1,0,0.3-0.1,0.4-0.1l0.2,0.6c-0.2,0.1-0.4,0.2-0.6,0.2c-0.2,0.1-0.4,0.1-0.7,0.1c-0.4,0-0.7-0.1-0.9-0.3
		c-0.2-0.2-0.2-0.6-0.2-1.2v-2.9h-0.8V226z"/>
	<path d="M410.9,228.5c0-0.8,0.2-1.5,0.6-1.9c0.4-0.4,0.9-0.7,1.6-0.7c0.4,0,0.7,0.1,1,0.2c0.3,0.1,0.5,0.3,0.7,0.5
		c0.2,0.2,0.3,0.5,0.4,0.8c0.1,0.3,0.1,0.7,0.1,1.1c0,0.8-0.2,1.5-0.6,1.9c-0.4,0.4-0.9,0.7-1.6,0.7c-0.4,0-0.7-0.1-1-0.2
		c-0.3-0.1-0.5-0.3-0.7-0.5c-0.2-0.2-0.3-0.5-0.4-0.8S410.9,228.9,410.9,228.5z M411.8,228.5c0,0.3,0,0.5,0.1,0.7
		c0.1,0.2,0.1,0.4,0.2,0.6c0.1,0.2,0.2,0.3,0.4,0.4c0.2,0.1,0.4,0.2,0.6,0.2c0.9,0,1.4-0.6,1.4-1.9c0-0.3,0-0.5-0.1-0.7
		s-0.1-0.4-0.2-0.6c-0.1-0.2-0.2-0.3-0.4-0.4c-0.2-0.1-0.4-0.2-0.6-0.2C412.2,226.6,411.8,227.3,411.8,228.5z"/>
	<path d="M419.3,224h3.8v0.7h-3v2.3h2.7v0.7h-2.7v2.5h3v0.7h-3.9V224z"/>
	<path d="M424.5,226.4c0.3-0.2,0.5-0.3,0.9-0.3c0.3-0.1,0.7-0.1,1.1-0.1c0.3,0,0.6,0,0.8,0.1c0.2,0.1,0.4,0.2,0.5,0.4
		c0.1,0.2,0.2,0.3,0.2,0.5c0,0.2,0.1,0.4,0.1,0.5c0,0.4,0,0.8,0,1.2c0,0.4,0,0.7,0,1.1c0,0.2,0,0.5,0,0.7c0,0.2,0.1,0.4,0.1,0.6
		h-0.6l-0.2-0.7h0c-0.1,0.1-0.1,0.2-0.2,0.3c-0.1,0.1-0.2,0.2-0.3,0.2c-0.1,0.1-0.3,0.1-0.4,0.2c-0.2,0-0.4,0.1-0.6,0.1
		c-0.2,0-0.4,0-0.6-0.1c-0.2-0.1-0.3-0.2-0.5-0.3c-0.1-0.1-0.2-0.3-0.3-0.4c-0.1-0.2-0.1-0.4-0.1-0.6c0-0.3,0.1-0.5,0.2-0.7
		c0.1-0.2,0.3-0.4,0.5-0.5s0.5-0.2,0.8-0.2c0.3,0,0.6-0.1,1-0.1c0.1,0,0.2,0,0.3,0s0.2,0,0.3,0c0-0.2,0-0.4,0-0.5
		c0-0.4-0.1-0.6-0.2-0.8s-0.4-0.2-0.8-0.2c-0.1,0-0.2,0-0.4,0c-0.1,0-0.3,0-0.4,0.1s-0.3,0.1-0.4,0.1c-0.1,0-0.2,0.1-0.3,0.1
		L424.5,226.4z M426,230.4c0.2,0,0.4,0,0.5-0.1c0.1,0,0.3-0.1,0.4-0.2c0.1-0.1,0.2-0.2,0.3-0.3c0.1-0.1,0.1-0.2,0.2-0.3v-0.8
		c-0.1,0-0.2,0-0.3,0s-0.2,0-0.3,0c-0.2,0-0.4,0-0.6,0c-0.2,0-0.4,0.1-0.5,0.1c-0.1,0.1-0.3,0.1-0.4,0.3c-0.1,0.1-0.1,0.2-0.1,0.4
		c0,0.2,0.1,0.4,0.2,0.6C425.5,230.3,425.7,230.4,426,230.4z"/>
	<path d="M431.9,226.8c-0.2-0.1-0.4-0.1-0.6-0.1c-0.3,0-0.5,0.1-0.7,0.2c-0.2,0.2-0.3,0.4-0.3,0.6v3.5h-0.8v-5h0.6l0.2,0.6h0
		c0.1-0.2,0.3-0.4,0.5-0.5s0.4-0.2,0.7-0.2c0.2,0,0.4,0,0.6,0.1L431.9,226.8z"/>
	<path d="M433.9,229.8c0,0.2,0,0.4,0.1,0.5c0.1,0.1,0.2,0.2,0.3,0.2c0.1,0,0.2,0,0.3,0c0.1,0,0.2,0,0.3-0.1l0.1,0.6
		c-0.1,0.1-0.3,0.1-0.4,0.1c-0.2,0-0.4,0-0.5,0c-0.3,0-0.5-0.1-0.7-0.3s-0.3-0.5-0.3-0.9v-6h0.8V229.8z"/>
	<path d="M437.4,229.3l0.3,1h0l0.2-1l1-3.2h0.8l-1.5,4.5c-0.1,0.3-0.2,0.6-0.3,1c-0.1,0.3-0.2,0.6-0.4,0.8c-0.1,0.2-0.3,0.4-0.4,0.6
		c-0.2,0.1-0.4,0.2-0.6,0.2c-0.2,0-0.4,0-0.6-0.1l0.1-0.7c0.1,0,0.2,0,0.2,0c0.2,0,0.4-0.1,0.5-0.3c0.2-0.2,0.3-0.5,0.4-1l-2-5h0.9
		L437.4,229.3z"/>
	<path d="M446.6,229.1h-2.6l-0.7,1.9h-0.8l2.7-7.1h0.4l2.7,7.1h-0.9L446.6,229.1z M444.3,228.4h2l-0.8-2.1l-0.2-1.1h0l-0.2,1.1
		L444.3,228.4z"/>
	<path d="M452.9,229.3c0,0.3,0,0.6,0,0.9s0,0.5,0.1,0.8h-0.5l-0.2-0.7h0c-0.1,0.2-0.3,0.4-0.6,0.6c-0.3,0.2-0.5,0.2-0.9,0.2
		c-0.7,0-1.2-0.2-1.5-0.6s-0.5-1.1-0.5-2c0-0.9,0.2-1.5,0.6-1.9s1-0.7,1.7-0.7c0.2,0,0.4,0,0.6,0s0.3,0.1,0.5,0.1V224h0.8V229.3z
		 M450.9,230.5c0.3,0,0.6-0.1,0.8-0.3c0.2-0.2,0.3-0.4,0.4-0.8v-2.5c-0.1-0.1-0.3-0.2-0.4-0.2c-0.2,0-0.4-0.1-0.6-0.1
		c-0.5,0-0.8,0.2-1.1,0.5c-0.3,0.3-0.4,0.8-0.4,1.5c0,0.3,0,0.5,0.1,0.8c0,0.2,0.1,0.4,0.2,0.6c0.1,0.2,0.2,0.3,0.4,0.4
		S450.7,230.5,450.9,230.5z"/>
	<path d="M454.2,228.5c0-0.8,0.2-1.5,0.6-1.9c0.4-0.4,0.9-0.7,1.6-0.7c0.4,0,0.7,0.1,1,0.2c0.3,0.1,0.5,0.3,0.7,0.5
		c0.2,0.2,0.3,0.5,0.4,0.8c0.1,0.3,0.1,0.7,0.1,1.1c0,0.8-0.2,1.5-0.6,1.9c-0.4,0.4-0.9,0.7-1.6,0.7c-0.4,0-0.7-0.1-1-0.2
		c-0.3-0.1-0.5-0.3-0.7-0.5c-0.2-0.2-0.3-0.5-0.4-0.8S454.2,228.9,454.2,228.5z M455,228.5c0,0.3,0,0.5,0.1,0.7
		c0.1,0.2,0.1,0.4,0.2,0.6c0.1,0.2,0.2,0.3,0.4,0.4c0.2,0.1,0.4,0.2,0.6,0.2c0.9,0,1.4-0.6,1.4-1.9c0-0.3,0-0.5-0.1-0.7
		s-0.1-0.4-0.2-0.6c-0.1-0.2-0.2-0.3-0.4-0.4c-0.2-0.1-0.4-0.2-0.6-0.2C455.5,226.6,455,227.3,455,228.5z"/>
	<path d="M460.7,229.8c0,0.2,0,0.4,0.1,0.5c0.1,0.1,0.2,0.2,0.3,0.2c0.1,0,0.2,0,0.3,0c0.1,0,0.2,0,0.3-0.1l0.1,0.6
		c-0.1,0.1-0.3,0.1-0.4,0.1c-0.2,0-0.4,0-0.5,0c-0.3,0-0.5-0.1-0.7-0.3s-0.3-0.5-0.3-0.9v-6h0.8V229.8z"/>
	<path d="M466.4,230.6c-0.2,0.2-0.5,0.3-0.8,0.4c-0.3,0.1-0.6,0.1-1,0.1c-0.4,0-0.7-0.1-1-0.2c-0.3-0.1-0.5-0.3-0.7-0.5
		c-0.2-0.2-0.3-0.5-0.4-0.8s-0.1-0.7-0.1-1.1c0-0.9,0.2-1.5,0.6-2c0.4-0.4,0.9-0.7,1.6-0.7c0.2,0,0.5,0,0.7,0.1s0.4,0.1,0.6,0.3
		c0.2,0.1,0.3,0.3,0.4,0.6s0.2,0.6,0.2,1c0,0.2,0,0.5-0.1,0.7h-3.2c0,0.3,0,0.6,0.1,0.8c0.1,0.2,0.2,0.4,0.3,0.6
		c0.1,0.2,0.3,0.3,0.5,0.4c0.2,0.1,0.5,0.1,0.7,0.1c0.2,0,0.5,0,0.7-0.1c0.2-0.1,0.4-0.2,0.5-0.3L466.4,230.6z M464.7,226.6
		c-0.4,0-0.7,0.1-0.9,0.3c-0.2,0.2-0.4,0.6-0.4,1.1h2.5c0-0.5-0.1-0.9-0.3-1.1C465.3,226.7,465,226.6,464.7,226.6z"/>
	<path d="M470,229.7c0-0.2-0.1-0.4-0.2-0.5s-0.3-0.2-0.4-0.3c-0.2-0.1-0.4-0.1-0.6-0.2s-0.4-0.2-0.6-0.3c-0.2-0.1-0.3-0.3-0.4-0.4
		c-0.1-0.2-0.2-0.4-0.2-0.7c0-0.5,0.1-0.8,0.4-1.1c0.3-0.2,0.7-0.3,1.1-0.3c0.4,0,0.7,0,0.9,0.1c0.2,0.1,0.5,0.1,0.6,0.2l-0.2,0.7
		c-0.2-0.1-0.3-0.1-0.6-0.2c-0.2-0.1-0.4-0.1-0.7-0.1c-0.3,0-0.5,0-0.6,0.2c-0.1,0.1-0.2,0.3-0.2,0.5c0,0.2,0.1,0.3,0.2,0.4
		s0.3,0.2,0.4,0.3c0.2,0.1,0.4,0.2,0.6,0.2c0.2,0.1,0.4,0.2,0.6,0.3c0.2,0.1,0.3,0.3,0.4,0.5c0.1,0.2,0.2,0.4,0.2,0.7
		c0,0.2,0,0.4-0.1,0.6s-0.2,0.3-0.3,0.5c-0.1,0.1-0.3,0.2-0.5,0.3c-0.2,0.1-0.5,0.1-0.8,0.1c-0.4,0-0.7,0-1-0.1s-0.5-0.2-0.7-0.3
		l0.2-0.7c0.2,0.1,0.4,0.2,0.6,0.2c0.2,0.1,0.5,0.1,0.8,0.1c0.3,0,0.5-0.1,0.7-0.2C469.9,230.2,470,230,470,229.7z"/>
	<path d="M475.4,230.7c-0.2,0.1-0.4,0.3-0.7,0.3c-0.3,0.1-0.6,0.1-0.9,0.1c-0.4,0-0.7-0.1-1-0.2c-0.3-0.1-0.5-0.3-0.7-0.5
		c-0.2-0.2-0.3-0.5-0.4-0.8c-0.1-0.3-0.1-0.7-0.1-1.1c0-0.8,0.2-1.5,0.6-1.9c0.4-0.4,0.9-0.7,1.6-0.7c0.3,0,0.6,0,0.8,0.1
		c0.2,0,0.4,0.1,0.6,0.2l-0.2,0.7c-0.2-0.1-0.3-0.2-0.5-0.2s-0.4-0.1-0.6-0.1c-0.9,0-1.4,0.6-1.4,1.9c0,0.3,0,0.5,0.1,0.7
		c0.1,0.2,0.1,0.4,0.2,0.6c0.1,0.2,0.3,0.3,0.5,0.4c0.2,0.1,0.4,0.2,0.7,0.2c0.2,0,0.5,0,0.6-0.1c0.2-0.1,0.3-0.2,0.5-0.2
		L475.4,230.7z"/>
	<path d="M480.2,230.6c-0.2,0.2-0.5,0.3-0.8,0.4c-0.3,0.1-0.6,0.1-1,0.1c-0.4,0-0.7-0.1-1-0.2c-0.3-0.1-0.5-0.3-0.7-0.5
		c-0.2-0.2-0.3-0.5-0.4-0.8s-0.1-0.7-0.1-1.1c0-0.9,0.2-1.5,0.6-2c0.4-0.4,0.9-0.7,1.6-0.7c0.2,0,0.5,0,0.7,0.1s0.4,0.1,0.6,0.3
		c0.2,0.1,0.3,0.3,0.4,0.6s0.2,0.6,0.2,1c0,0.2,0,0.5-0.1,0.7h-3.2c0,0.3,0,0.6,0.1,0.8c0.1,0.2,0.2,0.4,0.3,0.6
		c0.1,0.2,0.3,0.3,0.5,0.4c0.2,0.1,0.5,0.1,0.7,0.1c0.2,0,0.5,0,0.7-0.1c0.2-0.1,0.4-0.2,0.5-0.3L480.2,230.6z M478.5,226.6
		c-0.4,0-0.7,0.1-0.9,0.3c-0.2,0.2-0.4,0.6-0.4,1.1h2.5c0-0.5-0.1-0.9-0.3-1.1C479.1,226.7,478.8,226.6,478.5,226.6z"/>
	<path d="M484.8,231v-2.8c0-0.5-0.1-0.9-0.2-1.2c-0.1-0.3-0.4-0.4-0.8-0.4c-0.4,0-0.6,0.1-0.9,0.3c-0.2,0.2-0.4,0.4-0.5,0.7v3.4
		h-0.8v-5h0.6l0.2,0.6h0c0.2-0.2,0.4-0.4,0.6-0.5c0.3-0.1,0.6-0.2,1-0.2c0.3,0,0.5,0,0.7,0.1c0.2,0.1,0.4,0.2,0.5,0.3
		c0.1,0.2,0.2,0.4,0.3,0.6c0.1,0.3,0.1,0.6,0.1,1v3H484.8z"/>
	<path d="M490.5,230.7c-0.2,0.1-0.4,0.3-0.7,0.3c-0.3,0.1-0.6,0.1-0.9,0.1c-0.4,0-0.7-0.1-1-0.2c-0.3-0.1-0.5-0.3-0.7-0.5
		c-0.2-0.2-0.3-0.5-0.4-0.8c-0.1-0.3-0.1-0.7-0.1-1.1c0-0.8,0.2-1.5,0.6-1.9c0.4-0.4,0.9-0.7,1.6-0.7c0.3,0,0.6,0,0.8,0.1
		c0.2,0,0.4,0.1,0.6,0.2l-0.2,0.7c-0.2-0.1-0.3-0.2-0.5-0.2s-0.4-0.1-0.6-0.1c-0.9,0-1.4,0.6-1.4,1.9c0,0.3,0,0.5,0.1,0.7
		c0.1,0.2,0.1,0.4,0.2,0.6c0.1,0.2,0.3,0.3,0.5,0.4c0.2,0.1,0.4,0.2,0.7,0.2c0.2,0,0.5,0,0.6-0.1c0.2-0.1,0.3-0.2,0.5-0.2
		L490.5,230.7z"/>
	<path d="M495.2,230.6c-0.2,0.2-0.5,0.3-0.8,0.4c-0.3,0.1-0.6,0.1-1,0.1c-0.4,0-0.7-0.1-1-0.2c-0.3-0.1-0.5-0.3-0.7-0.5
		c-0.2-0.2-0.3-0.5-0.4-0.8s-0.1-0.7-0.1-1.1c0-0.9,0.2-1.5,0.6-2c0.4-0.4,0.9-0.7,1.6-0.7c0.2,0,0.5,0,0.7,0.1s0.4,0.1,0.6,0.3
		c0.2,0.1,0.3,0.3,0.4,0.6s0.2,0.6,0.2,1c0,0.2,0,0.5-0.1,0.7h-3.2c0,0.3,0,0.6,0.1,0.8c0.1,0.2,0.2,0.4,0.3,0.6
		c0.1,0.2,0.3,0.3,0.5,0.4c0.2,0.1,0.5,0.1,0.7,0.1c0.2,0,0.5,0,0.7-0.1c0.2-0.1,0.4-0.2,0.5-0.3L495.2,230.6z M493.5,226.6
		c-0.4,0-0.7,0.1-0.9,0.3c-0.2,0.2-0.4,0.6-0.4,1.1h2.5c0-0.5-0.1-0.9-0.3-1.1C494.1,226.7,493.9,226.6,493.5,226.6z"/>
	<path d="M500.8,233.2c-0.3-0.3-0.6-0.7-0.8-1.1c-0.2-0.4-0.4-0.8-0.5-1.2c-0.1-0.4-0.2-0.8-0.3-1.2c-0.1-0.4-0.1-0.8-0.1-1.2
		c0-0.4,0-0.8,0.1-1.2c0.1-0.4,0.2-0.8,0.3-1.2c0.1-0.4,0.3-0.8,0.5-1.2c0.2-0.4,0.5-0.8,0.8-1.1l0.5,0.4c-0.3,0.3-0.5,0.7-0.7,1.1
		s-0.3,0.7-0.4,1.1c-0.1,0.4-0.2,0.7-0.2,1.1s-0.1,0.7-0.1,1.1c0,0.3,0,0.7,0.1,1c0.1,0.4,0.1,0.8,0.2,1.1c0.1,0.4,0.3,0.7,0.4,1.1
		c0.2,0.4,0.4,0.7,0.6,1L500.8,233.2z"/>
	<path d="M502.4,230.3h1.4v-4.8l0.1-0.6l-0.4,0.5l-1.1,0.8l-0.4-0.5l2.2-1.7h0.4v6.4h1.4v0.7h-3.5V230.3z"/>
	<path d="M507.2,227.5c0-1.2,0.2-2.1,0.6-2.7c0.4-0.6,1-0.9,1.7-0.9c0.8,0,1.4,0.3,1.8,0.9s0.5,1.5,0.5,2.7c0,1.2-0.2,2.1-0.6,2.7
		c-0.4,0.6-1,0.9-1.7,0.9c-0.8,0-1.4-0.3-1.7-1C507.4,229.6,507.2,228.7,507.2,227.5z M508.1,227.5c0,0.4,0,0.8,0.1,1.2
		c0.1,0.4,0.1,0.7,0.3,0.9c0.1,0.3,0.3,0.5,0.5,0.6c0.2,0.1,0.4,0.2,0.7,0.2c0.5,0,0.9-0.2,1.1-0.7s0.4-1.2,0.4-2.2
		c0-0.4,0-0.8-0.1-1.2c0-0.4-0.1-0.7-0.2-0.9c-0.1-0.3-0.3-0.5-0.5-0.6s-0.4-0.2-0.7-0.2c-0.5,0-0.9,0.2-1.1,0.7
		C508.2,225.8,508.1,226.5,508.1,227.5z"/>
	<path d="M515,226h0.8v-1l0.8-0.2v1.2h1.4v0.7h-1.4v2.8c0,0.3,0,0.6,0.1,0.7c0.1,0.1,0.2,0.2,0.4,0.2c0.2,0,0.3,0,0.4-0.1
		c0.1,0,0.3-0.1,0.4-0.1l0.2,0.6c-0.2,0.1-0.4,0.2-0.6,0.2c-0.2,0.1-0.4,0.1-0.7,0.1c-0.4,0-0.7-0.1-0.9-0.3
		c-0.2-0.2-0.2-0.6-0.2-1.2v-2.9H515V226z"/>
	<path d="M522.3,231v-2.8c0-0.3,0-0.5,0-0.7c0-0.2-0.1-0.4-0.2-0.5c-0.1-0.1-0.2-0.2-0.3-0.3c-0.1-0.1-0.3-0.1-0.5-0.1
		c-0.3,0-0.6,0.1-0.9,0.3c-0.3,0.2-0.4,0.5-0.5,0.8v3.3h-0.8v-7h0.8v2.6h0c0.2-0.2,0.4-0.4,0.6-0.5c0.2-0.1,0.5-0.2,0.9-0.2
		c0.3,0,0.5,0,0.7,0.1c0.2,0.1,0.4,0.2,0.5,0.3c0.1,0.2,0.2,0.4,0.3,0.6c0.1,0.3,0.1,0.6,0.1,1v3H522.3z"/>
	<path d="M526.9,226.8c-0.2-0.1-0.4-0.1-0.6-0.1c-0.3,0-0.5,0.1-0.7,0.2c-0.2,0.2-0.3,0.4-0.3,0.6v3.5h-0.8v-5h0.6l0.2,0.6h0
		c0.1-0.2,0.3-0.4,0.5-0.5s0.4-0.2,0.7-0.2c0.2,0,0.4,0,0.6,0.1L526.9,226.8z"/>
	<path d="M527.7,228.5c0-0.8,0.2-1.5,0.6-1.9c0.4-0.4,0.9-0.7,1.6-0.7c0.4,0,0.7,0.1,1,0.2c0.3,0.1,0.5,0.3,0.7,0.5
		c0.2,0.2,0.3,0.5,0.4,0.8c0.1,0.3,0.1,0.7,0.1,1.1c0,0.8-0.2,1.5-0.6,1.9c-0.4,0.4-0.9,0.7-1.6,0.7c-0.4,0-0.7-0.1-1-0.2
		c-0.3-0.1-0.5-0.3-0.7-0.5c-0.2-0.2-0.3-0.5-0.4-0.8S527.7,228.9,527.7,228.5z M528.5,228.5c0,0.3,0,0.5,0.1,0.7
		c0.1,0.2,0.1,0.4,0.2,0.6c0.1,0.2,0.2,0.3,0.4,0.4c0.2,0.1,0.4,0.2,0.6,0.2c0.9,0,1.4-0.6,1.4-1.9c0-0.3,0-0.5-0.1-0.7
		s-0.1-0.4-0.2-0.6c-0.1-0.2-0.2-0.3-0.4-0.4c-0.2-0.1-0.4-0.2-0.6-0.2C529,226.6,528.5,227.3,528.5,228.5z"/>
	<path d="M534,226v2.8c0,0.3,0,0.5,0,0.7s0.1,0.4,0.2,0.5c0.1,0.1,0.2,0.2,0.3,0.3c0.1,0.1,0.3,0.1,0.5,0.1c0.2,0,0.3,0,0.5-0.1
		c0.1-0.1,0.3-0.1,0.4-0.2c0.1-0.1,0.2-0.2,0.3-0.3c0.1-0.1,0.2-0.3,0.2-0.4V226h0.8v3.6c0,0.2,0,0.5,0,0.7s0,0.5,0.1,0.7h-0.6
		l-0.2-0.8h-0.1c-0.2,0.3-0.4,0.5-0.6,0.7c-0.3,0.2-0.6,0.3-1,0.3c-0.3,0-0.5,0-0.7-0.1c-0.2-0.1-0.4-0.2-0.5-0.3
		c-0.1-0.2-0.2-0.4-0.3-0.6c-0.1-0.3-0.1-0.6-0.1-1v-3H534z"/>
	<path d="M542.5,231.3c0,0.6-0.2,1.1-0.5,1.4s-0.9,0.5-1.5,0.5c-0.4,0-0.7,0-1-0.1s-0.5-0.1-0.6-0.2l0.2-0.7
		c0.2,0.1,0.3,0.1,0.5,0.2c0.2,0.1,0.4,0.1,0.7,0.1c0.3,0,0.5,0,0.7-0.1c0.2,0,0.3-0.1,0.4-0.2c0.1-0.1,0.2-0.3,0.2-0.5
		c0-0.2,0.1-0.4,0.1-0.7v-0.5h0c-0.1,0.2-0.3,0.3-0.5,0.4c-0.2,0.1-0.5,0.2-0.8,0.2c-0.7,0-1.2-0.2-1.5-0.6c-0.3-0.4-0.5-1.1-0.5-2
		c0-0.9,0.2-1.5,0.6-1.9c0.4-0.4,1-0.7,1.8-0.7c0.4,0,0.7,0,1,0.1s0.5,0.1,0.7,0.2V231.3z M540.5,230.5c0.3,0,0.6-0.1,0.8-0.3
		s0.3-0.4,0.4-0.8v-2.6c-0.3-0.1-0.6-0.2-1-0.2c-0.5,0-0.8,0.2-1.1,0.5s-0.4,0.8-0.4,1.4c0,0.3,0,0.5,0.1,0.8c0,0.2,0.1,0.4,0.2,0.6
		c0.1,0.2,0.2,0.3,0.4,0.4C540.1,230.4,540.3,230.5,540.5,230.5z"/>
	<path d="M547.3,231v-2.8c0-0.3,0-0.5,0-0.7c0-0.2-0.1-0.4-0.2-0.5c-0.1-0.1-0.2-0.2-0.3-0.3c-0.1-0.1-0.3-0.1-0.5-0.1
		c-0.3,0-0.6,0.1-0.9,0.3c-0.3,0.2-0.4,0.5-0.5,0.8v3.3h-0.8v-7h0.8v2.6h0c0.2-0.2,0.4-0.4,0.6-0.5c0.2-0.1,0.5-0.2,0.9-0.2
		c0.3,0,0.5,0,0.7,0.1c0.2,0.1,0.4,0.2,0.5,0.3c0.1,0.2,0.2,0.4,0.3,0.6c0.1,0.3,0.1,0.6,0.1,1v3H547.3z"/>
	<path d="M552.5,230.3h1.4v-4.8l0.1-0.6l-0.4,0.5l-1.1,0.8l-0.4-0.5l2.2-1.7h0.4v6.4h1.4v0.7h-3.5V230.3z"/>
	<path d="M562.1,228.9H561v2.2h-0.8v-2.2h-3.1v-0.3l3.3-4.6h0.5v4.3h1.2V228.9z M560.2,226l0.1-0.8h0l-0.3,0.7l-1.4,1.9l-0.5,0.5
		l0.7-0.1h1.5V226z"/>
	<path d="M562.9,223.9c0.3,0.3,0.6,0.7,0.8,1.1c0.2,0.4,0.4,0.8,0.5,1.2s0.2,0.8,0.3,1.2c0.1,0.4,0.1,0.8,0.1,1.2
		c0,0.4,0,0.8-0.1,1.2c-0.1,0.4-0.2,0.8-0.3,1.2c-0.1,0.4-0.3,0.8-0.5,1.2c-0.2,0.4-0.5,0.8-0.8,1.1l-0.5-0.4
		c0.3-0.3,0.5-0.7,0.7-1.1c0.2-0.4,0.3-0.7,0.4-1.1c0.1-0.4,0.2-0.7,0.2-1.1c0-0.4,0.1-0.7,0.1-1.1c0-0.3,0-0.7-0.1-1
		c-0.1-0.4-0.1-0.8-0.2-1.1c-0.1-0.4-0.3-0.8-0.4-1.1c-0.2-0.4-0.4-0.7-0.6-1L562.9,223.9z"/>
</g>
<g>
	<path d="M395.3,248.3h-4.1v-7h0.8v6.3h3.3V248.3z"/>
	<path d="M396.2,243.7c0.3-0.2,0.5-0.3,0.9-0.3c0.3-0.1,0.7-0.1,1.1-0.1c0.3,0,0.6,0,0.8,0.1c0.2,0.1,0.4,0.2,0.5,0.4
		c0.1,0.2,0.2,0.3,0.2,0.5c0,0.2,0.1,0.4,0.1,0.5c0,0.4,0,0.8,0,1.2c0,0.4,0,0.7,0,1.1c0,0.2,0,0.5,0,0.7c0,0.2,0.1,0.4,0.1,0.6
		h-0.6l-0.2-0.7h0c-0.1,0.1-0.1,0.2-0.2,0.3c-0.1,0.1-0.2,0.2-0.3,0.2c-0.1,0.1-0.3,0.1-0.4,0.2c-0.2,0-0.4,0.1-0.6,0.1
		c-0.2,0-0.4,0-0.6-0.1c-0.2-0.1-0.3-0.2-0.5-0.3c-0.1-0.1-0.2-0.3-0.3-0.4c-0.1-0.2-0.1-0.4-0.1-0.6c0-0.3,0.1-0.5,0.2-0.7
		c0.1-0.2,0.3-0.4,0.5-0.5s0.5-0.2,0.8-0.2c0.3,0,0.6-0.1,1-0.1c0.1,0,0.2,0,0.3,0s0.2,0,0.3,0c0-0.2,0-0.4,0-0.5
		c0-0.4-0.1-0.6-0.2-0.8s-0.4-0.2-0.8-0.2c-0.1,0-0.2,0-0.4,0c-0.1,0-0.3,0-0.4,0.1s-0.3,0.1-0.4,0.1c-0.1,0-0.2,0.1-0.3,0.1
		L396.2,243.7z M397.6,247.7c0.2,0,0.4,0,0.5-0.1c0.1,0,0.3-0.1,0.4-0.2c0.1-0.1,0.2-0.2,0.3-0.3c0.1-0.1,0.1-0.2,0.2-0.3v-0.8
		c-0.1,0-0.2,0-0.3,0s-0.2,0-0.3,0c-0.2,0-0.4,0-0.6,0c-0.2,0-0.4,0.1-0.5,0.1c-0.1,0.1-0.3,0.1-0.4,0.3c-0.1,0.1-0.1,0.2-0.1,0.4
		c0,0.2,0.1,0.4,0.2,0.6C397.1,247.6,397.3,247.7,397.6,247.7z"/>
	<path d="M400.6,243.3h0.8v-1l0.8-0.2v1.2h1.4v0.7h-1.4v2.8c0,0.3,0,0.6,0.1,0.7c0.1,0.1,0.2,0.2,0.4,0.2c0.2,0,0.3,0,0.4-0.1
		c0.1,0,0.3-0.1,0.4-0.1l0.2,0.6c-0.2,0.1-0.4,0.2-0.6,0.2c-0.2,0.1-0.4,0.1-0.7,0.1c-0.4,0-0.7-0.1-0.9-0.3
		c-0.2-0.2-0.2-0.6-0.2-1.2V244h-0.8V243.3z"/>
	<path d="M408.3,247.9c-0.2,0.2-0.5,0.3-0.8,0.4c-0.3,0.1-0.6,0.1-1,0.1c-0.4,0-0.7-0.1-1-0.2c-0.3-0.1-0.5-0.3-0.7-0.5
		c-0.2-0.2-0.3-0.5-0.4-0.8s-0.1-0.7-0.1-1.1c0-0.9,0.2-1.5,0.6-2c0.4-0.4,0.9-0.7,1.6-0.7c0.2,0,0.5,0,0.7,0.1s0.4,0.1,0.6,0.3
		c0.2,0.1,0.3,0.3,0.4,0.6s0.2,0.6,0.2,1c0,0.2,0,0.5-0.1,0.7h-3.2c0,0.3,0,0.6,0.1,0.8c0.1,0.2,0.2,0.4,0.3,0.6
		c0.1,0.2,0.3,0.3,0.5,0.4c0.2,0.1,0.5,0.1,0.7,0.1c0.2,0,0.5,0,0.7-0.1c0.2-0.1,0.4-0.2,0.5-0.3L408.3,247.9z M406.5,243.9
		c-0.4,0-0.7,0.1-0.9,0.3c-0.2,0.2-0.4,0.6-0.4,1.1h2.5c0-0.5-0.1-0.9-0.3-1.1C407.2,244,406.9,243.9,406.5,243.9z"/>
	<path d="M415.8,246.4h-2.6l-0.7,1.9h-0.8l2.7-7.1h0.4l2.7,7.1h-0.9L415.8,246.4z M413.5,245.7h2l-0.8-2.1l-0.2-1.1h0l-0.2,1.1
		L413.5,245.7z"/>
	<path d="M422,246.6c0,0.3,0,0.6,0,0.9s0,0.5,0.1,0.8h-0.5l-0.2-0.7h0c-0.1,0.2-0.3,0.4-0.6,0.6c-0.3,0.2-0.5,0.2-0.9,0.2
		c-0.7,0-1.2-0.2-1.5-0.6s-0.5-1.1-0.5-2c0-0.9,0.2-1.5,0.6-1.9s1-0.7,1.7-0.7c0.2,0,0.4,0,0.6,0s0.3,0.1,0.5,0.1v-2.1h0.8V246.6z
		 M420,247.7c0.3,0,0.6-0.1,0.8-0.3c0.2-0.2,0.3-0.4,0.4-0.8v-2.5c-0.1-0.1-0.3-0.2-0.4-0.2c-0.2,0-0.4-0.1-0.6-0.1
		c-0.5,0-0.8,0.2-1.1,0.5c-0.3,0.3-0.4,0.8-0.4,1.5c0,0.3,0,0.5,0.1,0.8c0,0.2,0.1,0.4,0.2,0.6c0.1,0.2,0.2,0.3,0.4,0.4
		S419.8,247.7,420,247.7z"/>
	<path d="M423.3,245.8c0-0.8,0.2-1.5,0.6-1.9c0.4-0.4,0.9-0.7,1.6-0.7c0.4,0,0.7,0.1,1,0.2c0.3,0.1,0.5,0.3,0.7,0.5
		c0.2,0.2,0.3,0.5,0.4,0.8c0.1,0.3,0.1,0.7,0.1,1.1c0,0.8-0.2,1.5-0.6,1.9c-0.4,0.4-0.9,0.7-1.6,0.7c-0.4,0-0.7-0.1-1-0.2
		c-0.3-0.1-0.5-0.3-0.7-0.5c-0.2-0.2-0.3-0.5-0.4-0.8S423.3,246.2,423.3,245.8z M424.1,245.8c0,0.3,0,0.5,0.1,0.7
		c0.1,0.2,0.1,0.4,0.2,0.6c0.1,0.2,0.2,0.3,0.4,0.4c0.2,0.1,0.4,0.2,0.6,0.2c0.9,0,1.4-0.6,1.4-1.9c0-0.3,0-0.5-0.1-0.7
		s-0.1-0.4-0.2-0.6c-0.1-0.2-0.2-0.3-0.4-0.4c-0.2-0.1-0.4-0.2-0.6-0.2C424.6,243.9,424.1,244.5,424.1,245.8z"/>
	<path d="M429.8,247.1c0,0.2,0,0.4,0.1,0.5c0.1,0.1,0.2,0.2,0.3,0.2c0.1,0,0.2,0,0.3,0c0.1,0,0.2,0,0.3-0.1l0.1,0.6
		c-0.1,0.1-0.3,0.1-0.4,0.1c-0.2,0-0.4,0-0.5,0c-0.3,0-0.5-0.1-0.7-0.3s-0.3-0.5-0.3-0.9v-6h0.8V247.1z"/>
	<path d="M435.5,247.9c-0.2,0.2-0.5,0.3-0.8,0.4c-0.3,0.1-0.6,0.1-1,0.1c-0.4,0-0.7-0.1-1-0.2c-0.3-0.1-0.5-0.3-0.7-0.5
		c-0.2-0.2-0.3-0.5-0.4-0.8s-0.1-0.7-0.1-1.1c0-0.9,0.2-1.5,0.6-2c0.4-0.4,0.9-0.7,1.6-0.7c0.2,0,0.5,0,0.7,0.1s0.4,0.1,0.6,0.3
		c0.2,0.1,0.3,0.3,0.4,0.6s0.2,0.6,0.2,1c0,0.2,0,0.5-0.1,0.7h-3.2c0,0.3,0,0.6,0.1,0.8c0.1,0.2,0.2,0.4,0.3,0.6
		c0.1,0.2,0.3,0.3,0.5,0.4c0.2,0.1,0.5,0.1,0.7,0.1c0.2,0,0.5,0,0.7-0.1c0.2-0.1,0.4-0.2,0.5-0.3L435.5,247.9z M433.8,243.9
		c-0.4,0-0.7,0.1-0.9,0.3c-0.2,0.2-0.4,0.6-0.4,1.1h2.5c0-0.5-0.1-0.9-0.3-1.1C434.4,244,434.2,243.9,433.8,243.9z"/>
	<path d="M439.1,247c0-0.2-0.1-0.4-0.2-0.5s-0.3-0.2-0.4-0.3c-0.2-0.1-0.4-0.1-0.6-0.2s-0.4-0.2-0.6-0.3c-0.2-0.1-0.3-0.3-0.4-0.4
		c-0.1-0.2-0.2-0.4-0.2-0.7c0-0.5,0.1-0.8,0.4-1.1c0.3-0.2,0.7-0.3,1.1-0.3c0.4,0,0.7,0,0.9,0.1c0.2,0.1,0.5,0.1,0.6,0.2l-0.2,0.7
		c-0.2-0.1-0.3-0.1-0.6-0.2c-0.2-0.1-0.4-0.1-0.7-0.1c-0.3,0-0.5,0-0.6,0.2c-0.1,0.1-0.2,0.3-0.2,0.5c0,0.2,0.1,0.3,0.2,0.4
		s0.3,0.2,0.4,0.3c0.2,0.1,0.4,0.2,0.6,0.2c0.2,0.1,0.4,0.2,0.6,0.3c0.2,0.1,0.3,0.3,0.4,0.5c0.1,0.2,0.2,0.4,0.2,0.7
		c0,0.2,0,0.4-0.1,0.6s-0.2,0.3-0.3,0.5c-0.1,0.1-0.3,0.2-0.5,0.3c-0.2,0.1-0.5,0.1-0.8,0.1c-0.4,0-0.7,0-1-0.1s-0.5-0.2-0.7-0.3
		l0.2-0.7c0.2,0.1,0.4,0.2,0.6,0.2c0.2,0.1,0.5,0.1,0.8,0.1c0.3,0,0.5-0.1,0.7-0.2C439.1,247.5,439.1,247.3,439.1,247z"/>
	<path d="M444.6,248c-0.2,0.1-0.4,0.3-0.7,0.3c-0.3,0.1-0.6,0.1-0.9,0.1c-0.4,0-0.7-0.1-1-0.2c-0.3-0.1-0.5-0.3-0.7-0.5
		c-0.2-0.2-0.3-0.5-0.4-0.8c-0.1-0.3-0.1-0.7-0.1-1.1c0-0.8,0.2-1.5,0.6-1.9c0.4-0.4,0.9-0.7,1.6-0.7c0.3,0,0.6,0,0.8,0.1
		c0.2,0,0.4,0.1,0.6,0.2l-0.2,0.7c-0.2-0.1-0.3-0.2-0.5-0.2s-0.4-0.1-0.6-0.1c-0.9,0-1.4,0.6-1.4,1.9c0,0.3,0,0.5,0.1,0.7
		c0.1,0.2,0.1,0.4,0.2,0.6c0.1,0.2,0.3,0.3,0.5,0.4c0.2,0.1,0.4,0.2,0.7,0.2c0.2,0,0.5,0,0.6-0.1c0.2-0.1,0.3-0.2,0.5-0.2L444.6,248
		z"/>
	<path d="M449.3,247.9c-0.2,0.2-0.5,0.3-0.8,0.4c-0.3,0.1-0.6,0.1-1,0.1c-0.4,0-0.7-0.1-1-0.2c-0.3-0.1-0.5-0.3-0.7-0.5
		c-0.2-0.2-0.3-0.5-0.4-0.8s-0.1-0.7-0.1-1.1c0-0.9,0.2-1.5,0.6-2c0.4-0.4,0.9-0.7,1.6-0.7c0.2,0,0.5,0,0.7,0.1s0.4,0.1,0.6,0.3
		c0.2,0.1,0.3,0.3,0.4,0.6s0.2,0.6,0.2,1c0,0.2,0,0.5-0.1,0.7h-3.2c0,0.3,0,0.6,0.1,0.8c0.1,0.2,0.2,0.4,0.3,0.6
		c0.1,0.2,0.3,0.3,0.5,0.4c0.2,0.1,0.5,0.1,0.7,0.1c0.2,0,0.5,0,0.7-0.1c0.2-0.1,0.4-0.2,0.5-0.3L449.3,247.9z M447.6,243.9
		c-0.4,0-0.7,0.1-0.9,0.3c-0.2,0.2-0.4,0.6-0.4,1.1h2.5c0-0.5-0.1-0.9-0.3-1.1C448.2,244,448,243.9,447.6,243.9z"/>
	<path d="M454,248.3v-2.8c0-0.5-0.1-0.9-0.2-1.2c-0.1-0.3-0.4-0.4-0.8-0.4c-0.4,0-0.6,0.1-0.9,0.3c-0.2,0.2-0.4,0.4-0.5,0.7v3.4
		h-0.8v-5h0.6l0.2,0.6h0c0.2-0.2,0.4-0.4,0.6-0.5c0.3-0.1,0.6-0.2,1-0.2c0.3,0,0.5,0,0.7,0.1c0.2,0.1,0.4,0.2,0.5,0.3
		c0.1,0.2,0.2,0.4,0.3,0.6c0.1,0.3,0.1,0.6,0.1,1v3H454z"/>
	<path d="M459.6,248c-0.2,0.1-0.4,0.3-0.7,0.3c-0.3,0.1-0.6,0.1-0.9,0.1c-0.4,0-0.7-0.1-1-0.2c-0.3-0.1-0.5-0.3-0.7-0.5
		c-0.2-0.2-0.3-0.5-0.4-0.8c-0.1-0.3-0.1-0.7-0.1-1.1c0-0.8,0.2-1.5,0.6-1.9c0.4-0.4,0.9-0.7,1.6-0.7c0.3,0,0.6,0,0.8,0.1
		c0.2,0,0.4,0.1,0.6,0.2l-0.2,0.7c-0.2-0.1-0.3-0.2-0.5-0.2s-0.4-0.1-0.6-0.1c-0.9,0-1.4,0.6-1.4,1.9c0,0.3,0,0.5,0.1,0.7
		c0.1,0.2,0.1,0.4,0.2,0.6c0.1,0.2,0.3,0.3,0.5,0.4c0.2,0.1,0.4,0.2,0.7,0.2c0.2,0,0.5,0,0.6-0.1c0.2-0.1,0.3-0.2,0.5-0.2L459.6,248
		z"/>
	<path d="M464.4,247.9c-0.2,0.2-0.5,0.3-0.8,0.4c-0.3,0.1-0.6,0.1-1,0.1c-0.4,0-0.7-0.1-1-0.2c-0.3-0.1-0.5-0.3-0.7-0.5
		c-0.2-0.2-0.3-0.5-0.4-0.8s-0.1-0.7-0.1-1.1c0-0.9,0.2-1.5,0.6-2c0.4-0.4,0.9-0.7,1.6-0.7c0.2,0,0.5,0,0.7,0.1s0.4,0.1,0.6,0.3
		c0.2,0.1,0.3,0.3,0.4,0.6s0.2,0.6,0.2,1c0,0.2,0,0.5-0.1,0.7h-3.2c0,0.3,0,0.6,0.1,0.8c0.1,0.2,0.2,0.4,0.3,0.6
		c0.1,0.2,0.3,0.3,0.5,0.4c0.2,0.1,0.5,0.1,0.7,0.1c0.2,0,0.5,0,0.7-0.1c0.2-0.1,0.4-0.2,0.5-0.3L464.4,247.9z M462.7,243.9
		c-0.4,0-0.7,0.1-0.9,0.3c-0.2,0.2-0.4,0.6-0.4,1.1h2.5c0-0.5-0.1-0.9-0.3-1.1C463.3,244,463,243.9,462.7,243.9z"/>
	<path d="M470,250.5c-0.3-0.3-0.6-0.7-0.8-1.1c-0.2-0.4-0.4-0.8-0.5-1.2c-0.1-0.4-0.2-0.8-0.3-1.2c-0.1-0.4-0.1-0.8-0.1-1.2
		c0-0.4,0-0.8,0.1-1.2c0.1-0.4,0.2-0.8,0.3-1.2c0.1-0.4,0.3-0.8,0.5-1.2c0.2-0.4,0.5-0.8,0.8-1.1l0.5,0.4c-0.3,0.3-0.5,0.7-0.7,1.1
		s-0.3,0.7-0.4,1.1c-0.1,0.4-0.2,0.7-0.2,1.1s-0.1,0.7-0.1,1.1c0,0.3,0,0.7,0.1,1c0.1,0.4,0.1,0.8,0.2,1.1c0.1,0.4,0.3,0.7,0.4,1.1
		c0.2,0.4,0.4,0.7,0.6,1L470,250.5z"/>
	<path d="M471.6,247.6h1.4v-4.8l0.1-0.6l-0.4,0.5l-1.1,0.8l-0.4-0.5l2.2-1.7h0.4v6.4h1.4v0.7h-3.5V247.6z"/>
	<path d="M478.1,247.7c0.5,0,0.8-0.1,1.1-0.4c0.3-0.3,0.5-0.7,0.5-1.2c0-0.5-0.1-0.9-0.4-1.1c-0.3-0.2-0.7-0.4-1.2-0.4l-0.8,0v-3.5
		h3.1v0.7h-2.4v2l0.4,0c0.7,0,1.2,0.2,1.6,0.5c0.4,0.4,0.6,0.9,0.6,1.5c0,0.4-0.1,0.7-0.2,1s-0.3,0.5-0.5,0.7
		c-0.2,0.2-0.5,0.3-0.8,0.4c-0.3,0.1-0.6,0.2-0.9,0.2c-0.3,0-0.6,0-0.8,0c-0.2,0-0.4-0.1-0.6-0.2l0.2-0.7c0.2,0.1,0.3,0.1,0.5,0.1
		S477.8,247.7,478.1,247.7z"/>
	<path d="M484.2,243.3h0.8v-1l0.8-0.2v1.2h1.4v0.7h-1.4v2.8c0,0.3,0,0.6,0.1,0.7c0.1,0.1,0.2,0.2,0.4,0.2c0.2,0,0.3,0,0.4-0.1
		c0.1,0,0.3-0.1,0.4-0.1l0.2,0.6c-0.2,0.1-0.4,0.2-0.6,0.2c-0.2,0.1-0.4,0.1-0.7,0.1c-0.4,0-0.7-0.1-0.9-0.3
		c-0.2-0.2-0.2-0.6-0.2-1.2V244h-0.8V243.3z"/>
	<path d="M491.4,248.3v-2.8c0-0.3,0-0.5,0-0.7c0-0.2-0.1-0.4-0.2-0.5c-0.1-0.1-0.2-0.2-0.3-0.3c-0.1-0.1-0.3-0.1-0.5-0.1
		c-0.3,0-0.6,0.1-0.9,0.3c-0.3,0.2-0.4,0.5-0.5,0.8v3.3h-0.8v-7h0.8v2.6h0c0.2-0.2,0.4-0.4,0.6-0.5c0.2-0.1,0.5-0.2,0.9-0.2
		c0.3,0,0.5,0,0.7,0.1c0.2,0.1,0.4,0.2,0.5,0.3c0.1,0.2,0.2,0.4,0.3,0.6c0.1,0.3,0.1,0.6,0.1,1v3H491.4z"/>
	<path d="M496.1,244.1c-0.2-0.1-0.4-0.1-0.6-0.1c-0.3,0-0.5,0.1-0.7,0.2c-0.2,0.2-0.3,0.4-0.3,0.6v3.5h-0.8v-5h0.6l0.2,0.6h0
		c0.1-0.2,0.3-0.4,0.5-0.5s0.4-0.2,0.7-0.2c0.2,0,0.4,0,0.6,0.1L496.1,244.1z"/>
	<path d="M496.8,245.8c0-0.8,0.2-1.5,0.6-1.9c0.4-0.4,0.9-0.7,1.6-0.7c0.4,0,0.7,0.1,1,0.2c0.3,0.1,0.5,0.3,0.7,0.5
		c0.2,0.2,0.3,0.5,0.4,0.8c0.1,0.3,0.1,0.7,0.1,1.1c0,0.8-0.2,1.5-0.6,1.9c-0.4,0.4-0.9,0.7-1.6,0.7c-0.4,0-0.7-0.1-1-0.2
		c-0.3-0.1-0.5-0.3-0.7-0.5c-0.2-0.2-0.3-0.5-0.4-0.8S496.8,246.2,496.8,245.8z M497.7,245.8c0,0.3,0,0.5,0.1,0.7
		c0.1,0.2,0.1,0.4,0.2,0.6c0.1,0.2,0.2,0.3,0.4,0.4c0.2,0.1,0.4,0.2,0.6,0.2c0.9,0,1.4-0.6,1.4-1.9c0-0.3,0-0.5-0.1-0.7
		s-0.1-0.4-0.2-0.6c-0.1-0.2-0.2-0.3-0.4-0.4c-0.2-0.1-0.4-0.2-0.6-0.2C498.1,243.9,497.7,244.5,497.7,245.8z"/>
	<path d="M503.2,243.3v2.8c0,0.3,0,0.5,0,0.7s0.1,0.4,0.2,0.5c0.1,0.1,0.2,0.2,0.3,0.3c0.1,0.1,0.3,0.1,0.5,0.1c0.2,0,0.3,0,0.5-0.1
		c0.1-0.1,0.3-0.1,0.4-0.2c0.1-0.1,0.2-0.2,0.3-0.3c0.1-0.1,0.2-0.3,0.2-0.4v-3.3h0.8v3.6c0,0.2,0,0.5,0,0.7s0,0.5,0.1,0.7h-0.6
		l-0.2-0.8h-0.1c-0.2,0.3-0.4,0.5-0.6,0.7c-0.3,0.2-0.6,0.3-1,0.3c-0.3,0-0.5,0-0.7-0.1c-0.2-0.1-0.4-0.2-0.5-0.3
		c-0.1-0.2-0.2-0.4-0.3-0.6c-0.1-0.3-0.1-0.6-0.1-1v-3H503.2z"/>
	<path d="M511.7,248.6c0,0.6-0.2,1.1-0.5,1.4s-0.9,0.5-1.5,0.5c-0.4,0-0.7,0-1-0.1s-0.5-0.1-0.6-0.2l0.2-0.7
		c0.2,0.1,0.3,0.1,0.5,0.2c0.2,0.1,0.4,0.1,0.7,0.1c0.3,0,0.5,0,0.7-0.1c0.2,0,0.3-0.1,0.4-0.2c0.1-0.1,0.2-0.3,0.2-0.5
		c0-0.2,0.1-0.4,0.1-0.7v-0.5h0c-0.1,0.2-0.3,0.3-0.5,0.4c-0.2,0.1-0.5,0.2-0.8,0.2c-0.7,0-1.2-0.2-1.5-0.6c-0.3-0.4-0.5-1.1-0.5-2
		c0-0.9,0.2-1.5,0.6-1.9c0.4-0.4,1-0.7,1.8-0.7c0.4,0,0.7,0,1,0.1s0.5,0.1,0.7,0.2V248.6z M509.7,247.7c0.3,0,0.6-0.1,0.8-0.3
		s0.3-0.4,0.4-0.8v-2.6c-0.3-0.1-0.6-0.2-1-0.2c-0.5,0-0.8,0.2-1.1,0.5s-0.4,0.8-0.4,1.4c0,0.3,0,0.5,0.1,0.8c0,0.2,0.1,0.4,0.2,0.6
		c0.1,0.2,0.2,0.3,0.4,0.4C509.2,247.7,509.4,247.7,509.7,247.7z"/>
	<path d="M516.4,248.3v-2.8c0-0.3,0-0.5,0-0.7c0-0.2-0.1-0.4-0.2-0.5c-0.1-0.1-0.2-0.2-0.3-0.3c-0.1-0.1-0.3-0.1-0.5-0.1
		c-0.3,0-0.6,0.1-0.9,0.3c-0.3,0.2-0.4,0.5-0.5,0.8v3.3h-0.8v-7h0.8v2.6h0c0.2-0.2,0.4-0.4,0.6-0.5c0.2-0.1,0.5-0.2,0.9-0.2
		c0.3,0,0.5,0,0.7,0.1c0.2,0.1,0.4,0.2,0.5,0.3c0.1,0.2,0.2,0.4,0.3,0.6c0.1,0.3,0.1,0.6,0.1,1v3H516.4z"/>
	<path d="M521.7,247.6h1.4v-4.8l0.1-0.6l-0.4,0.5l-1.1,0.8l-0.4-0.5l2.2-1.7h0.4v6.4h1.4v0.7h-3.5V247.6z"/>
	<path d="M527.1,248.3l2.5-5.9l0.4-0.5l-0.6,0.1h-2.8v-0.7h4.2v0.3l-2.9,6.7H527.1z"/>
	<path d="M532,241.2c0.3,0.3,0.6,0.7,0.8,1.1c0.2,0.4,0.4,0.8,0.5,1.2s0.2,0.8,0.3,1.2c0.1,0.4,0.1,0.8,0.1,1.2c0,0.4,0,0.8-0.1,1.2
		c-0.1,0.4-0.2,0.8-0.3,1.2c-0.1,0.4-0.3,0.8-0.5,1.2c-0.2,0.4-0.5,0.8-0.8,1.1l-0.5-0.4c0.3-0.3,0.5-0.7,0.7-1.1
		c0.2-0.4,0.3-0.7,0.4-1.1c0.1-0.4,0.2-0.7,0.2-1.1c0-0.4,0.1-0.7,0.1-1.1c0-0.3,0-0.7-0.1-1c-0.1-0.4-0.1-0.8-0.2-1.1
		c-0.1-0.4-0.3-0.8-0.4-1.1c-0.2-0.4-0.4-0.7-0.6-1L532,241.2z"/>
</g>
<line fill="none" stroke="#D8D8D8" stroke-width="0.43" stroke-linejoin="round" stroke-miterlimit="10" x1="370.9" y1="180.5" x2="569.5" y2="180.5"/>
<g>
	<path d="M58.9,404.1c0,0.4-0.1,0.7-0.2,1.1s-0.3,0.7-0.5,1.1s-0.4,0.7-0.7,1.1c-0.3,0.4-0.5,0.7-0.8,1l-0.5,0.4v0l0.6-0.1h2.2v0.7
		h-4v-0.3c0.1-0.2,0.3-0.3,0.5-0.6c0.2-0.2,0.4-0.5,0.6-0.8c0.2-0.3,0.4-0.6,0.7-0.9c0.2-0.3,0.4-0.6,0.6-0.9
		c0.2-0.3,0.3-0.6,0.4-0.9s0.2-0.6,0.2-0.9c0-0.3-0.1-0.6-0.3-0.8s-0.5-0.3-0.8-0.3c-0.3,0-0.5,0.1-0.7,0.2s-0.4,0.2-0.6,0.4
		l-0.3-0.6c0.2-0.2,0.5-0.4,0.8-0.5c0.3-0.1,0.7-0.2,1-0.2c0.3,0,0.5,0,0.8,0.1c0.2,0.1,0.4,0.2,0.6,0.4s0.3,0.3,0.3,0.5
		S58.9,403.8,58.9,404.1z"/>
	<path d="M60.4,406c0-1.2,0.2-2.1,0.6-2.7c0.4-0.6,1-0.9,1.7-0.9c0.8,0,1.4,0.3,1.8,0.9s0.5,1.5,0.5,2.7c0,1.2-0.2,2.1-0.6,2.7
		c-0.4,0.6-1,0.9-1.7,0.9c-0.8,0-1.4-0.3-1.7-1C60.5,408,60.4,407.1,60.4,406z M61.2,406c0,0.4,0,0.8,0.1,1.2
		c0.1,0.4,0.1,0.7,0.3,0.9c0.1,0.3,0.3,0.5,0.5,0.6c0.2,0.1,0.4,0.2,0.7,0.2c0.5,0,0.9-0.2,1.1-0.7s0.4-1.2,0.4-2.2
		c0-0.4,0-0.8-0.1-1.2c0-0.4-0.1-0.7-0.2-0.9c-0.1-0.3-0.3-0.5-0.5-0.6s-0.4-0.2-0.7-0.2c-0.5,0-0.9,0.2-1.1,0.7
		C61.3,404.3,61.2,405,61.2,406z"/>
	<path d="M65.8,406c0-1.2,0.2-2.1,0.6-2.7c0.4-0.6,1-0.9,1.7-0.9c0.8,0,1.4,0.3,1.8,0.9s0.5,1.5,0.5,2.7c0,1.2-0.2,2.1-0.6,2.7
		c-0.4,0.6-1,0.9-1.7,0.9c-0.8,0-1.4-0.3-1.7-1C66,408,65.8,407.1,65.8,406z M66.6,406c0,0.4,0,0.8,0.1,1.2c0.1,0.4,0.1,0.7,0.3,0.9
		c0.1,0.3,0.3,0.5,0.5,0.6c0.2,0.1,0.4,0.2,0.7,0.2c0.5,0,0.9-0.2,1.1-0.7s0.4-1.2,0.4-2.2c0-0.4,0-0.8-0.1-1.2
		c0-0.4-0.1-0.7-0.2-0.9c-0.1-0.3-0.3-0.5-0.5-0.6s-0.4-0.2-0.7-0.2c-0.5,0-0.9,0.2-1.1,0.7C66.8,404.3,66.6,405,66.6,406z"/>
	<path d="M71.9,409.5l2.5-5.9l0.4-0.5l-0.6,0.1h-2.8v-0.7h4.2v0.3l-2.9,6.7H71.9z"/>
</g>
<g>
	<path d="M104.9,404.1c0,0.4-0.1,0.7-0.2,1.1s-0.3,0.7-0.5,1.1s-0.4,0.7-0.7,1.1c-0.3,0.4-0.5,0.7-0.8,1l-0.5,0.4v0l0.6-0.1h2.2v0.7
		h-4v-0.3c0.1-0.2,0.3-0.3,0.5-0.6c0.2-0.2,0.4-0.5,0.6-0.8c0.2-0.3,0.4-0.6,0.7-0.9c0.2-0.3,0.4-0.6,0.6-0.9
		c0.2-0.3,0.3-0.6,0.4-0.9s0.2-0.6,0.2-0.9c0-0.3-0.1-0.6-0.3-0.8s-0.5-0.3-0.8-0.3c-0.3,0-0.5,0.1-0.7,0.2s-0.4,0.2-0.6,0.4
		l-0.3-0.6c0.2-0.2,0.5-0.4,0.8-0.5c0.3-0.1,0.7-0.2,1-0.2c0.3,0,0.5,0,0.8,0.1c0.2,0.1,0.4,0.2,0.6,0.4s0.3,0.3,0.3,0.5
		S104.9,403.8,104.9,404.1z"/>
	<path d="M106.3,406c0-1.2,0.2-2.1,0.6-2.7c0.4-0.6,1-0.9,1.7-0.9c0.8,0,1.4,0.3,1.8,0.9s0.5,1.5,0.5,2.7c0,1.2-0.2,2.1-0.6,2.7
		c-0.4,0.6-1,0.9-1.7,0.9c-0.8,0-1.4-0.3-1.7-1C106.5,408,106.3,407.1,106.3,406z M107.2,406c0,0.4,0,0.8,0.1,1.2
		c0.1,0.4,0.1,0.7,0.3,0.9c0.1,0.3,0.3,0.5,0.5,0.6c0.2,0.1,0.4,0.2,0.7,0.2c0.5,0,0.9-0.2,1.1-0.7s0.4-1.2,0.4-2.2
		c0-0.4,0-0.8-0.1-1.2c0-0.4-0.1-0.7-0.2-0.9c-0.1-0.3-0.3-0.5-0.5-0.6s-0.4-0.2-0.7-0.2c-0.5,0-0.9,0.2-1.1,0.7
		C107.3,404.3,107.2,405,107.2,406z"/>
	<path d="M111.8,406c0-1.2,0.2-2.1,0.6-2.7c0.4-0.6,1-0.9,1.7-0.9c0.8,0,1.4,0.3,1.8,0.9s0.5,1.5,0.5,2.7c0,1.2-0.2,2.1-0.6,2.7
		c-0.4,0.6-1,0.9-1.7,0.9c-0.8,0-1.4-0.3-1.7-1C112,408,111.8,407.1,111.8,406z M112.6,406c0,0.4,0,0.8,0.1,1.2
		c0.1,0.4,0.1,0.7,0.3,0.9c0.1,0.3,0.3,0.5,0.5,0.6c0.2,0.1,0.4,0.2,0.7,0.2c0.5,0,0.9-0.2,1.1-0.7s0.4-1.2,0.4-2.2
		c0-0.4,0-0.8-0.1-1.2c0-0.4-0.1-0.7-0.2-0.9c-0.1-0.3-0.3-0.5-0.5-0.6s-0.4-0.2-0.7-0.2c-0.5,0-0.9,0.2-1.1,0.7
		C112.7,404.3,112.6,405,112.6,406z"/>
	<path d="M117.5,407.8c0-0.4,0.1-0.8,0.3-1.1c0.2-0.3,0.6-0.6,1-0.8c-0.2-0.1-0.3-0.2-0.5-0.3c-0.1-0.1-0.3-0.2-0.4-0.4
		c-0.1-0.1-0.2-0.3-0.3-0.5c-0.1-0.2-0.1-0.4-0.1-0.6c0-0.3,0-0.5,0.1-0.7c0.1-0.2,0.2-0.4,0.4-0.5s0.4-0.3,0.6-0.4
		c0.2-0.1,0.5-0.1,0.8-0.1c0.3,0,0.5,0,0.8,0.1s0.4,0.2,0.6,0.3c0.2,0.1,0.3,0.3,0.4,0.5c0.1,0.2,0.1,0.4,0.1,0.6
		c0,0.4-0.1,0.7-0.3,1c-0.2,0.3-0.5,0.6-0.9,0.9c0.2,0.1,0.3,0.2,0.5,0.3c0.2,0.1,0.3,0.3,0.4,0.4c0.1,0.1,0.2,0.3,0.3,0.5
		c0.1,0.2,0.1,0.4,0.1,0.6c0,0.3,0,0.5-0.1,0.8c-0.1,0.2-0.2,0.4-0.4,0.6c-0.2,0.2-0.4,0.3-0.7,0.4c-0.3,0.1-0.6,0.1-0.9,0.1
		c-0.3,0-0.6,0-0.8-0.1c-0.2-0.1-0.5-0.2-0.6-0.4c-0.2-0.2-0.3-0.3-0.4-0.6C117.5,408.3,117.5,408.1,117.5,407.8z M120.8,407.7
		c0-0.2,0-0.4-0.1-0.5s-0.2-0.3-0.3-0.4s-0.3-0.2-0.4-0.3c-0.2-0.1-0.3-0.2-0.5-0.3c-0.4,0.2-0.7,0.5-0.9,0.8
		c-0.2,0.3-0.3,0.5-0.3,0.8c0,0.2,0,0.3,0.1,0.5c0.1,0.1,0.1,0.3,0.2,0.4c0.1,0.1,0.2,0.2,0.4,0.3c0.2,0.1,0.3,0.1,0.5,0.1
		c0.2,0,0.3,0,0.5-0.1s0.3-0.1,0.4-0.2c0.1-0.1,0.2-0.2,0.3-0.4C120.8,408.1,120.8,407.9,120.8,407.7z M118.4,404.1
		c0,0.2,0,0.4,0.1,0.5c0.1,0.1,0.2,0.3,0.3,0.4c0.1,0.1,0.3,0.2,0.4,0.3s0.3,0.2,0.5,0.3c0.3-0.2,0.5-0.5,0.7-0.7
		c0.1-0.2,0.2-0.5,0.2-0.8c0-0.3-0.1-0.6-0.3-0.8c-0.2-0.2-0.5-0.3-0.8-0.3c-0.2,0-0.3,0-0.5,0.1c-0.1,0.1-0.3,0.1-0.4,0.2
		c-0.1,0.1-0.2,0.2-0.2,0.3C118.4,403.8,118.4,404,118.4,404.1z"/>
</g>
<g>
	<path d="M335,404.1c0,0.4-0.1,0.7-0.2,1.1s-0.3,0.7-0.5,1.1s-0.4,0.7-0.7,1.1c-0.3,0.4-0.5,0.7-0.8,1l-0.5,0.4v0l0.6-0.1h2.2v0.7
		h-4v-0.3c0.1-0.2,0.3-0.3,0.5-0.6c0.2-0.2,0.4-0.5,0.6-0.8c0.2-0.3,0.4-0.6,0.7-0.9c0.2-0.3,0.4-0.6,0.6-0.9
		c0.2-0.3,0.3-0.6,0.4-0.9s0.2-0.6,0.2-0.9c0-0.3-0.1-0.6-0.3-0.8s-0.5-0.3-0.8-0.3c-0.3,0-0.5,0.1-0.7,0.2s-0.4,0.2-0.6,0.4
		l-0.3-0.6c0.2-0.2,0.5-0.4,0.8-0.5c0.3-0.1,0.7-0.2,1-0.2c0.3,0,0.5,0,0.8,0.1c0.2,0.1,0.4,0.2,0.6,0.4s0.3,0.3,0.3,0.5
		S335,403.8,335,404.1z"/>
	<path d="M336.4,406c0-1.2,0.2-2.1,0.6-2.7c0.4-0.6,1-0.9,1.7-0.9c0.8,0,1.4,0.3,1.8,0.9s0.5,1.5,0.5,2.7c0,1.2-0.2,2.1-0.6,2.7
		c-0.4,0.6-1,0.9-1.7,0.9c-0.8,0-1.4-0.3-1.7-1C336.6,408,336.4,407.1,336.4,406z M337.2,406c0,0.4,0,0.8,0.1,1.2
		c0.1,0.4,0.1,0.7,0.3,0.9c0.1,0.3,0.3,0.5,0.5,0.6c0.2,0.1,0.4,0.2,0.7,0.2c0.5,0,0.9-0.2,1.1-0.7s0.4-1.2,0.4-2.2
		c0-0.4,0-0.8-0.1-1.2c0-0.4-0.1-0.7-0.2-0.9c-0.1-0.3-0.3-0.5-0.5-0.6s-0.4-0.2-0.7-0.2c-0.5,0-0.9,0.2-1.1,0.7
		C337.4,404.3,337.2,405,337.2,406z"/>
	<path d="M342.5,408.8h1.4v-4.8l0.1-0.6l-0.4,0.5l-1.1,0.8l-0.4-0.5l2.2-1.7h0.4v6.4h1.4v0.7h-3.5V408.8z"/>
	<path d="M349.2,408.9c0.2,0,0.4,0,0.6-0.1s0.4-0.2,0.5-0.3c0.1-0.1,0.2-0.3,0.3-0.5c0.1-0.2,0.1-0.4,0.1-0.6c0-0.5-0.1-0.8-0.4-1
		s-0.7-0.3-1.1-0.3h-0.7v-0.3l1.4-2.2l0.5-0.4l-0.6,0.1h-2v-0.7h3.6v0.3l-1.6,2.4l-0.4,0.3v0l0.3-0.1c0.3,0,0.5,0.1,0.7,0.1
		c0.2,0.1,0.4,0.2,0.6,0.4c0.2,0.2,0.3,0.4,0.4,0.6c0.1,0.2,0.1,0.5,0.1,0.8c0,0.4-0.1,0.7-0.2,1c-0.1,0.3-0.3,0.5-0.5,0.7
		c-0.2,0.2-0.5,0.3-0.8,0.4c-0.3,0.1-0.6,0.2-0.9,0.2c-0.3,0-0.6,0-0.8-0.1s-0.5-0.1-0.6-0.2l0.2-0.7c0.2,0.1,0.3,0.1,0.5,0.2
		S349,408.9,349.2,408.9z"/>
</g>
<g>
	<path d="M289,404.1c0,0.4-0.1,0.7-0.2,1.1s-0.3,0.7-0.5,1.1s-0.4,0.7-0.7,1.1c-0.3,0.4-0.5,0.7-0.8,1l-0.5,0.4v0l0.6-0.1h2.2v0.7
		h-4v-0.3c0.1-0.2,0.3-0.3,0.5-0.6c0.2-0.2,0.4-0.5,0.6-0.8c0.2-0.3,0.4-0.6,0.7-0.9c0.2-0.3,0.4-0.6,0.6-0.9
		c0.2-0.3,0.3-0.6,0.4-0.9s0.2-0.6,0.2-0.9c0-0.3-0.1-0.6-0.3-0.8s-0.5-0.3-0.8-0.3c-0.3,0-0.5,0.1-0.7,0.2s-0.4,0.2-0.6,0.4
		l-0.3-0.6c0.2-0.2,0.5-0.4,0.8-0.5c0.3-0.1,0.7-0.2,1-0.2c0.3,0,0.5,0,0.8,0.1c0.2,0.1,0.4,0.2,0.6,0.4s0.3,0.3,0.3,0.5
		S289,403.8,289,404.1z"/>
	<path d="M290.4,406c0-1.2,0.2-2.1,0.6-2.7c0.4-0.6,1-0.9,1.7-0.9c0.8,0,1.4,0.3,1.8,0.9s0.5,1.5,0.5,2.7c0,1.2-0.2,2.1-0.6,2.7
		c-0.4,0.6-1,0.9-1.7,0.9c-0.8,0-1.4-0.3-1.7-1C290.6,408,290.4,407.1,290.4,406z M291.2,406c0,0.4,0,0.8,0.1,1.2
		c0.1,0.4,0.1,0.7,0.3,0.9c0.1,0.3,0.3,0.5,0.5,0.6c0.2,0.1,0.4,0.2,0.7,0.2c0.5,0,0.9-0.2,1.1-0.7s0.4-1.2,0.4-2.2
		c0-0.4,0-0.8-0.1-1.2c0-0.4-0.1-0.7-0.2-0.9c-0.1-0.3-0.3-0.5-0.5-0.6s-0.4-0.2-0.7-0.2c-0.5,0-0.9,0.2-1.1,0.7
		C291.3,404.3,291.2,405,291.2,406z"/>
	<path d="M296.5,408.8h1.4v-4.8l0.1-0.6l-0.4,0.5l-1.1,0.8l-0.4-0.5l2.2-1.7h0.4v6.4h1.4v0.7h-3.5V408.8z"/>
	<path d="M305.3,404.1c0,0.4-0.1,0.7-0.2,1.1s-0.3,0.7-0.5,1.1s-0.4,0.7-0.7,1.1c-0.3,0.4-0.5,0.7-0.8,1l-0.5,0.4v0l0.6-0.1h2.2v0.7
		h-4v-0.3c0.1-0.2,0.3-0.3,0.5-0.6c0.2-0.2,0.4-0.5,0.6-0.8c0.2-0.3,0.4-0.6,0.7-0.9c0.2-0.3,0.4-0.6,0.6-0.9
		c0.2-0.3,0.3-0.6,0.4-0.9s0.2-0.6,0.2-0.9c0-0.3-0.1-0.6-0.3-0.8s-0.5-0.3-0.8-0.3c-0.3,0-0.5,0.1-0.7,0.2s-0.4,0.2-0.6,0.4
		l-0.3-0.6c0.2-0.2,0.5-0.4,0.8-0.5c0.3-0.1,0.7-0.2,1-0.2c0.3,0,0.5,0,0.8,0.1c0.2,0.1,0.4,0.2,0.6,0.4s0.3,0.3,0.3,0.5
		S305.3,403.8,305.3,404.1z"/>
</g>
<g>
	<path d="M242.9,404.1c0,0.4-0.1,0.7-0.2,1.1s-0.3,0.7-0.5,1.1s-0.4,0.7-0.7,1.1c-0.3,0.4-0.5,0.7-0.8,1l-0.5,0.4v0l0.6-0.1h2.2v0.7
		h-4v-0.3c0.1-0.2,0.3-0.3,0.5-0.6c0.2-0.2,0.4-0.5,0.6-0.8c0.2-0.3,0.4-0.6,0.7-0.9c0.2-0.3,0.4-0.6,0.6-0.9
		c0.2-0.3,0.3-0.6,0.4-0.9s0.2-0.6,0.2-0.9c0-0.3-0.1-0.6-0.3-0.8s-0.5-0.3-0.8-0.3c-0.3,0-0.5,0.1-0.7,0.2s-0.4,0.2-0.6,0.4
		l-0.3-0.6c0.2-0.2,0.5-0.4,0.8-0.5c0.3-0.1,0.7-0.2,1-0.2c0.3,0,0.5,0,0.8,0.1c0.2,0.1,0.4,0.2,0.6,0.4s0.3,0.3,0.3,0.5
		S242.9,403.8,242.9,404.1z"/>
	<path d="M244.4,406c0-1.2,0.2-2.1,0.6-2.7c0.4-0.6,1-0.9,1.7-0.9c0.8,0,1.4,0.3,1.8,0.9s0.5,1.5,0.5,2.7c0,1.2-0.2,2.1-0.6,2.7
		c-0.4,0.6-1,0.9-1.7,0.9c-0.8,0-1.4-0.3-1.7-1C244.5,408,244.4,407.1,244.4,406z M245.2,406c0,0.4,0,0.8,0.1,1.2
		c0.1,0.4,0.1,0.7,0.3,0.9c0.1,0.3,0.3,0.5,0.5,0.6c0.2,0.1,0.4,0.2,0.7,0.2c0.5,0,0.9-0.2,1.1-0.7s0.4-1.2,0.4-2.2
		c0-0.4,0-0.8-0.1-1.2c0-0.4-0.1-0.7-0.2-0.9c-0.1-0.3-0.3-0.5-0.5-0.6s-0.4-0.2-0.7-0.2c-0.5,0-0.9,0.2-1.1,0.7
		C245.3,404.3,245.2,405,245.2,406z"/>
	<path d="M250.5,408.8h1.4v-4.8l0.1-0.6l-0.4,0.5l-1.1,0.8l-0.4-0.5l2.2-1.7h0.4v6.4h1.4v0.7h-3.5V408.8z"/>
	<path d="M255.9,408.8h1.4v-4.8l0.1-0.6l-0.4,0.5l-1.1,0.8l-0.4-0.5l2.2-1.7h0.4v6.4h1.4v0.7h-3.5V408.8z"/>
</g>
<g>
	<path d="M197,404.1c0,0.4-0.1,0.7-0.2,1.1s-0.3,0.7-0.5,1.1s-0.4,0.7-0.7,1.1c-0.3,0.4-0.5,0.7-0.8,1l-0.5,0.4v0l0.6-0.1h2.2v0.7
		h-4v-0.3c0.1-0.2,0.3-0.3,0.5-0.6c0.2-0.2,0.4-0.5,0.6-0.8c0.2-0.3,0.4-0.6,0.7-0.9c0.2-0.3,0.4-0.6,0.6-0.9
		c0.2-0.3,0.3-0.6,0.4-0.9s0.2-0.6,0.2-0.9c0-0.3-0.1-0.6-0.3-0.8s-0.5-0.3-0.8-0.3c-0.3,0-0.5,0.1-0.7,0.2s-0.4,0.2-0.6,0.4
		l-0.3-0.6c0.2-0.2,0.5-0.4,0.8-0.5c0.3-0.1,0.7-0.2,1-0.2c0.3,0,0.5,0,0.8,0.1c0.2,0.1,0.4,0.2,0.6,0.4s0.3,0.3,0.3,0.5
		S197,403.8,197,404.1z"/>
	<path d="M198.4,406c0-1.2,0.2-2.1,0.6-2.7c0.4-0.6,1-0.9,1.7-0.9c0.8,0,1.4,0.3,1.8,0.9s0.5,1.5,0.5,2.7c0,1.2-0.2,2.1-0.6,2.7
		c-0.4,0.6-1,0.9-1.7,0.9c-0.8,0-1.4-0.3-1.7-1C198.6,408,198.4,407.1,198.4,406z M199.2,406c0,0.4,0,0.8,0.1,1.2
		c0.1,0.4,0.1,0.7,0.3,0.9c0.1,0.3,0.3,0.5,0.5,0.6c0.2,0.1,0.4,0.2,0.7,0.2c0.5,0,0.9-0.2,1.1-0.7s0.4-1.2,0.4-2.2
		c0-0.4,0-0.8-0.1-1.2c0-0.4-0.1-0.7-0.2-0.9c-0.1-0.3-0.3-0.5-0.5-0.6s-0.4-0.2-0.7-0.2c-0.5,0-0.9,0.2-1.1,0.7
		C199.3,404.3,199.2,405,199.2,406z"/>
	<path d="M204.5,408.8h1.4v-4.8l0.1-0.6l-0.4,0.5l-1.1,0.8l-0.4-0.5l2.2-1.7h0.4v6.4h1.4v0.7h-3.5V408.8z"/>
	<path d="M209.3,406c0-1.2,0.2-2.1,0.6-2.7c0.4-0.6,1-0.9,1.7-0.9c0.8,0,1.4,0.3,1.8,0.9s0.5,1.5,0.5,2.7c0,1.2-0.2,2.1-0.6,2.7
		c-0.4,0.6-1,0.9-1.7,0.9c-0.8,0-1.4-0.3-1.7-1C209.5,408,209.3,407.1,209.3,406z M210.1,406c0,0.4,0,0.8,0.1,1.2
		c0.1,0.4,0.1,0.7,0.3,0.9c0.1,0.3,0.3,0.5,0.5,0.6c0.2,0.1,0.4,0.2,0.7,0.2c0.5,0,0.9-0.2,1.1-0.7s0.4-1.2,0.4-2.2
		c0-0.4,0-0.8-0.1-1.2c0-0.4-0.1-0.7-0.2-0.9c-0.1-0.3-0.3-0.5-0.5-0.6s-0.4-0.2-0.7-0.2c-0.5,0-0.9,0.2-1.1,0.7
		C210.2,404.3,210.1,405,210.1,406z"/>
</g>
<g>
	<path d="M151,404.1c0,0.4-0.1,0.7-0.2,1.1s-0.3,0.7-0.5,1.1s-0.4,0.7-0.7,1.1c-0.3,0.4-0.5,0.7-0.8,1l-0.5,0.4v0l0.6-0.1h2.2v0.7
		h-4v-0.3c0.1-0.2,0.3-0.3,0.5-0.6c0.2-0.2,0.4-0.5,0.6-0.8c0.2-0.3,0.4-0.6,0.7-0.9c0.2-0.3,0.4-0.6,0.6-0.9
		c0.2-0.3,0.3-0.6,0.4-0.9s0.2-0.6,0.2-0.9c0-0.3-0.1-0.6-0.3-0.8s-0.5-0.3-0.8-0.3c-0.3,0-0.5,0.1-0.7,0.2s-0.4,0.2-0.6,0.4
		l-0.3-0.6c0.2-0.2,0.5-0.4,0.8-0.5c0.3-0.1,0.7-0.2,1-0.2c0.3,0,0.5,0,0.8,0.1c0.2,0.1,0.4,0.2,0.6,0.4s0.3,0.3,0.3,0.5
		S151,403.8,151,404.1z"/>
	<path d="M152.4,406c0-1.2,0.2-2.1,0.6-2.7c0.4-0.6,1-0.9,1.7-0.9c0.8,0,1.4,0.3,1.8,0.9s0.5,1.5,0.5,2.7c0,1.2-0.2,2.1-0.6,2.7
		c-0.4,0.6-1,0.9-1.7,0.9c-0.8,0-1.4-0.3-1.7-1C152.6,408,152.4,407.1,152.4,406z M153.2,406c0,0.4,0,0.8,0.1,1.2
		c0.1,0.4,0.1,0.7,0.3,0.9c0.1,0.3,0.3,0.5,0.5,0.6c0.2,0.1,0.4,0.2,0.7,0.2c0.5,0,0.9-0.2,1.1-0.7s0.4-1.2,0.4-2.2
		c0-0.4,0-0.8-0.1-1.2c0-0.4-0.1-0.7-0.2-0.9c-0.1-0.3-0.3-0.5-0.5-0.6s-0.4-0.2-0.7-0.2c-0.5,0-0.9,0.2-1.1,0.7
		C153.4,404.3,153.2,405,153.2,406z"/>
	<path d="M157.9,406c0-1.2,0.2-2.1,0.6-2.7c0.4-0.6,1-0.9,1.7-0.9c0.8,0,1.4,0.3,1.8,0.9s0.5,1.5,0.5,2.7c0,1.2-0.2,2.1-0.6,2.7
		c-0.4,0.6-1,0.9-1.7,0.9c-0.8,0-1.4-0.3-1.7-1C158.1,408,157.9,407.1,157.9,406z M158.7,406c0,0.4,0,0.8,0.1,1.2
		c0.1,0.4,0.1,0.7,0.3,0.9c0.1,0.3,0.3,0.5,0.5,0.6c0.2,0.1,0.4,0.2,0.7,0.2c0.5,0,0.9-0.2,1.1-0.7s0.4-1.2,0.4-2.2
		c0-0.4,0-0.8-0.1-1.2c0-0.4-0.1-0.7-0.2-0.9c-0.1-0.3-0.3-0.5-0.5-0.6s-0.4-0.2-0.7-0.2c-0.5,0-0.9,0.2-1.1,0.7
		C158.8,404.3,158.7,405,158.7,406z"/>
	<path d="M163.4,404.6c0-0.3,0-0.6,0.1-0.9c0.1-0.3,0.2-0.5,0.4-0.7c0.2-0.2,0.4-0.4,0.7-0.5c0.3-0.1,0.6-0.2,0.9-0.2
		c0.7,0,1.2,0.2,1.6,0.7s0.6,1.1,0.6,1.9c0,0.8-0.1,1.4-0.3,2s-0.4,1-0.7,1.4c-0.3,0.4-0.7,0.7-1.1,0.9s-0.9,0.4-1.3,0.4l-0.2-0.6
		c0.4-0.1,0.7-0.2,1-0.3c0.3-0.2,0.6-0.4,0.8-0.6c0.2-0.3,0.4-0.5,0.5-0.9c0.1-0.3,0.2-0.7,0.3-1.1c-0.2,0.2-0.4,0.4-0.6,0.4
		c-0.2,0.1-0.5,0.1-0.9,0.1c-0.3,0-0.5,0-0.8-0.1c-0.2-0.1-0.5-0.2-0.6-0.4c-0.2-0.2-0.3-0.4-0.4-0.6
		C163.5,405.2,163.4,404.9,163.4,404.6z M164.2,404.5c0,0.5,0.1,0.8,0.4,1.1c0.2,0.2,0.6,0.4,1,0.4c0.3,0,0.6-0.1,0.8-0.2
		s0.4-0.2,0.5-0.4c0-0.1,0-0.2,0-0.2c0-0.1,0-0.1,0-0.2c0-0.2,0-0.5-0.1-0.7s-0.1-0.4-0.3-0.6c-0.1-0.2-0.3-0.3-0.4-0.4
		c-0.2-0.1-0.4-0.2-0.6-0.2c-0.4,0-0.7,0.1-0.9,0.4C164.4,403.7,164.2,404.1,164.2,404.5z"/>
</g>
<line fill="none" stroke="#3B6E8F" stroke-width="1.06" stroke-linecap="round" stroke-linejoin="round" stroke-miterlimit="10" x1="52.9" y1="31.4" x2="52.9" y2="395.2"/>
<line fill="none" stroke="#3B6E8F" stroke-width="1.06" stroke-linecap="round" stroke-linejoin="round" stroke-miterlimit="10" x1="52.9" y1="395.2" x2="342.8" y2="395.2"/>
</svg>
