<?xml version="1.0" encoding="utf-8"?>
<!-- Generator: Adobe Illustrator 18.0.0, SVG Export Plug-In . SVG Version: 6.00 Build 0)  -->
<!DOCTYPE svg PUBLIC "-//W3C//DTD SVG 1.1//EN" "http://www.w3.org/Graphics/SVG/1.1/DTD/svg11.dtd">
<svg version="1.1" id="Layer_1" xmlns="http://www.w3.org/2000/svg" xmlns:xlink="http://www.w3.org/1999/xlink" x="0px" y="0px"
	 viewBox="0 0 504 504" enable-background="new 0 0 504 504" xml:space="preserve">
<rect fill="none" stroke="#FFFFFF" stroke-width="1.06" stroke-linecap="round" stroke-linejoin="round" stroke-miterlimit="10" width="504" height="504"/>
<rect x="69.6" y="30.4" fill="#3B6E8F" width="69.8" height="325.2"/>
<rect x="147.2" y="30.6" fill="#3B6E8F" width="69.8" height="325"/>
<rect x="224.8" y="42.3" fill="#3B6E8F" width="69.8" height="313.3"/>
<rect x="302.4" y="188.2" fill="#3B6E8F" width="69.8" height="167.4"/>
<rect x="380" y="248" fill="#3B6E8F" width="69.8" height="107.6"/>
<g>
	<path fill="#FFFFFF" d="M318.2,208.9h2v-6.8l0.1-0.8l-0.6,0.7l-1.5,1.1l-0.5-0.7l3.1-2.4h0.5v8.9h1.9v1h-5V208.9z"/>
	<path fill="#FFFFFF" d="M325.1,203.1c0-0.4,0.1-0.9,0.2-1.2c0.1-0.4,0.3-0.7,0.6-1c0.3-0.3,0.6-0.5,0.9-0.7s0.8-0.2,1.3-0.2
		c1,0,1.7,0.3,2.2,0.9c0.5,0.6,0.8,1.5,0.8,2.6c0,1.1-0.1,2-0.4,2.8c-0.2,0.8-0.6,1.5-1,2c-0.4,0.5-0.9,1-1.5,1.3
		c-0.6,0.3-1.2,0.5-1.9,0.6l-0.3-0.9c0.5-0.1,1-0.2,1.5-0.5c0.4-0.2,0.8-0.5,1.1-0.9c0.3-0.4,0.6-0.8,0.8-1.2
		c0.2-0.5,0.3-0.9,0.4-1.5c-0.3,0.3-0.5,0.5-0.8,0.6s-0.7,0.2-1.2,0.2c-0.4,0-0.7-0.1-1.1-0.2s-0.6-0.3-0.9-0.6
		c-0.3-0.2-0.5-0.5-0.6-0.9C325.1,204,325.1,203.6,325.1,203.1z M326.2,203c0,0.7,0.2,1.2,0.5,1.5c0.3,0.3,0.8,0.5,1.4,0.5
		c0.5,0,0.8-0.1,1.2-0.2c0.3-0.1,0.6-0.3,0.7-0.6c0-0.1,0-0.2,0-0.3s0-0.2,0-0.3c0-0.3,0-0.7-0.1-1c-0.1-0.3-0.2-0.6-0.4-0.8
		c-0.2-0.2-0.4-0.4-0.6-0.6c-0.3-0.1-0.6-0.2-0.9-0.2c-0.6,0-1,0.2-1.3,0.5C326.4,201.9,326.2,202.4,326.2,203z"/>
	<path fill="#FFFFFF" d="M332.6,209.3c0-0.3,0.1-0.5,0.2-0.6c0.1-0.1,0.3-0.2,0.6-0.2c0.3,0,0.5,0.1,0.6,0.2
		c0.1,0.1,0.2,0.3,0.2,0.6c0,0.2-0.1,0.4-0.2,0.6c-0.1,0.1-0.3,0.2-0.6,0.2c-0.2,0-0.4-0.1-0.6-0.2
		C332.7,209.7,332.6,209.5,332.6,209.3z"/>
	<path fill="#FFFFFF" d="M335.7,203.1c0-0.4,0.1-0.9,0.2-1.2c0.1-0.4,0.3-0.7,0.6-1c0.3-0.3,0.6-0.5,0.9-0.7s0.8-0.2,1.3-0.2
		c1,0,1.7,0.3,2.2,0.9c0.5,0.6,0.8,1.5,0.8,2.6c0,1.1-0.1,2-0.4,2.8c-0.2,0.8-0.6,1.5-1,2c-0.4,0.5-0.9,1-1.5,1.3
		c-0.6,0.3-1.2,0.5-1.9,0.6l-0.3-0.9c0.5-0.1,1-0.2,1.5-0.5c0.4-0.2,0.8-0.5,1.1-0.9c0.3-0.4,0.6-0.8,0.8-1.2
		c0.2-0.5,0.3-0.9,0.4-1.5c-0.3,0.3-0.5,0.5-0.8,0.6s-0.7,0.2-1.2,0.2c-0.4,0-0.7-0.1-1.1-0.2s-0.6-0.3-0.9-0.6
		c-0.3-0.2-0.5-0.5-0.6-0.9C335.8,204,335.7,203.6,335.7,203.1z M336.8,203c0,0.7,0.2,1.2,0.5,1.5c0.3,0.3,0.8,0.5,1.4,0.5
		c0.5,0,0.8-0.1,1.2-0.2c0.3-0.1,0.6-0.3,0.7-0.6c0-0.1,0-0.2,0-0.3s0-0.2,0-0.3c0-0.3,0-0.7-0.1-1c-0.1-0.3-0.2-0.6-0.4-0.8
		c-0.2-0.2-0.4-0.4-0.6-0.6c-0.3-0.1-0.6-0.2-0.9-0.2c-0.6,0-1,0.2-1.3,0.5C337,201.9,336.8,202.4,336.8,203z"/>
	<path fill="#FFFFFF" d="M343.6,202.4c0-0.4,0.1-0.8,0.2-1.1c0.1-0.3,0.3-0.5,0.5-0.7c0.2-0.2,0.4-0.3,0.7-0.4s0.6-0.1,0.9-0.1
		c0.3,0,0.6,0,0.9,0.1c0.3,0.1,0.5,0.2,0.7,0.4c0.2,0.2,0.3,0.4,0.5,0.7c0.1,0.3,0.2,0.7,0.2,1.1s-0.1,0.8-0.2,1.1
		c-0.1,0.3-0.3,0.5-0.5,0.7c-0.2,0.2-0.4,0.3-0.7,0.4c-0.3,0.1-0.6,0.1-0.9,0.1c-0.3,0-0.6,0-0.9-0.1s-0.5-0.2-0.7-0.4
		c-0.2-0.2-0.3-0.4-0.5-0.7C343.6,203.2,343.6,202.8,343.6,202.4z M351.5,200l0.7,0.5l-7.2,9.6l-0.7-0.5L351.5,200z M344.6,202.4
		c0,0.6,0.1,1,0.3,1.2c0.2,0.2,0.5,0.4,0.8,0.4c0.2,0,0.3,0,0.5-0.1c0.1-0.1,0.3-0.1,0.4-0.3c0.1-0.1,0.2-0.3,0.2-0.5
		c0.1-0.2,0.1-0.5,0.1-0.8s0-0.6-0.1-0.8c-0.1-0.2-0.1-0.4-0.2-0.5c-0.1-0.1-0.2-0.2-0.4-0.3s-0.3-0.1-0.5-0.1
		c-0.4,0-0.6,0.1-0.8,0.3C344.7,201.3,344.6,201.7,344.6,202.4z M348.6,207.5c0-0.4,0.1-0.8,0.2-1.1c0.1-0.3,0.3-0.5,0.5-0.7
		s0.4-0.3,0.7-0.4c0.3-0.1,0.6-0.1,0.9-0.1c0.3,0,0.6,0,0.9,0.1c0.3,0.1,0.5,0.2,0.7,0.4c0.2,0.2,0.3,0.4,0.5,0.7
		c0.1,0.3,0.2,0.7,0.2,1.1c0,0.4-0.1,0.8-0.2,1.1c-0.1,0.3-0.3,0.5-0.5,0.7c-0.2,0.2-0.4,0.3-0.7,0.4c-0.3,0.1-0.6,0.1-0.9,0.1
		c-0.3,0-0.6,0-0.9-0.1s-0.5-0.2-0.7-0.4c-0.2-0.2-0.3-0.4-0.5-0.7C348.6,208.3,348.6,208,348.6,207.5z M349.6,207.5
		c0,0.6,0.1,1,0.3,1.2c0.2,0.2,0.5,0.4,0.8,0.4c0.2,0,0.3,0,0.5-0.1s0.3-0.1,0.4-0.3c0.1-0.1,0.2-0.3,0.2-0.5
		c0.1-0.2,0.1-0.5,0.1-0.8c0-0.3,0-0.6-0.1-0.8c-0.1-0.2-0.1-0.4-0.2-0.5c-0.1-0.1-0.2-0.2-0.4-0.3s-0.3-0.1-0.5-0.1
		c-0.4,0-0.6,0.1-0.8,0.3C349.7,206.5,349.6,206.9,349.6,207.5z"/>
</g>
<g>
	<path fill="#FFFFFF" d="M395.8,268.7h2V262l0.1-0.8l-0.6,0.7l-1.5,1.1l-0.5-0.7l3.1-2.4h0.5v8.9h1.9v1h-5V268.7z"/>
	<path fill="#FFFFFF" d="M408.2,262.2c0,0.5-0.1,1-0.3,1.5c-0.2,0.5-0.4,1-0.7,1.6c-0.3,0.5-0.6,1-1,1.5c-0.4,0.5-0.7,1-1.1,1.4
		l-0.7,0.6v0.1l0.9-0.2h3.1v1h-5.6v-0.4c0.2-0.2,0.5-0.5,0.7-0.8c0.3-0.3,0.6-0.7,0.9-1.1c0.3-0.4,0.6-0.8,0.9-1.2
		c0.3-0.4,0.6-0.9,0.8-1.3c0.2-0.4,0.4-0.9,0.6-1.3c0.1-0.4,0.2-0.9,0.2-1.2c0-0.5-0.1-0.8-0.4-1.1c-0.3-0.3-0.7-0.5-1.2-0.5
		c-0.4,0-0.7,0.1-1,0.2c-0.3,0.1-0.6,0.3-0.9,0.5l-0.5-0.8c0.3-0.3,0.7-0.5,1.2-0.7c0.4-0.2,0.9-0.2,1.4-0.2c0.4,0,0.8,0.1,1.1,0.2
		c0.3,0.1,0.6,0.3,0.8,0.5s0.4,0.5,0.5,0.8S408.2,261.9,408.2,262.2z"/>
	<path fill="#FFFFFF" d="M410.2,269.1c0-0.3,0.1-0.5,0.2-0.6c0.1-0.1,0.3-0.2,0.6-0.2c0.3,0,0.5,0.1,0.6,0.2
		c0.1,0.1,0.2,0.3,0.2,0.6c0,0.2-0.1,0.4-0.2,0.6c-0.1,0.1-0.3,0.2-0.6,0.2c-0.2,0-0.4-0.1-0.6-0.2
		C410.3,269.6,410.2,269.4,410.2,269.1z"/>
	<path fill="#FFFFFF" d="M413.5,267.4c0-0.6,0.2-1.1,0.5-1.5c0.3-0.4,0.8-0.8,1.4-1.2c-0.2-0.1-0.5-0.3-0.7-0.4
		c-0.2-0.2-0.4-0.3-0.5-0.5c-0.2-0.2-0.3-0.4-0.4-0.7c-0.1-0.2-0.1-0.5-0.1-0.8c0-0.4,0.1-0.7,0.2-1s0.3-0.6,0.5-0.8
		s0.5-0.4,0.9-0.5s0.7-0.2,1.1-0.2c0.4,0,0.7,0.1,1.1,0.2c0.3,0.1,0.6,0.3,0.8,0.5c0.2,0.2,0.4,0.4,0.5,0.7c0.1,0.3,0.2,0.6,0.2,0.9
		c0,0.5-0.1,1-0.4,1.4c-0.2,0.4-0.6,0.8-1.2,1.2c0.2,0.1,0.5,0.3,0.7,0.5c0.2,0.2,0.4,0.4,0.6,0.6c0.2,0.2,0.3,0.4,0.4,0.7
		c0.1,0.3,0.1,0.5,0.1,0.9c0,0.4-0.1,0.8-0.2,1.1c-0.1,0.3-0.3,0.6-0.6,0.9c-0.3,0.2-0.6,0.4-0.9,0.6c-0.4,0.1-0.8,0.2-1.2,0.2
		c-0.4,0-0.8-0.1-1.2-0.2c-0.3-0.1-0.6-0.3-0.9-0.5c-0.2-0.2-0.4-0.5-0.5-0.8C413.6,268.1,413.5,267.8,413.5,267.4z M418.1,267.3
		c0-0.3-0.1-0.5-0.2-0.7s-0.3-0.4-0.4-0.6c-0.2-0.2-0.4-0.3-0.6-0.5c-0.2-0.1-0.5-0.3-0.7-0.4c-0.6,0.3-1,0.7-1.2,1.1
		c-0.2,0.4-0.4,0.8-0.4,1.1c0,0.2,0,0.4,0.1,0.6c0.1,0.2,0.2,0.4,0.3,0.5s0.3,0.3,0.6,0.4c0.2,0.1,0.5,0.1,0.8,0.1
		c0.2,0,0.5,0,0.7-0.1c0.2-0.1,0.4-0.2,0.6-0.3c0.2-0.1,0.3-0.3,0.4-0.5C418.1,267.8,418.1,267.6,418.1,267.3z M414.8,262.2
		c0,0.3,0.1,0.5,0.2,0.7c0.1,0.2,0.2,0.4,0.4,0.5c0.2,0.2,0.4,0.3,0.6,0.4c0.2,0.1,0.5,0.3,0.7,0.4c0.4-0.3,0.7-0.6,0.9-1
		c0.2-0.3,0.3-0.7,0.3-1c0-0.5-0.1-0.8-0.4-1.1s-0.6-0.4-1.1-0.4c-0.3,0-0.5,0-0.7,0.1c-0.2,0.1-0.4,0.2-0.5,0.3
		c-0.1,0.1-0.2,0.3-0.3,0.5S414.8,262,414.8,262.2z"/>
	<path fill="#FFFFFF" d="M421.2,262.2c0-0.4,0.1-0.8,0.2-1.1c0.1-0.3,0.3-0.5,0.5-0.7c0.2-0.2,0.4-0.3,0.7-0.4s0.6-0.1,0.9-0.1
		c0.3,0,0.6,0,0.9,0.1c0.3,0.1,0.5,0.2,0.7,0.4c0.2,0.2,0.3,0.4,0.5,0.7c0.1,0.3,0.2,0.7,0.2,1.1s-0.1,0.8-0.2,1.1
		c-0.1,0.3-0.3,0.5-0.5,0.7c-0.2,0.2-0.4,0.3-0.7,0.4c-0.3,0.1-0.6,0.1-0.9,0.1c-0.3,0-0.6,0-0.9-0.1s-0.5-0.2-0.7-0.4
		c-0.2-0.2-0.3-0.4-0.5-0.7C421.2,263,421.2,262.6,421.2,262.2z M429.1,259.8l0.7,0.5l-7.2,9.6l-0.7-0.5L429.1,259.8z M422.2,262.2
		c0,0.6,0.1,1,0.3,1.2c0.2,0.2,0.5,0.4,0.8,0.4c0.2,0,0.3,0,0.5-0.1c0.1-0.1,0.3-0.1,0.4-0.3c0.1-0.1,0.2-0.3,0.2-0.5
		c0.1-0.2,0.1-0.5,0.1-0.8c0-0.3,0-0.6-0.1-0.8c-0.1-0.2-0.1-0.4-0.2-0.5c-0.1-0.1-0.2-0.2-0.4-0.3c-0.1-0.1-0.3-0.1-0.5-0.1
		c-0.4,0-0.6,0.1-0.8,0.3C422.3,261.2,422.2,261.6,422.2,262.2z M426.2,267.4c0-0.4,0.1-0.8,0.2-1.1c0.1-0.3,0.3-0.5,0.5-0.7
		c0.2-0.2,0.4-0.3,0.7-0.4c0.3-0.1,0.6-0.1,0.9-0.1c0.3,0,0.6,0,0.9,0.1c0.3,0.1,0.5,0.2,0.7,0.4c0.2,0.2,0.3,0.4,0.5,0.7
		c0.1,0.3,0.2,0.7,0.2,1.1c0,0.4-0.1,0.8-0.2,1.1c-0.1,0.3-0.3,0.5-0.5,0.7c-0.2,0.2-0.4,0.3-0.7,0.4c-0.3,0.1-0.6,0.1-0.9,0.1
		c-0.3,0-0.6,0-0.9-0.1s-0.5-0.2-0.7-0.4c-0.2-0.2-0.3-0.4-0.5-0.7C426.2,268.2,426.2,267.8,426.2,267.4z M427.2,267.4
		c0,0.6,0.1,1,0.3,1.2c0.2,0.2,0.5,0.4,0.8,0.4c0.2,0,0.3,0,0.5-0.1c0.1-0.1,0.3-0.1,0.4-0.3c0.1-0.1,0.2-0.3,0.2-0.5
		c0.1-0.2,0.1-0.5,0.1-0.8c0-0.3,0-0.6-0.1-0.8c-0.1-0.2-0.1-0.4-0.2-0.5c-0.1-0.1-0.2-0.2-0.4-0.3c-0.1-0.1-0.3-0.1-0.5-0.1
		c-0.4,0-0.6,0.1-0.8,0.3C427.3,266.4,427.2,266.8,427.2,267.4z"/>
</g>
<g>
	<path fill="#FFFFFF" d="M164.8,51.5c0.3,0,0.6,0,0.9-0.1c0.3-0.1,0.5-0.2,0.7-0.4c0.2-0.2,0.4-0.4,0.5-0.7c0.1-0.3,0.2-0.5,0.2-0.8
		c0-0.7-0.2-1.1-0.6-1.5c-0.4-0.3-0.9-0.5-1.6-0.5h-1v-0.4l2-3.1l0.6-0.6l-0.9,0.1h-2.8v-1h5v0.4l-2.2,3.3l-0.5,0.4v0l0.5-0.1
		c0.4,0,0.7,0.1,1,0.2s0.6,0.3,0.8,0.5c0.2,0.2,0.4,0.5,0.5,0.9c0.1,0.3,0.2,0.7,0.2,1.1c0,0.5-0.1,1-0.3,1.3
		c-0.2,0.4-0.4,0.7-0.7,1c-0.3,0.3-0.7,0.5-1.1,0.6s-0.8,0.2-1.3,0.2c-0.4,0-0.8,0-1.1-0.1c-0.3-0.1-0.6-0.1-0.9-0.3l0.3-1
		c0.2,0.1,0.5,0.2,0.8,0.3S164.4,51.5,164.8,51.5z"/>
	<path fill="#FFFFFF" d="M170.1,50c0-0.6,0.2-1.1,0.5-1.5s0.8-0.8,1.4-1.2c-0.2-0.1-0.5-0.3-0.7-0.4c-0.2-0.2-0.4-0.3-0.5-0.5
		c-0.2-0.2-0.3-0.4-0.4-0.7c-0.1-0.2-0.1-0.5-0.1-0.8c0-0.4,0.1-0.7,0.2-1c0.1-0.3,0.3-0.6,0.5-0.8c0.2-0.2,0.5-0.4,0.9-0.5
		c0.3-0.1,0.7-0.2,1.1-0.2c0.4,0,0.7,0.1,1.1,0.2c0.3,0.1,0.6,0.3,0.8,0.5c0.2,0.2,0.4,0.4,0.5,0.7c0.1,0.3,0.2,0.6,0.2,0.9
		c0,0.5-0.1,1-0.4,1.4c-0.2,0.4-0.6,0.8-1.2,1.2c0.2,0.1,0.5,0.3,0.7,0.5c0.2,0.2,0.4,0.4,0.6,0.6c0.2,0.2,0.3,0.4,0.4,0.7
		s0.1,0.5,0.1,0.9c0,0.4-0.1,0.8-0.2,1.1c-0.1,0.3-0.3,0.6-0.6,0.9c-0.3,0.2-0.6,0.4-0.9,0.6c-0.4,0.1-0.8,0.2-1.2,0.2
		c-0.4,0-0.8-0.1-1.2-0.2c-0.3-0.1-0.6-0.3-0.9-0.5c-0.2-0.2-0.4-0.5-0.5-0.8C170.1,50.7,170.1,50.3,170.1,50z M174.7,49.9
		c0-0.3-0.1-0.5-0.2-0.7s-0.3-0.4-0.4-0.6c-0.2-0.2-0.4-0.3-0.6-0.5c-0.2-0.1-0.5-0.3-0.7-0.4c-0.6,0.3-1,0.7-1.2,1.1
		c-0.2,0.4-0.4,0.8-0.4,1.1c0,0.2,0,0.4,0.1,0.6c0.1,0.2,0.2,0.4,0.3,0.5c0.1,0.1,0.3,0.3,0.6,0.4s0.5,0.1,0.8,0.1
		c0.2,0,0.5,0,0.7-0.1s0.4-0.2,0.6-0.3c0.2-0.1,0.3-0.3,0.4-0.5S174.7,50.1,174.7,49.9z M171.4,44.8c0,0.3,0.1,0.5,0.2,0.7
		s0.2,0.4,0.4,0.5s0.4,0.3,0.6,0.4c0.2,0.1,0.5,0.3,0.7,0.4c0.4-0.3,0.7-0.6,0.9-1c0.2-0.3,0.3-0.7,0.3-1c0-0.5-0.1-0.8-0.4-1.1
		c-0.3-0.3-0.6-0.4-1.1-0.4c-0.3,0-0.5,0-0.7,0.1c-0.2,0.1-0.4,0.2-0.5,0.3c-0.1,0.1-0.2,0.3-0.3,0.5S171.4,44.6,171.4,44.8z"/>
	<path fill="#FFFFFF" d="M177.4,51.7c0-0.3,0.1-0.5,0.2-0.6c0.1-0.1,0.3-0.2,0.6-0.2c0.3,0,0.5,0.1,0.6,0.2c0.1,0.1,0.2,0.3,0.2,0.6
		c0,0.2-0.1,0.4-0.2,0.6c-0.1,0.1-0.4,0.2-0.6,0.2c-0.2,0-0.4-0.1-0.6-0.2C177.5,52.1,177.4,51.9,177.4,51.7z"/>
	<path fill="#FFFFFF" d="M186.6,49.4c0,0.4-0.1,0.8-0.2,1.2s-0.3,0.7-0.6,1s-0.6,0.5-0.9,0.7c-0.4,0.2-0.8,0.2-1.3,0.2
		c-0.5,0-0.9-0.1-1.3-0.2c-0.4-0.1-0.7-0.4-1-0.7c-0.3-0.3-0.5-0.7-0.6-1.1c-0.1-0.4-0.2-0.9-0.2-1.5c0-0.9,0.1-1.8,0.4-2.6
		c0.2-0.8,0.6-1.5,1-2s0.9-1,1.5-1.4c0.6-0.4,1.2-0.6,1.9-0.7l0.2,0.9c-0.5,0.1-1,0.3-1.4,0.5s-0.8,0.6-1.1,1
		c-0.3,0.4-0.6,0.8-0.8,1.3c-0.2,0.5-0.3,1-0.4,1.5c0.1-0.3,0.4-0.5,0.8-0.7c0.4-0.2,0.8-0.3,1.3-0.3c0.9,0,1.6,0.3,2.1,0.8
		C186.4,47.8,186.6,48.5,186.6,49.4z M185.5,49.5c0-0.7-0.2-1.2-0.5-1.5c-0.3-0.3-0.8-0.5-1.4-0.5c-0.5,0-0.9,0.1-1.2,0.3
		c-0.3,0.2-0.6,0.5-0.7,0.8c0,0.1,0,0.2,0,0.3s0,0.2,0,0.3c0,0.3,0,0.6,0.1,0.9c0.1,0.3,0.2,0.5,0.4,0.7s0.4,0.4,0.6,0.5
		c0.2,0.1,0.5,0.2,0.9,0.2c0.3,0,0.5-0.1,0.7-0.2s0.4-0.2,0.6-0.4c0.2-0.2,0.3-0.4,0.4-0.6C185.4,50,185.5,49.8,185.5,49.5z"/>
	<path fill="#FFFFFF" d="M188.4,44.7c0-0.4,0.1-0.8,0.2-1.1c0.1-0.3,0.3-0.5,0.5-0.7c0.2-0.2,0.4-0.3,0.7-0.4s0.6-0.1,0.9-0.1
		s0.6,0,0.9,0.1c0.3,0.1,0.5,0.2,0.7,0.4c0.2,0.2,0.3,0.4,0.5,0.7c0.1,0.3,0.2,0.7,0.2,1.1s-0.1,0.8-0.2,1.1
		c-0.1,0.3-0.3,0.5-0.5,0.7c-0.2,0.2-0.4,0.3-0.7,0.4c-0.3,0.1-0.6,0.1-0.9,0.1s-0.6,0-0.9-0.1s-0.5-0.2-0.7-0.4
		c-0.2-0.2-0.3-0.4-0.5-0.7C188.4,45.6,188.4,45.2,188.4,44.7z M196.3,42.3l0.7,0.5l-7.2,9.6l-0.7-0.5L196.3,42.3z M189.4,44.7
		c0,0.6,0.1,1,0.3,1.2s0.5,0.4,0.8,0.4c0.2,0,0.3,0,0.5-0.1c0.1-0.1,0.3-0.1,0.4-0.3s0.2-0.3,0.2-0.5c0.1-0.2,0.1-0.5,0.1-0.8
		s0-0.6-0.1-0.8s-0.1-0.4-0.2-0.5c-0.1-0.1-0.2-0.2-0.4-0.3s-0.3-0.1-0.5-0.1c-0.4,0-0.6,0.1-0.8,0.3
		C189.5,43.7,189.4,44.1,189.4,44.7z M193.4,49.9c0-0.4,0.1-0.8,0.2-1.1s0.3-0.5,0.5-0.7c0.2-0.2,0.4-0.3,0.7-0.4
		c0.3-0.1,0.6-0.1,0.9-0.1s0.6,0,0.9,0.1c0.3,0.1,0.5,0.2,0.7,0.4s0.3,0.4,0.5,0.7c0.1,0.3,0.2,0.7,0.2,1.1c0,0.4-0.1,0.8-0.2,1.1
		c-0.1,0.3-0.3,0.5-0.5,0.7c-0.2,0.2-0.4,0.3-0.7,0.4c-0.3,0.1-0.6,0.1-0.9,0.1s-0.6,0-0.9-0.1s-0.5-0.2-0.7-0.4
		c-0.2-0.2-0.3-0.4-0.5-0.7S193.4,50.4,193.4,49.9z M194.4,49.9c0,0.6,0.1,1,0.3,1.2s0.5,0.4,0.8,0.4c0.2,0,0.3,0,0.5-0.1
		s0.3-0.1,0.4-0.3s0.2-0.3,0.2-0.5s0.1-0.5,0.1-0.8c0-0.3,0-0.6-0.1-0.8s-0.1-0.4-0.2-0.5s-0.2-0.2-0.4-0.3s-0.3-0.1-0.5-0.1
		c-0.4,0-0.6,0.1-0.8,0.3S194.4,49.3,194.4,49.9z"/>
</g>
<g>
	<path fill="#FFFFFF" d="M87.2,51.4c0.3,0,0.6,0,0.9-0.1c0.3-0.1,0.5-0.2,0.7-0.4c0.2-0.2,0.4-0.4,0.5-0.7c0.1-0.3,0.2-0.5,0.2-0.8
		c0-0.7-0.2-1.1-0.6-1.5c-0.4-0.3-0.9-0.5-1.6-0.5h-1V47l2-3.1l0.6-0.6l-0.9,0.1h-2.8v-1h5v0.4l-2.2,3.3l-0.5,0.4v0l0.5-0.1
		c0.4,0,0.7,0.1,1,0.2s0.6,0.3,0.8,0.5c0.2,0.2,0.4,0.5,0.5,0.9c0.1,0.3,0.2,0.7,0.2,1.1c0,0.5-0.1,1-0.3,1.3
		c-0.2,0.4-0.4,0.7-0.7,1c-0.3,0.3-0.7,0.5-1.1,0.6s-0.8,0.2-1.3,0.2c-0.4,0-0.8,0-1.1-0.1c-0.3-0.1-0.6-0.1-0.9-0.3l0.3-1
		c0.2,0.1,0.5,0.2,0.8,0.3S86.8,51.4,87.2,51.4z"/>
	<path fill="#FFFFFF" d="M92.5,49.8c0-0.6,0.2-1.1,0.5-1.5s0.8-0.8,1.4-1.2c-0.2-0.1-0.5-0.3-0.7-0.4c-0.2-0.2-0.4-0.3-0.5-0.5
		c-0.2-0.2-0.3-0.4-0.4-0.7c-0.1-0.2-0.1-0.5-0.1-0.8c0-0.4,0.1-0.7,0.2-1c0.1-0.3,0.3-0.6,0.5-0.8c0.2-0.2,0.5-0.4,0.9-0.5
		c0.3-0.1,0.7-0.2,1.1-0.2c0.4,0,0.7,0.1,1.1,0.2c0.3,0.1,0.6,0.3,0.8,0.5c0.2,0.2,0.4,0.4,0.5,0.7c0.1,0.3,0.2,0.6,0.2,0.9
		c0,0.5-0.1,1-0.4,1.4c-0.2,0.4-0.6,0.8-1.2,1.2c0.2,0.1,0.5,0.3,0.7,0.5c0.2,0.2,0.4,0.4,0.6,0.6c0.2,0.2,0.3,0.4,0.4,0.7
		s0.1,0.5,0.1,0.9c0,0.4-0.1,0.8-0.2,1.1c-0.1,0.3-0.3,0.6-0.6,0.9c-0.3,0.2-0.6,0.4-0.9,0.6c-0.4,0.1-0.8,0.2-1.2,0.2
		c-0.4,0-0.8-0.1-1.2-0.2c-0.3-0.1-0.6-0.3-0.9-0.5c-0.2-0.2-0.4-0.5-0.5-0.8C92.5,50.5,92.5,50.2,92.5,49.8z M97.1,49.7
		c0-0.3-0.1-0.5-0.2-0.7s-0.3-0.4-0.4-0.6c-0.2-0.2-0.4-0.3-0.6-0.5c-0.2-0.1-0.5-0.3-0.7-0.4c-0.6,0.3-1,0.7-1.2,1.1
		c-0.2,0.4-0.4,0.8-0.4,1.1c0,0.2,0,0.4,0.1,0.6c0.1,0.2,0.2,0.4,0.3,0.5c0.1,0.1,0.3,0.3,0.6,0.4s0.5,0.1,0.8,0.1
		c0.2,0,0.5,0,0.7-0.1s0.4-0.2,0.6-0.3c0.2-0.1,0.3-0.3,0.4-0.5S97.1,50,97.1,49.7z M93.8,44.6c0,0.3,0.1,0.5,0.2,0.7
		s0.2,0.4,0.4,0.5s0.4,0.3,0.6,0.4c0.2,0.1,0.5,0.3,0.7,0.4c0.4-0.3,0.7-0.6,0.9-1c0.2-0.3,0.3-0.7,0.3-1c0-0.5-0.1-0.8-0.4-1.1
		c-0.3-0.3-0.6-0.4-1.1-0.4c-0.3,0-0.5,0-0.7,0.1c-0.2,0.1-0.4,0.2-0.5,0.3c-0.1,0.1-0.2,0.3-0.3,0.5S93.8,44.4,93.8,44.6z"/>
	<path fill="#FFFFFF" d="M99.8,51.5c0-0.3,0.1-0.5,0.2-0.6c0.1-0.1,0.3-0.2,0.6-0.2c0.3,0,0.5,0.1,0.6,0.2c0.1,0.1,0.2,0.3,0.2,0.6
		c0,0.2-0.1,0.4-0.2,0.6c-0.1,0.1-0.4,0.2-0.6,0.2c-0.2,0-0.4-0.1-0.6-0.2C99.9,52,99.8,51.8,99.8,51.5z"/>
	<path fill="#FFFFFF" d="M109,49.2c0,0.4-0.1,0.8-0.2,1.2s-0.3,0.7-0.6,1s-0.6,0.5-0.9,0.7c-0.4,0.2-0.8,0.2-1.3,0.2
		c-0.5,0-0.9-0.1-1.3-0.2c-0.4-0.1-0.7-0.4-1-0.7c-0.3-0.3-0.5-0.7-0.6-1.1c-0.1-0.4-0.2-0.9-0.2-1.5c0-0.9,0.1-1.8,0.4-2.6
		c0.2-0.8,0.6-1.5,1-2s0.9-1,1.5-1.4c0.6-0.4,1.2-0.6,1.9-0.7l0.2,0.9c-0.5,0.1-1,0.3-1.4,0.5s-0.8,0.6-1.1,1
		c-0.3,0.4-0.6,0.8-0.8,1.3c-0.2,0.5-0.3,1-0.4,1.5c0.1-0.3,0.4-0.5,0.8-0.7c0.4-0.2,0.8-0.3,1.3-0.3c0.9,0,1.6,0.3,2.1,0.8
		C108.8,47.6,109,48.3,109,49.2z M107.9,49.3c0-0.7-0.2-1.2-0.5-1.5c-0.3-0.3-0.8-0.5-1.4-0.5c-0.5,0-0.9,0.1-1.2,0.3
		c-0.3,0.2-0.6,0.5-0.7,0.8c0,0.1,0,0.2,0,0.3s0,0.2,0,0.3c0,0.3,0,0.6,0.1,0.9c0.1,0.3,0.2,0.5,0.4,0.7s0.4,0.4,0.6,0.5
		c0.2,0.1,0.5,0.2,0.9,0.2c0.3,0,0.5-0.1,0.7-0.2s0.4-0.2,0.6-0.4c0.2-0.2,0.3-0.4,0.4-0.6C107.8,49.9,107.9,49.6,107.9,49.3z"/>
	<path fill="#FFFFFF" d="M110.8,44.6c0-0.4,0.1-0.8,0.2-1.1c0.1-0.3,0.3-0.5,0.5-0.7c0.2-0.2,0.4-0.3,0.7-0.4s0.6-0.1,0.9-0.1
		s0.6,0,0.9,0.1c0.3,0.1,0.5,0.2,0.7,0.4c0.2,0.2,0.3,0.4,0.5,0.7c0.1,0.3,0.2,0.7,0.2,1.1s-0.1,0.8-0.2,1.1
		c-0.1,0.3-0.3,0.5-0.5,0.7c-0.2,0.2-0.4,0.3-0.7,0.4c-0.3,0.1-0.6,0.1-0.9,0.1s-0.6,0-0.9-0.1s-0.5-0.2-0.7-0.4
		c-0.2-0.2-0.3-0.4-0.5-0.7C110.8,45.4,110.8,45,110.8,44.6z M118.7,42.2l0.7,0.5l-7.2,9.6l-0.7-0.5L118.7,42.2z M111.8,44.6
		c0,0.6,0.1,1,0.3,1.2s0.5,0.4,0.8,0.4c0.2,0,0.3,0,0.5-0.1c0.1-0.1,0.3-0.1,0.4-0.3s0.2-0.3,0.2-0.5c0.1-0.2,0.1-0.5,0.1-0.8
		s0-0.6-0.1-0.8s-0.1-0.4-0.2-0.5c-0.1-0.1-0.2-0.2-0.4-0.3s-0.3-0.1-0.5-0.1c-0.4,0-0.6,0.1-0.8,0.3
		C111.9,43.6,111.8,44,111.8,44.6z M115.8,49.8c0-0.4,0.1-0.8,0.2-1.1s0.3-0.5,0.5-0.7c0.2-0.2,0.4-0.3,0.7-0.4
		c0.3-0.1,0.6-0.1,0.9-0.1s0.6,0,0.9,0.1c0.3,0.1,0.5,0.2,0.7,0.4s0.3,0.4,0.5,0.7c0.1,0.3,0.2,0.7,0.2,1.1c0,0.4-0.1,0.8-0.2,1.1
		c-0.1,0.3-0.3,0.5-0.5,0.7c-0.2,0.2-0.4,0.3-0.7,0.4c-0.3,0.1-0.6,0.1-0.9,0.1s-0.6,0-0.9-0.1s-0.5-0.2-0.7-0.4
		c-0.2-0.2-0.3-0.4-0.5-0.7S115.8,50.2,115.8,49.8z M116.8,49.8c0,0.6,0.1,1,0.3,1.2s0.5,0.4,0.8,0.4c0.2,0,0.3,0,0.5-0.1
		s0.3-0.1,0.4-0.3s0.2-0.3,0.2-0.5s0.1-0.5,0.1-0.8c0-0.3,0-0.6-0.1-0.8s-0.1-0.4-0.2-0.5s-0.2-0.2-0.4-0.3s-0.3-0.1-0.5-0.1
		c-0.4,0-0.6,0.1-0.8,0.3S116.8,49.2,116.8,49.8z"/>
</g>
<g>
	<path fill="#FFFFFF" d="M242.4,63.3c0.3,0,0.6,0,0.9-0.1c0.3-0.1,0.5-0.2,0.7-0.4c0.2-0.2,0.4-0.4,0.5-0.7c0.1-0.3,0.2-0.5,0.2-0.8
		c0-0.7-0.2-1.1-0.6-1.5c-0.4-0.3-0.9-0.5-1.6-0.5h-1v-0.4l2-3.1l0.6-0.6l-0.9,0.1h-2.8v-1h5v0.4l-2.2,3.3l-0.5,0.4v0l0.5-0.1
		c0.4,0,0.7,0.1,1,0.2s0.6,0.3,0.8,0.5c0.2,0.2,0.4,0.5,0.5,0.9c0.1,0.3,0.2,0.7,0.2,1.1c0,0.5-0.1,1-0.3,1.3
		c-0.2,0.4-0.4,0.7-0.7,1c-0.3,0.3-0.7,0.5-1.1,0.6s-0.8,0.2-1.3,0.2c-0.4,0-0.8,0-1.1-0.1c-0.3-0.1-0.6-0.1-0.9-0.3l0.3-1
		c0.2,0.1,0.5,0.2,0.8,0.3S242,63.3,242.4,63.3z"/>
	<path fill="#FFFFFF" d="M248.3,64.1l3.5-8.2l0.6-0.7l-0.8,0.1h-4v-1h5.9v0.4l-4,9.4H248.3z"/>
	<path fill="#FFFFFF" d="M255,63.4c0-0.3,0.1-0.5,0.2-0.6c0.1-0.1,0.3-0.2,0.6-0.2c0.3,0,0.5,0.1,0.6,0.2c0.1,0.1,0.2,0.3,0.2,0.6
		c0,0.2-0.1,0.4-0.2,0.6c-0.1,0.1-0.3,0.2-0.6,0.2c-0.2,0-0.4-0.1-0.6-0.2C255.1,63.9,255,63.7,255,63.4z"/>
	<path fill="#FFFFFF" d="M263.6,56.5c0,0.5-0.1,1-0.3,1.5c-0.2,0.5-0.4,1-0.7,1.6c-0.3,0.5-0.6,1-1,1.5c-0.4,0.5-0.7,1-1.1,1.4
		l-0.7,0.6v0.1l0.9-0.2h3.1v1h-5.6v-0.4c0.2-0.2,0.5-0.5,0.7-0.8c0.3-0.3,0.6-0.7,0.9-1.1c0.3-0.4,0.6-0.8,0.9-1.2
		c0.3-0.4,0.6-0.9,0.8-1.3c0.2-0.4,0.4-0.9,0.6-1.3c0.1-0.4,0.2-0.9,0.2-1.2c0-0.5-0.1-0.8-0.4-1.1c-0.3-0.3-0.7-0.5-1.2-0.5
		c-0.4,0-0.7,0.1-1,0.2c-0.3,0.1-0.6,0.3-0.9,0.5l-0.5-0.8c0.3-0.3,0.7-0.5,1.2-0.7s0.9-0.2,1.4-0.2c0.4,0,0.8,0.1,1.1,0.2
		c0.3,0.1,0.6,0.3,0.8,0.5s0.4,0.5,0.5,0.8C263.5,55.8,263.6,56.2,263.6,56.5z"/>
	<path fill="#FFFFFF" d="M266,56.5c0-0.4,0.1-0.8,0.2-1.1c0.1-0.3,0.3-0.5,0.5-0.7c0.2-0.2,0.4-0.3,0.7-0.4s0.6-0.1,0.9-0.1
		c0.3,0,0.6,0,0.9,0.1c0.3,0.1,0.5,0.2,0.7,0.4c0.2,0.2,0.3,0.4,0.5,0.7c0.1,0.3,0.2,0.7,0.2,1.1s-0.1,0.8-0.2,1.1
		c-0.1,0.3-0.3,0.5-0.5,0.7c-0.2,0.2-0.4,0.3-0.7,0.4c-0.3,0.1-0.6,0.1-0.9,0.1c-0.3,0-0.6,0-0.9-0.1s-0.5-0.2-0.7-0.4
		c-0.2-0.2-0.3-0.4-0.5-0.7C266,57.3,266,56.9,266,56.5z M273.9,54.1l0.7,0.5l-7.2,9.6l-0.7-0.5L273.9,54.1z M267,56.5
		c0,0.6,0.1,1,0.3,1.2c0.2,0.2,0.5,0.4,0.8,0.4c0.2,0,0.3,0,0.5-0.1c0.1-0.1,0.3-0.1,0.4-0.3c0.1-0.1,0.2-0.3,0.2-0.5
		c0.1-0.2,0.1-0.5,0.1-0.8s0-0.6-0.1-0.8c-0.1-0.2-0.1-0.4-0.2-0.5c-0.1-0.1-0.2-0.2-0.4-0.3s-0.3-0.1-0.5-0.1
		c-0.4,0-0.6,0.1-0.8,0.3C267.1,55.5,267,55.9,267,56.5z M271,61.7c0-0.4,0.1-0.8,0.2-1.1c0.1-0.3,0.3-0.5,0.5-0.7s0.4-0.3,0.7-0.4
		c0.3-0.1,0.6-0.1,0.9-0.1c0.3,0,0.6,0,0.9,0.1c0.3,0.1,0.5,0.2,0.7,0.4c0.2,0.2,0.3,0.4,0.5,0.7c0.1,0.3,0.2,0.7,0.2,1.1
		c0,0.4-0.1,0.8-0.2,1.1c-0.1,0.3-0.3,0.5-0.5,0.7c-0.2,0.2-0.4,0.3-0.7,0.4c-0.3,0.1-0.6,0.1-0.9,0.1c-0.3,0-0.6,0-0.9-0.1
		s-0.5-0.2-0.7-0.4c-0.2-0.2-0.3-0.4-0.5-0.7C271,62.5,271,62.1,271,61.7z M272,61.7c0,0.6,0.1,1,0.3,1.2c0.2,0.2,0.5,0.4,0.8,0.4
		c0.2,0,0.3,0,0.5-0.1s0.3-0.1,0.4-0.3c0.1-0.1,0.2-0.3,0.2-0.5c0.1-0.2,0.1-0.5,0.1-0.8c0-0.3,0-0.6-0.1-0.8
		c-0.1-0.2-0.1-0.4-0.2-0.5c-0.1-0.1-0.2-0.2-0.4-0.3s-0.3-0.1-0.5-0.1c-0.4,0-0.6,0.1-0.8,0.3C272.1,60.7,272,61.1,272,61.7z"/>
</g>
<g>
	<path d="M35.7,355.6c0-1.2,0.2-2.1,0.6-2.7c0.4-0.6,1-0.9,1.7-0.9c0.8,0,1.4,0.3,1.8,0.9c0.4,0.6,0.5,1.5,0.5,2.7
		c0,1.2-0.2,2.1-0.6,2.7s-1,0.9-1.7,0.9c-0.8,0-1.4-0.3-1.7-1C35.9,357.7,35.7,356.8,35.7,355.6z M36.6,355.6c0,0.4,0,0.8,0.1,1.2
		c0.1,0.4,0.1,0.7,0.3,0.9c0.1,0.3,0.3,0.5,0.5,0.6c0.2,0.1,0.4,0.2,0.7,0.2c0.5,0,0.9-0.2,1.1-0.7s0.4-1.2,0.4-2.2
		c0-0.4,0-0.8-0.1-1.2c-0.1-0.4-0.1-0.7-0.2-0.9c-0.1-0.3-0.3-0.5-0.5-0.6c-0.2-0.1-0.4-0.2-0.7-0.2c-0.5,0-0.9,0.2-1.1,0.7
		C36.7,353.9,36.6,354.6,36.6,355.6z"/>
	<path d="M41.5,353.7c0-0.3,0-0.6,0.1-0.8c0.1-0.2,0.2-0.4,0.3-0.5c0.1-0.1,0.3-0.2,0.5-0.3c0.2-0.1,0.4-0.1,0.6-0.1s0.4,0,0.6,0.1
		c0.2,0.1,0.4,0.2,0.5,0.3c0.1,0.1,0.2,0.3,0.3,0.5c0.1,0.2,0.1,0.5,0.1,0.8s0,0.6-0.1,0.8c-0.1,0.2-0.2,0.4-0.3,0.5
		c-0.1,0.1-0.3,0.2-0.5,0.3c-0.2,0.1-0.4,0.1-0.6,0.1s-0.4,0-0.6-0.1c-0.2-0.1-0.4-0.2-0.5-0.3c-0.1-0.1-0.2-0.3-0.3-0.5
		C41.5,354.3,41.5,354,41.5,353.7z M47.1,352l0.5,0.4l-5.1,6.9l-0.5-0.4L47.1,352z M42.2,353.7c0,0.4,0.1,0.7,0.2,0.9
		c0.1,0.2,0.3,0.3,0.6,0.3c0.1,0,0.2,0,0.3-0.1c0.1,0,0.2-0.1,0.3-0.2c0.1-0.1,0.1-0.2,0.2-0.3s0.1-0.3,0.1-0.5s0-0.4-0.1-0.5
		s-0.1-0.3-0.2-0.3c-0.1-0.1-0.2-0.1-0.3-0.2c-0.1,0-0.2-0.1-0.3-0.1c-0.3,0-0.5,0.1-0.6,0.2C42.3,353,42.2,353.3,42.2,353.7z
		 M45,357.4c0-0.3,0-0.6,0.1-0.8c0.1-0.2,0.2-0.4,0.3-0.5c0.1-0.1,0.3-0.2,0.5-0.3s0.4-0.1,0.6-0.1c0.2,0,0.4,0,0.6,0.1
		c0.2,0.1,0.4,0.2,0.5,0.3c0.1,0.1,0.2,0.3,0.3,0.5s0.1,0.5,0.1,0.8s0,0.6-0.1,0.8s-0.2,0.4-0.3,0.5c-0.1,0.1-0.3,0.2-0.5,0.3
		c-0.2,0.1-0.4,0.1-0.6,0.1c-0.2,0-0.4,0-0.6-0.1c-0.2-0.1-0.4-0.2-0.5-0.3c-0.1-0.1-0.2-0.3-0.3-0.5S45,357.7,45,357.4z
		 M45.8,357.4c0,0.4,0.1,0.7,0.2,0.9c0.1,0.2,0.3,0.3,0.6,0.3c0.1,0,0.2,0,0.3-0.1c0.1,0,0.2-0.1,0.3-0.2s0.1-0.2,0.2-0.3
		c0-0.1,0.1-0.3,0.1-0.5c0-0.2,0-0.4-0.1-0.5c0-0.1-0.1-0.3-0.2-0.3c-0.1-0.1-0.2-0.1-0.3-0.2c-0.1,0-0.2-0.1-0.3-0.1
		c-0.3,0-0.5,0.1-0.6,0.2C45.8,356.7,45.8,357,45.8,357.4z"/>
</g>
<g>
	<path d="M30.8,274.1h1.4v-4.8l0.1-0.6l-0.4,0.5l-1.1,0.8l-0.4-0.5l2.2-1.7H33v6.4h1.4v0.7h-3.5V274.1z"/>
	<path d="M35.6,271.3c0-1.2,0.2-2.1,0.6-2.7c0.4-0.6,1-0.9,1.7-0.9c0.8,0,1.4,0.3,1.8,0.9c0.4,0.6,0.5,1.5,0.5,2.7
		c0,1.2-0.2,2.1-0.6,2.7s-1,0.9-1.7,0.9c-0.8,0-1.4-0.3-1.7-1C35.8,273.4,35.6,272.5,35.6,271.3z M36.5,271.3c0,0.4,0,0.8,0.1,1.2
		c0.1,0.4,0.1,0.7,0.3,0.9c0.1,0.3,0.3,0.5,0.5,0.6c0.2,0.1,0.4,0.2,0.7,0.2c0.5,0,0.9-0.2,1.1-0.7s0.4-1.2,0.4-2.2
		c0-0.4,0-0.8-0.1-1.2c-0.1-0.4-0.1-0.7-0.2-0.9c-0.1-0.3-0.3-0.5-0.5-0.6c-0.2-0.1-0.4-0.2-0.7-0.2c-0.5,0-0.9,0.2-1.1,0.7
		C36.6,269.6,36.5,270.3,36.5,271.3z"/>
	<path d="M41.4,269.4c0-0.3,0-0.6,0.1-0.8c0.1-0.2,0.2-0.4,0.3-0.5c0.1-0.1,0.3-0.2,0.5-0.3c0.2-0.1,0.4-0.1,0.6-0.1s0.4,0,0.6,0.1
		c0.2,0.1,0.4,0.2,0.5,0.3c0.1,0.1,0.2,0.3,0.3,0.5c0.1,0.2,0.1,0.5,0.1,0.8s0,0.6-0.1,0.8c-0.1,0.2-0.2,0.4-0.3,0.5
		c-0.1,0.1-0.3,0.2-0.5,0.3c-0.2,0.1-0.4,0.1-0.6,0.1s-0.4,0-0.6-0.1c-0.2-0.1-0.4-0.2-0.5-0.3c-0.1-0.1-0.2-0.3-0.3-0.5
		C41.4,270,41.4,269.7,41.4,269.4z M47,267.7l0.5,0.4l-5.1,6.9l-0.5-0.4L47,267.7z M42.1,269.4c0,0.4,0.1,0.7,0.2,0.9
		c0.1,0.2,0.3,0.3,0.6,0.3c0.1,0,0.2,0,0.3-0.1c0.1,0,0.2-0.1,0.3-0.2c0.1-0.1,0.1-0.2,0.2-0.3s0.1-0.3,0.1-0.5s0-0.4-0.1-0.5
		s-0.1-0.3-0.2-0.3c-0.1-0.1-0.2-0.1-0.3-0.2c-0.1,0-0.2-0.1-0.3-0.1c-0.3,0-0.5,0.1-0.6,0.2C42.2,268.7,42.1,269,42.1,269.4z
		 M44.9,273.1c0-0.3,0-0.6,0.1-0.8c0.1-0.2,0.2-0.4,0.3-0.5c0.1-0.1,0.3-0.2,0.5-0.3s0.4-0.1,0.6-0.1c0.2,0,0.4,0,0.6,0.1
		c0.2,0.1,0.4,0.2,0.5,0.3c0.1,0.1,0.2,0.3,0.3,0.5s0.1,0.5,0.1,0.8s0,0.6-0.1,0.8s-0.2,0.4-0.3,0.5c-0.1,0.1-0.3,0.2-0.5,0.3
		c-0.2,0.1-0.4,0.1-0.6,0.1c-0.2,0-0.4,0-0.6-0.1c-0.2-0.1-0.4-0.2-0.5-0.3c-0.1-0.1-0.2-0.3-0.3-0.5S44.9,273.4,44.9,273.1z
		 M45.7,273.1c0,0.4,0.1,0.7,0.2,0.9c0.1,0.2,0.3,0.3,0.6,0.3c0.1,0,0.2,0,0.3-0.1c0.1,0,0.2-0.1,0.3-0.2s0.1-0.2,0.2-0.3
		c0-0.1,0.1-0.3,0.1-0.5c0-0.2,0-0.4-0.1-0.5c0-0.1-0.1-0.3-0.2-0.3c-0.1-0.1-0.2-0.1-0.3-0.2c-0.1,0-0.2-0.1-0.3-0.1
		c-0.3,0-0.5,0.1-0.6,0.2C45.7,272.4,45.7,272.7,45.7,273.1z"/>
</g>
<g>
	<path d="M34.2,185.2c0,0.4-0.1,0.7-0.2,1.1c-0.1,0.4-0.3,0.7-0.5,1.1s-0.4,0.7-0.7,1.1c-0.3,0.4-0.5,0.7-0.8,1l-0.5,0.4v0l0.6-0.1
		h2.2v0.7h-4v-0.3c0.1-0.2,0.3-0.3,0.5-0.6s0.4-0.5,0.6-0.8c0.2-0.3,0.4-0.6,0.7-0.9c0.2-0.3,0.4-0.6,0.6-0.9s0.3-0.6,0.4-1
		c0.1-0.3,0.2-0.6,0.2-0.9c0-0.3-0.1-0.6-0.3-0.8c-0.2-0.2-0.5-0.3-0.9-0.3c-0.3,0-0.5,0.1-0.7,0.2c-0.2,0.1-0.4,0.2-0.6,0.4
		l-0.3-0.6c0.2-0.2,0.5-0.4,0.8-0.5c0.3-0.1,0.7-0.2,1-0.2c0.3,0,0.5,0,0.8,0.1c0.2,0.1,0.4,0.2,0.6,0.4c0.2,0.2,0.3,0.3,0.3,0.5
		C34.2,184.7,34.2,184.9,34.2,185.2z"/>
	<path d="M35.6,187.1c0-1.2,0.2-2.1,0.6-2.7c0.4-0.6,1-0.9,1.7-0.9c0.8,0,1.4,0.3,1.8,0.9c0.4,0.6,0.5,1.5,0.5,2.7
		c0,1.2-0.2,2.1-0.6,2.7c-0.4,0.6-1,0.9-1.7,0.9c-0.8,0-1.4-0.3-1.7-1S35.6,188.2,35.6,187.1z M36.5,187.1c0,0.4,0,0.8,0.1,1.2
		c0.1,0.4,0.1,0.7,0.3,0.9c0.1,0.3,0.3,0.5,0.5,0.6c0.2,0.1,0.4,0.2,0.7,0.2c0.5,0,0.9-0.2,1.1-0.7c0.2-0.5,0.4-1.2,0.4-2.2
		c0-0.4,0-0.8-0.1-1.2c-0.1-0.4-0.1-0.7-0.2-0.9c-0.1-0.3-0.3-0.5-0.5-0.6c-0.2-0.1-0.4-0.2-0.7-0.2c-0.5,0-0.9,0.2-1.1,0.7
		C36.6,185.3,36.5,186.1,36.5,187.1z"/>
	<path d="M41.4,185.1c0-0.3,0-0.6,0.1-0.8c0.1-0.2,0.2-0.4,0.3-0.5c0.1-0.1,0.3-0.2,0.5-0.3c0.2-0.1,0.4-0.1,0.6-0.1s0.4,0,0.6,0.1
		c0.2,0.1,0.4,0.2,0.5,0.3c0.1,0.1,0.2,0.3,0.3,0.5c0.1,0.2,0.1,0.5,0.1,0.8s0,0.6-0.1,0.8c-0.1,0.2-0.2,0.4-0.3,0.5
		s-0.3,0.2-0.5,0.3c-0.2,0.1-0.4,0.1-0.6,0.1s-0.4,0-0.6-0.1c-0.2-0.1-0.4-0.2-0.5-0.3s-0.2-0.3-0.3-0.5
		C41.4,185.7,41.4,185.5,41.4,185.1z M47,183.4l0.5,0.4l-5.1,6.9l-0.5-0.4L47,183.4z M42.1,185.1c0,0.4,0.1,0.7,0.2,0.9
		c0.1,0.2,0.3,0.3,0.6,0.3c0.1,0,0.2,0,0.3-0.1c0.1,0,0.2-0.1,0.3-0.2c0.1-0.1,0.1-0.2,0.2-0.3c0-0.1,0.1-0.3,0.1-0.5
		c0-0.2,0-0.4-0.1-0.5c0-0.1-0.1-0.3-0.2-0.3c-0.1-0.1-0.2-0.1-0.3-0.2c-0.1,0-0.2-0.1-0.3-0.1c-0.3,0-0.5,0.1-0.6,0.2
		C42.2,184.4,42.1,184.7,42.1,185.1z M44.9,188.8c0-0.3,0-0.6,0.1-0.8c0.1-0.2,0.2-0.4,0.3-0.5s0.3-0.2,0.5-0.3
		c0.2-0.1,0.4-0.1,0.6-0.1c0.2,0,0.4,0,0.6,0.1s0.4,0.2,0.5,0.3s0.2,0.3,0.3,0.5c0.1,0.2,0.1,0.5,0.1,0.8c0,0.3,0,0.6-0.1,0.8
		c-0.1,0.2-0.2,0.4-0.3,0.5s-0.3,0.2-0.5,0.3s-0.4,0.1-0.6,0.1c-0.2,0-0.4,0-0.6-0.1s-0.4-0.2-0.5-0.3s-0.2-0.3-0.3-0.5
		C45,189.4,44.9,189.2,44.9,188.8z M45.7,188.8c0,0.4,0.1,0.7,0.2,0.9c0.1,0.2,0.3,0.3,0.6,0.3c0.1,0,0.2,0,0.3-0.1
		c0.1,0,0.2-0.1,0.3-0.2s0.1-0.2,0.2-0.3c0-0.1,0.1-0.3,0.1-0.5c0-0.2,0-0.4-0.1-0.5c0-0.1-0.1-0.3-0.2-0.3s-0.2-0.1-0.3-0.2
		c-0.1,0-0.2-0.1-0.3-0.1c-0.3,0-0.5,0.1-0.6,0.2C45.7,188.1,45.7,188.4,45.7,188.8z"/>
</g>
<g>
	<path d="M32.1,105.7c0.2,0,0.4,0,0.6-0.1c0.2-0.1,0.4-0.2,0.5-0.3c0.1-0.1,0.2-0.3,0.3-0.5c0.1-0.2,0.1-0.4,0.1-0.6
		c0-0.5-0.1-0.8-0.4-1c-0.3-0.2-0.7-0.3-1.1-0.3h-0.7v-0.3l1.4-2.2l0.5-0.4l-0.6,0.1h-2v-0.7h3.6v0.3l-1.6,2.4l-0.4,0.3v0l0.3-0.1
		c0.3,0,0.5,0.1,0.7,0.1c0.2,0.1,0.4,0.2,0.6,0.4s0.3,0.4,0.4,0.6c0.1,0.2,0.1,0.5,0.1,0.8c0,0.4-0.1,0.7-0.2,1
		c-0.1,0.3-0.3,0.5-0.5,0.7c-0.2,0.2-0.5,0.3-0.8,0.4c-0.3,0.1-0.6,0.1-0.9,0.1c-0.3,0-0.6,0-0.8-0.1c-0.2,0-0.4-0.1-0.6-0.2
		l0.2-0.7c0.2,0.1,0.3,0.1,0.5,0.2C31.6,105.7,31.8,105.7,32.1,105.7z"/>
	<path d="M35.6,102.8c0-1.2,0.2-2.1,0.6-2.7c0.4-0.6,1-0.9,1.7-0.9c0.8,0,1.4,0.3,1.8,0.9c0.4,0.6,0.5,1.5,0.5,2.7
		c0,1.2-0.2,2.1-0.6,2.7c-0.4,0.6-1,0.9-1.7,0.9c-0.8,0-1.4-0.3-1.7-1S35.6,103.9,35.6,102.8z M36.5,102.8c0,0.4,0,0.8,0.1,1.2
		c0.1,0.4,0.1,0.7,0.3,0.9c0.1,0.3,0.3,0.5,0.5,0.6c0.2,0.1,0.4,0.2,0.7,0.2c0.5,0,0.9-0.2,1.1-0.7c0.2-0.5,0.4-1.2,0.4-2.2
		c0-0.4,0-0.8-0.1-1.2c-0.1-0.4-0.1-0.7-0.2-0.9c-0.1-0.3-0.3-0.5-0.5-0.6c-0.2-0.1-0.4-0.2-0.7-0.2c-0.5,0-0.9,0.2-1.1,0.7
		C36.6,101.1,36.5,101.8,36.5,102.8z"/>
	<path d="M41.4,100.9c0-0.3,0-0.6,0.1-0.8c0.1-0.2,0.2-0.4,0.3-0.5c0.1-0.1,0.3-0.2,0.5-0.3c0.2-0.1,0.4-0.1,0.6-0.1s0.4,0,0.6,0.1
		c0.2,0.1,0.4,0.2,0.5,0.3c0.1,0.1,0.2,0.3,0.3,0.5c0.1,0.2,0.1,0.5,0.1,0.8s0,0.6-0.1,0.8c-0.1,0.2-0.2,0.4-0.3,0.5
		s-0.3,0.2-0.5,0.3c-0.2,0.1-0.4,0.1-0.6,0.1s-0.4,0-0.6-0.1c-0.2-0.1-0.4-0.2-0.5-0.3s-0.2-0.3-0.3-0.5
		C41.4,101.5,41.4,101.2,41.4,100.9z M47,99.2l0.5,0.4l-5.1,6.9l-0.5-0.4L47,99.2z M42.1,100.9c0,0.4,0.1,0.7,0.2,0.9
		c0.1,0.2,0.3,0.3,0.6,0.3c0.1,0,0.2,0,0.3-0.1c0.1,0,0.2-0.1,0.3-0.2c0.1-0.1,0.1-0.2,0.2-0.3c0-0.1,0.1-0.3,0.1-0.5
		c0-0.2,0-0.4-0.1-0.5c0-0.1-0.1-0.3-0.2-0.3c-0.1-0.1-0.2-0.1-0.3-0.2c-0.1,0-0.2-0.1-0.3-0.1c-0.3,0-0.5,0.1-0.6,0.2
		C42.2,100.2,42.1,100.4,42.1,100.9z M44.9,104.6c0-0.3,0-0.6,0.1-0.8c0.1-0.2,0.2-0.4,0.3-0.5s0.3-0.2,0.5-0.3
		c0.2-0.1,0.4-0.1,0.6-0.1c0.2,0,0.4,0,0.6,0.1s0.4,0.2,0.5,0.3s0.2,0.3,0.3,0.5c0.1,0.2,0.1,0.5,0.1,0.8c0,0.3,0,0.6-0.1,0.8
		c-0.1,0.2-0.2,0.4-0.3,0.5s-0.3,0.2-0.5,0.3s-0.4,0.1-0.6,0.1c-0.2,0-0.4,0-0.6-0.1s-0.4-0.2-0.5-0.3s-0.2-0.3-0.3-0.5
		C45,105.2,44.9,104.9,44.9,104.6z M45.7,104.6c0,0.4,0.1,0.7,0.2,0.9c0.1,0.2,0.3,0.3,0.6,0.3c0.1,0,0.2,0,0.3-0.1
		c0.1,0,0.2-0.1,0.3-0.2s0.1-0.2,0.2-0.3c0-0.1,0.1-0.3,0.1-0.5c0-0.2,0-0.4-0.1-0.5c0-0.1-0.1-0.3-0.2-0.3s-0.2-0.1-0.3-0.2
		c-0.1,0-0.2-0.1-0.3-0.1c-0.3,0-0.5,0.1-0.6,0.2C45.7,103.9,45.7,104.1,45.7,104.6z"/>
</g>
<g>
	<path d="M35,19.9h-1.2V22H33v-2.1H30v-0.3l3.3-4.6h0.5v4.3H35V19.9z M33,17l0.1-0.8h0l-0.4,0.7l-1.4,1.9l-0.5,0.5l0.7-0.1H33V17z"
		/>
	<path d="M35.6,18.5c0-1.2,0.2-2.1,0.6-2.7c0.4-0.6,1-0.9,1.7-0.9c0.8,0,1.4,0.3,1.8,0.9c0.4,0.6,0.5,1.5,0.5,2.7
		c0,1.2-0.2,2.1-0.6,2.7c-0.4,0.6-1,0.9-1.7,0.9c-0.8,0-1.4-0.3-1.7-1S35.6,19.7,35.6,18.5z M36.5,18.5c0,0.4,0,0.8,0.1,1.2
		c0.1,0.4,0.1,0.7,0.3,0.9c0.1,0.3,0.3,0.5,0.5,0.6c0.2,0.1,0.4,0.2,0.7,0.2c0.5,0,0.9-0.2,1.1-0.7c0.2-0.5,0.4-1.2,0.4-2.2
		c0-0.4,0-0.8-0.1-1.2c-0.1-0.4-0.1-0.7-0.2-0.9c-0.1-0.3-0.3-0.5-0.5-0.6c-0.2-0.1-0.4-0.2-0.7-0.2c-0.5,0-0.9,0.2-1.1,0.7
		C36.6,16.8,36.5,17.5,36.5,18.5z"/>
	<path d="M41.4,16.6c0-0.3,0-0.6,0.1-0.8c0.1-0.2,0.2-0.4,0.3-0.5c0.1-0.1,0.3-0.2,0.5-0.3c0.2-0.1,0.4-0.1,0.6-0.1s0.4,0,0.6,0.1
		c0.2,0.1,0.4,0.2,0.5,0.3c0.1,0.1,0.2,0.3,0.3,0.5c0.1,0.2,0.1,0.5,0.1,0.8s0,0.6-0.1,0.8c-0.1,0.2-0.2,0.4-0.3,0.5
		s-0.3,0.2-0.5,0.3c-0.2,0.1-0.4,0.1-0.6,0.1s-0.4,0-0.6-0.1c-0.2-0.1-0.4-0.2-0.5-0.3s-0.2-0.3-0.3-0.5
		C41.4,17.2,41.4,16.9,41.4,16.6z M47,14.9l0.5,0.4l-5.1,6.9l-0.5-0.4L47,14.9z M42.1,16.6c0,0.4,0.1,0.7,0.2,0.9
		c0.1,0.2,0.3,0.3,0.6,0.3c0.1,0,0.2,0,0.3-0.1c0.1,0,0.2-0.1,0.3-0.2c0.1-0.1,0.1-0.2,0.2-0.3c0-0.1,0.1-0.3,0.1-0.5
		c0-0.2,0-0.4-0.1-0.5c0-0.1-0.1-0.3-0.2-0.3c-0.1-0.1-0.2-0.1-0.3-0.2c-0.1,0-0.2-0.1-0.3-0.1c-0.3,0-0.5,0.1-0.6,0.2
		C42.2,15.9,42.1,16.2,42.1,16.6z M44.9,20.3c0-0.3,0-0.6,0.1-0.8c0.1-0.2,0.2-0.4,0.3-0.5s0.3-0.2,0.5-0.3c0.2-0.1,0.4-0.1,0.6-0.1
		c0.2,0,0.4,0,0.6,0.1s0.4,0.2,0.5,0.3s0.2,0.3,0.3,0.5C48,19.7,48,20,48,20.3c0,0.3,0,0.6-0.1,0.8c-0.1,0.2-0.2,0.4-0.3,0.5
		s-0.3,0.2-0.5,0.3S46.7,22,46.5,22c-0.2,0-0.4,0-0.6-0.1s-0.4-0.2-0.5-0.3s-0.2-0.3-0.3-0.5C45,20.9,44.9,20.6,44.9,20.3z
		 M45.7,20.3c0,0.4,0.1,0.7,0.2,0.9c0.1,0.2,0.3,0.3,0.6,0.3c0.1,0,0.2,0,0.3-0.1c0.1,0,0.2-0.1,0.3-0.2s0.1-0.2,0.2-0.3
		c0-0.1,0.1-0.3,0.1-0.5c0-0.2,0-0.4-0.1-0.5c0-0.1-0.1-0.3-0.2-0.3s-0.2-0.1-0.3-0.2c-0.1,0-0.2-0.1-0.3-0.1
		c-0.3,0-0.5,0.1-0.6,0.2C45.7,19.6,45.7,19.9,45.7,20.3z"/>
</g>
<line fill="none" stroke="#3B6E8F" stroke-width="1.06" stroke-linejoin="round" stroke-miterlimit="10" x1="53.7" y1="355.6" x2="58" y2="355.6"/>
<line fill="none" stroke="#3B6E8F" stroke-width="1.06" stroke-linejoin="round" stroke-miterlimit="10" x1="53.7" y1="271.4" x2="58" y2="271.4"/>
<line fill="none" stroke="#3B6E8F" stroke-width="1.06" stroke-linejoin="round" stroke-miterlimit="10" x1="53.7" y1="187.1" x2="58" y2="187.1"/>
<line fill="none" stroke="#3B6E8F" stroke-width="1.06" stroke-linejoin="round" stroke-miterlimit="10" x1="53.7" y1="102.8" x2="58" y2="102.8"/>
<line fill="none" stroke="#3B6E8F" stroke-width="1.06" stroke-linejoin="round" stroke-miterlimit="10" x1="53.7" y1="18.5" x2="58" y2="18.5"/>
<line fill="none" stroke="#3B6E8F" stroke-width="1.06" stroke-linejoin="round" stroke-miterlimit="10" x1="101.6" y1="360.9" x2="101.6" y2="356.7"/>
<line fill="none" stroke="#3B6E8F" stroke-width="1.06" stroke-linejoin="round" stroke-miterlimit="10" x1="179.2" y1="360.9" x2="179.2" y2="356.7"/>
<line fill="none" stroke="#3B6E8F" stroke-width="1.06" stroke-linejoin="round" stroke-miterlimit="10" x1="256.8" y1="360.9" x2="256.8" y2="356.7"/>
<line fill="none" stroke="#3B6E8F" stroke-width="1.06" stroke-linejoin="round" stroke-miterlimit="10" x1="334.4" y1="360.9" x2="334.4" y2="356.7"/>
<line fill="none" stroke="#3B6E8F" stroke-width="1.06" stroke-linejoin="round" stroke-miterlimit="10" x1="412" y1="360.9" x2="412" y2="356.7"/>
<g>
	<path d="M102.5,366.8l-0.1-1.1l0,0l-0.3,1l-1.9,4.1l-0.7-0.3l3-6.4l0.4,0.2l1.1,5.6l0.1,1.1l0,0l0.3-0.9l1.9-4.1l0.7,0.3l-3,6.4
		l-0.4-0.2L102.5,366.8z"/>
	<path d="M106.2,370.9c0.4-0.8,0.8-1.3,1.3-1.5c0.5-0.2,1.1-0.2,1.8,0.1c0.3,0.2,0.6,0.4,0.8,0.6c0.2,0.2,0.3,0.5,0.4,0.8
		c0.1,0.3,0.1,0.6,0,0.9c-0.1,0.3-0.2,0.7-0.3,1c-0.4,0.8-0.8,1.3-1.3,1.5c-0.5,0.2-1.1,0.2-1.8-0.1c-0.3-0.2-0.6-0.4-0.8-0.6
		c-0.2-0.2-0.3-0.5-0.4-0.8c-0.1-0.3-0.1-0.6,0-0.9C105.9,371.6,106.1,371.2,106.2,370.9z M107,371.2c-0.1,0.2-0.2,0.5-0.2,0.7
		c-0.1,0.2-0.1,0.5,0,0.7c0,0.2,0.1,0.4,0.2,0.6c0.1,0.2,0.3,0.3,0.5,0.4c0.8,0.4,1.5,0,2-1.2c0.1-0.2,0.2-0.5,0.2-0.7
		c0.1-0.2,0.1-0.4,0-0.7c0-0.2-0.1-0.4-0.2-0.6c-0.1-0.2-0.3-0.3-0.5-0.4C108.2,369.7,107.5,370,107,371.2z"/>
	<path d="M113.2,376.9l1.2-2.6c0.2-0.5,0.3-0.9,0.3-1.2c0-0.3-0.2-0.5-0.6-0.7c-0.3-0.1-0.6-0.2-0.9-0.1c-0.3,0.1-0.5,0.2-0.7,0.4
		l-1.4,3.1l-0.7-0.3l2.1-4.5l0.5,0.2l-0.1,0.6l0,0c0.2-0.1,0.5-0.2,0.8-0.2c0.3,0,0.6,0.1,1,0.2c0.2,0.1,0.5,0.2,0.6,0.4
		s0.3,0.3,0.3,0.5c0.1,0.2,0.1,0.4,0,0.7c-0.1,0.3-0.2,0.6-0.3,1l-1.3,2.7L113.2,376.9z"/>
	<path d="M116.5,374.3l3.8,1.8l-0.3,0.7l-3.8-1.8L116.5,374.3z"/>
	<path d="M125,378.9l-3-1.4l-1.4,2.9l-0.8-0.4l3-6.3l0.8,0.4l-1.3,2.8l3,1.4l1.3-2.8l0.8,0.4l-3,6.3l-0.8-0.4L125,378.9z"/>
	<path d="M128.2,378.3l0.7,0.3l-2.1,4.5l-0.7-0.3L128.2,378.3z M128.6,376.9c0.1-0.1,0.2-0.2,0.3-0.3c0.1-0.1,0.3,0,0.4,0
		c0.1,0.1,0.2,0.2,0.3,0.3c0.1,0.1,0.1,0.3,0,0.4c-0.1,0.1-0.2,0.2-0.3,0.3c-0.1,0-0.3,0-0.4,0c-0.1-0.1-0.2-0.2-0.3-0.3
		C128.6,377.2,128.6,377,128.6,376.9z"/>
	<path d="M130.9,383.6c0.1-0.2,0.1-0.3,0-0.5s-0.2-0.3-0.3-0.4c-0.1-0.1-0.3-0.3-0.4-0.4c-0.2-0.2-0.3-0.3-0.4-0.5
		c-0.1-0.2-0.2-0.4-0.2-0.6c0-0.2,0-0.4,0.1-0.7c0.2-0.4,0.5-0.7,0.8-0.8c0.3-0.1,0.7,0,1.2,0.2c0.3,0.2,0.6,0.3,0.8,0.5
		c0.2,0.2,0.4,0.3,0.5,0.5l-0.5,0.5c-0.1-0.1-0.2-0.3-0.4-0.4c-0.2-0.1-0.4-0.3-0.6-0.4c-0.3-0.1-0.5-0.2-0.6-0.1
		c-0.2,0-0.3,0.2-0.4,0.4c-0.1,0.2-0.1,0.3,0,0.4c0.1,0.1,0.2,0.3,0.3,0.4c0.1,0.1,0.3,0.3,0.4,0.5c0.2,0.2,0.3,0.3,0.4,0.5
		c0.1,0.2,0.2,0.4,0.2,0.6s0,0.5-0.1,0.7c-0.1,0.2-0.2,0.4-0.3,0.5c-0.1,0.1-0.3,0.2-0.5,0.3s-0.4,0.1-0.6,0.1
		c-0.2,0-0.5-0.1-0.7-0.2c-0.3-0.2-0.6-0.3-0.8-0.5c-0.2-0.2-0.4-0.4-0.5-0.5l0.5-0.5c0.1,0.1,0.3,0.3,0.4,0.5
		c0.2,0.2,0.4,0.3,0.6,0.4c0.3,0.1,0.5,0.2,0.7,0.1C130.6,384,130.8,383.9,130.9,383.6z"/>
	<path d="M134.2,381.2l0.5,0.2l-0.1,0.6l0,0c0.2-0.1,0.5-0.2,0.8-0.2c0.3,0,0.6,0.1,0.8,0.2c0.6,0.3,1,0.7,1.1,1.2
		c0.1,0.5,0,1.1-0.4,2c-0.2,0.4-0.4,0.7-0.6,1c-0.2,0.3-0.5,0.5-0.8,0.6c-0.3,0.1-0.6,0.2-0.9,0.2c-0.3,0-0.6-0.1-0.9-0.2
		c-0.2-0.1-0.4-0.2-0.5-0.3c-0.1-0.1-0.2-0.2-0.4-0.3l-0.9,1.9l-0.7-0.3L134.2,381.2z M135.8,382.6c-0.3-0.1-0.6-0.2-0.8-0.1
		c-0.3,0.1-0.5,0.3-0.7,0.6l-1,2.2c0.1,0.1,0.2,0.3,0.3,0.4c0.1,0.1,0.3,0.2,0.5,0.3c0.4,0.2,0.8,0.2,1.2,0c0.4-0.2,0.7-0.6,1-1.2
		c0.1-0.2,0.2-0.5,0.3-0.7c0.1-0.2,0.1-0.4,0-0.6c0-0.2-0.1-0.4-0.2-0.5C136.2,382.8,136.1,382.7,135.8,382.6z"/>
	<path d="M138.9,383.8c0.3,0,0.6,0,0.9,0.1s0.7,0.2,1,0.3c0.3,0.1,0.5,0.3,0.7,0.5c0.2,0.2,0.2,0.4,0.3,0.5c0,0.2,0,0.4,0,0.5
		c0,0.2-0.1,0.3-0.2,0.5c-0.2,0.4-0.3,0.7-0.5,1s-0.3,0.7-0.5,1c-0.1,0.2-0.2,0.4-0.3,0.6c-0.1,0.2-0.1,0.4-0.2,0.6l-0.5-0.2
		l0.1-0.7l0,0c-0.1,0.1-0.2,0.1-0.3,0.2c-0.1,0-0.3,0.1-0.4,0.1c-0.1,0-0.3,0-0.5,0s-0.4-0.1-0.5-0.2c-0.2-0.1-0.4-0.2-0.5-0.3
		c-0.1-0.1-0.2-0.3-0.3-0.5c-0.1-0.2-0.1-0.3-0.1-0.5c0-0.2,0.1-0.4,0.1-0.6c0.1-0.3,0.3-0.5,0.5-0.6c0.2-0.1,0.4-0.2,0.7-0.2
		c0.2,0,0.5,0,0.8,0.1c0.3,0.1,0.6,0.2,0.9,0.4c0.1,0,0.2,0.1,0.2,0.1s0.2,0.1,0.2,0.1c0.1-0.2,0.2-0.3,0.3-0.5
		c0.2-0.3,0.2-0.6,0.1-0.8c-0.1-0.2-0.3-0.4-0.6-0.5c-0.1,0-0.2-0.1-0.3-0.1c-0.1,0-0.3-0.1-0.4-0.1c-0.1,0-0.3-0.1-0.4-0.1
		c-0.1,0-0.2,0-0.4,0L138.9,383.8z M138.5,388c0.2,0.1,0.3,0.1,0.5,0.1c0.2,0,0.3,0,0.4,0c0.1,0,0.2-0.1,0.3-0.1
		c0.1-0.1,0.2-0.1,0.3-0.2l0.4-0.8c-0.1,0-0.2-0.1-0.3-0.1c-0.1,0-0.2-0.1-0.3-0.1c-0.2-0.1-0.4-0.2-0.6-0.2
		c-0.2-0.1-0.4-0.1-0.5-0.1c-0.2,0-0.3,0-0.4,0.1c-0.1,0.1-0.2,0.2-0.3,0.3c-0.1,0.2-0.1,0.4,0,0.6
		C138.1,387.7,138.3,387.9,138.5,388z"/>
	<path d="M144.4,391.5l1.2-2.6c0.2-0.5,0.3-0.9,0.3-1.2c0-0.3-0.2-0.5-0.6-0.7c-0.3-0.1-0.6-0.2-0.9-0.1c-0.3,0.1-0.5,0.2-0.7,0.4
		l-1.4,3.1l-0.7-0.3l2.1-4.5l0.5,0.2l-0.1,0.6l0,0c0.2-0.1,0.5-0.2,0.8-0.2s0.6,0.1,1,0.2c0.2,0.1,0.5,0.2,0.6,0.4
		c0.2,0.1,0.3,0.3,0.3,0.5c0.1,0.2,0.1,0.4,0,0.7c-0.1,0.3-0.2,0.6-0.3,1l-1.3,2.7L144.4,391.5z"/>
	<path d="M148.8,388l0.7,0.3l-2.1,4.5l-0.7-0.3L148.8,388z M149.2,386.5c0.1-0.1,0.2-0.2,0.3-0.3c0.1-0.1,0.3-0.1,0.4,0
		c0.1,0.1,0.2,0.2,0.3,0.3c0.1,0.1,0.1,0.3,0,0.4c-0.1,0.1-0.2,0.2-0.3,0.3c-0.1,0-0.3,0-0.4,0c-0.1-0.1-0.2-0.2-0.3-0.3
		C149.2,386.8,149.2,386.7,149.2,386.5z"/>
	<path d="M152.1,394.7c-0.2,0-0.5,0-0.8,0c-0.3,0-0.6-0.1-0.8-0.3c-0.4-0.2-0.6-0.4-0.8-0.6c-0.2-0.2-0.3-0.5-0.4-0.8
		c-0.1-0.3-0.1-0.6,0-0.9s0.2-0.7,0.4-1c0.4-0.8,0.8-1.3,1.3-1.5c0.5-0.2,1.1-0.2,1.7,0.1c0.3,0.1,0.5,0.3,0.7,0.4
		c0.2,0.1,0.3,0.3,0.5,0.5l-0.5,0.5c-0.1-0.1-0.2-0.3-0.4-0.4c-0.1-0.1-0.3-0.2-0.5-0.3c-0.9-0.4-1.6,0-2.1,1.1
		c-0.1,0.2-0.2,0.5-0.2,0.7s-0.1,0.4,0,0.7c0,0.2,0.1,0.4,0.2,0.6s0.3,0.3,0.6,0.4c0.2,0.1,0.4,0.2,0.6,0.2c0.2,0,0.4,0,0.5,0
		L152.1,394.7z"/>
	<path d="M159.3,396.3l-2.3-1.1l-1.5,1.5l-0.8-0.4l5.4-5.3l0.3,0.2l-0.6,7.6l-0.8-0.4L159.3,396.3z M157.5,394.6l1.9,0.9l0.2-2.3
		l0.2-1.1l0,0l-0.7,0.9L157.5,394.6z"/>
	<path d="M163.4,400.3l1.2-2.6c0.1-0.2,0.2-0.5,0.3-0.6s0.1-0.4,0.1-0.5c0-0.1,0-0.3-0.1-0.4s-0.2-0.2-0.4-0.3
		c-0.3-0.1-0.5-0.2-0.8-0.1s-0.5,0.2-0.7,0.5l-1.5,3.1l-0.7-0.3l2.1-4.5l0.5,0.2l-0.1,0.6l0,0c0.3-0.1,0.5-0.2,0.8-0.2
		c0.3,0,0.6,0,0.9,0.2c0.3,0.1,0.5,0.3,0.6,0.5c0.1,0.2,0.2,0.5,0.2,0.8c0.2-0.2,0.5-0.3,0.8-0.3c0.3,0,0.6,0,0.9,0.2
		c0.3,0.1,0.5,0.2,0.6,0.4c0.1,0.1,0.2,0.3,0.3,0.5c0,0.2,0,0.4,0,0.7c-0.1,0.3-0.2,0.6-0.4,1l-1.3,2.7l-0.7-0.3l1.3-2.7
		c0.1-0.2,0.2-0.4,0.2-0.6c0.1-0.2,0.1-0.3,0.1-0.5c0-0.1-0.1-0.3-0.2-0.4c-0.1-0.1-0.2-0.2-0.4-0.3c-0.3-0.1-0.6-0.2-0.8-0.1
		c-0.2,0.1-0.5,0.3-0.7,0.6l-1.4,3L163.4,400.3z"/>
	<path d="M171.5,403.7c-0.2,0.1-0.5,0.1-0.8,0s-0.6-0.1-0.9-0.3c-0.3-0.2-0.6-0.4-0.8-0.6c-0.2-0.2-0.3-0.5-0.4-0.8
		c-0.1-0.3-0.1-0.6,0-0.9s0.2-0.7,0.3-1c0.4-0.8,0.8-1.3,1.3-1.5s1.1-0.2,1.8,0.1c0.2,0.1,0.4,0.2,0.6,0.4c0.2,0.1,0.3,0.3,0.4,0.5
		c0.1,0.2,0.2,0.4,0.1,0.7c0,0.3-0.1,0.6-0.3,1c-0.1,0.2-0.2,0.4-0.4,0.6l-2.9-1.4c-0.1,0.3-0.2,0.5-0.2,0.7c0,0.2,0,0.4,0,0.6
		c0,0.2,0.1,0.4,0.3,0.5c0.1,0.2,0.4,0.3,0.6,0.4c0.2,0.1,0.4,0.2,0.7,0.2c0.2,0,0.4,0,0.6,0L171.5,403.7z M171.7,399.3
		c-0.4-0.2-0.7-0.2-1-0.1c-0.3,0.1-0.6,0.3-0.8,0.8l2.2,1c0.2-0.5,0.3-0.8,0.2-1.1C172.2,399.7,172,399.5,171.7,399.3z"/>
	<path d="M176.6,401.8c-0.2-0.1-0.3-0.3-0.5-0.3c-0.3-0.1-0.5-0.1-0.7-0.1c-0.2,0.1-0.4,0.2-0.5,0.4l-1.5,3.2l-0.7-0.3l2.1-4.5
		l0.5,0.2l-0.1,0.6l0,0c0.2-0.2,0.4-0.2,0.6-0.3c0.2,0,0.4,0,0.7,0.1c0.2,0.1,0.4,0.2,0.5,0.4L176.6,401.8z"/>
	<path d="M178,401.6l0.7,0.3l-2.1,4.5l-0.7-0.3L178,401.6z M178.5,400.2c0.1-0.1,0.2-0.2,0.3-0.3c0.1-0.1,0.3,0,0.4,0
		c0.1,0.1,0.2,0.2,0.3,0.3c0.1,0.1,0.1,0.3,0,0.4c-0.1,0.1-0.2,0.2-0.3,0.3s-0.3,0-0.4,0c-0.1-0.1-0.2-0.2-0.3-0.3
		C178.4,400.5,178.5,400.3,178.5,400.2z"/>
	<path d="M181.4,408.4c-0.2,0-0.5,0-0.8,0c-0.3,0-0.6-0.1-0.8-0.3c-0.4-0.2-0.6-0.4-0.8-0.6c-0.2-0.2-0.3-0.5-0.4-0.8
		c-0.1-0.3-0.1-0.6,0-0.9c0.1-0.3,0.2-0.7,0.4-1c0.4-0.8,0.8-1.3,1.3-1.5c0.5-0.2,1.1-0.2,1.7,0.1c0.3,0.1,0.5,0.3,0.7,0.4
		c0.2,0.1,0.3,0.3,0.5,0.5l-0.5,0.5c-0.1-0.1-0.2-0.3-0.4-0.4c-0.1-0.1-0.3-0.2-0.5-0.3c-0.9-0.4-1.6,0-2.1,1.1
		c-0.1,0.2-0.2,0.5-0.2,0.7c-0.1,0.2-0.1,0.4,0,0.7c0,0.2,0.1,0.4,0.2,0.6c0.1,0.2,0.3,0.3,0.6,0.4c0.2,0.1,0.4,0.2,0.6,0.2
		c0.2,0,0.4,0,0.5,0L181.4,408.4z"/>
	<path d="M184.2,404.9c0.3,0,0.6,0,0.9,0.1c0.3,0.1,0.7,0.2,1,0.3c0.3,0.1,0.5,0.3,0.7,0.5c0.2,0.2,0.2,0.4,0.3,0.5
		c0,0.2,0,0.4,0,0.5c0,0.2-0.1,0.3-0.2,0.5c-0.2,0.4-0.3,0.7-0.5,1c-0.2,0.3-0.3,0.7-0.5,1c-0.1,0.2-0.2,0.4-0.3,0.6
		c-0.1,0.2-0.1,0.4-0.2,0.6l-0.5-0.2l0.1-0.7l0,0c-0.1,0.1-0.2,0.1-0.3,0.2c-0.1,0-0.3,0.1-0.4,0.1c-0.1,0-0.3,0-0.5,0
		c-0.2,0-0.4-0.1-0.5-0.2c-0.2-0.1-0.4-0.2-0.5-0.3c-0.1-0.1-0.2-0.3-0.3-0.5c-0.1-0.2-0.1-0.3-0.1-0.5c0-0.2,0.1-0.4,0.1-0.6
		c0.1-0.3,0.3-0.5,0.5-0.6c0.2-0.1,0.4-0.2,0.7-0.2c0.2,0,0.5,0,0.8,0.1c0.3,0.1,0.6,0.2,0.9,0.4c0.1,0,0.2,0.1,0.2,0.1
		c0.1,0,0.2,0.1,0.2,0.1c0.1-0.2,0.2-0.3,0.3-0.5c0.2-0.3,0.2-0.6,0.1-0.8c-0.1-0.2-0.3-0.4-0.6-0.5c-0.1,0-0.2-0.1-0.3-0.1
		c-0.1,0-0.3-0.1-0.4-0.1c-0.1,0-0.3-0.1-0.4-0.1c-0.1,0-0.3,0-0.4,0L184.2,404.9z M183.7,409.1c0.2,0.1,0.3,0.1,0.5,0.1
		c0.2,0,0.3,0,0.4,0c0.1,0,0.2-0.1,0.3-0.1c0.1-0.1,0.2-0.1,0.3-0.2l0.4-0.8c-0.1,0-0.2-0.1-0.3-0.1c-0.1,0-0.2-0.1-0.3-0.1
		c-0.2-0.1-0.4-0.2-0.6-0.2c-0.2-0.1-0.4-0.1-0.5-0.1c-0.2,0-0.3,0-0.4,0.1c-0.1,0.1-0.2,0.2-0.3,0.3c-0.1,0.2-0.1,0.4,0,0.6
		C183.3,408.9,183.5,409,183.7,409.1z"/>
	<path d="M189.7,412.6l1.2-2.6c0.2-0.5,0.3-0.9,0.3-1.2s-0.2-0.5-0.6-0.7c-0.3-0.2-0.6-0.2-0.9-0.1c-0.3,0.1-0.5,0.2-0.7,0.4
		l-1.4,3.1l-0.7-0.3l2.1-4.5l0.5,0.2l-0.1,0.6l0,0c0.2-0.1,0.5-0.2,0.8-0.2c0.3,0,0.6,0.1,1,0.2c0.2,0.1,0.5,0.2,0.6,0.4
		c0.2,0.1,0.3,0.3,0.3,0.5c0.1,0.2,0.1,0.4,0,0.7c-0.1,0.3-0.2,0.6-0.3,1l-1.3,2.7L189.7,412.6z"/>
	<path d="M197.3,408.4l0.8,0.4l-3,6.3l-0.8-0.4L197.3,408.4z"/>
	<path d="M199.7,417.3l1.2-2.6c0.2-0.5,0.3-0.9,0.3-1.2c0-0.3-0.2-0.5-0.6-0.7c-0.3-0.1-0.6-0.2-0.9-0.1c-0.3,0.1-0.5,0.2-0.7,0.4
		l-1.4,3.1l-0.7-0.3l2.1-4.5l0.5,0.2l-0.1,0.6l0,0c0.2-0.1,0.5-0.2,0.8-0.2s0.6,0.1,1,0.2c0.2,0.1,0.5,0.2,0.6,0.4
		c0.2,0.1,0.3,0.3,0.3,0.5c0.1,0.2,0.1,0.4,0,0.7c-0.1,0.3-0.2,0.6-0.3,1l-1.3,2.7L199.7,417.3z"/>
	<path d="M205.9,418.3c-0.1,0.3-0.3,0.6-0.4,0.8c-0.1,0.3-0.2,0.5-0.3,0.8l-0.5-0.2l0.1-0.7l0,0c-0.2,0.2-0.5,0.2-0.8,0.3
		c-0.3,0-0.6,0-0.9-0.2c-0.6-0.3-1-0.7-1.1-1.2c-0.1-0.5,0-1.2,0.4-2c0.4-0.8,0.8-1.3,1.4-1.5s1.1-0.2,1.8,0.1
		c0.2,0.1,0.4,0.2,0.5,0.3c0.1,0.1,0.2,0.2,0.4,0.3l0.9-1.9l0.7,0.3L205.9,418.3z M203.6,418.5c0.3,0.1,0.6,0.2,0.8,0.1
		c0.3-0.1,0.5-0.3,0.7-0.6l1-2.2c-0.1-0.1-0.2-0.3-0.3-0.4c-0.1-0.1-0.3-0.2-0.5-0.3c-0.4-0.2-0.8-0.2-1.2,0c-0.4,0.2-0.7,0.5-1,1.2
		c-0.1,0.2-0.2,0.5-0.3,0.7c-0.1,0.2-0.1,0.4-0.1,0.6c0,0.2,0.1,0.4,0.2,0.5C203.3,418.2,203.4,418.4,203.6,418.5z"/>
	<path d="M208.9,416l0.7,0.3l-2.1,4.5l-0.7-0.3L208.9,416z M209.4,414.6c0.1-0.1,0.2-0.2,0.3-0.3s0.3,0,0.4,0
		c0.1,0.1,0.2,0.2,0.3,0.3c0.1,0.1,0.1,0.3,0,0.4c-0.1,0.1-0.2,0.2-0.3,0.3c-0.1,0-0.3,0-0.4,0c-0.1-0.1-0.2-0.2-0.3-0.3
		C209.3,414.9,209.3,414.7,209.4,414.6z"/>
	<path d="M210.9,417.4c0.3,0,0.6,0,0.9,0.1s0.7,0.2,1,0.3c0.3,0.1,0.5,0.3,0.7,0.5c0.2,0.2,0.2,0.4,0.3,0.5c0,0.2,0,0.4,0,0.5
		c0,0.2-0.1,0.3-0.2,0.5c-0.2,0.4-0.3,0.7-0.5,1c-0.2,0.3-0.3,0.7-0.5,1c-0.1,0.2-0.2,0.4-0.3,0.6s-0.1,0.4-0.2,0.6l-0.5-0.2
		l0.1-0.7l0,0c-0.1,0.1-0.2,0.1-0.3,0.2c-0.1,0-0.3,0.1-0.4,0.1s-0.3,0-0.5,0c-0.2,0-0.4-0.1-0.5-0.2c-0.2-0.1-0.4-0.2-0.5-0.3
		c-0.1-0.1-0.2-0.3-0.3-0.5c-0.1-0.2-0.1-0.3-0.1-0.5c0-0.2,0.1-0.4,0.1-0.6c0.1-0.3,0.3-0.5,0.5-0.6c0.2-0.1,0.4-0.2,0.7-0.2
		c0.2,0,0.5,0,0.8,0.1c0.3,0.1,0.6,0.2,0.9,0.4c0.1,0,0.2,0.1,0.2,0.1c0.1,0,0.2,0.1,0.2,0.1c0.1-0.2,0.2-0.3,0.3-0.5
		c0.2-0.3,0.2-0.6,0.1-0.8s-0.3-0.4-0.6-0.5c-0.1,0-0.2-0.1-0.3-0.1c-0.1,0-0.3-0.1-0.4-0.1c-0.1,0-0.3-0.1-0.4-0.1
		c-0.1,0-0.3,0-0.4,0L210.9,417.4z M210.5,421.6c0.2,0.1,0.3,0.1,0.5,0.1c0.2,0,0.3,0,0.4,0c0.1,0,0.2-0.1,0.3-0.1
		c0.1-0.1,0.2-0.1,0.3-0.2l0.4-0.8c-0.1,0-0.2-0.1-0.3-0.1c-0.1,0-0.2-0.1-0.3-0.1c-0.2-0.1-0.4-0.2-0.6-0.2
		c-0.2-0.1-0.4-0.1-0.5-0.1c-0.2,0-0.3,0-0.4,0.1c-0.1,0.1-0.2,0.2-0.3,0.3c-0.1,0.2-0.1,0.4,0,0.6
		C210.1,421.4,210.3,421.5,210.5,421.6z"/>
	<path d="M216.4,425.1l1.2-2.6c0.2-0.5,0.3-0.9,0.3-1.2c0-0.3-0.2-0.5-0.6-0.7c-0.3-0.1-0.6-0.2-0.9-0.1c-0.3,0.1-0.5,0.2-0.7,0.4
		l-1.4,3.1l-0.7-0.3l2.1-4.5l0.5,0.2L216,420l0,0c0.2-0.1,0.5-0.2,0.8-0.2c0.3,0,0.6,0.1,1,0.2c0.2,0.1,0.5,0.2,0.6,0.4
		c0.2,0.1,0.3,0.3,0.3,0.5c0.1,0.2,0.1,0.4,0,0.7c-0.1,0.3-0.2,0.6-0.3,1l-1.3,2.7L216.4,425.1z"/>
	<path d="M222.8,422.9c0.3,0,0.6,0,0.9,0.1c0.3,0.1,0.7,0.2,1,0.3c0.3,0.1,0.5,0.3,0.7,0.5c0.2,0.2,0.2,0.4,0.3,0.5
		c0,0.2,0,0.4,0,0.5c0,0.2-0.1,0.3-0.2,0.5c-0.2,0.4-0.3,0.7-0.5,1s-0.3,0.7-0.5,1c-0.1,0.2-0.2,0.4-0.3,0.6
		c-0.1,0.2-0.1,0.4-0.2,0.6l-0.5-0.2l0.1-0.7l0,0c-0.1,0.1-0.2,0.1-0.3,0.2c-0.1,0-0.3,0.1-0.4,0.1s-0.3,0-0.5,0
		c-0.2,0-0.4-0.1-0.5-0.2c-0.2-0.1-0.4-0.2-0.5-0.3c-0.1-0.1-0.2-0.3-0.3-0.5c-0.1-0.2-0.1-0.3-0.1-0.5c0-0.2,0.1-0.4,0.1-0.6
		c0.1-0.3,0.3-0.5,0.5-0.6c0.2-0.1,0.4-0.2,0.7-0.2c0.2,0,0.5,0,0.8,0.1c0.3,0.1,0.6,0.2,0.9,0.4c0.1,0,0.2,0.1,0.2,0.1
		c0.1,0,0.2,0.1,0.2,0.1c0.1-0.2,0.2-0.3,0.3-0.5c0.2-0.3,0.2-0.6,0.1-0.8c-0.1-0.2-0.3-0.4-0.6-0.5c-0.1,0-0.2-0.1-0.3-0.1
		c-0.1,0-0.3-0.1-0.4-0.1c-0.1,0-0.3-0.1-0.4-0.1c-0.1,0-0.2,0-0.4,0L222.8,422.9z M222.4,427.2c0.2,0.1,0.3,0.1,0.5,0.1
		c0.2,0,0.3,0,0.4,0c0.1,0,0.2-0.1,0.3-0.1c0.1-0.1,0.2-0.1,0.3-0.2l0.4-0.8c-0.1,0-0.2-0.1-0.3-0.1c-0.1,0-0.2-0.1-0.3-0.1
		c-0.2-0.1-0.4-0.2-0.6-0.2c-0.2-0.1-0.4-0.1-0.5-0.1c-0.2,0-0.3,0-0.4,0.1c-0.1,0.1-0.2,0.2-0.3,0.3c-0.1,0.2-0.1,0.4,0,0.6
		C222,426.9,222.1,427.1,222.4,427.2z"/>
	<path d="M228.3,430.6l1.2-2.6c0.2-0.5,0.3-0.9,0.3-1.2c0-0.3-0.2-0.5-0.6-0.7c-0.3-0.1-0.6-0.2-0.9-0.1c-0.3,0.1-0.5,0.2-0.7,0.4
		l-1.4,3.1l-0.7-0.3l2.1-4.5l0.5,0.2l-0.1,0.6l0,0c0.2-0.1,0.5-0.2,0.8-0.2c0.3,0,0.6,0.1,1,0.2c0.2,0.1,0.5,0.2,0.6,0.4
		c0.2,0.1,0.3,0.3,0.3,0.5c0.1,0.2,0.1,0.4,0,0.7c-0.1,0.3-0.2,0.6-0.3,1L229,431L228.3,430.6z"/>
	<path d="M234.6,431.6c-0.1,0.3-0.3,0.6-0.4,0.8c-0.1,0.3-0.2,0.5-0.3,0.8l-0.5-0.2l0.1-0.7l0,0c-0.2,0.2-0.5,0.2-0.8,0.3
		c-0.3,0-0.6,0-0.9-0.2c-0.6-0.3-1-0.7-1.1-1.2c-0.1-0.5,0-1.2,0.4-2c0.4-0.8,0.8-1.3,1.4-1.5s1.1-0.2,1.8,0.1
		c0.2,0.1,0.4,0.2,0.5,0.3c0.1,0.1,0.2,0.2,0.4,0.3l0.9-1.9l0.7,0.3L234.6,431.6z M232.2,431.8c0.3,0.1,0.6,0.2,0.8,0.1
		c0.3-0.1,0.5-0.3,0.7-0.6l1-2.2c-0.1-0.1-0.2-0.3-0.3-0.4s-0.3-0.2-0.5-0.3c-0.4-0.2-0.8-0.2-1.2,0c-0.4,0.2-0.7,0.5-1,1.2
		c-0.1,0.2-0.2,0.5-0.3,0.7c-0.1,0.2-0.1,0.4-0.1,0.6c0,0.2,0.1,0.4,0.2,0.5C231.9,431.6,232,431.7,232.2,431.8z"/>
	<path d="M241.5,434.7l-2.3-1.1l-1.5,1.5l-0.8-0.4l5.4-5.3l0.3,0.2l-0.6,7.6l-0.8-0.4L241.5,434.7z M239.8,433l1.9,0.9l0.2-2.3
		l0.2-1.1l0,0l-0.7,0.9L239.8,433z"/>
	<path d="M244.3,436.7c-0.1,0.2-0.1,0.4-0.1,0.5c0,0.1,0.1,0.2,0.2,0.3c0.1,0,0.2,0.1,0.3,0.1c0.1,0,0.2,0.1,0.3,0.1l-0.2,0.6
		c-0.1,0-0.3,0-0.5-0.1c-0.2-0.1-0.3-0.1-0.5-0.2c-0.3-0.1-0.5-0.3-0.6-0.5s-0.1-0.5,0.1-0.9l2.5-5.4l0.7,0.3L244.3,436.7z"/>
	<path d="M247.5,434.5c0.3,0,0.6,0,0.9,0.1c0.3,0.1,0.7,0.2,1,0.3c0.3,0.1,0.5,0.3,0.7,0.5c0.2,0.2,0.2,0.4,0.3,0.5
		c0,0.2,0,0.4,0,0.5c0,0.2-0.1,0.3-0.2,0.5c-0.2,0.4-0.3,0.7-0.5,1c-0.2,0.3-0.3,0.7-0.5,1c-0.1,0.2-0.2,0.4-0.3,0.6
		c-0.1,0.2-0.1,0.4-0.2,0.6l-0.5-0.2l0.1-0.7l0,0c-0.1,0.1-0.2,0.1-0.3,0.2c-0.1,0-0.3,0.1-0.4,0.1c-0.1,0-0.3,0-0.5,0
		c-0.2,0-0.4-0.1-0.5-0.2c-0.2-0.1-0.4-0.2-0.5-0.3c-0.1-0.1-0.2-0.3-0.3-0.5c-0.1-0.2-0.1-0.3-0.1-0.5c0-0.2,0.1-0.4,0.1-0.6
		c0.1-0.3,0.3-0.5,0.5-0.6c0.2-0.1,0.4-0.2,0.7-0.2c0.2,0,0.5,0,0.8,0.1c0.3,0.1,0.6,0.2,0.9,0.4c0.1,0,0.2,0.1,0.2,0.1
		c0.1,0,0.2,0.1,0.2,0.1c0.1-0.2,0.2-0.3,0.3-0.5c0.2-0.3,0.2-0.6,0.1-0.8c-0.1-0.2-0.3-0.4-0.6-0.5c-0.1,0-0.2-0.1-0.3-0.1
		s-0.3-0.1-0.4-0.1c-0.1,0-0.3-0.1-0.4-0.1c-0.1,0-0.2,0-0.4,0L247.5,434.5z M247.1,438.7c0.2,0.1,0.3,0.1,0.5,0.1s0.3,0,0.4,0
		c0.1,0,0.2-0.1,0.3-0.1c0.1-0.1,0.2-0.1,0.3-0.2l0.4-0.8c-0.1,0-0.2-0.1-0.3-0.1c-0.1,0-0.2-0.1-0.3-0.1c-0.2-0.1-0.4-0.2-0.6-0.2
		c-0.2-0.1-0.4-0.1-0.5-0.1s-0.3,0-0.4,0.1c-0.1,0.1-0.2,0.2-0.3,0.3c-0.1,0.2-0.1,0.4,0,0.6C246.7,438.4,246.8,438.6,247.1,438.7z"
		/>
	<path d="M252.7,440.5c0.1-0.2,0.1-0.3,0-0.5c-0.1-0.2-0.2-0.3-0.3-0.4s-0.3-0.3-0.4-0.4c-0.2-0.2-0.3-0.3-0.4-0.5
		c-0.1-0.2-0.2-0.4-0.2-0.6c0-0.2,0-0.4,0.1-0.7c0.2-0.4,0.5-0.7,0.8-0.8c0.3-0.1,0.7,0,1.2,0.2c0.3,0.2,0.6,0.3,0.8,0.5
		c0.2,0.2,0.4,0.3,0.5,0.5l-0.5,0.5c-0.1-0.1-0.2-0.3-0.4-0.4c-0.2-0.1-0.4-0.3-0.6-0.4c-0.3-0.1-0.5-0.2-0.6-0.1
		c-0.2,0-0.3,0.2-0.4,0.4c-0.1,0.2-0.1,0.3,0,0.4c0.1,0.1,0.2,0.3,0.3,0.4s0.3,0.3,0.4,0.4s0.3,0.3,0.4,0.5c0.1,0.2,0.2,0.4,0.2,0.6
		c0,0.2,0,0.5-0.1,0.7c-0.1,0.2-0.2,0.4-0.3,0.5c-0.1,0.1-0.3,0.2-0.5,0.3c-0.2,0.1-0.4,0.1-0.6,0.1c-0.2,0-0.5-0.1-0.7-0.2
		c-0.3-0.2-0.6-0.3-0.8-0.5c-0.2-0.2-0.4-0.4-0.5-0.5l0.5-0.5c0.1,0.1,0.3,0.3,0.4,0.5c0.2,0.2,0.4,0.3,0.6,0.4
		c0.3,0.1,0.5,0.2,0.7,0.1C252.4,440.9,252.5,440.8,252.7,440.5z"/>
	<path d="M256,441.1l-0.4-0.2l-1,2l-0.7-0.3l3-6.3l0.7,0.3l-1.8,3.9l0.4,0l2.3-1.3l0.8,0.4l-2.2,1.2l-0.5,0.1l0.3,0.6l0.6,2.8
		l-0.9-0.4L256,441.1z"/>
	<path d="M260.1,440.4c0.3,0,0.6,0,0.9,0.1c0.3,0.1,0.7,0.2,1,0.3c0.3,0.1,0.5,0.3,0.7,0.5c0.2,0.2,0.2,0.4,0.3,0.5
		c0,0.2,0,0.4,0,0.5c0,0.2-0.1,0.3-0.2,0.5c-0.2,0.4-0.3,0.7-0.5,1c-0.2,0.3-0.3,0.7-0.5,1c-0.1,0.2-0.2,0.4-0.3,0.6
		c-0.1,0.2-0.1,0.4-0.2,0.6l-0.5-0.2l0.1-0.7l0,0c-0.1,0.1-0.2,0.1-0.3,0.2s-0.3,0.1-0.4,0.1c-0.1,0-0.3,0-0.5,0
		c-0.2,0-0.4-0.1-0.5-0.2c-0.2-0.1-0.4-0.2-0.5-0.3c-0.1-0.1-0.2-0.3-0.3-0.5c-0.1-0.2-0.1-0.3-0.1-0.5c0-0.2,0.1-0.4,0.1-0.6
		c0.1-0.3,0.3-0.5,0.5-0.6c0.2-0.1,0.4-0.2,0.7-0.2c0.2,0,0.5,0,0.8,0.1c0.3,0.1,0.6,0.2,0.9,0.4c0.1,0,0.2,0.1,0.2,0.1
		c0.1,0,0.2,0.1,0.2,0.1c0.1-0.2,0.2-0.3,0.3-0.5c0.2-0.3,0.2-0.6,0.1-0.8c-0.1-0.2-0.3-0.4-0.6-0.5c-0.1,0-0.2-0.1-0.3-0.1
		c-0.1,0-0.3-0.1-0.4-0.1c-0.1,0-0.3-0.1-0.4-0.1c-0.1,0-0.2,0-0.4,0L260.1,440.4z M259.7,444.6c0.2,0.1,0.3,0.1,0.5,0.1
		c0.2,0,0.3,0,0.4,0c0.1,0,0.2-0.1,0.3-0.1c0.1-0.1,0.2-0.1,0.3-0.2l0.4-0.8c-0.1,0-0.2-0.1-0.3-0.1c-0.1,0-0.2-0.1-0.3-0.1
		c-0.2-0.1-0.4-0.2-0.6-0.2c-0.2-0.1-0.4-0.1-0.5-0.1s-0.3,0-0.4,0.1c-0.1,0.1-0.2,0.2-0.3,0.3c-0.1,0.2-0.1,0.4,0,0.6
		C259.3,444.3,259.5,444.5,259.7,444.6z"/>
	<path d="M268.3,444.2l-0.1-1.1l0,0l-0.3,1l-1.9,4.1l-0.7-0.3l3-6.4l0.4,0.2l1.1,5.6l0.1,1.1l0,0l0.3-0.9l1.9-4.1l0.7,0.3l-3,6.4
		l-0.4-0.2L268.3,444.2z"/>
	<path d="M273.1,446.4c0.3,0,0.6,0,0.9,0.1s0.7,0.2,1,0.3c0.3,0.1,0.5,0.3,0.7,0.5c0.2,0.2,0.2,0.4,0.3,0.5c0,0.2,0,0.4,0,0.5
		c0,0.2-0.1,0.3-0.2,0.5c-0.2,0.4-0.3,0.7-0.5,1c-0.2,0.3-0.3,0.7-0.5,1c-0.1,0.2-0.2,0.4-0.3,0.6c-0.1,0.2-0.1,0.4-0.2,0.6
		l-0.5-0.2l0.1-0.7l0,0c-0.1,0.1-0.2,0.1-0.3,0.2c-0.1,0-0.3,0.1-0.4,0.1c-0.1,0-0.3,0-0.5,0c-0.2,0-0.4-0.1-0.5-0.2
		c-0.2-0.1-0.4-0.2-0.5-0.3c-0.1-0.1-0.2-0.3-0.3-0.5c-0.1-0.2-0.1-0.3-0.1-0.5c0-0.2,0.1-0.4,0.1-0.6c0.1-0.3,0.3-0.5,0.5-0.6
		c0.2-0.1,0.4-0.2,0.7-0.2c0.2,0,0.5,0,0.8,0.1c0.3,0.1,0.6,0.2,0.9,0.4c0.1,0,0.2,0.1,0.2,0.1c0.1,0,0.2,0.1,0.2,0.1
		c0.1-0.2,0.2-0.3,0.3-0.5c0.2-0.3,0.2-0.6,0.1-0.8c-0.1-0.2-0.3-0.4-0.6-0.5c-0.1,0-0.2-0.1-0.3-0.1c-0.1,0-0.3-0.1-0.4-0.1
		c-0.1,0-0.3-0.1-0.4-0.1c-0.1,0-0.2,0-0.4,0L273.1,446.4z M272.7,450.7c0.2,0.1,0.3,0.1,0.5,0.1s0.3,0,0.4,0c0.1,0,0.2-0.1,0.3-0.1
		c0.1-0.1,0.2-0.1,0.3-0.2l0.4-0.8c-0.1,0-0.2-0.1-0.3-0.1c-0.1,0-0.2-0.1-0.3-0.1c-0.2-0.1-0.4-0.2-0.6-0.2
		c-0.2-0.1-0.4-0.1-0.5-0.1s-0.3,0-0.4,0.1s-0.2,0.2-0.3,0.3c-0.1,0.2-0.1,0.4,0,0.6C272.3,450.4,272.5,450.6,272.7,450.7z"/>
	<path d="M277.3,448l0.7,0.3l0.4-0.9l0.8,0.1l-0.5,1.1l1.2,0.6l-0.3,0.6l-1.2-0.6l-1.2,2.5c-0.1,0.3-0.2,0.6-0.2,0.7
		c0,0.2,0.1,0.3,0.3,0.4c0.2,0.1,0.3,0.1,0.4,0.1c0.1,0,0.3,0,0.4,0l-0.1,0.6c-0.2,0-0.4,0-0.6-0.1c-0.2,0-0.4-0.1-0.7-0.2
		c-0.4-0.2-0.6-0.4-0.6-0.7c-0.1-0.3,0-0.7,0.3-1.2l1.2-2.6l-0.7-0.3L277.3,448z"/>
	<path d="M281.1,449.7l0.7,0.3l-2.1,4.5l-0.7-0.3L281.1,449.7z M281.6,448.3c0.1-0.1,0.2-0.2,0.3-0.3c0.1-0.1,0.3,0,0.4,0
		c0.1,0.1,0.2,0.2,0.3,0.3c0.1,0.1,0.1,0.3,0,0.4c-0.1,0.1-0.2,0.2-0.3,0.3c-0.1,0-0.3,0-0.4,0c-0.1-0.1-0.2-0.2-0.3-0.3
		C281.5,448.6,281.5,448.4,281.6,448.3z"/>
	<path d="M283.4,454.1l-0.1,1l0,0l0.6-0.8l2.2-2.2l0.8,0.4l-4.1,3.7l-0.3-0.1l0.2-5.5l0.8,0.4L283.4,454.1z"/>
	<path d="M289.1,458.6c-0.2,0.1-0.5,0.1-0.8,0s-0.6-0.1-0.9-0.3c-0.3-0.2-0.6-0.4-0.8-0.6s-0.3-0.5-0.4-0.8c-0.1-0.3-0.1-0.6,0-0.9
		c0.1-0.3,0.2-0.7,0.3-1c0.4-0.8,0.8-1.3,1.3-1.5c0.5-0.2,1.1-0.2,1.8,0.1c0.2,0.1,0.4,0.2,0.6,0.4c0.2,0.1,0.3,0.3,0.4,0.5
		c0.1,0.2,0.2,0.4,0.1,0.7c0,0.3-0.1,0.6-0.3,1c-0.1,0.2-0.2,0.4-0.4,0.6l-2.9-1.4c-0.1,0.3-0.2,0.5-0.2,0.7c0,0.2,0,0.4,0,0.6
		c0,0.2,0.1,0.4,0.3,0.5c0.1,0.2,0.4,0.3,0.6,0.4c0.2,0.1,0.4,0.2,0.7,0.2c0.2,0,0.4,0,0.6,0L289.1,458.6z M289.2,454.2
		c-0.4-0.2-0.7-0.2-1-0.1s-0.6,0.3-0.8,0.8l2.2,1c0.2-0.5,0.3-0.8,0.2-1.1C289.8,454.5,289.5,454.3,289.2,454.2z"/>
</g>
<g>
	<path d="M180.1,366.8l-0.1-1.1l0,0l-0.3,1l-1.9,4.1l-0.7-0.3l3-6.4l0.4,0.2l1.1,5.6l0.1,1.1l0,0l0.3-0.9l1.9-4.1l0.7,0.3l-3,6.4
		l-0.4-0.2L180.1,366.8z"/>
	<path d="M183.8,370.9c0.4-0.8,0.8-1.3,1.3-1.5c0.5-0.2,1.1-0.2,1.8,0.1c0.3,0.2,0.6,0.3,0.8,0.6c0.2,0.2,0.3,0.5,0.4,0.8
		c0.1,0.3,0.1,0.6,0,0.9c-0.1,0.3-0.2,0.7-0.3,1c-0.4,0.8-0.8,1.3-1.3,1.5c-0.5,0.2-1.1,0.2-1.8-0.1c-0.3-0.2-0.6-0.4-0.8-0.6
		c-0.2-0.2-0.3-0.5-0.4-0.8c-0.1-0.3-0.1-0.6,0-0.9C183.5,371.6,183.7,371.2,183.8,370.9z M184.6,371.2c-0.1,0.2-0.2,0.5-0.2,0.7
		c-0.1,0.2-0.1,0.4,0,0.7c0,0.2,0.1,0.4,0.2,0.6c0.1,0.2,0.3,0.3,0.5,0.4c0.8,0.4,1.5,0,2-1.2c0.1-0.2,0.2-0.5,0.2-0.7
		c0.1-0.2,0.1-0.5,0-0.7c0-0.2-0.1-0.4-0.2-0.6c-0.1-0.2-0.3-0.3-0.5-0.4C185.8,369.7,185.1,370,184.6,371.2z"/>
	<path d="M190.8,376.9l1.2-2.6c0.2-0.5,0.3-0.9,0.3-1.2c0-0.3-0.2-0.5-0.6-0.7c-0.3-0.2-0.6-0.2-0.9-0.1c-0.3,0.1-0.5,0.2-0.7,0.4
		l-1.4,3.1l-0.7-0.3l2.1-4.5l0.5,0.2l-0.1,0.6l0,0c0.2-0.1,0.5-0.2,0.8-0.2s0.6,0.1,1,0.2c0.2,0.1,0.5,0.2,0.6,0.4s0.3,0.3,0.3,0.5
		c0.1,0.2,0.1,0.4,0,0.7s-0.2,0.6-0.3,1l-1.3,2.7L190.8,376.9z"/>
	<path d="M194.1,374.3l3.8,1.8l-0.3,0.7l-3.8-1.8L194.1,374.3z"/>
	<path d="M202.6,378.9l-3-1.4l-1.4,2.9l-0.8-0.4l3-6.3l0.8,0.4l-1.3,2.8l3,1.4l1.3-2.8l0.8,0.3l-3,6.3l-0.8-0.3L202.6,378.9z"/>
	<path d="M205.8,378.3l0.7,0.3l-2.1,4.5l-0.7-0.3L205.8,378.3z M206.2,376.9c0.1-0.1,0.2-0.2,0.3-0.3c0.1-0.1,0.3,0,0.4,0
		c0.1,0.1,0.2,0.2,0.3,0.3c0.1,0.1,0.1,0.3,0,0.4c-0.1,0.1-0.2,0.2-0.3,0.3c-0.1,0-0.3,0-0.4,0c-0.1-0.1-0.2-0.2-0.3-0.3
		C206.2,377.2,206.2,377,206.2,376.9z"/>
	<path d="M208.5,383.6c0.1-0.2,0.1-0.3,0-0.5c-0.1-0.2-0.2-0.3-0.3-0.4c-0.1-0.1-0.3-0.3-0.4-0.4c-0.2-0.2-0.3-0.3-0.4-0.5
		c-0.1-0.2-0.2-0.4-0.2-0.6c0-0.2,0-0.4,0.1-0.7c0.2-0.4,0.5-0.7,0.8-0.8c0.3-0.1,0.7,0,1.2,0.2c0.3,0.2,0.6,0.3,0.8,0.5
		c0.2,0.2,0.4,0.3,0.5,0.5l-0.5,0.5c-0.1-0.1-0.2-0.3-0.4-0.4c-0.2-0.1-0.4-0.3-0.6-0.4c-0.3-0.1-0.5-0.2-0.6-0.1s-0.3,0.2-0.4,0.4
		c-0.1,0.2-0.1,0.3,0,0.4c0.1,0.1,0.2,0.3,0.3,0.4c0.1,0.1,0.3,0.3,0.4,0.4c0.2,0.2,0.3,0.3,0.4,0.5c0.1,0.2,0.2,0.4,0.2,0.6
		s0,0.5-0.1,0.7c-0.1,0.2-0.2,0.4-0.3,0.5c-0.1,0.1-0.3,0.2-0.5,0.3c-0.2,0.1-0.4,0.1-0.6,0.1c-0.2,0-0.5-0.1-0.7-0.2
		c-0.3-0.2-0.6-0.3-0.8-0.5s-0.4-0.4-0.5-0.5l0.5-0.5c0.1,0.1,0.2,0.3,0.4,0.5c0.2,0.2,0.4,0.3,0.6,0.4c0.3,0.1,0.5,0.2,0.7,0.1
		C208.2,384,208.4,383.9,208.5,383.6z"/>
	<path d="M211.8,381.2l0.5,0.2l-0.1,0.6l0,0c0.2-0.1,0.5-0.2,0.8-0.2c0.3,0,0.6,0.1,0.8,0.2c0.6,0.3,1,0.7,1.1,1.2
		c0.1,0.5,0,1.1-0.4,2c-0.2,0.4-0.4,0.7-0.6,1c-0.2,0.3-0.5,0.5-0.8,0.6c-0.3,0.1-0.6,0.2-0.9,0.2c-0.3,0-0.6-0.1-0.9-0.2
		c-0.2-0.1-0.4-0.2-0.5-0.3s-0.2-0.2-0.4-0.3l-0.9,1.9l-0.7-0.3L211.8,381.2z M213.4,382.6c-0.3-0.1-0.6-0.2-0.8-0.1
		c-0.3,0.1-0.5,0.3-0.7,0.6l-1,2.2c0.1,0.1,0.2,0.3,0.3,0.4c0.1,0.1,0.3,0.2,0.5,0.3c0.4,0.2,0.8,0.2,1.2,0c0.4-0.2,0.7-0.6,1-1.2
		c0.1-0.2,0.2-0.5,0.3-0.7s0.1-0.4,0-0.6c0-0.2-0.1-0.4-0.2-0.5C213.8,382.8,213.7,382.7,213.4,382.6z"/>
	<path d="M216.5,383.8c0.3,0,0.6,0,0.9,0.1c0.3,0.1,0.7,0.2,1,0.3c0.3,0.1,0.5,0.3,0.7,0.5c0.2,0.2,0.2,0.4,0.3,0.5
		c0,0.2,0,0.4,0,0.5c0,0.2-0.1,0.3-0.2,0.5c-0.2,0.4-0.3,0.7-0.5,1c-0.2,0.3-0.3,0.7-0.5,1c-0.1,0.2-0.2,0.4-0.3,0.6
		s-0.1,0.4-0.2,0.6l-0.5-0.2l0.1-0.7l0,0c-0.1,0.1-0.2,0.1-0.3,0.2c-0.1,0-0.3,0.1-0.4,0.1c-0.1,0-0.3,0-0.5,0
		c-0.2,0-0.4-0.1-0.5-0.2s-0.4-0.2-0.5-0.3c-0.1-0.1-0.2-0.3-0.3-0.5c-0.1-0.2-0.1-0.3-0.1-0.5s0.1-0.4,0.1-0.6
		c0.1-0.3,0.3-0.5,0.5-0.6c0.2-0.1,0.4-0.2,0.7-0.2c0.2,0,0.5,0,0.8,0.1c0.3,0.1,0.6,0.2,0.9,0.4c0.1,0,0.2,0.1,0.2,0.1
		c0.1,0,0.2,0.1,0.2,0.1c0.1-0.2,0.2-0.3,0.3-0.5c0.2-0.3,0.2-0.6,0.1-0.8c-0.1-0.2-0.3-0.4-0.6-0.5c-0.1,0-0.2-0.1-0.3-0.1
		c-0.1,0-0.3-0.1-0.4-0.1c-0.1,0-0.3-0.1-0.4-0.1c-0.1,0-0.2,0-0.4,0L216.5,383.8z M216.1,388c0.2,0.1,0.3,0.1,0.5,0.1
		c0.2,0,0.3,0,0.4,0c0.1,0,0.2-0.1,0.3-0.1c0.1-0.1,0.2-0.1,0.3-0.2l0.4-0.8c-0.1,0-0.2-0.1-0.3-0.1c-0.1,0-0.2-0.1-0.3-0.1
		c-0.2-0.1-0.4-0.2-0.6-0.2c-0.2-0.1-0.4-0.1-0.5-0.1c-0.2,0-0.3,0-0.4,0.1c-0.1,0.1-0.2,0.2-0.3,0.3c-0.1,0.2-0.1,0.4,0,0.6
		C215.7,387.7,215.9,387.9,216.1,388z"/>
	<path d="M222,391.5l1.2-2.6c0.2-0.5,0.3-0.9,0.3-1.2c0-0.3-0.2-0.5-0.6-0.7c-0.3-0.1-0.6-0.2-0.9-0.1c-0.3,0.1-0.5,0.2-0.7,0.4
		l-1.4,3.1l-0.7-0.3l2.1-4.5l0.5,0.2l-0.1,0.6l0,0c0.2-0.1,0.5-0.2,0.8-0.2c0.3,0,0.6,0.1,1,0.2c0.2,0.1,0.5,0.2,0.6,0.4
		s0.3,0.3,0.3,0.5c0.1,0.2,0.1,0.4,0,0.7c-0.1,0.3-0.2,0.6-0.3,1l-1.3,2.7L222,391.5z"/>
	<path d="M226.4,388l0.7,0.3l-2.1,4.5l-0.7-0.3L226.4,388z M226.8,386.5c0.1-0.1,0.2-0.2,0.3-0.3c0.1-0.1,0.3-0.1,0.4,0
		c0.1,0.1,0.2,0.2,0.3,0.3c0.1,0.1,0.1,0.3,0,0.4c-0.1,0.1-0.2,0.2-0.3,0.3c-0.1,0-0.3,0-0.4,0c-0.1-0.1-0.2-0.2-0.3-0.3
		C226.8,386.8,226.8,386.7,226.8,386.5z"/>
	<path d="M229.7,394.7c-0.2,0-0.5,0-0.8,0c-0.3,0-0.6-0.1-0.8-0.3c-0.3-0.2-0.6-0.4-0.8-0.6c-0.2-0.2-0.3-0.5-0.4-0.8
		c-0.1-0.3-0.1-0.6,0-0.9c0.1-0.3,0.2-0.7,0.4-1c0.4-0.8,0.8-1.3,1.3-1.5c0.5-0.2,1.1-0.2,1.7,0.1c0.3,0.1,0.5,0.3,0.7,0.4
		c0.2,0.1,0.3,0.3,0.5,0.5l-0.5,0.5c-0.1-0.1-0.2-0.3-0.4-0.4c-0.1-0.1-0.3-0.2-0.5-0.3c-0.9-0.4-1.6,0-2.1,1.1
		c-0.1,0.2-0.2,0.5-0.2,0.7c-0.1,0.2-0.1,0.4,0,0.7c0,0.2,0.1,0.4,0.2,0.6c0.1,0.2,0.3,0.3,0.6,0.4c0.2,0.1,0.4,0.2,0.6,0.2
		s0.4,0,0.5,0L229.7,394.7z"/>
	<path d="M239.2,393.5c-0.1,0.2-0.2,0.3-0.3,0.4s-0.3,0.2-0.4,0.3c-0.2,0.1-0.3,0.2-0.5,0.2c-0.2,0-0.4,0-0.6,0l0,0
		c0.2,0.1,0.3,0.2,0.4,0.4c0.1,0.2,0.2,0.3,0.3,0.5c0.1,0.2,0.1,0.4,0.1,0.6c0,0.2-0.1,0.4-0.2,0.7c-0.2,0.3-0.4,0.6-0.6,0.8
		c-0.2,0.2-0.5,0.3-0.8,0.3c-0.3,0-0.6,0-0.9,0c-0.3-0.1-0.6-0.2-0.9-0.3c-0.1,0-0.2-0.1-0.4-0.2c-0.1-0.1-0.3-0.1-0.4-0.2
		c-0.1-0.1-0.3-0.2-0.4-0.2c-0.1-0.1-0.3-0.2-0.4-0.3l2.9-6.2c0.2,0.1,0.5,0.2,0.8,0.3c0.3,0.1,0.6,0.3,1,0.4
		c0.2,0.1,0.5,0.2,0.7,0.4c0.2,0.2,0.4,0.3,0.6,0.5c0.1,0.2,0.2,0.4,0.3,0.7C239.4,392.9,239.3,393.2,239.2,393.5z M235.1,396.8
		c0.2,0.1,0.4,0.2,0.6,0.2c0.2,0,0.4,0,0.6,0c0.2,0,0.4-0.1,0.5-0.2c0.1-0.1,0.3-0.3,0.4-0.5c0.1-0.2,0.2-0.5,0.1-0.7
		c0-0.2-0.1-0.4-0.2-0.5c-0.1-0.2-0.3-0.3-0.5-0.4c-0.2-0.1-0.4-0.2-0.6-0.3l-0.8-0.4l-1.1,2.3c0,0,0.1,0.1,0.2,0.1
		c0.1,0,0.2,0.1,0.2,0.1c0.1,0,0.2,0.1,0.3,0.1C234.9,396.8,235,396.8,235.1,396.8z M236,393.6c0.1,0,0.2,0.1,0.4,0.2
		c0.1,0.1,0.3,0.1,0.4,0.1c0.2,0,0.3,0,0.5,0c0.2,0,0.3,0,0.5-0.1c0.1,0,0.3-0.1,0.4-0.2s0.2-0.2,0.3-0.4c0.1-0.2,0.1-0.4,0.1-0.5
		c0-0.2-0.1-0.3-0.2-0.5c-0.1-0.1-0.2-0.3-0.4-0.4c-0.1-0.1-0.3-0.2-0.5-0.3c-0.2-0.1-0.4-0.2-0.6-0.2c-0.2-0.1-0.3-0.1-0.4-0.1
		l-1,2.2L236,393.6z"/>
	<path d="M239.6,398.3c-0.1,0.2-0.1,0.4-0.1,0.5c0,0.1,0.1,0.2,0.2,0.3c0.1,0,0.2,0.1,0.3,0.1c0.1,0,0.2,0.1,0.3,0.1l-0.2,0.6
		c-0.1,0-0.3,0-0.5-0.1c-0.2-0.1-0.3-0.1-0.5-0.2c-0.3-0.1-0.5-0.3-0.6-0.5c-0.1-0.2-0.1-0.5,0.1-0.9l2.5-5.4l0.7,0.3L239.6,398.3z"
		/>
	<path d="M242.8,396.1c0.3,0,0.6,0,0.9,0.1c0.3,0.1,0.7,0.2,1,0.3c0.3,0.1,0.5,0.3,0.7,0.5c0.2,0.2,0.2,0.4,0.3,0.5
		c0,0.2,0,0.4,0,0.5c0,0.2-0.1,0.3-0.2,0.5c-0.2,0.4-0.3,0.7-0.5,1c-0.2,0.3-0.3,0.7-0.5,1c-0.1,0.2-0.2,0.4-0.3,0.6
		c-0.1,0.2-0.1,0.4-0.2,0.6l-0.5-0.2l0.1-0.7l0,0c-0.1,0.1-0.2,0.1-0.3,0.2s-0.3,0.1-0.4,0.1s-0.3,0-0.5,0c-0.2,0-0.4-0.1-0.5-0.2
		s-0.4-0.2-0.5-0.3s-0.2-0.3-0.3-0.5c-0.1-0.2-0.1-0.3-0.1-0.5s0.1-0.4,0.1-0.6c0.1-0.3,0.3-0.5,0.5-0.6c0.2-0.1,0.4-0.2,0.7-0.2
		c0.2,0,0.5,0,0.8,0.1c0.3,0.1,0.6,0.2,0.9,0.4c0.1,0,0.2,0.1,0.2,0.1c0.1,0,0.2,0.1,0.2,0.1c0.1-0.2,0.2-0.3,0.3-0.5
		c0.2-0.3,0.2-0.6,0.1-0.8c-0.1-0.2-0.3-0.4-0.6-0.5c-0.1,0-0.2-0.1-0.3-0.1c-0.1,0-0.3-0.1-0.4-0.1c-0.1,0-0.3-0.1-0.4-0.1
		s-0.2,0-0.4,0L242.8,396.1z M242.4,400.3c0.2,0.1,0.3,0.1,0.5,0.1c0.2,0,0.3,0,0.4,0c0.1,0,0.2-0.1,0.3-0.1
		c0.1-0.1,0.2-0.1,0.3-0.2l0.4-0.8c-0.1,0-0.2-0.1-0.3-0.1c-0.1,0-0.2-0.1-0.3-0.1c-0.2-0.1-0.4-0.2-0.6-0.2
		c-0.2-0.1-0.4-0.1-0.5-0.1c-0.2,0-0.3,0-0.4,0.1c-0.1,0.1-0.2,0.2-0.3,0.3c-0.1,0.2-0.1,0.4,0,0.6S242.2,400.2,242.4,400.3z"/>
	<path d="M248.7,403.5c-0.2,0-0.5,0.1-0.8,0s-0.6-0.1-0.8-0.3c-0.4-0.2-0.6-0.4-0.8-0.6s-0.3-0.5-0.4-0.8c-0.1-0.3-0.1-0.6,0-0.9
		c0.1-0.3,0.2-0.7,0.4-1c0.4-0.8,0.8-1.3,1.3-1.5c0.5-0.3,1.1-0.2,1.7,0.1c0.3,0.1,0.5,0.3,0.7,0.4c0.2,0.1,0.3,0.3,0.5,0.5
		l-0.5,0.5c-0.1-0.1-0.2-0.3-0.4-0.4c-0.1-0.1-0.3-0.2-0.5-0.3c-0.9-0.4-1.6,0-2.1,1.1c-0.1,0.2-0.2,0.5-0.2,0.7
		c-0.1,0.2-0.1,0.4,0,0.7c0,0.2,0.1,0.4,0.2,0.6c0.1,0.2,0.3,0.3,0.6,0.4c0.2,0.1,0.4,0.2,0.6,0.2c0.2,0,0.4,0,0.5,0L248.7,403.5z"
		/>
	<path d="M251.6,402.8l-0.4-0.2l-1,2l-0.7-0.3l3-6.3l0.7,0.3l-1.8,3.9l0.4,0l2.3-1.3l0.8,0.4l-2.2,1.2l-0.5,0.1l0.3,0.6l0.6,2.8
		l-0.9-0.4L251.6,402.8z"/>
</g>
<g>
	<path d="M259.7,369.3l-3-1.4l-1.4,2.9l-0.8-0.4l3-6.3l0.8,0.4l-1.3,2.8l3,1.4l1.3-2.8l0.8,0.4l-3,6.3l-0.8-0.4L259.7,369.3z"/>
	<path d="M262.9,368.8l0.7,0.3l-2.1,4.5l-0.7-0.3L262.9,368.8z M263.4,367.3c0.1-0.1,0.2-0.2,0.3-0.3c0.1-0.1,0.3,0,0.4,0
		c0.1,0.1,0.2,0.2,0.3,0.3c0.1,0.1,0.1,0.3,0,0.4c-0.1,0.1-0.2,0.2-0.3,0.3c-0.1,0-0.3,0-0.4,0c-0.1-0.1-0.2-0.2-0.3-0.3
		C263.3,367.6,263.3,367.5,263.4,367.3z"/>
	<path d="M265.6,374.1c0.1-0.2,0.1-0.4,0-0.5c-0.1-0.2-0.2-0.3-0.3-0.4c-0.1-0.1-0.3-0.3-0.4-0.4c-0.2-0.2-0.3-0.3-0.4-0.5
		c-0.1-0.2-0.2-0.4-0.2-0.6c0-0.2,0-0.4,0.1-0.7c0.2-0.4,0.5-0.7,0.8-0.8c0.3-0.1,0.7,0,1.2,0.2c0.3,0.2,0.6,0.3,0.8,0.5
		c0.2,0.2,0.4,0.3,0.5,0.5l-0.5,0.5c-0.1-0.1-0.2-0.3-0.4-0.4c-0.2-0.1-0.4-0.3-0.6-0.4c-0.3-0.1-0.5-0.2-0.6-0.1
		c-0.2,0-0.3,0.2-0.4,0.4c-0.1,0.2-0.1,0.3,0,0.4c0.1,0.1,0.2,0.3,0.3,0.4c0.1,0.1,0.3,0.3,0.4,0.5s0.3,0.3,0.4,0.5
		c0.1,0.2,0.2,0.4,0.2,0.6c0,0.2,0,0.5-0.1,0.7c-0.1,0.2-0.2,0.4-0.3,0.5c-0.1,0.1-0.3,0.2-0.5,0.3c-0.2,0.1-0.4,0.1-0.6,0.1
		c-0.2,0-0.5-0.1-0.7-0.2c-0.3-0.2-0.6-0.3-0.8-0.5c-0.2-0.2-0.4-0.4-0.5-0.5l0.5-0.5c0.1,0.1,0.3,0.3,0.4,0.5
		c0.2,0.2,0.4,0.3,0.6,0.4c0.3,0.1,0.5,0.2,0.7,0.1C265.3,374.5,265.5,374.3,265.6,374.1z"/>
	<path d="M269,371.6l0.5,0.2l-0.1,0.6l0,0c0.2-0.1,0.5-0.2,0.8-0.2c0.3,0,0.6,0.1,0.8,0.2c0.6,0.3,1,0.7,1.1,1.2
		c0.1,0.5,0,1.1-0.4,2c-0.2,0.4-0.4,0.7-0.6,1c-0.2,0.3-0.5,0.5-0.8,0.6c-0.3,0.1-0.6,0.2-0.9,0.2c-0.3,0-0.6-0.1-0.9-0.2
		c-0.2-0.1-0.4-0.2-0.5-0.3c-0.1-0.1-0.2-0.2-0.4-0.3l-0.9,1.9L266,378L269,371.6z M270.5,373c-0.3-0.1-0.6-0.2-0.8-0.1
		c-0.3,0.1-0.5,0.3-0.7,0.6l-1,2.2c0.1,0.1,0.2,0.3,0.3,0.4c0.1,0.1,0.3,0.2,0.5,0.3c0.4,0.2,0.8,0.2,1.2,0c0.4-0.2,0.7-0.6,1-1.2
		c0.1-0.2,0.2-0.5,0.3-0.7c0.1-0.2,0.1-0.4,0-0.6c0-0.2-0.1-0.4-0.2-0.5C270.9,373.2,270.8,373.1,270.5,373z"/>
	<path d="M273.6,374.2c0.3,0,0.6,0,0.9,0.1c0.3,0.1,0.7,0.2,1,0.3c0.3,0.1,0.5,0.3,0.7,0.5c0.2,0.2,0.2,0.4,0.3,0.5
		c0,0.2,0,0.4,0,0.5c0,0.2-0.1,0.3-0.2,0.5c-0.2,0.4-0.3,0.7-0.5,1c-0.2,0.3-0.3,0.7-0.5,1c-0.1,0.2-0.2,0.4-0.3,0.6
		c-0.1,0.2-0.1,0.4-0.2,0.6l-0.5-0.2l0.1-0.7l0,0c-0.1,0.1-0.2,0.1-0.3,0.2c-0.1,0-0.3,0.1-0.4,0.1c-0.1,0-0.3,0-0.5,0
		c-0.2,0-0.4-0.1-0.5-0.2c-0.2-0.1-0.4-0.2-0.5-0.3c-0.1-0.1-0.2-0.3-0.3-0.5c-0.1-0.2-0.1-0.3-0.1-0.5c0-0.2,0.1-0.4,0.1-0.6
		c0.1-0.3,0.3-0.5,0.5-0.6c0.2-0.1,0.4-0.2,0.7-0.2c0.2,0,0.5,0,0.8,0.1c0.3,0.1,0.6,0.2,0.9,0.4c0.1,0,0.2,0.1,0.2,0.1
		c0.1,0,0.2,0.1,0.2,0.1c0.1-0.2,0.2-0.3,0.3-0.5c0.2-0.3,0.2-0.6,0.1-0.8c-0.1-0.2-0.3-0.4-0.6-0.5c-0.1,0-0.2-0.1-0.3-0.1
		c-0.1,0-0.3-0.1-0.4-0.1c-0.1,0-0.3-0.1-0.4-0.1s-0.2,0-0.4,0L273.6,374.2z M273.2,378.5c0.2,0.1,0.3,0.1,0.5,0.1s0.3,0,0.4,0
		s0.2-0.1,0.3-0.1c0.1-0.1,0.2-0.1,0.3-0.2l0.4-0.8c-0.1,0-0.2-0.1-0.3-0.1c-0.1,0-0.2-0.1-0.3-0.1c-0.2-0.1-0.4-0.2-0.6-0.2
		c-0.2-0.1-0.4-0.1-0.5-0.1s-0.3,0-0.4,0.1c-0.1,0.1-0.2,0.2-0.3,0.3c-0.1,0.2-0.1,0.4,0,0.6C272.8,378.2,273,378.3,273.2,378.5z"/>
	<path d="M279.2,381.9l1.2-2.6c0.2-0.5,0.3-0.9,0.3-1.2s-0.2-0.5-0.6-0.7c-0.3-0.1-0.6-0.2-0.9-0.1c-0.3,0.1-0.5,0.2-0.7,0.4
		l-1.4,3.1l-0.7-0.3l2.1-4.5l0.5,0.2l-0.1,0.6l0,0c0.2-0.1,0.5-0.2,0.8-0.2c0.3,0,0.6,0.1,1,0.2c0.2,0.1,0.5,0.2,0.6,0.4
		s0.3,0.3,0.3,0.5c0.1,0.2,0.1,0.4,0,0.7c-0.1,0.3-0.2,0.6-0.3,1l-1.3,2.7L279.2,381.9z"/>
	<path d="M283.5,378.4l0.7,0.3l-2.1,4.5l-0.7-0.3L283.5,378.4z M284,377c0.1-0.1,0.2-0.2,0.3-0.3c0.1-0.1,0.3,0,0.4,0
		s0.2,0.2,0.3,0.3c0.1,0.1,0.1,0.3,0,0.4c-0.1,0.1-0.2,0.2-0.3,0.3c-0.1,0-0.3,0-0.4,0s-0.2-0.2-0.3-0.3
		C283.9,377.2,283.9,377.1,284,377z"/>
	<path d="M286.9,385.1c-0.2,0-0.5,0-0.8,0c-0.3,0-0.6-0.1-0.8-0.3c-0.3-0.2-0.6-0.4-0.8-0.6c-0.2-0.2-0.3-0.5-0.4-0.8
		c-0.1-0.3-0.1-0.6,0-0.9s0.2-0.7,0.4-1c0.4-0.8,0.8-1.3,1.3-1.5s1.1-0.2,1.7,0.1c0.3,0.1,0.5,0.3,0.7,0.4c0.2,0.1,0.3,0.3,0.5,0.5
		l-0.5,0.5c-0.1-0.1-0.2-0.3-0.4-0.4c-0.1-0.1-0.3-0.2-0.5-0.3c-0.9-0.4-1.6,0-2.1,1.1c-0.1,0.2-0.2,0.5-0.2,0.7
		c-0.1,0.2-0.1,0.4,0,0.7c0,0.2,0.1,0.4,0.2,0.6c0.1,0.2,0.3,0.3,0.6,0.4c0.2,0.1,0.4,0.2,0.6,0.2c0.2,0,0.4,0,0.5,0L286.9,385.1z"
		/>
	<path d="M290.9,384.6c0.4-0.8,0.8-1.3,1.3-1.5s1.1-0.2,1.8,0.1c0.3,0.2,0.6,0.4,0.8,0.6c0.2,0.2,0.3,0.5,0.4,0.8
		c0.1,0.3,0.1,0.6,0,0.9c-0.1,0.3-0.2,0.7-0.3,1c-0.4,0.8-0.8,1.3-1.3,1.5c-0.5,0.2-1.1,0.2-1.8-0.1c-0.3-0.2-0.6-0.4-0.8-0.6
		c-0.2-0.2-0.3-0.5-0.4-0.8c-0.1-0.3-0.1-0.6,0-0.9C290.7,385.3,290.8,385,290.9,384.6z M291.7,385c-0.1,0.2-0.2,0.5-0.2,0.7
		c-0.1,0.2-0.1,0.5,0,0.7c0,0.2,0.1,0.4,0.2,0.6s0.3,0.3,0.5,0.4c0.8,0.4,1.5,0,2-1.2c0.1-0.2,0.2-0.5,0.2-0.7
		c0.1-0.2,0.1-0.5,0-0.7s-0.1-0.4-0.2-0.6c-0.1-0.2-0.3-0.3-0.5-0.4C292.9,383.4,292.2,383.8,291.7,385z"/>
	<path d="M298.9,386.5c-0.2-0.1-0.3-0.3-0.5-0.3c-0.3-0.1-0.5-0.1-0.7-0.1c-0.2,0.1-0.4,0.2-0.5,0.4l-1.5,3.2l-0.7-0.3l2.1-4.5
		l0.5,0.2l-0.1,0.6l0,0c0.2-0.2,0.4-0.2,0.6-0.3s0.4,0,0.7,0.1c0.2,0.1,0.4,0.2,0.5,0.4L298.9,386.5z"/>
	<path d="M304.3,393.6l-3.8-1.8l3-6.3l0.8,0.4l-2.6,5.7l3,1.4L304.3,393.6z"/>
	<path d="M307.1,389.8c0.3,0,0.6,0,0.9,0.1c0.3,0.1,0.7,0.2,1,0.3c0.3,0.1,0.5,0.3,0.7,0.5c0.2,0.2,0.2,0.4,0.3,0.5
		c0,0.2,0,0.4,0,0.5c0,0.2-0.1,0.3-0.2,0.5c-0.2,0.4-0.3,0.7-0.5,1c-0.2,0.3-0.3,0.7-0.5,1c-0.1,0.2-0.2,0.4-0.3,0.6
		c-0.1,0.2-0.1,0.4-0.2,0.6l-0.5-0.2l0.1-0.7l0,0c-0.1,0.1-0.2,0.1-0.3,0.2c-0.1,0-0.3,0.1-0.4,0.1c-0.1,0-0.3,0-0.5,0
		c-0.2,0-0.4-0.1-0.5-0.2c-0.2-0.1-0.4-0.2-0.5-0.3c-0.1-0.1-0.2-0.3-0.3-0.5c-0.1-0.2-0.1-0.3-0.1-0.5c0-0.2,0.1-0.4,0.1-0.6
		c0.1-0.3,0.3-0.5,0.5-0.6c0.2-0.1,0.4-0.2,0.7-0.2c0.2,0,0.5,0,0.8,0.1c0.3,0.1,0.6,0.2,0.9,0.4c0.1,0,0.2,0.1,0.2,0.1
		c0.1,0,0.2,0.1,0.2,0.1c0.1-0.2,0.2-0.3,0.3-0.5c0.2-0.3,0.2-0.6,0.1-0.8c-0.1-0.2-0.3-0.4-0.6-0.5c-0.1,0-0.2-0.1-0.3-0.1
		c-0.1,0-0.3-0.1-0.4-0.1c-0.1,0-0.3-0.1-0.4-0.1c-0.1,0-0.2,0-0.4,0L307.1,389.8z M306.6,394.1c0.2,0.1,0.3,0.1,0.5,0.1
		c0.2,0,0.3,0,0.4,0c0.1,0,0.2-0.1,0.3-0.1c0.1-0.1,0.2-0.1,0.3-0.2l0.4-0.8c-0.1,0-0.2-0.1-0.3-0.1c-0.1,0-0.2-0.1-0.3-0.1
		c-0.2-0.1-0.4-0.2-0.6-0.2c-0.2-0.1-0.4-0.1-0.5-0.1s-0.3,0-0.4,0.1c-0.1,0.1-0.2,0.2-0.3,0.3c-0.1,0.2-0.1,0.4,0,0.6
		C306.3,393.8,306.4,393.9,306.6,394.1z"/>
	<path d="M311.2,391.3l0.7,0.3l0.4-0.9l0.8,0.1l-0.5,1.1l1.2,0.6l-0.3,0.6l-1.2-0.6l-1.2,2.5c-0.1,0.3-0.2,0.6-0.2,0.7
		c0,0.2,0.1,0.3,0.3,0.4c0.2,0.1,0.3,0.1,0.4,0.1c0.1,0,0.3,0,0.4,0l-0.1,0.6c-0.2,0-0.4,0-0.6-0.1c-0.2,0-0.4-0.1-0.7-0.2
		c-0.4-0.2-0.6-0.4-0.6-0.7c-0.1-0.3,0-0.7,0.3-1.2l1.2-2.6l-0.7-0.3L311.2,391.3z"/>
	<path d="M315,393.1l0.7,0.3l-2.1,4.5l-0.7-0.3L315,393.1z M315.5,391.7c0.1-0.1,0.2-0.2,0.3-0.3c0.1-0.1,0.3,0,0.4,0
		c0.1,0.1,0.2,0.2,0.3,0.3c0.1,0.1,0.1,0.3,0,0.4c-0.1,0.1-0.2,0.2-0.3,0.3c-0.1,0-0.3,0-0.4,0c-0.1-0.1-0.2-0.2-0.3-0.3
		C315.4,392,315.4,391.8,315.5,391.7z"/>
	<path d="M318.1,400.1l1.2-2.6c0.2-0.5,0.3-0.9,0.3-1.2s-0.2-0.5-0.6-0.7c-0.3-0.1-0.6-0.2-0.9-0.1c-0.3,0.1-0.5,0.2-0.7,0.4
		l-1.4,3.1l-0.7-0.3l2.1-4.5l0.5,0.2l-0.1,0.6l0,0c0.2-0.1,0.5-0.2,0.8-0.2c0.3,0,0.6,0.1,1,0.2c0.2,0.1,0.5,0.2,0.6,0.4
		c0.2,0.1,0.3,0.3,0.3,0.5s0.1,0.4,0,0.7c-0.1,0.3-0.2,0.6-0.3,1l-1.3,2.7L318.1,400.1z"/>
	<path d="M320.9,398.6c0.4-0.8,0.8-1.3,1.3-1.5s1.1-0.2,1.8,0.1c0.3,0.2,0.6,0.4,0.8,0.6c0.2,0.2,0.3,0.5,0.4,0.8
		c0.1,0.3,0.1,0.6,0,0.9c-0.1,0.3-0.2,0.7-0.3,1c-0.4,0.8-0.8,1.3-1.3,1.5c-0.5,0.2-1.1,0.2-1.8-0.1c-0.3-0.2-0.6-0.4-0.8-0.6
		c-0.2-0.2-0.3-0.5-0.4-0.8c-0.1-0.3-0.1-0.6,0-0.9C320.6,399.3,320.8,399,320.9,398.6z M321.7,399c-0.1,0.2-0.2,0.5-0.2,0.7
		c-0.1,0.2-0.1,0.5,0,0.7s0.1,0.4,0.2,0.6c0.1,0.2,0.3,0.3,0.5,0.4c0.8,0.4,1.5,0,2-1.2c0.1-0.2,0.2-0.5,0.2-0.7s0.1-0.5,0-0.7
		c0-0.2-0.1-0.4-0.2-0.6c-0.1-0.2-0.3-0.3-0.5-0.4C322.9,397.4,322.2,397.8,321.7,399z"/>
</g>
<g>
	<path d="M338.9,366.7l-2-0.9l-2.6,5.7l-0.8-0.4l2.6-5.7l-2-0.9l0.3-0.7l4.7,2.2L338.9,366.7z"/>
	<path d="M342.2,369.6l-0.2,3.1l-0.2,1l0,0l0.6-0.8l2-2.2l0.7,0.3l-3.7,3.9l-0.4-0.2l0.2-3.5l0.2-0.8l0,0l-0.5,0.7l-2.5,2.4
		l-0.4-0.2l0.6-5.4l0.8,0.4l-0.3,3.1l-0.3,1l0,0l0.6-0.8l2.2-2.2L342.2,369.6z"/>
	<path d="M344.6,373.5c0.4-0.8,0.8-1.3,1.3-1.5s1.1-0.2,1.8,0.1c0.3,0.2,0.6,0.4,0.8,0.6c0.2,0.2,0.3,0.5,0.4,0.8
		c0.1,0.3,0.1,0.6,0,0.9c-0.1,0.3-0.2,0.7-0.3,1c-0.4,0.8-0.8,1.3-1.3,1.5c-0.5,0.2-1.1,0.2-1.8-0.1c-0.3-0.2-0.6-0.4-0.8-0.6
		c-0.2-0.2-0.3-0.5-0.4-0.8c-0.1-0.3-0.1-0.6,0-0.9C344.3,374.2,344.4,373.8,344.6,373.5z M345.4,373.8c-0.1,0.2-0.2,0.5-0.2,0.7
		c-0.1,0.2-0.1,0.5,0,0.7s0.1,0.4,0.2,0.6c0.1,0.2,0.3,0.3,0.5,0.4c0.8,0.4,1.5,0,2-1.2c0.1-0.2,0.2-0.5,0.2-0.7
		c0.1-0.2,0.1-0.5,0-0.7c0-0.2-0.1-0.4-0.2-0.6c-0.1-0.2-0.3-0.3-0.5-0.4C346.6,372.3,345.9,372.7,345.4,373.8z"/>
	<path d="M351.9,376.9c0.4-0.8,0.8-1.3,1.3-1.5c0.5-0.2,1.1-0.2,1.8,0.1c0.3,0.2,0.6,0.4,0.8,0.6c0.2,0.2,0.3,0.5,0.4,0.8
		c0.1,0.3,0.1,0.6,0,0.9c-0.1,0.3-0.2,0.7-0.3,1c-0.4,0.8-0.8,1.3-1.3,1.5c-0.5,0.2-1.1,0.2-1.8-0.1c-0.3-0.2-0.6-0.4-0.8-0.6
		c-0.2-0.2-0.3-0.5-0.4-0.8c-0.1-0.3-0.1-0.6,0-0.9C351.6,377.6,351.7,377.2,351.9,376.9z M352.6,377.2c-0.1,0.2-0.2,0.5-0.2,0.7
		c-0.1,0.2-0.1,0.5,0,0.7c0,0.2,0.1,0.4,0.2,0.6c0.1,0.2,0.3,0.3,0.5,0.4c0.8,0.4,1.5,0,2-1.2c0.1-0.2,0.2-0.5,0.2-0.7
		c0.1-0.2,0.1-0.4,0-0.7c0-0.2-0.1-0.4-0.2-0.6s-0.3-0.3-0.5-0.4C353.9,375.7,353.2,376.1,352.6,377.2z"/>
	<path d="M359.9,378.7c-0.2-0.1-0.3-0.3-0.5-0.3c-0.3-0.1-0.5-0.1-0.7-0.1c-0.2,0.1-0.4,0.2-0.5,0.4l-1.5,3.2l-0.7-0.3l2.1-4.5
		l0.5,0.2l-0.1,0.6l0,0c0.2-0.2,0.4-0.2,0.6-0.3s0.4,0,0.7,0.1c0.2,0.1,0.4,0.2,0.5,0.4L359.9,378.7z"/>
	<path d="M368.4,382.1l0.5-0.9l0,0l-0.8,0.7l-3,2.1l-0.2-0.1l-0.4-3.7l0.1-1l0,0l-0.3,1l-2,4.3l-0.7-0.3l3-6.3l0.6,0.3l0.5,4.2
		l0,0.8l0,0l0.6-0.6l3.4-2.3l0.6,0.3l-3,6.3l-0.8-0.4L368.4,382.1z"/>
	<path d="M369.4,385.1c0.4-0.8,0.8-1.3,1.3-1.5s1.1-0.2,1.8,0.1c0.3,0.2,0.6,0.4,0.8,0.6s0.3,0.5,0.4,0.8c0.1,0.3,0.1,0.6,0,0.9
		c-0.1,0.3-0.2,0.7-0.3,1c-0.4,0.8-0.8,1.3-1.3,1.5c-0.5,0.2-1.1,0.2-1.8-0.1c-0.3-0.2-0.6-0.4-0.8-0.6s-0.3-0.5-0.4-0.8
		c-0.1-0.3-0.1-0.6,0-0.9C369.1,385.8,369.2,385.4,369.4,385.1z M370.2,385.4c-0.1,0.2-0.2,0.5-0.2,0.7c-0.1,0.2-0.1,0.4,0,0.7
		c0,0.2,0.1,0.4,0.2,0.6c0.1,0.2,0.3,0.3,0.5,0.4c0.8,0.4,1.5,0,2-1.2c0.1-0.2,0.2-0.5,0.2-0.7c0.1-0.2,0.1-0.5,0-0.7
		c0-0.2-0.1-0.4-0.2-0.6c-0.1-0.2-0.3-0.3-0.5-0.4C371.4,383.8,370.7,384.2,370.2,385.4z"/>
	<path d="M377.4,386.9c-0.2-0.1-0.3-0.3-0.5-0.3c-0.3-0.1-0.5-0.1-0.7-0.1c-0.2,0.1-0.4,0.2-0.5,0.4l-1.5,3.2l-0.7-0.3l2.1-4.5
		l0.5,0.2L376,386l0,0c0.2-0.2,0.4-0.2,0.6-0.3c0.2,0,0.4,0,0.7,0.1c0.2,0.1,0.4,0.2,0.5,0.4L377.4,386.9z"/>
	<path d="M380,392.3c-0.2,0.1-0.5,0.1-0.8,0c-0.3,0-0.6-0.1-0.9-0.3c-0.3-0.2-0.6-0.4-0.8-0.6c-0.2-0.2-0.3-0.5-0.4-0.8
		c-0.1-0.3-0.1-0.6,0-0.9c0.1-0.3,0.2-0.7,0.3-1c0.4-0.8,0.8-1.3,1.3-1.5c0.5-0.2,1.1-0.2,1.8,0.1c0.2,0.1,0.4,0.2,0.6,0.4
		s0.3,0.3,0.4,0.5c0.1,0.2,0.2,0.4,0.1,0.7c0,0.3-0.1,0.6-0.3,1c-0.1,0.2-0.2,0.4-0.4,0.6l-2.9-1.4c-0.1,0.3-0.2,0.5-0.2,0.7
		c0,0.2,0,0.4,0,0.6c0,0.2,0.1,0.4,0.3,0.5c0.1,0.2,0.4,0.3,0.6,0.4c0.2,0.1,0.4,0.2,0.7,0.2c0.2,0,0.4,0,0.6,0L380,392.3z
		 M380.2,388c-0.4-0.2-0.7-0.2-1-0.1c-0.3,0.1-0.6,0.3-0.8,0.8l2.2,1c0.2-0.5,0.3-0.8,0.2-1.1C380.7,388.3,380.5,388.1,380.2,388z"
		/>
	<path d="M386.6,388.2c0.2,0.1,0.5,0.2,0.8,0.3c0.3,0.1,0.6,0.2,0.8,0.3c0.3,0.1,0.5,0.3,0.8,0.5c0.2,0.2,0.4,0.4,0.5,0.6
		c0.1,0.2,0.2,0.5,0.2,0.8c0,0.3-0.1,0.6-0.2,0.9c-0.2,0.5-0.6,0.8-1,1c-0.4,0.2-0.9,0.2-1.3,0.1l0.3,0.5l0.4,3.2L387,396l-0.5-3.6
		l-0.8-0.6l-1.3,2.9l-0.8-0.4L386.6,388.2z M388,389.5c-0.1,0-0.2-0.1-0.2-0.1c-0.1,0-0.2-0.1-0.2-0.1c-0.1,0-0.2-0.1-0.2-0.1
		s-0.1,0-0.2-0.1l-1.1,2.3l0.7,0.3c0.4,0.2,0.8,0.3,1.2,0.2c0.4-0.1,0.7-0.3,0.9-0.8c0.2-0.3,0.2-0.6,0-1
		C388.6,389.9,388.4,389.6,388,389.5z"/>
	<path d="M390.8,392.7c0.3,0,0.6,0,0.9,0.1s0.7,0.2,1,0.3c0.3,0.1,0.5,0.3,0.7,0.5s0.2,0.4,0.3,0.5c0,0.2,0,0.4,0,0.5
		c0,0.2-0.1,0.3-0.2,0.5c-0.2,0.4-0.3,0.7-0.5,1c-0.2,0.3-0.3,0.7-0.5,1c-0.1,0.2-0.2,0.4-0.3,0.6c-0.1,0.2-0.1,0.4-0.2,0.6
		l-0.5-0.2l0.1-0.7l0,0c-0.1,0.1-0.2,0.1-0.3,0.2c-0.1,0-0.3,0.1-0.4,0.1c-0.1,0-0.3,0-0.5,0c-0.2,0-0.4-0.1-0.5-0.2
		c-0.2-0.1-0.4-0.2-0.5-0.3c-0.1-0.1-0.2-0.3-0.3-0.5c-0.1-0.2-0.1-0.3-0.1-0.5c0-0.2,0.1-0.4,0.1-0.6c0.1-0.3,0.3-0.5,0.5-0.6
		c0.2-0.1,0.4-0.2,0.7-0.2c0.2,0,0.5,0,0.8,0.1c0.3,0.1,0.6,0.2,0.9,0.4c0.1,0,0.2,0.1,0.2,0.1c0.1,0,0.2,0.1,0.2,0.1
		c0.1-0.2,0.2-0.3,0.3-0.5c0.2-0.3,0.2-0.6,0.1-0.8c-0.1-0.2-0.3-0.4-0.6-0.5c-0.1,0-0.2-0.1-0.3-0.1c-0.1,0-0.3-0.1-0.4-0.1
		c-0.1,0-0.3-0.1-0.4-0.1c-0.1,0-0.3,0-0.4,0L390.8,392.7z M390.4,396.9c0.2,0.1,0.3,0.1,0.5,0.1s0.3,0,0.4,0c0.1,0,0.2-0.1,0.3-0.1
		c0.1-0.1,0.2-0.1,0.3-0.2l0.4-0.8c-0.1,0-0.2-0.1-0.3-0.1c-0.1,0-0.2-0.1-0.3-0.1c-0.2-0.1-0.4-0.2-0.6-0.2
		c-0.2-0.1-0.4-0.1-0.5-0.1s-0.3,0-0.4,0.1c-0.1,0.1-0.2,0.2-0.3,0.3c-0.1,0.2-0.1,0.4,0,0.6C390,396.7,390.2,396.8,390.4,396.9z"/>
	<path d="M396.7,400.2c-0.2,0-0.5,0-0.8,0c-0.3,0-0.6-0.1-0.8-0.3c-0.4-0.2-0.6-0.4-0.8-0.6c-0.2-0.2-0.3-0.5-0.4-0.8
		c-0.1-0.3-0.1-0.6,0-0.9c0.1-0.3,0.2-0.7,0.4-1c0.4-0.8,0.8-1.3,1.3-1.5c0.5-0.3,1.1-0.2,1.7,0.1c0.3,0.1,0.5,0.3,0.7,0.4
		c0.2,0.1,0.3,0.3,0.5,0.5l-0.5,0.5c-0.1-0.1-0.2-0.3-0.4-0.4c-0.1-0.1-0.3-0.2-0.5-0.3c-0.9-0.4-1.6,0-2.1,1.1
		c-0.1,0.2-0.2,0.5-0.2,0.7c-0.1,0.2-0.1,0.4,0,0.7c0,0.2,0.1,0.4,0.2,0.6c0.1,0.2,0.3,0.3,0.6,0.4c0.2,0.1,0.4,0.2,0.6,0.2
		c0.2,0,0.4,0,0.5,0L396.7,400.2z"/>
	<path d="M401,402.1c-0.2,0.1-0.5,0.1-0.8,0c-0.3,0-0.6-0.1-0.9-0.3c-0.3-0.2-0.6-0.4-0.8-0.6s-0.3-0.5-0.4-0.8
		c-0.1-0.3-0.1-0.6,0-0.9c0.1-0.3,0.2-0.7,0.3-1c0.4-0.8,0.8-1.3,1.3-1.5c0.5-0.2,1.1-0.2,1.8,0.1c0.2,0.1,0.4,0.2,0.6,0.4
		c0.2,0.1,0.3,0.3,0.4,0.5c0.1,0.2,0.2,0.4,0.1,0.7c0,0.3-0.1,0.6-0.3,1c-0.1,0.2-0.2,0.4-0.4,0.6l-2.9-1.4
		c-0.1,0.3-0.2,0.5-0.2,0.7c0,0.2,0,0.4,0,0.6c0,0.2,0.1,0.4,0.3,0.5c0.1,0.2,0.4,0.3,0.6,0.4c0.2,0.1,0.4,0.2,0.7,0.2
		c0.2,0,0.4,0,0.6,0L401,402.1z M401.1,397.8c-0.4-0.2-0.7-0.2-1-0.1c-0.3,0.1-0.6,0.3-0.8,0.8l2.2,1c0.2-0.5,0.3-0.8,0.2-1.1
		C401.7,398.1,401.5,397.9,401.1,397.8z"/>
	<path d="M404.7,402.8c0.1-0.2,0.1-0.3,0-0.5c-0.1-0.2-0.2-0.3-0.3-0.4c-0.1-0.1-0.3-0.3-0.4-0.4s-0.3-0.3-0.4-0.5
		c-0.1-0.2-0.2-0.4-0.2-0.6c0-0.2,0-0.4,0.1-0.7c0.2-0.4,0.5-0.7,0.8-0.8c0.3-0.1,0.7,0,1.2,0.2c0.3,0.2,0.6,0.3,0.8,0.5
		s0.4,0.3,0.5,0.5l-0.5,0.5c-0.1-0.1-0.2-0.3-0.4-0.4c-0.2-0.1-0.4-0.3-0.6-0.4c-0.3-0.1-0.5-0.2-0.6-0.1c-0.2,0-0.3,0.2-0.4,0.4
		c-0.1,0.2-0.1,0.3,0,0.4c0.1,0.1,0.2,0.3,0.3,0.4c0.1,0.1,0.3,0.3,0.4,0.5c0.2,0.2,0.3,0.3,0.4,0.5c0.1,0.2,0.2,0.4,0.2,0.6
		c0,0.2,0,0.5-0.1,0.7c-0.1,0.2-0.2,0.4-0.3,0.5c-0.1,0.1-0.3,0.2-0.5,0.3c-0.2,0.1-0.4,0.1-0.6,0.1c-0.2,0-0.5-0.1-0.7-0.2
		c-0.3-0.2-0.6-0.3-0.8-0.5c-0.2-0.2-0.4-0.4-0.5-0.5l0.5-0.5c0.1,0.1,0.2,0.3,0.4,0.5c0.2,0.2,0.4,0.3,0.6,0.4
		c0.3,0.1,0.5,0.2,0.7,0.1S404.6,403.1,404.7,402.8z"/>
</g>
<g>
	<path d="M412.9,366.8l-0.1-1.1l0,0l-0.3,1l-1.9,4.1l-0.7-0.3l3-6.4l0.4,0.2l1.1,5.6l0.1,1.1l0,0l0.3-0.9l1.9-4.1l0.7,0.3l-3,6.4
		l-0.4-0.2L412.9,366.8z"/>
	<path d="M416.6,370.9c0.4-0.8,0.8-1.3,1.3-1.5c0.5-0.2,1.1-0.2,1.8,0.1c0.3,0.2,0.6,0.3,0.8,0.6c0.2,0.2,0.3,0.5,0.4,0.8
		c0.1,0.3,0.1,0.6,0,0.9c-0.1,0.3-0.2,0.7-0.3,1c-0.4,0.8-0.8,1.3-1.3,1.5c-0.5,0.2-1.1,0.2-1.8-0.1c-0.3-0.2-0.6-0.4-0.8-0.6
		c-0.2-0.2-0.3-0.5-0.4-0.8c-0.1-0.3-0.1-0.6,0-0.9S416.5,371.2,416.6,370.9z M417.4,371.2c-0.1,0.2-0.2,0.5-0.2,0.7
		c-0.1,0.2-0.1,0.5,0,0.7c0,0.2,0.1,0.4,0.2,0.6s0.3,0.3,0.5,0.4c0.8,0.4,1.5,0,2-1.2c0.1-0.2,0.2-0.5,0.2-0.7s0.1-0.4,0-0.7
		c0-0.2-0.1-0.4-0.2-0.6c-0.1-0.2-0.3-0.3-0.5-0.4C418.6,369.7,417.9,370,417.4,371.2z"/>
	<path d="M423.6,376.9l1.2-2.6c0.2-0.5,0.3-0.9,0.3-1.2c0-0.3-0.2-0.5-0.6-0.7c-0.3-0.2-0.6-0.2-0.9-0.1c-0.3,0.1-0.5,0.2-0.7,0.4
		l-1.4,3.1l-0.7-0.3l2.1-4.5l0.5,0.2l-0.1,0.6l0,0c0.2-0.1,0.5-0.2,0.8-0.2c0.3,0,0.6,0.1,1,0.2c0.2,0.1,0.5,0.2,0.6,0.4
		c0.2,0.1,0.3,0.3,0.3,0.5c0.1,0.2,0.1,0.4,0,0.7c-0.1,0.3-0.2,0.6-0.3,1l-1.3,2.7L423.6,376.9z"/>
	<path d="M426.9,374.3l3.8,1.8l-0.3,0.7l-3.8-1.8L426.9,374.3z"/>
	<path d="M435.4,378.9l-3-1.4l-1.4,2.9l-0.8-0.4l3-6.3l0.8,0.4l-1.3,2.8l3,1.4l1.3-2.8l0.8,0.3l-3,6.3l-0.8-0.3L435.4,378.9z"/>
	<path d="M438.6,378.3l0.7,0.3l-2.1,4.5l-0.7-0.3L438.6,378.3z M439,376.9c0.1-0.1,0.2-0.2,0.3-0.3s0.3,0,0.4,0
		c0.1,0.1,0.2,0.2,0.3,0.3c0.1,0.1,0.1,0.3,0,0.4c-0.1,0.1-0.2,0.2-0.3,0.3c-0.1,0-0.3,0-0.4,0c-0.1-0.1-0.2-0.2-0.3-0.3
		C439,377.2,439,377,439,376.9z"/>
	<path d="M441.3,383.6c0.1-0.2,0.1-0.4,0-0.5c-0.1-0.2-0.2-0.3-0.3-0.4c-0.1-0.1-0.3-0.3-0.4-0.4c-0.2-0.2-0.3-0.3-0.4-0.5
		c-0.1-0.2-0.2-0.4-0.2-0.6c0-0.2,0-0.4,0.1-0.7c0.2-0.4,0.5-0.7,0.8-0.8c0.3-0.1,0.7,0,1.2,0.2c0.3,0.2,0.6,0.3,0.8,0.5
		c0.2,0.2,0.4,0.3,0.5,0.5l-0.5,0.5c-0.1-0.1-0.2-0.3-0.4-0.4c-0.2-0.1-0.4-0.3-0.6-0.4c-0.3-0.1-0.5-0.2-0.6-0.1s-0.3,0.2-0.4,0.4
		c-0.1,0.2-0.1,0.3,0,0.4c0.1,0.1,0.2,0.3,0.3,0.4c0.1,0.1,0.3,0.3,0.4,0.5c0.2,0.2,0.3,0.3,0.4,0.5c0.1,0.2,0.2,0.4,0.2,0.6
		s0,0.5-0.1,0.7c-0.1,0.2-0.2,0.4-0.3,0.5c-0.1,0.1-0.3,0.2-0.5,0.3c-0.2,0.1-0.4,0.1-0.6,0.1c-0.2,0-0.5-0.1-0.7-0.2
		c-0.3-0.2-0.6-0.3-0.8-0.5s-0.4-0.4-0.5-0.5l0.5-0.5c0.1,0.1,0.2,0.3,0.4,0.5c0.2,0.2,0.4,0.3,0.6,0.4c0.3,0.1,0.5,0.2,0.7,0.1
		C441,384,441.2,383.9,441.3,383.6z"/>
	<path d="M444.6,381.2l0.5,0.2L445,382l0,0c0.2-0.1,0.5-0.2,0.8-0.2c0.3,0,0.6,0.1,0.8,0.2c0.6,0.3,1,0.7,1.1,1.2
		c0.1,0.5,0,1.1-0.4,2c-0.2,0.4-0.4,0.7-0.6,1c-0.2,0.3-0.5,0.5-0.8,0.6s-0.6,0.2-0.9,0.2s-0.6-0.1-0.9-0.2
		c-0.2-0.1-0.4-0.2-0.5-0.3c-0.1-0.1-0.2-0.2-0.4-0.3l-0.9,1.9l-0.7-0.3L444.6,381.2z M446.2,382.6c-0.3-0.1-0.6-0.2-0.8-0.1
		c-0.3,0.1-0.5,0.3-0.7,0.6l-1,2.2c0.1,0.1,0.2,0.3,0.3,0.4c0.1,0.1,0.3,0.2,0.5,0.3c0.4,0.2,0.8,0.2,1.2,0c0.4-0.2,0.7-0.6,1-1.2
		c0.1-0.2,0.2-0.5,0.3-0.7s0.1-0.4,0-0.6c0-0.2-0.1-0.4-0.2-0.5C446.6,382.8,446.5,382.7,446.2,382.6z"/>
	<path d="M449.3,383.8c0.3,0,0.6,0,0.9,0.1c0.3,0.1,0.7,0.2,1,0.3c0.3,0.1,0.5,0.3,0.7,0.5c0.2,0.2,0.2,0.4,0.3,0.5
		c0,0.2,0,0.4,0,0.5c0,0.2-0.1,0.3-0.2,0.5c-0.2,0.4-0.3,0.7-0.5,1c-0.2,0.3-0.3,0.7-0.5,1c-0.1,0.2-0.2,0.4-0.3,0.6
		c-0.1,0.2-0.1,0.4-0.2,0.6l-0.5-0.2l0.1-0.7l0,0c-0.1,0.1-0.2,0.1-0.3,0.2c-0.1,0-0.3,0.1-0.4,0.1c-0.1,0-0.3,0-0.5,0
		c-0.2,0-0.4-0.1-0.5-0.2s-0.4-0.2-0.5-0.3c-0.1-0.1-0.2-0.3-0.3-0.5c-0.1-0.2-0.1-0.3-0.1-0.5c0-0.2,0.1-0.4,0.1-0.6
		c0.1-0.3,0.3-0.5,0.5-0.6c0.2-0.1,0.4-0.2,0.7-0.2c0.2,0,0.5,0,0.8,0.1c0.3,0.1,0.6,0.2,0.9,0.4c0.1,0,0.2,0.1,0.2,0.1
		c0.1,0,0.2,0.1,0.2,0.1c0.1-0.2,0.2-0.3,0.3-0.5c0.2-0.3,0.2-0.6,0.1-0.8c-0.1-0.2-0.3-0.4-0.6-0.5c-0.1,0-0.2-0.1-0.3-0.1
		c-0.1,0-0.3-0.1-0.4-0.1c-0.1,0-0.3-0.1-0.4-0.1c-0.1,0-0.2,0-0.4,0L449.3,383.8z M448.9,388c0.2,0.1,0.3,0.1,0.5,0.1
		c0.2,0,0.3,0,0.4,0c0.1,0,0.2-0.1,0.3-0.1s0.2-0.1,0.3-0.2l0.4-0.8c-0.1,0-0.2-0.1-0.2-0.1c-0.1,0-0.2-0.1-0.3-0.1
		c-0.2-0.1-0.4-0.2-0.6-0.2c-0.2-0.1-0.4-0.1-0.5-0.1s-0.3,0-0.4,0.1c-0.1,0.1-0.2,0.2-0.3,0.3c-0.1,0.2-0.1,0.4,0,0.6
		C448.5,387.7,448.7,387.9,448.9,388z"/>
	<path d="M454.8,391.5l1.2-2.6c0.2-0.5,0.3-0.9,0.3-1.2c0-0.3-0.2-0.5-0.6-0.7c-0.3-0.2-0.6-0.2-0.9-0.1c-0.3,0.1-0.5,0.2-0.7,0.4
		l-1.4,3.1l-0.7-0.3l2.1-4.5l0.5,0.2l-0.1,0.6l0,0c0.2-0.1,0.5-0.2,0.8-0.2c0.3,0,0.6,0.1,1,0.2c0.2,0.1,0.5,0.2,0.6,0.4
		c0.2,0.1,0.3,0.3,0.3,0.5c0.1,0.2,0.1,0.4,0,0.7c-0.1,0.3-0.2,0.6-0.3,1l-1.3,2.7L454.8,391.5z"/>
	<path d="M459.2,388l0.7,0.3l-2.1,4.5l-0.7-0.3L459.2,388z M459.6,386.5c0.1-0.1,0.2-0.2,0.3-0.3c0.1-0.1,0.3-0.1,0.4,0
		c0.1,0.1,0.2,0.2,0.3,0.3c0.1,0.1,0.1,0.3,0,0.4s-0.2,0.2-0.3,0.3c-0.1,0-0.3,0-0.4,0c-0.1-0.1-0.2-0.2-0.3-0.3
		S459.6,386.7,459.6,386.5z"/>
	<path d="M462.5,394.7c-0.2,0-0.5,0-0.8,0c-0.3,0-0.6-0.1-0.8-0.3c-0.3-0.2-0.6-0.4-0.8-0.6s-0.3-0.5-0.4-0.8
		c-0.1-0.3-0.1-0.6,0-0.9c0.1-0.3,0.2-0.7,0.4-1c0.4-0.8,0.8-1.3,1.3-1.5c0.5-0.2,1.1-0.2,1.7,0.1c0.3,0.1,0.5,0.3,0.7,0.4
		s0.3,0.3,0.5,0.5l-0.5,0.5c-0.1-0.1-0.2-0.3-0.4-0.4c-0.1-0.1-0.3-0.2-0.5-0.3c-0.9-0.4-1.6,0-2.1,1.1c-0.1,0.2-0.2,0.5-0.2,0.7
		c-0.1,0.2-0.1,0.4,0,0.7c0,0.2,0.1,0.4,0.2,0.6c0.1,0.2,0.3,0.3,0.6,0.4c0.2,0.1,0.4,0.2,0.6,0.2s0.4,0,0.5,0L462.5,394.7z"/>
	<path d="M468.1,395.1l-0.3,1.1l0,0l0.7-1l3.3-3.6l0.4,0.2l-0.7,4.9l-0.3,1.1l0,0l0.7-1l3-3.7l0.7,0.3l-4.8,5.6l-0.4-0.2l0.7-4.8
		l0.3-1l0,0l-0.6,0.9l-3.3,3.6l-0.4-0.2l1.2-7.3l0.8,0.4L468.1,395.1z"/>
	<path d="M476.2,401.5l1.2-2.6c0.1-0.2,0.2-0.4,0.2-0.6c0.1-0.2,0.1-0.4,0.1-0.5c0-0.2-0.1-0.3-0.2-0.4s-0.2-0.2-0.4-0.3
		c-0.3-0.1-0.6-0.2-0.9-0.1c-0.3,0.1-0.6,0.2-0.8,0.5l-1.4,3l-0.7-0.3l3-6.3l0.7,0.3l-1.1,2.3l0,0c0.2-0.1,0.5-0.2,0.8-0.2
		c0.3,0,0.6,0.1,0.9,0.2c0.3,0.1,0.5,0.2,0.6,0.4c0.2,0.1,0.3,0.3,0.3,0.5c0.1,0.2,0.1,0.4,0,0.7c-0.1,0.3-0.2,0.6-0.3,1l-1.3,2.7
		L476.2,401.5z"/>
	<path d="M480.5,398l0.7,0.3l-2.1,4.5l-0.7-0.3L480.5,398z M481,396.5c0.1-0.1,0.2-0.2,0.3-0.3c0.1-0.1,0.3,0,0.4,0
		c0.1,0.1,0.2,0.2,0.3,0.3c0.1,0.1,0.1,0.3,0,0.4s-0.2,0.2-0.3,0.3s-0.3,0-0.4,0c-0.1-0.1-0.2-0.2-0.3-0.3
		C481,396.8,481,396.6,481,396.5z"/>
	<path d="M482.2,398.7l0.7,0.3l0.4-0.9l0.8,0.1l-0.5,1.1l1.2,0.6l-0.3,0.6l-1.2-0.6l-1.2,2.5c-0.1,0.3-0.2,0.6-0.2,0.7
		c0,0.2,0.1,0.3,0.3,0.4c0.2,0.1,0.3,0.1,0.4,0.1c0.1,0,0.3,0,0.4,0l-0.1,0.6c-0.2,0-0.4,0-0.6-0.1c-0.2,0-0.4-0.1-0.7-0.2
		c-0.4-0.2-0.6-0.4-0.6-0.7c-0.1-0.3,0-0.7,0.3-1.2l1.2-2.6l-0.7-0.3L482.2,398.7z"/>
	<path d="M487.2,406.2c-0.2,0.1-0.5,0.1-0.8,0c-0.3,0-0.6-0.1-0.9-0.3c-0.3-0.2-0.6-0.4-0.8-0.6c-0.2-0.2-0.3-0.5-0.4-0.8
		c-0.1-0.3-0.1-0.6,0-0.9c0.1-0.3,0.2-0.7,0.3-1c0.4-0.8,0.8-1.3,1.3-1.5c0.5-0.2,1.1-0.2,1.8,0.1c0.2,0.1,0.4,0.2,0.6,0.4
		c0.2,0.1,0.3,0.3,0.4,0.5s0.2,0.4,0.1,0.7c0,0.3-0.1,0.6-0.3,1c-0.1,0.2-0.2,0.4-0.4,0.6l-2.9-1.4c-0.1,0.3-0.2,0.5-0.2,0.7
		c0,0.2,0,0.4,0,0.6s0.1,0.4,0.3,0.5c0.1,0.2,0.4,0.3,0.6,0.4c0.2,0.1,0.4,0.2,0.7,0.2c0.2,0,0.4,0,0.6,0L487.2,406.2z M487.4,401.8
		c-0.4-0.2-0.7-0.2-1-0.1c-0.3,0.1-0.6,0.3-0.8,0.8l2.2,1c0.2-0.5,0.3-0.8,0.2-1.1C487.9,402.1,487.7,401.9,487.4,401.8z"/>
</g>
<line fill="none" stroke="#3B6E8F" stroke-miterlimit="10" x1="58" y1="18.5" x2="58" y2="355.6"/>
<line fill="none" stroke="#3B6E8F" stroke-miterlimit="10" x1="58" y1="355.6" x2="449.8" y2="355.6"/>
</svg>
