<?xml version="1.0" encoding="utf-8"?>
<!-- Generator: Adobe Illustrator 18.0.0, SVG Export Plug-In . SVG Version: 6.00 Build 0)  -->
<!DOCTYPE svg PUBLIC "-//W3C//DTD SVG 1.1//EN" "http://www.w3.org/Graphics/SVG/1.1/DTD/svg11.dtd">
<svg version="1.1" id="Layer_1" xmlns="http://www.w3.org/2000/svg" xmlns:xlink="http://www.w3.org/1999/xlink" x="0px" y="0px"
	 viewBox="0 0 504 504" enable-background="new 0 0 504 504" xml:space="preserve">
<rect fill="none" stroke="#FFFFFF" stroke-width="1.06" stroke-linecap="round" stroke-linejoin="round" stroke-miterlimit="10" width="504" height="504"/>
<line fill="none" stroke="#FAFAFA" stroke-width="1.06" stroke-linejoin="round" stroke-miterlimit="10" x1="48" y1="334.4" x2="461.5" y2="334.4"/>
<rect x="59.9" y="31.9" fill="#3B6E8F" width="71.6" height="354.2"/>
<rect x="139.4" y="211.4" fill="#3B6E8F" width="71.6" height="174.6"/>
<rect x="218.9" y="328.6" fill="#3B6E8F" width="71.6" height="57.5"/>
<rect x="298.5" y="287.6" fill="#3B6E8F" width="71.6" height="98.5"/>
<rect x="378" y="301.4" fill="#3B6E8F" width="71.6" height="84.7"/>
<g>
	<path fill="#FFFFFF" d="M85.3,46.3c0.3,0,0.6,0,0.9-0.1c0.3-0.1,0.5-0.2,0.7-0.4c0.2-0.2,0.4-0.4,0.5-0.7c0.1-0.3,0.2-0.5,0.2-0.8
		c0-0.7-0.2-1.1-0.6-1.5c-0.4-0.3-0.9-0.5-1.6-0.5h-1v-0.4l2-3.1l0.6-0.6l-0.9,0.1h-2.8v-1h5v0.4L86.1,41l-0.5,0.4v0l0.5-0.1
		c0.4,0,0.7,0.1,1,0.2s0.6,0.3,0.8,0.5c0.2,0.2,0.4,0.5,0.5,0.9c0.1,0.3,0.2,0.7,0.2,1.1c0,0.5-0.1,1-0.3,1.3
		c-0.2,0.4-0.4,0.7-0.7,1c-0.3,0.3-0.7,0.5-1.1,0.6s-0.8,0.2-1.3,0.2c-0.4,0-0.8,0-1.1-0.1c-0.3-0.1-0.6-0.1-0.9-0.3l0.3-1
		c0.2,0.1,0.5,0.2,0.8,0.3S85,46.3,85.3,46.3z"/>
	<path fill="#FFFFFF" d="M97,44.1h-1.7v3h-1.1v-3H90v-0.5l4.6-6.5h0.8v6H97V44.1z M94.3,40l0.1-1.1h0l-0.5,1l-2,2.7l-0.7,0.7l1-0.1
		h2.1V40z"/>
	<path fill="#FFFFFF" d="M98,46.4c0-0.3,0.1-0.5,0.2-0.6c0.1-0.1,0.3-0.2,0.6-0.2c0.3,0,0.5,0.1,0.6,0.2c0.1,0.1,0.2,0.3,0.2,0.6
		c0,0.2-0.1,0.4-0.2,0.6c-0.1,0.1-0.4,0.2-0.6,0.2c-0.2,0-0.4-0.1-0.6-0.2C98.1,46.9,98,46.7,98,46.4z"/>
	<path fill="#FFFFFF" d="M103.6,46.3c0.3,0,0.6,0,0.9-0.1c0.3-0.1,0.5-0.2,0.7-0.4c0.2-0.2,0.4-0.4,0.5-0.7c0.1-0.3,0.2-0.5,0.2-0.8
		c0-0.7-0.2-1.1-0.6-1.5c-0.4-0.3-0.9-0.5-1.6-0.5h-1v-0.4l2-3.1l0.6-0.6l-0.9,0.1h-2.8v-1h5v0.4l-2.2,3.3l-0.5,0.4v0l0.5-0.1
		c0.4,0,0.7,0.1,1,0.2s0.6,0.3,0.8,0.5c0.2,0.2,0.4,0.5,0.5,0.9c0.1,0.3,0.2,0.7,0.2,1.1c0,0.5-0.1,1-0.3,1.3
		c-0.2,0.4-0.4,0.7-0.7,1c-0.3,0.3-0.7,0.5-1.1,0.6s-0.8,0.2-1.3,0.2c-0.4,0-0.8,0-1.1-0.1c-0.3-0.1-0.6-0.1-0.9-0.3l0.3-1
		c0.2,0.1,0.5,0.2,0.8,0.3S103.2,46.3,103.6,46.3z"/>
</g>
<g>
	<path fill="#FFFFFF" d="M163.1,225.6h2v-6.8l0.1-0.8l-0.6,0.7l-1.5,1.1l-0.5-0.7l3.1-2.4h0.5v8.9h1.9v1h-5V225.6z"/>
	<path fill="#FFFFFF" d="M176.1,223.7c0,0.4-0.1,0.8-0.2,1.2s-0.3,0.7-0.6,1s-0.6,0.5-0.9,0.7c-0.4,0.2-0.8,0.2-1.3,0.2
		c-0.5,0-0.9-0.1-1.3-0.2c-0.4-0.1-0.7-0.4-1-0.7c-0.3-0.3-0.5-0.7-0.6-1.1c-0.1-0.4-0.2-0.9-0.2-1.5c0-0.9,0.1-1.8,0.4-2.6
		c0.2-0.8,0.6-1.5,1-2s0.9-1,1.5-1.4c0.6-0.4,1.2-0.6,1.9-0.7l0.2,0.9c-0.5,0.1-1,0.3-1.4,0.5s-0.8,0.6-1.1,1
		c-0.3,0.4-0.6,0.8-0.8,1.3c-0.2,0.5-0.3,1-0.4,1.5c0.1-0.3,0.4-0.5,0.8-0.7c0.4-0.2,0.8-0.3,1.3-0.3c0.9,0,1.6,0.3,2.1,0.8
		C175.8,222.1,176.1,222.8,176.1,223.7z M174.9,223.8c0-0.7-0.2-1.2-0.5-1.5c-0.3-0.3-0.8-0.5-1.4-0.5c-0.5,0-0.9,0.1-1.2,0.3
		c-0.3,0.2-0.6,0.5-0.7,0.8c0,0.1,0,0.2,0,0.3s0,0.2,0,0.3c0,0.3,0,0.6,0.1,0.9c0.1,0.3,0.2,0.5,0.4,0.7s0.4,0.4,0.6,0.5
		c0.2,0.1,0.5,0.2,0.9,0.2c0.3,0,0.5-0.1,0.7-0.2s0.4-0.2,0.6-0.4c0.2-0.2,0.3-0.4,0.4-0.6C174.9,224.4,174.9,224.1,174.9,223.8z"/>
	<path fill="#FFFFFF" d="M177.5,226c0-0.3,0.1-0.5,0.2-0.6c0.1-0.1,0.3-0.2,0.6-0.2c0.3,0,0.5,0.1,0.6,0.2c0.1,0.1,0.2,0.3,0.2,0.6
		c0,0.2-0.1,0.4-0.2,0.6c-0.1,0.1-0.4,0.2-0.6,0.2c-0.2,0-0.4-0.1-0.6-0.2C177.6,226.5,177.5,226.3,177.5,226z"/>
	<path fill="#FFFFFF" d="M180.6,219.8c0-0.4,0.1-0.9,0.2-1.2c0.1-0.4,0.3-0.7,0.6-1c0.3-0.3,0.6-0.5,0.9-0.7s0.8-0.2,1.3-0.2
		c1,0,1.7,0.3,2.2,0.9c0.5,0.6,0.8,1.5,0.8,2.6c0,1.1-0.1,2-0.4,2.8c-0.2,0.8-0.6,1.5-1,2c-0.4,0.5-0.9,1-1.5,1.3
		c-0.6,0.3-1.2,0.5-1.9,0.6l-0.3-0.9c0.5-0.1,1-0.2,1.5-0.5c0.4-0.2,0.8-0.5,1.1-0.9c0.3-0.4,0.6-0.8,0.8-1.2
		c0.2-0.5,0.3-0.9,0.4-1.5c-0.3,0.3-0.5,0.5-0.8,0.6s-0.7,0.2-1.2,0.2c-0.4,0-0.7-0.1-1.1-0.2c-0.3-0.1-0.6-0.3-0.9-0.6
		s-0.5-0.5-0.6-0.9C180.6,220.7,180.6,220.3,180.6,219.8z M181.7,219.7c0,0.7,0.2,1.2,0.5,1.5c0.4,0.3,0.8,0.5,1.4,0.5
		c0.5,0,0.8-0.1,1.2-0.2c0.3-0.1,0.6-0.3,0.7-0.6c0-0.1,0-0.2,0-0.3s0-0.2,0-0.3c0-0.3,0-0.7-0.1-1c-0.1-0.3-0.2-0.6-0.4-0.8
		c-0.2-0.2-0.4-0.4-0.6-0.6c-0.3-0.1-0.6-0.2-0.9-0.2c-0.6,0-1,0.2-1.3,0.5C181.9,218.6,181.7,219.1,181.7,219.7z"/>
</g>
<g>
	<path fill="#FFFFFF" d="M325.2,295.9c0-0.4,0.1-0.9,0.2-1.2s0.3-0.7,0.6-1c0.3-0.3,0.6-0.5,0.9-0.7c0.4-0.2,0.8-0.2,1.3-0.2
		c1,0,1.7,0.3,2.2,0.9s0.8,1.5,0.8,2.6c0,1.1-0.1,2-0.4,2.8c-0.2,0.8-0.6,1.5-1,2s-0.9,1-1.5,1.3c-0.6,0.3-1.2,0.5-1.9,0.6l-0.3-0.9
		c0.5-0.1,1-0.2,1.5-0.5c0.4-0.2,0.8-0.5,1.1-0.9s0.6-0.8,0.8-1.2c0.2-0.5,0.3-0.9,0.4-1.5c-0.3,0.3-0.5,0.5-0.8,0.6
		c-0.3,0.1-0.7,0.2-1.2,0.2c-0.4,0-0.7-0.1-1.1-0.2s-0.6-0.3-0.9-0.6c-0.3-0.2-0.5-0.5-0.6-0.9C325.3,296.8,325.2,296.4,325.2,295.9
		z M326.4,295.8c0,0.7,0.2,1.2,0.5,1.5s0.8,0.5,1.4,0.5c0.5,0,0.8-0.1,1.2-0.2c0.3-0.1,0.6-0.3,0.7-0.6c0-0.1,0-0.2,0-0.3
		c0-0.1,0-0.2,0-0.3c0-0.3,0-0.7-0.1-1c-0.1-0.3-0.2-0.6-0.4-0.8c-0.2-0.2-0.4-0.4-0.6-0.6c-0.3-0.1-0.6-0.2-0.9-0.2
		c-0.6,0-1,0.2-1.3,0.5S326.4,295.2,326.4,295.8z"/>
	<path fill="#FFFFFF" d="M332.8,302.1c0-0.3,0.1-0.5,0.2-0.6c0.1-0.1,0.3-0.2,0.6-0.2c0.3,0,0.5,0.1,0.6,0.2
		c0.1,0.1,0.2,0.3,0.2,0.6c0,0.2-0.1,0.4-0.2,0.6c-0.1,0.1-0.3,0.2-0.6,0.2c-0.2,0-0.4-0.1-0.6-0.2
		C332.9,302.6,332.8,302.4,332.8,302.1z"/>
	<path fill="#FFFFFF" d="M338.1,302c0.6,0,1.2-0.2,1.6-0.6s0.6-0.9,0.6-1.6c0-0.7-0.2-1.2-0.6-1.5c-0.4-0.3-1-0.5-1.7-0.5l-1.2,0.1
		V293h4.4v1h-3.3v2.8l0.6,0c0.9,0,1.7,0.3,2.2,0.8c0.5,0.5,0.8,1.2,0.8,2.2c0,0.5-0.1,1-0.3,1.4c-0.2,0.4-0.4,0.7-0.7,1
		c-0.3,0.3-0.7,0.5-1.1,0.6c-0.4,0.1-0.8,0.2-1.3,0.2c-0.4,0-0.8,0-1.1-0.1s-0.6-0.1-0.8-0.2l0.3-1c0.2,0.1,0.4,0.1,0.7,0.2
		C337.4,301.9,337.8,302,338.1,302z"/>
</g>
<g>
	<path fill="#FFFFFF" d="M248,343c0.6,0,1.2-0.2,1.6-0.6s0.6-0.9,0.6-1.6c0-0.7-0.2-1.2-0.6-1.5c-0.4-0.3-1-0.5-1.7-0.5l-1.2,0.1
		V334h4.4v1h-3.3v2.8l0.6,0c0.9,0,1.7,0.3,2.2,0.8c0.5,0.5,0.8,1.2,0.8,2.2c0,0.5-0.1,1-0.3,1.4s-0.4,0.7-0.7,1
		c-0.3,0.3-0.7,0.5-1.1,0.6s-0.8,0.2-1.3,0.2c-0.4,0-0.8,0-1.1-0.1c-0.3,0-0.6-0.1-0.8-0.2l0.3-1c0.2,0.1,0.4,0.1,0.7,0.2
		C247.3,342.9,247.6,343,248,343z"/>
	<path fill="#FFFFFF" d="M253.3,343.1c0-0.3,0.1-0.5,0.2-0.6c0.1-0.1,0.3-0.2,0.6-0.2c0.3,0,0.5,0.1,0.6,0.2
		c0.1,0.1,0.2,0.3,0.2,0.6c0,0.2-0.1,0.4-0.2,0.6c-0.1,0.1-0.3,0.2-0.6,0.2c-0.2,0-0.4-0.1-0.6-0.2
		C253.4,343.6,253.3,343.4,253.3,343.1z"/>
	<path fill="#FFFFFF" d="M262.5,340.8c0,0.4-0.1,0.8-0.2,1.2c-0.1,0.4-0.3,0.7-0.6,1c-0.3,0.3-0.6,0.5-0.9,0.7s-0.8,0.2-1.3,0.2
		c-0.5,0-0.9-0.1-1.3-0.2c-0.4-0.1-0.7-0.4-1-0.7s-0.5-0.7-0.6-1.1c-0.1-0.4-0.2-0.9-0.2-1.5c0-0.9,0.1-1.8,0.4-2.6
		c0.2-0.8,0.6-1.5,1-2s0.9-1,1.5-1.4s1.2-0.6,1.9-0.7l0.2,0.9c-0.5,0.1-1,0.3-1.4,0.5c-0.4,0.3-0.8,0.6-1.1,1
		c-0.3,0.4-0.6,0.8-0.8,1.3c-0.2,0.5-0.3,1-0.4,1.5c0.1-0.3,0.4-0.5,0.8-0.7c0.4-0.2,0.8-0.3,1.3-0.3c0.9,0,1.6,0.3,2.1,0.8
		C262.3,339.2,262.5,339.9,262.5,340.8z M261.3,340.9c0-0.7-0.2-1.2-0.5-1.5c-0.3-0.3-0.8-0.5-1.4-0.5c-0.5,0-0.9,0.1-1.2,0.3
		c-0.3,0.2-0.6,0.5-0.7,0.8c0,0.1,0,0.2,0,0.3s0,0.2,0,0.3c0,0.3,0,0.6,0.1,0.9s0.2,0.5,0.4,0.7s0.4,0.4,0.6,0.5
		c0.2,0.1,0.5,0.2,0.9,0.2c0.3,0,0.5-0.1,0.7-0.2c0.2-0.1,0.4-0.2,0.6-0.4c0.2-0.2,0.3-0.4,0.4-0.6S261.3,341.2,261.3,340.9z"/>
</g>
<g>
	<path fill="#FFFFFF" d="M405,314.3c0-0.6,0.2-1.1,0.5-1.5c0.3-0.4,0.8-0.8,1.4-1.2c-0.2-0.1-0.5-0.3-0.7-0.4
		c-0.2-0.2-0.4-0.3-0.5-0.5c-0.2-0.2-0.3-0.4-0.4-0.7c-0.1-0.2-0.1-0.5-0.1-0.8c0-0.4,0.1-0.7,0.2-1s0.3-0.6,0.5-0.8
		s0.5-0.4,0.9-0.5s0.7-0.2,1.1-0.2c0.4,0,0.7,0.1,1.1,0.2c0.3,0.1,0.6,0.3,0.8,0.5c0.2,0.2,0.4,0.4,0.5,0.7c0.1,0.3,0.2,0.6,0.2,0.9
		c0,0.5-0.1,1-0.4,1.4c-0.2,0.4-0.6,0.8-1.2,1.2c0.2,0.1,0.5,0.3,0.7,0.5c0.2,0.2,0.4,0.4,0.6,0.6c0.2,0.2,0.3,0.4,0.4,0.7
		c0.1,0.3,0.1,0.5,0.1,0.9c0,0.4-0.1,0.8-0.2,1.1c-0.1,0.3-0.3,0.6-0.6,0.9c-0.3,0.2-0.6,0.4-0.9,0.6c-0.4,0.1-0.8,0.2-1.2,0.2
		c-0.4,0-0.8-0.1-1.2-0.2c-0.3-0.1-0.6-0.3-0.9-0.5c-0.2-0.2-0.4-0.5-0.5-0.8C405.1,315,405,314.6,405,314.3z M409.6,314.1
		c0-0.3-0.1-0.5-0.2-0.7s-0.3-0.4-0.4-0.6c-0.2-0.2-0.4-0.3-0.6-0.5c-0.2-0.1-0.5-0.3-0.7-0.4c-0.6,0.3-1,0.7-1.2,1.1
		c-0.2,0.4-0.4,0.8-0.4,1.1c0,0.2,0,0.4,0.1,0.6c0.1,0.2,0.2,0.4,0.3,0.5s0.3,0.3,0.6,0.4c0.2,0.1,0.5,0.1,0.8,0.1
		c0.2,0,0.5,0,0.7-0.1c0.2-0.1,0.4-0.2,0.6-0.3c0.2-0.1,0.3-0.3,0.4-0.5C409.6,314.7,409.6,314.4,409.6,314.1z M406.3,309.1
		c0,0.3,0.1,0.5,0.2,0.7c0.1,0.2,0.2,0.4,0.4,0.5c0.2,0.2,0.4,0.3,0.6,0.4c0.2,0.1,0.5,0.3,0.7,0.4c0.4-0.3,0.7-0.6,0.9-1
		c0.2-0.3,0.3-0.7,0.3-1c0-0.5-0.1-0.8-0.4-1.1s-0.6-0.4-1.1-0.4c-0.3,0-0.5,0-0.7,0.1c-0.2,0.1-0.4,0.2-0.5,0.3
		c-0.1,0.1-0.2,0.3-0.3,0.5S406.3,308.9,406.3,309.1z"/>
	<path fill="#FFFFFF" d="M412.4,316c0-0.3,0.1-0.5,0.2-0.6c0.1-0.1,0.3-0.2,0.6-0.2c0.3,0,0.5,0.1,0.6,0.2c0.1,0.1,0.2,0.3,0.2,0.6
		c0,0.2-0.1,0.4-0.2,0.6c-0.1,0.1-0.3,0.2-0.6,0.2c-0.2,0-0.4-0.1-0.6-0.2C412.4,316.4,412.4,316.2,412.4,316z"/>
	<path fill="#FFFFFF" d="M420.9,309c0,0.5-0.1,1-0.3,1.5c-0.2,0.5-0.4,1-0.7,1.6c-0.3,0.5-0.6,1-1,1.5c-0.4,0.5-0.7,1-1.1,1.4
		l-0.7,0.6v0.1l0.9-0.2h3.1v1h-5.6v-0.4c0.2-0.2,0.5-0.5,0.7-0.8c0.3-0.3,0.6-0.7,0.9-1.1c0.3-0.4,0.6-0.8,0.9-1.2
		c0.3-0.4,0.6-0.9,0.8-1.3c0.2-0.4,0.4-0.9,0.6-1.3c0.1-0.4,0.2-0.9,0.2-1.2c0-0.5-0.1-0.8-0.4-1.1c-0.3-0.3-0.7-0.5-1.2-0.5
		c-0.4,0-0.7,0.1-1,0.2c-0.3,0.1-0.6,0.3-0.9,0.5l-0.5-0.8c0.3-0.3,0.7-0.5,1.2-0.7c0.4-0.2,0.9-0.2,1.4-0.2c0.4,0,0.8,0.1,1.1,0.2
		c0.3,0.1,0.6,0.3,0.8,0.5s0.4,0.5,0.5,0.8S420.9,308.7,420.9,309z"/>
</g>
<g>
	<path d="M35.7,386.1c0-1.2,0.2-2.1,0.6-2.7c0.4-0.6,1-0.9,1.7-0.9c0.8,0,1.4,0.3,1.8,0.9c0.4,0.6,0.5,1.5,0.5,2.7
		c0,1.2-0.2,2.1-0.6,2.7s-1,0.9-1.7,0.9c-0.8,0-1.4-0.3-1.7-1C35.9,388.1,35.7,387.2,35.7,386.1z M36.6,386.1c0,0.4,0,0.8,0.1,1.2
		c0.1,0.4,0.1,0.7,0.3,0.9c0.1,0.3,0.3,0.5,0.5,0.6c0.2,0.1,0.4,0.2,0.7,0.2c0.5,0,0.9-0.2,1.1-0.7s0.4-1.2,0.4-2.2
		c0-0.4,0-0.8-0.1-1.2c-0.1-0.4-0.1-0.7-0.2-0.9c-0.1-0.3-0.3-0.5-0.5-0.6c-0.2-0.1-0.4-0.2-0.7-0.2c-0.5,0-0.9,0.2-1.1,0.7
		C36.7,384.3,36.6,385.1,36.6,386.1z"/>
</g>
<g>
	<path d="M30.8,285.6h1.4v-4.8l0.1-0.6l-0.4,0.5l-1.1,0.8l-0.4-0.5l2.2-1.7H33v6.4h1.4v0.7h-3.5V285.6z"/>
	<path d="M35.6,282.8c0-1.2,0.2-2.1,0.6-2.7c0.4-0.6,1-0.9,1.7-0.9c0.8,0,1.4,0.3,1.8,0.9c0.4,0.6,0.5,1.5,0.5,2.7
		c0,1.2-0.2,2.1-0.6,2.7s-1,0.9-1.7,0.9c-0.8,0-1.4-0.3-1.7-1C35.8,284.8,35.6,283.9,35.6,282.8z M36.5,282.8c0,0.4,0,0.8,0.1,1.2
		c0.1,0.4,0.1,0.7,0.3,0.9c0.1,0.3,0.3,0.5,0.5,0.6c0.2,0.1,0.4,0.2,0.7,0.2c0.5,0,0.9-0.2,1.1-0.7s0.4-1.2,0.4-2.2
		c0-0.4,0-0.8-0.1-1.2c-0.1-0.4-0.1-0.7-0.2-0.9c-0.1-0.3-0.3-0.5-0.5-0.6c-0.2-0.1-0.4-0.2-0.7-0.2c-0.5,0-0.9,0.2-1.1,0.7
		C36.6,281.1,36.5,281.8,36.5,282.8z"/>
</g>
<g>
	<path d="M34.2,177.6c0,0.4-0.1,0.7-0.2,1.1c-0.1,0.4-0.3,0.7-0.5,1.1s-0.4,0.7-0.7,1.1c-0.3,0.4-0.5,0.7-0.8,1l-0.5,0.4v0l0.6-0.1
		h2.2v0.7h-4v-0.3c0.1-0.2,0.3-0.3,0.5-0.6s0.4-0.5,0.6-0.8c0.2-0.3,0.4-0.6,0.7-0.9c0.2-0.3,0.4-0.6,0.6-0.9s0.3-0.6,0.4-1
		c0.1-0.3,0.2-0.6,0.2-0.9c0-0.3-0.1-0.6-0.3-0.8c-0.2-0.2-0.5-0.3-0.9-0.3c-0.3,0-0.5,0.1-0.7,0.2c-0.2,0.1-0.4,0.2-0.6,0.4
		l-0.3-0.6c0.2-0.2,0.5-0.4,0.8-0.5c0.3-0.1,0.7-0.2,1-0.2c0.3,0,0.5,0,0.8,0.1c0.2,0.1,0.4,0.2,0.6,0.4c0.2,0.2,0.3,0.3,0.3,0.5
		C34.2,177.2,34.2,177.4,34.2,177.6z"/>
	<path d="M35.6,179.5c0-1.2,0.2-2.1,0.6-2.7c0.4-0.6,1-0.9,1.7-0.9c0.8,0,1.4,0.3,1.8,0.9c0.4,0.6,0.5,1.5,0.5,2.7
		c0,1.2-0.2,2.1-0.6,2.7c-0.4,0.6-1,0.9-1.7,0.9c-0.8,0-1.4-0.3-1.7-1S35.6,180.7,35.6,179.5z M36.5,179.5c0,0.4,0,0.8,0.1,1.2
		c0.1,0.4,0.1,0.7,0.3,0.9c0.1,0.3,0.3,0.5,0.5,0.6c0.2,0.1,0.4,0.2,0.7,0.2c0.5,0,0.9-0.2,1.1-0.7c0.2-0.5,0.4-1.2,0.4-2.2
		c0-0.4,0-0.8-0.1-1.2c-0.1-0.4-0.1-0.7-0.2-0.9c-0.1-0.3-0.3-0.5-0.5-0.6c-0.2-0.1-0.4-0.2-0.7-0.2c-0.5,0-0.9,0.2-1.1,0.7
		C36.6,177.8,36.5,178.5,36.5,179.5z"/>
</g>
<g>
	<path d="M32.1,79.2c0.2,0,0.4,0,0.6-0.1c0.2-0.1,0.4-0.2,0.5-0.3c0.1-0.1,0.2-0.3,0.3-0.5c0.1-0.2,0.1-0.4,0.1-0.6
		c0-0.5-0.1-0.8-0.4-1c-0.3-0.2-0.7-0.3-1.1-0.3h-0.7v-0.3l1.4-2.2l0.5-0.4l-0.6,0.1h-2v-0.7h3.6v0.3l-1.6,2.4l-0.4,0.3v0l0.3-0.1
		c0.3,0,0.5,0.1,0.7,0.1c0.2,0.1,0.4,0.2,0.6,0.4s0.3,0.4,0.4,0.6c0.1,0.2,0.1,0.5,0.1,0.8c0,0.4-0.1,0.7-0.2,1
		c-0.1,0.3-0.3,0.5-0.5,0.7c-0.2,0.2-0.5,0.3-0.8,0.4c-0.3,0.1-0.6,0.1-0.9,0.1c-0.3,0-0.6,0-0.8-0.1c-0.2,0-0.4-0.1-0.6-0.2
		l0.2-0.7c0.2,0.1,0.3,0.1,0.5,0.2C31.6,79.2,31.8,79.2,32.1,79.2z"/>
	<path d="M35.6,76.3c0-1.2,0.2-2.1,0.6-2.7c0.4-0.6,1-0.9,1.7-0.9c0.8,0,1.4,0.3,1.8,0.9c0.4,0.6,0.5,1.5,0.5,2.7
		c0,1.2-0.2,2.1-0.6,2.7c-0.4,0.6-1,0.9-1.7,0.9c-0.8,0-1.4-0.3-1.7-1S35.6,77.4,35.6,76.3z M36.5,76.3c0,0.4,0,0.8,0.1,1.2
		c0.1,0.4,0.1,0.7,0.3,0.9c0.1,0.3,0.3,0.5,0.5,0.6c0.2,0.1,0.4,0.2,0.7,0.2c0.5,0,0.9-0.2,1.1-0.7c0.2-0.5,0.4-1.2,0.4-2.2
		c0-0.4,0-0.8-0.1-1.2c-0.1-0.4-0.1-0.7-0.2-0.9c-0.1-0.3-0.3-0.5-0.5-0.6c-0.2-0.1-0.4-0.2-0.7-0.2c-0.5,0-0.9,0.2-1.1,0.7
		C36.6,74.5,36.5,75.3,36.5,76.3z"/>
</g>
<line fill="#3B6E8F" stroke="#3B6E8F" stroke-miterlimit="10" x1="43.7" y1="386.1" x2="48" y2="386.1"/>
<line fill="#3B6E8F" stroke="#3B6E8F" stroke-miterlimit="10" x1="43.7" y1="282.8" x2="48" y2="282.8"/>
<line fill="#3B6E8F" stroke="#3B6E8F" stroke-miterlimit="10" x1="43.7" y1="179.6" x2="48" y2="179.6"/>
<line fill="#3B6E8F" stroke="#3B6E8F" stroke-miterlimit="10" x1="43.7" y1="76.3" x2="48" y2="76.3"/>
<line fill="#3B6E8F" stroke="#3B6E8F" stroke-miterlimit="10" x1="94.2" y1="390.3" x2="94.2" y2="386.1"/>
<line fill="#3B6E8F" stroke="#3B6E8F" stroke-miterlimit="10" x1="173.7" y1="390.3" x2="173.7" y2="386.1"/>
<line fill="#3B6E8F" stroke="#3B6E8F" stroke-miterlimit="10" x1="253.2" y1="390.3" x2="253.2" y2="386.1"/>
<line fill="#3B6E8F" stroke="#3B6E8F" stroke-miterlimit="10" x1="332.8" y1="390.3" x2="332.8" y2="386.1"/>
<line fill="#3B6E8F" stroke="#3B6E8F" stroke-miterlimit="10" x1="412.3" y1="390.3" x2="412.3" y2="386.1"/>
<g>
	<path d="M95.8,399.5l-2.3-1.1l-1.5,1.5l-0.8-0.4l5.4-5.3l0.3,0.2l-0.6,7.6l-0.8-0.4L95.8,399.5z M94.1,397.9l1.9,0.9l0.2-2.3
		l0.2-1.1l0,0l-0.7,0.9L94.1,397.9z"/>
	<path d="M99.9,403.5l1.2-2.6c0.1-0.2,0.2-0.5,0.3-0.6c0.1-0.2,0.1-0.4,0.1-0.5c0-0.1,0-0.3-0.1-0.4c-0.1-0.1-0.2-0.2-0.4-0.3
		c-0.3-0.1-0.5-0.2-0.8-0.1c-0.3,0.1-0.5,0.2-0.7,0.5l-1.5,3.1l-0.7-0.3l2.1-4.5l0.5,0.2l-0.1,0.6l0,0c0.3-0.1,0.5-0.2,0.8-0.2
		s0.6,0,0.9,0.2c0.3,0.1,0.5,0.3,0.6,0.5c0.1,0.2,0.2,0.5,0.2,0.8c0.2-0.2,0.5-0.3,0.8-0.3c0.3,0,0.6,0,0.9,0.2
		c0.3,0.1,0.5,0.2,0.6,0.4s0.2,0.3,0.3,0.5c0,0.2,0,0.4,0,0.7c-0.1,0.3-0.2,0.6-0.4,1l-1.3,2.7l-0.7-0.3l1.3-2.7
		c0.1-0.2,0.2-0.4,0.2-0.6s0.1-0.3,0.1-0.5c0-0.1-0.1-0.3-0.2-0.4c-0.1-0.1-0.2-0.2-0.4-0.3c-0.3-0.1-0.6-0.2-0.8-0.1
		s-0.5,0.3-0.7,0.6l-1.4,3L99.9,403.5z"/>
	<path d="M108.1,406.9c-0.2,0.1-0.5,0.1-0.8,0c-0.3,0-0.6-0.1-0.9-0.3c-0.3-0.2-0.6-0.4-0.8-0.6c-0.2-0.2-0.3-0.5-0.4-0.8
		c-0.1-0.3-0.1-0.6,0-0.9c0.1-0.3,0.2-0.7,0.3-1c0.4-0.8,0.8-1.3,1.3-1.5c0.5-0.2,1.1-0.2,1.8,0.1c0.2,0.1,0.4,0.2,0.6,0.4
		c0.2,0.1,0.3,0.3,0.4,0.5c0.1,0.2,0.2,0.4,0.1,0.7c0,0.3-0.1,0.6-0.3,1c-0.1,0.2-0.2,0.4-0.4,0.6l-2.9-1.4
		c-0.1,0.3-0.2,0.5-0.2,0.7c0,0.2,0,0.4,0,0.6c0,0.2,0.1,0.4,0.3,0.5c0.1,0.2,0.4,0.3,0.6,0.4c0.2,0.1,0.4,0.2,0.7,0.2
		c0.2,0,0.4,0,0.6,0L108.1,406.9z M108.2,402.5c-0.4-0.2-0.7-0.2-1-0.1c-0.3,0.1-0.6,0.3-0.8,0.8l2.2,1c0.2-0.5,0.3-0.8,0.2-1.1
		S108.5,402.7,108.2,402.5z"/>
	<path d="M113.1,405c-0.2-0.1-0.3-0.3-0.5-0.3c-0.3-0.1-0.5-0.1-0.7-0.1c-0.2,0.1-0.4,0.2-0.5,0.4l-1.5,3.2l-0.7-0.3l2.1-4.5
		l0.5,0.2l-0.1,0.6l0,0c0.2-0.2,0.4-0.2,0.6-0.3c0.2,0,0.4,0,0.7,0.1c0.2,0.1,0.4,0.2,0.5,0.4L113.1,405z"/>
	<path d="M114.6,404.8l0.7,0.3l-2.1,4.5l-0.7-0.3L114.6,404.8z M115,403.4c0.1-0.1,0.2-0.2,0.3-0.3c0.1-0.1,0.3-0.1,0.4,0
		c0.1,0.1,0.2,0.2,0.3,0.3c0.1,0.1,0.1,0.3,0,0.4c-0.1,0.1-0.2,0.2-0.3,0.3c-0.1,0-0.3,0-0.4,0c-0.1-0.1-0.2-0.2-0.3-0.3
		C115,403.7,115,403.5,115,403.4z"/>
	<path d="M117.9,411.6c-0.2,0-0.5,0-0.8,0c-0.3,0-0.6-0.1-0.8-0.3c-0.4-0.2-0.6-0.4-0.8-0.6c-0.2-0.2-0.3-0.5-0.4-0.8
		c-0.1-0.3-0.1-0.6,0-0.9c0.1-0.3,0.2-0.7,0.4-1c0.4-0.8,0.8-1.3,1.3-1.5s1.1-0.2,1.7,0.1c0.3,0.1,0.5,0.3,0.7,0.4
		c0.2,0.1,0.3,0.3,0.5,0.5l-0.5,0.5c-0.1-0.1-0.2-0.3-0.4-0.4c-0.1-0.1-0.3-0.2-0.5-0.3c-0.9-0.4-1.6,0-2.1,1.1
		c-0.1,0.2-0.2,0.5-0.2,0.7s-0.1,0.4,0,0.7c0,0.2,0.1,0.4,0.2,0.6c0.1,0.2,0.3,0.3,0.6,0.4c0.2,0.1,0.4,0.2,0.6,0.2
		c0.2,0,0.4,0,0.5,0L117.9,411.6z"/>
	<path d="M120.7,408.1c0.3,0,0.6,0,0.9,0.1c0.3,0.1,0.7,0.2,1,0.3c0.3,0.1,0.5,0.3,0.7,0.5c0.2,0.2,0.2,0.4,0.3,0.5
		c0,0.2,0,0.4,0,0.5c0,0.2-0.1,0.3-0.2,0.5c-0.2,0.4-0.3,0.7-0.5,1s-0.3,0.7-0.5,1c-0.1,0.2-0.2,0.4-0.3,0.6
		c-0.1,0.2-0.1,0.4-0.2,0.6l-0.5-0.2l0.1-0.7l0,0c-0.1,0.1-0.2,0.1-0.3,0.2c-0.1,0-0.3,0.1-0.4,0.1c-0.1,0-0.3,0-0.5,0
		c-0.2,0-0.4-0.1-0.5-0.2c-0.2-0.1-0.4-0.2-0.5-0.3c-0.1-0.1-0.2-0.3-0.3-0.5c-0.1-0.2-0.1-0.3-0.1-0.5c0-0.2,0.1-0.4,0.1-0.6
		c0.1-0.3,0.3-0.5,0.5-0.6c0.2-0.1,0.4-0.2,0.7-0.2c0.2,0,0.5,0,0.8,0.1c0.3,0.1,0.6,0.2,0.9,0.4c0.1,0,0.2,0.1,0.2,0.1
		c0.1,0,0.2,0.1,0.2,0.1c0.1-0.2,0.2-0.3,0.3-0.5c0.2-0.3,0.2-0.6,0.1-0.8c-0.1-0.2-0.3-0.4-0.6-0.5c-0.1,0-0.2-0.1-0.3-0.1
		c-0.1,0-0.3-0.1-0.4-0.1c-0.1,0-0.3-0.1-0.4-0.1c-0.1,0-0.2,0-0.4,0L120.7,408.1z M120.3,412.3c0.2,0.1,0.3,0.1,0.5,0.1
		c0.2,0,0.3,0,0.4,0c0.1,0,0.2-0.1,0.3-0.1s0.2-0.1,0.3-0.2l0.4-0.8c-0.1,0-0.2-0.1-0.3-0.1s-0.2-0.1-0.3-0.1
		c-0.2-0.1-0.4-0.2-0.6-0.2c-0.2-0.1-0.4-0.1-0.5-0.1c-0.2,0-0.3,0-0.4,0.1c-0.1,0.1-0.2,0.2-0.3,0.3c-0.1,0.2-0.1,0.4,0,0.6
		C119.9,412.1,120,412.2,120.3,412.3z"/>
	<path d="M126.2,415.8l1.2-2.6c0.2-0.5,0.3-0.9,0.3-1.2c0-0.3-0.2-0.5-0.6-0.7c-0.3-0.1-0.6-0.2-0.9-0.1c-0.3,0.1-0.5,0.2-0.7,0.4
		l-1.4,3.1l-0.7-0.3l2.1-4.5l0.5,0.2l-0.1,0.6l0,0c0.2-0.1,0.5-0.2,0.8-0.2c0.3,0,0.6,0.1,1,0.2c0.2,0.1,0.5,0.2,0.6,0.4
		s0.3,0.3,0.3,0.5c0.1,0.2,0.1,0.4,0,0.7c-0.1,0.3-0.2,0.6-0.3,1l-1.3,2.7L126.2,415.8z"/>
	<path d="M133.9,411.7l0.8,0.4l-3,6.3l-0.8-0.4L133.9,411.7z"/>
	<path d="M136.2,420.5l1.2-2.6c0.2-0.5,0.3-0.9,0.3-1.2c0-0.3-0.2-0.5-0.6-0.7c-0.3-0.1-0.6-0.2-0.9-0.1c-0.3,0.1-0.5,0.2-0.7,0.4
		l-1.4,3.1l-0.7-0.3l2.1-4.5l0.5,0.2l-0.1,0.6l0,0c0.2-0.1,0.5-0.2,0.8-0.2c0.3,0,0.6,0.1,1,0.2c0.2,0.1,0.5,0.2,0.6,0.4
		c0.2,0.1,0.3,0.3,0.3,0.5c0.1,0.2,0.1,0.4,0,0.7c-0.1,0.3-0.2,0.6-0.3,1l-1.3,2.7L136.2,420.5z"/>
	<path d="M142.5,421.5c-0.1,0.3-0.3,0.6-0.4,0.8c-0.1,0.3-0.2,0.5-0.3,0.8l-0.5-0.2l0.1-0.7l0,0c-0.2,0.2-0.5,0.2-0.8,0.3
		c-0.3,0-0.6,0-0.9-0.2c-0.6-0.3-1-0.7-1.1-1.2c-0.1-0.5,0-1.2,0.4-2c0.4-0.8,0.8-1.3,1.4-1.5c0.6-0.2,1.1-0.2,1.8,0.1
		c0.2,0.1,0.4,0.2,0.5,0.3c0.1,0.1,0.2,0.2,0.4,0.3l0.9-1.9l0.7,0.3L142.5,421.5z M140.2,421.7c0.3,0.1,0.6,0.2,0.8,0.1
		c0.3-0.1,0.5-0.3,0.7-0.6l1-2.2c-0.1-0.1-0.2-0.3-0.3-0.4c-0.1-0.1-0.3-0.2-0.5-0.3c-0.4-0.2-0.8-0.2-1.2,0c-0.4,0.2-0.7,0.5-1,1.2
		c-0.1,0.2-0.2,0.5-0.3,0.7c-0.1,0.2-0.1,0.4-0.1,0.6c0,0.2,0.1,0.4,0.2,0.5C139.8,421.4,139.9,421.6,140.2,421.7z"/>
	<path d="M145.4,419.2l0.7,0.3l-2.1,4.5l-0.7-0.3L145.4,419.2z M145.9,417.8c0.1-0.1,0.2-0.2,0.3-0.3c0.1-0.1,0.3-0.1,0.4,0
		c0.1,0.1,0.2,0.2,0.3,0.3c0.1,0.1,0.1,0.3,0,0.4s-0.2,0.2-0.3,0.3c-0.1,0-0.3,0-0.4,0s-0.2-0.2-0.3-0.3
		C145.8,418.1,145.8,417.9,145.9,417.8z"/>
	<path d="M147.4,420.6c0.3,0,0.6,0,0.9,0.1c0.3,0.1,0.7,0.2,1,0.3c0.3,0.1,0.5,0.3,0.7,0.5c0.2,0.2,0.2,0.4,0.3,0.5
		c0,0.2,0,0.4,0,0.5s-0.1,0.3-0.2,0.5c-0.2,0.4-0.3,0.7-0.5,1c-0.2,0.3-0.3,0.7-0.5,1c-0.1,0.2-0.2,0.4-0.3,0.6
		c-0.1,0.2-0.1,0.4-0.2,0.6l-0.5-0.2l0.1-0.7l0,0c-0.1,0.1-0.2,0.1-0.3,0.2c-0.1,0-0.3,0.1-0.4,0.1s-0.3,0-0.5,0s-0.4-0.1-0.5-0.2
		s-0.4-0.2-0.5-0.3c-0.1-0.1-0.2-0.3-0.3-0.5c-0.1-0.2-0.1-0.3-0.1-0.5s0.1-0.4,0.1-0.6c0.1-0.3,0.3-0.5,0.5-0.6
		c0.2-0.1,0.4-0.2,0.7-0.2c0.2,0,0.5,0,0.8,0.1c0.3,0.1,0.6,0.2,0.9,0.4c0.1,0,0.2,0.1,0.2,0.1s0.2,0.1,0.2,0.1
		c0.1-0.2,0.2-0.3,0.3-0.5c0.2-0.3,0.2-0.6,0.1-0.8c-0.1-0.2-0.3-0.4-0.6-0.5c-0.1,0-0.2-0.1-0.3-0.1c-0.1,0-0.3-0.1-0.4-0.1
		c-0.1,0-0.3-0.1-0.4-0.1c-0.1,0-0.2,0-0.4,0L147.4,420.6z M147,424.8c0.2,0.1,0.3,0.1,0.5,0.1c0.2,0,0.3,0,0.4,0
		c0.1,0,0.2-0.1,0.3-0.1c0.1-0.1,0.2-0.1,0.3-0.2l0.4-0.8c-0.1,0-0.2-0.1-0.3-0.1c-0.1,0-0.2-0.1-0.3-0.1c-0.2-0.1-0.4-0.2-0.6-0.2
		c-0.2-0.1-0.4-0.1-0.5-0.1c-0.2,0-0.3,0-0.4,0.1c-0.1,0.1-0.2,0.2-0.3,0.3c-0.1,0.2-0.1,0.4,0,0.6
		C146.6,424.6,146.8,424.7,147,424.8z"/>
	<path d="M153,428.3l1.2-2.6c0.2-0.5,0.3-0.9,0.3-1.2s-0.2-0.5-0.6-0.7c-0.3-0.2-0.6-0.2-0.9-0.1c-0.3,0.1-0.5,0.2-0.7,0.4l-1.4,3.1
		l-0.7-0.3l2.1-4.5l0.5,0.2l-0.1,0.6l0,0c0.2-0.1,0.5-0.2,0.8-0.2s0.6,0.1,1,0.2c0.2,0.1,0.5,0.2,0.6,0.4c0.2,0.1,0.3,0.3,0.3,0.5
		c0.1,0.2,0.1,0.4,0,0.7s-0.2,0.6-0.3,1l-1.3,2.7L153,428.3z"/>
	<path d="M160.3,423.9l0.5,0.5l-6.8,5.9l-0.5-0.5L160.3,423.9z"/>
	<path d="M162.1,430.4l-2.3-1.1l-1.5,1.5l-0.8-0.4l5.4-5.3l0.3,0.2l-0.6,7.6l-0.8-0.4L162.1,430.4z M160.3,428.8l1.9,0.9l0.2-2.3
		l0.2-1.1l0,0l-0.7,0.9L160.3,428.8z"/>
	<path d="M164.8,432.5c-0.1,0.2-0.1,0.4-0.1,0.5c0,0.1,0.1,0.2,0.2,0.3c0.1,0,0.2,0.1,0.3,0.1c0.1,0,0.2,0.1,0.3,0.1l-0.2,0.6
		c-0.1,0-0.3,0-0.5-0.1c-0.2,0-0.3-0.1-0.5-0.2c-0.3-0.1-0.5-0.3-0.6-0.5c-0.1-0.2-0.1-0.5,0.1-0.9l2.5-5.4l0.7,0.3L164.8,432.5z"/>
	<path d="M168,430.2c0.3,0,0.6,0,0.9,0.1c0.3,0.1,0.7,0.2,1,0.3c0.3,0.1,0.5,0.3,0.7,0.5c0.2,0.2,0.2,0.4,0.3,0.5c0,0.2,0,0.4,0,0.5
		c0,0.2-0.1,0.3-0.2,0.5c-0.2,0.4-0.3,0.7-0.5,1c-0.2,0.3-0.3,0.7-0.5,1c-0.1,0.2-0.2,0.4-0.3,0.6c-0.1,0.2-0.1,0.4-0.2,0.6
		l-0.5-0.2l0.1-0.7l0,0c-0.1,0.1-0.2,0.1-0.3,0.2c-0.1,0-0.3,0.1-0.4,0.1s-0.3,0-0.5,0c-0.2,0-0.4-0.1-0.5-0.2s-0.4-0.2-0.5-0.3
		c-0.1-0.1-0.2-0.3-0.3-0.5c-0.1-0.2-0.1-0.3-0.1-0.5s0.1-0.4,0.1-0.6c0.1-0.3,0.3-0.5,0.5-0.6c0.2-0.1,0.4-0.2,0.7-0.2
		c0.2,0,0.5,0,0.8,0.1c0.3,0.1,0.6,0.2,0.9,0.4c0.1,0,0.2,0.1,0.2,0.1s0.2,0.1,0.2,0.1c0.1-0.2,0.2-0.3,0.3-0.5
		c0.2-0.3,0.2-0.6,0.1-0.8c-0.1-0.2-0.3-0.4-0.6-0.5c-0.1,0-0.2-0.1-0.3-0.1c-0.1,0-0.3-0.1-0.4-0.1s-0.3-0.1-0.4-0.1s-0.2,0-0.4,0
		L168,430.2z M167.6,434.5c0.2,0.1,0.3,0.1,0.5,0.1c0.2,0,0.3,0,0.4,0c0.1,0,0.2-0.1,0.3-0.1c0.1-0.1,0.2-0.1,0.3-0.2l0.4-0.8
		c-0.1,0-0.2-0.1-0.3-0.1c-0.1,0-0.2-0.1-0.3-0.1c-0.2-0.1-0.4-0.2-0.6-0.2c-0.2-0.1-0.4-0.1-0.5-0.1c-0.2,0-0.3,0-0.4,0.1
		c-0.1,0.1-0.2,0.2-0.3,0.3c-0.1,0.2-0.1,0.4,0,0.6C167.2,434.2,167.4,434.4,167.6,434.5z"/>
	<path d="M173.2,436.3c0.1-0.2,0.1-0.3,0-0.5c-0.1-0.2-0.2-0.3-0.3-0.4c-0.1-0.1-0.3-0.3-0.4-0.4c-0.2-0.2-0.3-0.3-0.4-0.5
		c-0.1-0.2-0.2-0.4-0.2-0.6c0-0.2,0-0.4,0.1-0.7c0.2-0.4,0.5-0.7,0.8-0.8c0.3-0.1,0.7,0,1.2,0.2c0.3,0.2,0.6,0.3,0.8,0.5
		c0.2,0.2,0.4,0.3,0.5,0.5l-0.5,0.5c-0.1-0.1-0.2-0.3-0.4-0.4c-0.2-0.1-0.4-0.3-0.6-0.4c-0.3-0.1-0.5-0.2-0.6-0.1
		c-0.2,0-0.3,0.2-0.4,0.4c-0.1,0.2-0.1,0.3,0,0.4c0.1,0.1,0.2,0.3,0.3,0.4c0.1,0.1,0.3,0.3,0.4,0.5s0.3,0.3,0.4,0.5
		c0.1,0.2,0.2,0.4,0.2,0.6s0,0.5-0.1,0.7c-0.1,0.2-0.2,0.4-0.3,0.5c-0.1,0.1-0.3,0.2-0.5,0.3c-0.2,0.1-0.4,0.1-0.6,0.1
		c-0.2,0-0.5-0.1-0.7-0.2c-0.3-0.2-0.6-0.3-0.8-0.5c-0.2-0.2-0.4-0.4-0.5-0.5l0.5-0.5c0.1,0.1,0.2,0.3,0.4,0.5
		c0.2,0.2,0.4,0.3,0.6,0.4c0.3,0.1,0.5,0.2,0.7,0.1C172.9,436.7,173.1,436.5,173.2,436.3z"/>
	<path d="M176.6,436.8l-0.4-0.2l-1,2l-0.7-0.3l3-6.3l0.7,0.3l-1.8,3.9l0.4,0l2.3-1.3l0.8,0.4l-2.2,1.2l-0.5,0.1l0.3,0.6l0.6,2.8
		l-0.9-0.4L176.6,436.8z"/>
	<path d="M180.7,436.1c0.3,0,0.6,0,0.9,0.1c0.3,0.1,0.7,0.2,1,0.3c0.3,0.1,0.5,0.3,0.7,0.5c0.2,0.2,0.2,0.4,0.3,0.5
		c0,0.2,0,0.4,0,0.5c0,0.2-0.1,0.3-0.2,0.5c-0.2,0.4-0.3,0.7-0.5,1c-0.2,0.3-0.3,0.7-0.5,1c-0.1,0.2-0.2,0.4-0.3,0.6
		c-0.1,0.2-0.1,0.4-0.2,0.6l-0.5-0.2l0.1-0.7l0,0c-0.1,0.1-0.2,0.1-0.3,0.2c-0.1,0-0.3,0.1-0.4,0.1c-0.1,0-0.3,0-0.5,0
		c-0.2,0-0.4-0.1-0.5-0.2c-0.2-0.1-0.4-0.2-0.5-0.3c-0.1-0.1-0.2-0.3-0.3-0.5c-0.1-0.2-0.1-0.3-0.1-0.5c0-0.2,0.1-0.4,0.1-0.6
		c0.1-0.3,0.3-0.5,0.5-0.6c0.2-0.1,0.4-0.2,0.7-0.2c0.2,0,0.5,0,0.8,0.1c0.3,0.1,0.6,0.2,0.9,0.4c0.1,0,0.2,0.1,0.2,0.1
		c0.1,0,0.2,0.1,0.2,0.1c0.1-0.2,0.2-0.3,0.3-0.5c0.2-0.3,0.2-0.6,0.1-0.8c-0.1-0.2-0.3-0.4-0.6-0.5c-0.1,0-0.2-0.1-0.3-0.1
		c-0.1,0-0.3-0.1-0.4-0.1c-0.1,0-0.3-0.1-0.4-0.1c-0.1,0-0.2,0-0.4,0L180.7,436.1z M180.3,440.4c0.2,0.1,0.3,0.1,0.5,0.1
		c0.2,0,0.3,0,0.4,0c0.1,0,0.2-0.1,0.3-0.1c0.1-0.1,0.2-0.1,0.3-0.2l0.4-0.8c-0.1,0-0.2-0.1-0.3-0.1s-0.2-0.1-0.3-0.1
		c-0.2-0.1-0.4-0.2-0.6-0.2c-0.2-0.1-0.4-0.1-0.5-0.1c-0.2,0-0.3,0-0.4,0.1c-0.1,0.1-0.2,0.2-0.3,0.3c-0.1,0.2-0.1,0.4,0,0.6
		C179.9,440.1,180,440.3,180.3,440.4z"/>
	<path d="M186.2,443.8l1.2-2.6c0.2-0.5,0.3-0.9,0.3-1.2c0-0.3-0.2-0.5-0.6-0.7c-0.3-0.1-0.6-0.2-0.9-0.1c-0.3,0.1-0.5,0.2-0.7,0.4
		l-1.4,3.1l-0.7-0.3l2.1-4.5l0.5,0.2l-0.1,0.6l0,0c0.2-0.1,0.5-0.2,0.8-0.2c0.3,0,0.6,0.1,1,0.2c0.2,0.1,0.5,0.2,0.6,0.4
		c0.2,0.1,0.3,0.3,0.3,0.5c0.1,0.2,0.1,0.4,0,0.7c-0.1,0.3-0.2,0.6-0.3,1l-1.3,2.7L186.2,443.8z"/>
	<path d="M193.8,442.3l-0.1-1.1l0,0l-0.3,1l-1.9,4.1l-0.7-0.3l3-6.4l0.4,0.2l1.1,5.6l0.1,1.1l0,0l0.3-0.9l1.9-4.1l0.7,0.3l-3,6.4
		l-0.4-0.2L193.8,442.3z"/>
	<path d="M198.7,444.5c0.3,0,0.6,0,0.9,0.1c0.3,0.1,0.7,0.2,1,0.3c0.3,0.1,0.5,0.3,0.7,0.5c0.2,0.2,0.2,0.4,0.3,0.5
		c0,0.2,0,0.4,0,0.5c0,0.2-0.1,0.3-0.2,0.5c-0.2,0.4-0.3,0.7-0.5,1c-0.2,0.3-0.3,0.7-0.5,1c-0.1,0.2-0.2,0.4-0.3,0.6
		c-0.1,0.2-0.1,0.4-0.2,0.6l-0.5-0.2l0.1-0.7l0,0c-0.1,0.1-0.2,0.1-0.3,0.2c-0.1,0-0.3,0.1-0.4,0.1c-0.1,0-0.3,0-0.5,0
		c-0.2,0-0.4-0.1-0.5-0.2c-0.2-0.1-0.4-0.2-0.5-0.3c-0.1-0.1-0.2-0.3-0.3-0.5c-0.1-0.2-0.1-0.3-0.1-0.5c0-0.2,0.1-0.4,0.1-0.6
		c0.1-0.3,0.3-0.5,0.5-0.6c0.2-0.1,0.4-0.2,0.7-0.2c0.2,0,0.5,0,0.8,0.1c0.3,0.1,0.6,0.2,0.9,0.4c0.1,0,0.2,0.1,0.2,0.1
		c0.1,0,0.2,0.1,0.2,0.1c0.1-0.2,0.2-0.3,0.3-0.5c0.2-0.3,0.2-0.6,0.1-0.8c-0.1-0.2-0.3-0.4-0.6-0.5c-0.1,0-0.2-0.1-0.3-0.1
		s-0.3-0.1-0.4-0.1c-0.1,0-0.3-0.1-0.4-0.1c-0.1,0-0.2,0-0.4,0L198.7,444.5z M198.3,448.8c0.2,0.1,0.3,0.1,0.5,0.1
		c0.2,0,0.3,0,0.4,0c0.1,0,0.2-0.1,0.3-0.1c0.1-0.1,0.2-0.1,0.3-0.2l0.4-0.8c-0.1,0-0.2-0.1-0.3-0.1c-0.1,0-0.2-0.1-0.3-0.1
		c-0.2-0.1-0.4-0.2-0.6-0.2c-0.2-0.1-0.4-0.1-0.5-0.1s-0.3,0-0.4,0.1c-0.1,0.1-0.2,0.2-0.3,0.3c-0.1,0.2-0.1,0.4,0,0.6
		C197.9,448.5,198,448.6,198.3,448.8z"/>
	<path d="M202.8,446l0.7,0.3l0.4-0.9l0.8,0.1l-0.5,1.1l1.2,0.6l-0.3,0.6l-1.2-0.6l-1.2,2.5c-0.1,0.3-0.2,0.6-0.2,0.7
		c0,0.2,0.1,0.3,0.3,0.4c0.2,0.1,0.3,0.1,0.4,0.1c0.1,0,0.3,0,0.4,0l-0.1,0.6c-0.2,0-0.4,0-0.6-0.1c-0.2,0-0.4-0.1-0.7-0.2
		c-0.4-0.2-0.6-0.4-0.6-0.7c-0.1-0.3,0-0.7,0.3-1.2l1.2-2.6l-0.7-0.3L202.8,446z"/>
	<path d="M206.6,447.8l0.7,0.3l-2.1,4.5l-0.7-0.3L206.6,447.8z M207.1,446.4c0.1-0.1,0.2-0.2,0.3-0.3c0.1-0.1,0.3-0.1,0.4,0
		c0.1,0.1,0.2,0.2,0.3,0.3c0.1,0.1,0.1,0.3,0,0.4c-0.1,0.1-0.2,0.2-0.3,0.3c-0.1,0-0.3,0-0.4,0c-0.1-0.1-0.2-0.2-0.3-0.3
		C207,446.6,207,446.5,207.1,446.4z"/>
	<path d="M208.9,452.1l-0.1,1l0,0l0.6-0.8l2.2-2.2l0.8,0.4l-4.1,3.7l-0.3-0.1l0.2-5.5l0.8,0.4L208.9,452.1z"/>
	<path d="M214.6,456.6c-0.2,0.1-0.5,0.1-0.8,0c-0.3,0-0.6-0.1-0.9-0.3c-0.3-0.2-0.6-0.4-0.8-0.6c-0.2-0.2-0.3-0.5-0.4-0.8
		c-0.1-0.3-0.1-0.6,0-0.9c0.1-0.3,0.2-0.7,0.3-1c0.4-0.8,0.8-1.3,1.3-1.5c0.5-0.2,1.1-0.2,1.8,0.1c0.2,0.1,0.4,0.2,0.6,0.4
		c0.2,0.1,0.3,0.3,0.4,0.5c0.1,0.2,0.2,0.4,0.1,0.7s-0.1,0.6-0.3,1c-0.1,0.2-0.2,0.4-0.4,0.6l-2.9-1.4c-0.1,0.3-0.2,0.5-0.2,0.7
		c0,0.2,0,0.4,0,0.6c0,0.2,0.1,0.4,0.3,0.5c0.1,0.2,0.4,0.3,0.6,0.4c0.2,0.1,0.4,0.2,0.7,0.2s0.4,0,0.6,0L214.6,456.6z M214.8,452.3
		c-0.4-0.2-0.7-0.2-1-0.1s-0.6,0.3-0.8,0.8l2.2,1c0.2-0.5,0.3-0.8,0.2-1.1C215.3,452.6,215.1,452.4,214.8,452.3z"/>
</g>
<g>
	<path d="M177.6,396.7c-0.1,0.2-0.2,0.3-0.3,0.4c-0.1,0.1-0.3,0.2-0.4,0.3c-0.2,0.1-0.3,0.2-0.5,0.2c-0.2,0-0.4,0-0.6,0l0,0
		c0.2,0.1,0.3,0.2,0.4,0.4c0.1,0.1,0.2,0.3,0.3,0.5c0.1,0.2,0.1,0.4,0.1,0.6c0,0.2-0.1,0.5-0.2,0.7c-0.2,0.3-0.4,0.6-0.6,0.8
		s-0.5,0.3-0.8,0.3c-0.3,0-0.6,0-0.9,0s-0.6-0.2-0.9-0.3c-0.1,0-0.2-0.1-0.4-0.2c-0.1-0.1-0.3-0.1-0.4-0.2c-0.1-0.1-0.3-0.2-0.4-0.2
		c-0.1-0.1-0.3-0.2-0.4-0.3l2.9-6.2c0.2,0.1,0.5,0.2,0.8,0.3c0.3,0.1,0.6,0.3,1,0.4c0.2,0.1,0.5,0.2,0.7,0.4
		c0.2,0.2,0.4,0.3,0.6,0.5c0.1,0.2,0.2,0.4,0.3,0.7C177.8,396.1,177.8,396.4,177.6,396.7z M173.5,400.1c0.2,0.1,0.4,0.2,0.6,0.2
		c0.2,0,0.4,0,0.6,0c0.2,0,0.4-0.1,0.5-0.2c0.1-0.1,0.3-0.3,0.4-0.5c0.1-0.2,0.2-0.5,0.1-0.7c0-0.2-0.1-0.4-0.2-0.5
		c-0.1-0.2-0.3-0.3-0.5-0.4c-0.2-0.1-0.4-0.2-0.6-0.3l-0.8-0.4l-1.1,2.3c0,0,0.1,0.1,0.2,0.1c0.1,0,0.2,0.1,0.2,0.1
		c0.1,0,0.2,0.1,0.3,0.1C173.4,400,173.5,400,173.5,400.1z M174.4,396.9c0.1,0,0.2,0.1,0.4,0.2c0.1,0.1,0.3,0.1,0.4,0.1
		c0.2,0,0.3,0,0.5,0c0.2,0,0.3,0,0.5-0.1s0.3-0.1,0.4-0.2c0.1-0.1,0.2-0.2,0.3-0.4c0.1-0.2,0.1-0.4,0.1-0.5c0-0.2-0.1-0.3-0.2-0.5
		c-0.1-0.1-0.2-0.3-0.4-0.4c-0.1-0.1-0.3-0.2-0.5-0.3c-0.2-0.1-0.4-0.2-0.6-0.2c-0.2-0.1-0.3-0.1-0.4-0.1l-1,2.2L174.4,396.9z"/>
	<path d="M178.1,401.5c-0.1,0.2-0.1,0.4-0.1,0.5c0,0.1,0.1,0.2,0.2,0.3c0.1,0,0.2,0.1,0.3,0.1c0.1,0,0.2,0,0.3,0.1l-0.2,0.6
		c-0.1,0-0.3,0-0.5-0.1c-0.2-0.1-0.3-0.1-0.5-0.2c-0.3-0.1-0.5-0.3-0.6-0.5c-0.1-0.2-0.1-0.5,0.1-0.9l2.5-5.4l0.7,0.3L178.1,401.5z"
		/>
	<path d="M181.3,399.3c0.3,0,0.6,0,0.9,0.1c0.3,0.1,0.7,0.2,1,0.3c0.3,0.1,0.5,0.3,0.7,0.5c0.2,0.2,0.2,0.4,0.3,0.5
		c0,0.2,0,0.4,0,0.5s-0.1,0.3-0.2,0.5c-0.2,0.4-0.3,0.7-0.5,1c-0.2,0.3-0.3,0.7-0.5,1c-0.1,0.2-0.2,0.4-0.3,0.6
		c-0.1,0.2-0.1,0.4-0.2,0.6l-0.5-0.2l0.1-0.7l0,0c-0.1,0.1-0.2,0.1-0.3,0.2c-0.1,0-0.3,0.1-0.4,0.1c-0.1,0-0.3,0-0.5,0
		s-0.4-0.1-0.5-0.2c-0.2-0.1-0.4-0.2-0.5-0.3c-0.1-0.1-0.2-0.3-0.3-0.5c-0.1-0.2-0.1-0.3-0.1-0.5c0-0.2,0.1-0.4,0.1-0.6
		c0.1-0.3,0.3-0.5,0.5-0.6c0.2-0.1,0.4-0.2,0.7-0.2c0.2,0,0.5,0,0.8,0.1c0.3,0.1,0.6,0.2,0.9,0.4c0.1,0,0.2,0.1,0.2,0.1
		s0.2,0.1,0.2,0.1c0.1-0.2,0.2-0.3,0.3-0.5c0.2-0.3,0.2-0.6,0.1-0.8c-0.1-0.2-0.3-0.4-0.6-0.5c-0.1,0-0.2-0.1-0.3-0.1
		c-0.1,0-0.3-0.1-0.4-0.1c-0.1,0-0.3-0.1-0.4-0.1c-0.1,0-0.2,0-0.4,0L181.3,399.3z M180.9,403.5c0.2,0.1,0.3,0.1,0.5,0.1
		c0.2,0,0.3,0,0.4,0c0.1,0,0.2-0.1,0.3-0.1c0.1-0.1,0.2-0.1,0.3-0.2l0.4-0.8c-0.1,0-0.2-0.1-0.3-0.1s-0.2-0.1-0.3-0.1
		c-0.2-0.1-0.4-0.2-0.6-0.2c-0.2-0.1-0.4-0.1-0.5-0.1c-0.2,0-0.3,0-0.4,0.1c-0.1,0.1-0.2,0.2-0.3,0.3c-0.1,0.2-0.1,0.4,0,0.6
		C180.5,403.2,180.6,403.4,180.9,403.5z"/>
	<path d="M187.1,406.8c-0.2,0-0.5,0-0.8,0c-0.3,0-0.6-0.1-0.8-0.3c-0.4-0.2-0.6-0.4-0.8-0.6c-0.2-0.2-0.3-0.5-0.4-0.8
		s-0.1-0.6,0-0.9s0.2-0.7,0.4-1c0.4-0.8,0.8-1.3,1.3-1.5c0.5-0.2,1.1-0.2,1.7,0.1c0.3,0.1,0.5,0.3,0.7,0.4c0.2,0.1,0.3,0.3,0.5,0.5
		l-0.5,0.5c-0.1-0.1-0.2-0.3-0.4-0.4c-0.1-0.1-0.3-0.2-0.5-0.3c-0.9-0.4-1.6,0-2.1,1.1c-0.1,0.2-0.2,0.5-0.2,0.7
		c-0.1,0.2-0.1,0.4,0,0.7c0,0.2,0.1,0.4,0.2,0.6c0.1,0.2,0.3,0.3,0.6,0.4c0.2,0.1,0.4,0.2,0.6,0.2c0.2,0,0.4,0,0.5,0L187.1,406.8z"
		/>
	<path d="M190.1,406l-0.4-0.2l-1,2l-0.7-0.3l3-6.3l0.7,0.3l-1.8,3.9l0.4,0l2.3-1.3l0.8,0.4l-2.2,1.2l-0.5,0.1l0.3,0.6l0.6,2.8
		l-0.9-0.4L190.1,406z"/>
	<path d="M197.6,404.2l0.5,0.5l-6.8,5.9l-0.5-0.5L197.6,404.2z"/>
	<path d="M199.4,410.7l-2.3-1.1l-1.5,1.5l-0.8-0.4l5.4-5.3l0.3,0.2l-0.6,7.6l-0.8-0.4L199.4,410.7z M197.7,409.1l1.9,0.9l0.2-2.3
		l0.2-1.1l0,0l-0.7,0.9L197.7,409.1z"/>
	<path d="M202.4,408.8l0.7,0.3l0.1-0.3c0.1-0.3,0.3-0.5,0.4-0.7c0.1-0.2,0.3-0.3,0.5-0.4c0.2-0.1,0.3-0.1,0.5-0.1
		c0.2,0,0.4,0.1,0.7,0.2c0.2,0.1,0.4,0.2,0.5,0.3c0.1,0.1,0.3,0.2,0.4,0.4l-0.4,0.5c-0.1-0.1-0.2-0.2-0.3-0.3
		c-0.1-0.1-0.2-0.1-0.3-0.2c-0.2-0.1-0.3-0.1-0.4-0.1s-0.2,0-0.3,0.1c-0.1,0.1-0.2,0.2-0.2,0.3c-0.1,0.1-0.2,0.3-0.2,0.5l-0.1,0.1
		l1.2,0.6l-0.3,0.6l-1.2-0.6l-1.8,3.9l-0.7-0.3l1.8-3.9l-0.7-0.3L202.4,408.8z"/>
	<path d="M207.6,412c-0.2-0.1-0.3-0.3-0.5-0.3c-0.3-0.1-0.5-0.1-0.7-0.1c-0.2,0.1-0.4,0.2-0.5,0.4l-1.5,3.2l-0.7-0.3l2.1-4.5
		l0.5,0.2l-0.1,0.6l0,0c0.2-0.2,0.4-0.2,0.6-0.3c0.2,0,0.4,0,0.7,0.1c0.2,0.1,0.4,0.2,0.5,0.4L207.6,412z"/>
	<path d="M209.1,411.8l0.7,0.3l-2.1,4.5l-0.7-0.3L209.1,411.8z M209.6,410.4c0.1-0.1,0.2-0.2,0.3-0.3c0.1-0.1,0.3-0.1,0.4,0
		c0.1,0.1,0.2,0.2,0.3,0.3c0.1,0.1,0.1,0.3,0,0.4s-0.2,0.2-0.3,0.3c-0.1,0-0.3,0-0.4,0c-0.1-0.1-0.2-0.2-0.3-0.3
		C209.5,410.7,209.5,410.5,209.6,410.4z"/>
	<path d="M212.5,418.6c-0.2,0-0.5,0-0.8,0c-0.3,0-0.6-0.1-0.8-0.3c-0.4-0.2-0.6-0.4-0.8-0.6s-0.3-0.5-0.4-0.8
		c-0.1-0.3-0.1-0.6,0-0.9c0.1-0.3,0.2-0.7,0.4-1c0.4-0.8,0.8-1.3,1.3-1.5s1.1-0.2,1.7,0.1c0.3,0.1,0.5,0.3,0.7,0.4
		c0.2,0.1,0.3,0.3,0.5,0.5l-0.5,0.5c-0.1-0.1-0.2-0.3-0.4-0.4c-0.1-0.1-0.3-0.2-0.5-0.3c-0.9-0.4-1.6,0-2.1,1.1
		c-0.1,0.2-0.2,0.5-0.2,0.7c-0.1,0.2-0.1,0.4,0,0.7c0,0.2,0.1,0.4,0.2,0.6c0.1,0.2,0.3,0.3,0.6,0.4c0.2,0.1,0.4,0.2,0.6,0.2
		c0.2,0,0.4,0,0.5,0L212.5,418.6z"/>
	<path d="M215.2,415.1c0.3,0,0.6,0,0.9,0.1c0.3,0.1,0.7,0.2,1,0.3c0.3,0.1,0.5,0.3,0.7,0.5c0.2,0.2,0.2,0.4,0.3,0.5
		c0,0.2,0,0.4,0,0.5c0,0.2-0.1,0.3-0.2,0.5c-0.2,0.4-0.3,0.7-0.5,1c-0.2,0.3-0.3,0.7-0.5,1c-0.1,0.2-0.2,0.4-0.3,0.6
		c-0.1,0.2-0.1,0.4-0.2,0.6l-0.5-0.2l0.1-0.7l0,0c-0.1,0.1-0.2,0.1-0.3,0.2c-0.1,0-0.3,0.1-0.4,0.1c-0.1,0-0.3,0-0.5,0
		c-0.2,0-0.4-0.1-0.5-0.2s-0.4-0.2-0.5-0.3c-0.1-0.1-0.2-0.3-0.3-0.5c-0.1-0.2-0.1-0.3-0.1-0.5c0-0.2,0.1-0.4,0.1-0.6
		c0.1-0.3,0.3-0.5,0.5-0.6c0.2-0.1,0.4-0.2,0.7-0.2c0.2,0,0.5,0,0.8,0.1c0.3,0.1,0.6,0.2,0.9,0.4c0.1,0,0.2,0.1,0.2,0.1
		c0.1,0,0.2,0.1,0.2,0.1c0.1-0.2,0.2-0.3,0.3-0.5c0.2-0.3,0.2-0.6,0.1-0.8c-0.1-0.2-0.3-0.4-0.6-0.5c-0.1,0-0.2-0.1-0.3-0.1
		s-0.3-0.1-0.4-0.1c-0.1,0-0.3-0.1-0.4-0.1c-0.1,0-0.2,0-0.4,0L215.2,415.1z M214.8,419.3c0.2,0.1,0.3,0.1,0.5,0.1
		c0.2,0,0.3,0,0.4,0c0.1,0,0.2-0.1,0.3-0.1c0.1-0.1,0.2-0.1,0.3-0.2l0.4-0.8c-0.1,0-0.2-0.1-0.3-0.1c-0.1,0-0.2-0.1-0.3-0.1
		c-0.2-0.1-0.4-0.2-0.6-0.2c-0.2-0.1-0.4-0.1-0.5-0.1c-0.2,0-0.3,0-0.4,0.1c-0.1,0.1-0.2,0.2-0.3,0.3c-0.1,0.2-0.1,0.4,0,0.6
		C214.4,419.1,214.6,419.2,214.8,419.3z"/>
	<path d="M220.7,422.8l1.2-2.6c0.2-0.5,0.3-0.9,0.3-1.2c0-0.3-0.2-0.5-0.6-0.7c-0.3-0.1-0.6-0.2-0.9-0.1c-0.3,0.1-0.5,0.2-0.7,0.4
		l-1.4,3.1l-0.7-0.3l2.1-4.5l0.5,0.2l-0.1,0.6l0,0c0.2-0.1,0.5-0.2,0.8-0.2c0.3,0,0.6,0.1,1,0.2c0.2,0.1,0.5,0.2,0.6,0.4
		c0.2,0.1,0.3,0.3,0.3,0.5c0.1,0.2,0.1,0.4,0,0.7c-0.1,0.3-0.2,0.6-0.3,1l-1.3,2.7L220.7,422.8z"/>
	<path d="M229.1,424.6l-2.3-1.1l-1.5,1.5l-0.8-0.4l5.4-5.3l0.3,0.2l-0.6,7.6l-0.8-0.4L229.1,424.6z M227.3,422.9l1.9,0.9l0.2-2.3
		l0.2-1.1l0,0l-0.7,0.9L227.3,422.9z"/>
	<path d="M233.1,428.6l1.2-2.6c0.1-0.2,0.2-0.5,0.3-0.6c0.1-0.2,0.1-0.4,0.1-0.5c0-0.1,0-0.3-0.1-0.4c-0.1-0.1-0.2-0.2-0.4-0.3
		c-0.3-0.1-0.5-0.2-0.8-0.1s-0.5,0.2-0.7,0.5l-1.5,3.1l-0.7-0.3l2.1-4.5l0.5,0.2l-0.1,0.6l0,0c0.3-0.1,0.5-0.2,0.8-0.2
		c0.3,0,0.6,0,0.9,0.2c0.3,0.1,0.5,0.3,0.6,0.5c0.1,0.2,0.2,0.5,0.2,0.8c0.2-0.2,0.5-0.3,0.8-0.3c0.3,0,0.6,0,0.9,0.2
		c0.3,0.1,0.5,0.2,0.6,0.4s0.2,0.3,0.3,0.5c0,0.2,0,0.4,0,0.7c-0.1,0.3-0.2,0.6-0.4,1l-1.3,2.7l-0.7-0.3l1.3-2.7
		c0.1-0.2,0.2-0.4,0.2-0.6s0.1-0.3,0.1-0.5c0-0.1-0.1-0.3-0.2-0.4c-0.1-0.1-0.2-0.2-0.4-0.3c-0.3-0.1-0.6-0.2-0.8-0.1
		s-0.5,0.3-0.7,0.6l-1.4,3L233.1,428.6z"/>
	<path d="M241.3,432c-0.2,0.1-0.5,0.1-0.8,0c-0.3,0-0.6-0.1-0.9-0.3c-0.3-0.2-0.6-0.4-0.8-0.6c-0.2-0.2-0.3-0.5-0.4-0.8
		c-0.1-0.3-0.1-0.6,0-0.9c0.1-0.3,0.2-0.7,0.3-1c0.4-0.8,0.8-1.3,1.3-1.5c0.5-0.2,1.1-0.2,1.8,0.1c0.2,0.1,0.4,0.2,0.6,0.4
		c0.2,0.1,0.3,0.3,0.4,0.5c0.1,0.2,0.2,0.4,0.1,0.7c0,0.3-0.1,0.6-0.3,1c-0.1,0.2-0.2,0.4-0.4,0.6l-2.9-1.4
		c-0.1,0.3-0.2,0.5-0.2,0.7c0,0.2,0,0.4,0,0.6c0,0.2,0.1,0.4,0.3,0.5c0.1,0.2,0.4,0.3,0.6,0.4c0.2,0.1,0.4,0.2,0.7,0.2
		c0.2,0,0.4,0,0.6,0L241.3,432z M241.5,427.6c-0.4-0.2-0.7-0.2-1-0.1c-0.3,0.1-0.6,0.3-0.8,0.8l2.2,1c0.2-0.5,0.3-0.8,0.2-1.1
		C242,428,241.8,427.8,241.5,427.6z"/>
	<path d="M246.4,430.1c-0.2-0.1-0.3-0.3-0.5-0.3c-0.3-0.1-0.5-0.1-0.7-0.1c-0.2,0.1-0.4,0.2-0.5,0.4l-1.5,3.2l-0.7-0.3l2.1-4.5
		l0.5,0.2l-0.1,0.6l0,0c0.2-0.2,0.4-0.2,0.6-0.3c0.2,0,0.4,0,0.7,0.1c0.2,0.1,0.4,0.2,0.5,0.4L246.4,430.1z"/>
	<path d="M247.8,429.9l0.7,0.3l-2.1,4.5l-0.7-0.3L247.8,429.9z M248.3,428.5c0.1-0.1,0.2-0.2,0.3-0.3c0.1-0.1,0.3-0.1,0.4,0
		c0.1,0.1,0.2,0.2,0.3,0.3s0.1,0.3,0,0.4c-0.1,0.1-0.2,0.2-0.3,0.3c-0.1,0-0.3,0-0.4,0c-0.1-0.1-0.2-0.2-0.3-0.3
		C248.2,428.7,248.2,428.6,248.3,428.5z"/>
	<path d="M251.2,436.7c-0.2,0-0.5,0.1-0.8,0c-0.3,0-0.6-0.1-0.8-0.3c-0.4-0.2-0.6-0.4-0.8-0.6c-0.2-0.2-0.3-0.5-0.4-0.8
		s-0.1-0.6,0-0.9c0.1-0.3,0.2-0.7,0.4-1c0.4-0.8,0.8-1.3,1.3-1.5c0.5-0.2,1.1-0.2,1.7,0.1c0.3,0.1,0.5,0.3,0.7,0.4
		c0.2,0.1,0.3,0.3,0.5,0.5l-0.5,0.5c-0.1-0.1-0.2-0.3-0.4-0.4c-0.1-0.1-0.3-0.2-0.5-0.3c-0.9-0.4-1.6,0-2.1,1.1
		c-0.1,0.2-0.2,0.5-0.2,0.7c-0.1,0.2-0.1,0.4,0,0.7c0,0.2,0.1,0.4,0.2,0.6c0.1,0.2,0.3,0.3,0.6,0.4c0.2,0.1,0.4,0.2,0.6,0.2
		c0.2,0,0.4,0,0.5,0L251.2,436.7z"/>
	<path d="M253.9,433.2c0.3,0,0.6,0,0.9,0.1c0.3,0.1,0.7,0.2,1,0.3c0.3,0.1,0.5,0.3,0.7,0.5c0.2,0.2,0.2,0.4,0.3,0.5
		c0,0.2,0,0.4,0,0.5c0,0.2-0.1,0.3-0.2,0.5c-0.2,0.4-0.3,0.7-0.5,1c-0.2,0.3-0.3,0.7-0.5,1c-0.1,0.2-0.2,0.4-0.3,0.6
		c-0.1,0.2-0.1,0.4-0.2,0.6l-0.5-0.2l0.1-0.7l0,0c-0.1,0.1-0.2,0.1-0.3,0.2c-0.1,0-0.3,0.1-0.4,0.1c-0.1,0-0.3,0-0.5,0
		c-0.2,0-0.4-0.1-0.5-0.2c-0.2-0.1-0.4-0.2-0.5-0.3c-0.1-0.1-0.2-0.3-0.3-0.5c-0.1-0.2-0.1-0.3-0.1-0.5c0-0.2,0.1-0.4,0.1-0.6
		c0.1-0.3,0.3-0.5,0.5-0.6s0.4-0.2,0.7-0.2c0.2,0,0.5,0,0.8,0.1c0.3,0.1,0.6,0.2,0.9,0.4c0.1,0,0.2,0.1,0.2,0.1
		c0.1,0,0.2,0.1,0.2,0.1c0.1-0.2,0.2-0.3,0.3-0.5c0.2-0.3,0.2-0.6,0.1-0.8c-0.1-0.2-0.3-0.4-0.6-0.5c-0.1,0-0.2-0.1-0.3-0.1
		c-0.1,0-0.3-0.1-0.4-0.1c-0.1,0-0.3-0.1-0.4-0.1c-0.1,0-0.2,0-0.4,0L253.9,433.2z M253.5,437.4c0.2,0.1,0.3,0.1,0.5,0.1
		c0.2,0,0.3,0,0.4,0c0.1,0,0.2-0.1,0.3-0.1c0.1-0.1,0.2-0.1,0.3-0.2l0.4-0.8c-0.1,0-0.2-0.1-0.3-0.1s-0.2-0.1-0.3-0.1
		c-0.2-0.1-0.4-0.2-0.6-0.2c-0.2-0.1-0.4-0.1-0.5-0.1c-0.2,0-0.3,0-0.4,0.1c-0.1,0.1-0.2,0.2-0.3,0.3c-0.1,0.2-0.1,0.4,0,0.6
		C253.1,437.2,253.3,437.3,253.5,437.4z"/>
	<path d="M259.4,440.9l1.2-2.6c0.2-0.5,0.3-0.9,0.3-1.2c0-0.3-0.2-0.5-0.6-0.7c-0.3-0.1-0.6-0.2-0.9-0.1c-0.3,0.1-0.5,0.2-0.7,0.4
		l-1.4,3.1l-0.7-0.3l2.1-4.5l0.5,0.2l-0.1,0.6l0,0c0.2-0.1,0.5-0.2,0.8-0.2c0.3,0,0.6,0.1,1,0.2c0.2,0.1,0.5,0.2,0.6,0.4
		c0.2,0.1,0.3,0.3,0.3,0.5c0.1,0.2,0.1,0.4,0,0.7c-0.1,0.3-0.2,0.6-0.3,1l-1.3,2.7L259.4,440.9z"/>
</g>
<g>
	<path d="M256.2,398.7l-3-1.4l-1.4,2.9l-0.8-0.3l3-6.3l0.8,0.3l-1.3,2.8l3,1.4l1.3-2.8l0.8,0.4l-3,6.3l-0.8-0.4L256.2,398.7z"/>
	<path d="M259.4,398.2l0.7,0.3l-2.1,4.5l-0.7-0.3L259.4,398.2z M259.8,396.7c0.1-0.1,0.2-0.2,0.3-0.3c0.1-0.1,0.3-0.1,0.4,0
		c0.1,0.1,0.2,0.2,0.3,0.3c0.1,0.1,0.1,0.3,0,0.4s-0.2,0.2-0.3,0.3c-0.1,0-0.3,0-0.4,0c-0.1-0.1-0.2-0.2-0.3-0.3
		C259.8,397,259.8,396.9,259.8,396.7z"/>
	<path d="M262.1,403.5c0.1-0.2,0.1-0.3,0-0.5c-0.1-0.2-0.2-0.3-0.3-0.4c-0.1-0.1-0.3-0.3-0.4-0.4c-0.2-0.2-0.3-0.3-0.4-0.5
		c-0.1-0.2-0.2-0.4-0.2-0.6s0-0.4,0.1-0.7c0.2-0.4,0.5-0.7,0.8-0.8c0.3-0.1,0.7,0,1.2,0.2c0.3,0.2,0.6,0.3,0.8,0.5s0.4,0.3,0.5,0.5
		l-0.5,0.5c-0.1-0.1-0.2-0.3-0.4-0.4c-0.2-0.1-0.4-0.3-0.6-0.4c-0.3-0.1-0.5-0.2-0.6-0.1c-0.2,0-0.3,0.2-0.4,0.4
		c-0.1,0.2-0.1,0.3,0,0.4c0.1,0.1,0.2,0.3,0.3,0.4s0.3,0.3,0.4,0.4c0.2,0.2,0.3,0.3,0.4,0.5s0.2,0.4,0.2,0.6c0,0.2,0,0.5-0.1,0.7
		c-0.1,0.2-0.2,0.4-0.3,0.5c-0.1,0.1-0.3,0.2-0.5,0.3c-0.2,0.1-0.4,0.1-0.6,0.1s-0.5-0.1-0.7-0.2c-0.3-0.2-0.6-0.3-0.8-0.5
		c-0.2-0.2-0.4-0.4-0.5-0.5l0.5-0.5c0.1,0.1,0.2,0.3,0.4,0.5c0.2,0.2,0.4,0.3,0.6,0.4c0.3,0.1,0.5,0.2,0.7,0.1
		S262,403.7,262.1,403.5z"/>
	<path d="M265.4,401l0.5,0.2l-0.1,0.6l0,0c0.2-0.1,0.5-0.2,0.8-0.2c0.3,0,0.6,0.1,0.8,0.2c0.6,0.3,1,0.7,1.1,1.2
		c0.1,0.5,0,1.1-0.4,2c-0.2,0.4-0.4,0.7-0.6,1c-0.2,0.3-0.5,0.5-0.8,0.6s-0.6,0.2-0.9,0.2c-0.3,0-0.6-0.1-0.9-0.2
		c-0.2-0.1-0.4-0.2-0.5-0.3c-0.1-0.1-0.2-0.2-0.4-0.3l-0.9,1.9l-0.7-0.3L265.4,401z M267,402.4c-0.3-0.1-0.6-0.2-0.8-0.1
		c-0.3,0.1-0.5,0.3-0.7,0.6l-1,2.2c0.1,0.1,0.2,0.3,0.3,0.4c0.1,0.1,0.3,0.2,0.5,0.3c0.4,0.2,0.8,0.2,1.2,0c0.4-0.2,0.7-0.6,1-1.2
		c0.1-0.2,0.2-0.5,0.3-0.7c0.1-0.2,0.1-0.4,0-0.6c0-0.2-0.1-0.4-0.2-0.5C267.4,402.6,267.2,402.5,267,402.4z"/>
	<path d="M270.1,403.6c0.3,0,0.6,0,0.9,0.1c0.3,0.1,0.7,0.2,1,0.3c0.3,0.1,0.5,0.3,0.7,0.5c0.2,0.2,0.2,0.4,0.3,0.5
		c0,0.2,0,0.4,0,0.5c0,0.2-0.1,0.3-0.2,0.5c-0.2,0.4-0.3,0.7-0.5,1c-0.2,0.3-0.3,0.7-0.5,1c-0.1,0.2-0.2,0.4-0.3,0.6
		c-0.1,0.2-0.1,0.4-0.2,0.6l-0.5-0.2l0.1-0.7l0,0c-0.1,0.1-0.2,0.1-0.3,0.2c-0.1,0-0.3,0.1-0.4,0.1s-0.3,0-0.5,0
		c-0.2,0-0.4-0.1-0.5-0.2c-0.2-0.1-0.4-0.2-0.5-0.3c-0.1-0.1-0.2-0.3-0.3-0.5c-0.1-0.2-0.1-0.3-0.1-0.5c0-0.2,0.1-0.4,0.1-0.6
		c0.1-0.3,0.3-0.5,0.5-0.6c0.2-0.1,0.4-0.2,0.7-0.2c0.2,0,0.5,0,0.8,0.1c0.3,0.1,0.6,0.2,0.9,0.4c0.1,0,0.2,0.1,0.2,0.1
		c0.1,0,0.2,0.1,0.2,0.1c0.1-0.2,0.2-0.3,0.3-0.5c0.2-0.3,0.2-0.6,0.1-0.8c-0.1-0.2-0.3-0.4-0.6-0.5c-0.1,0-0.2-0.1-0.3-0.1
		s-0.3-0.1-0.4-0.1s-0.3-0.1-0.4-0.1c-0.1,0-0.2,0-0.4,0L270.1,403.6z M269.7,407.9c0.2,0.1,0.3,0.1,0.5,0.1c0.2,0,0.3,0,0.4,0
		c0.1,0,0.2-0.1,0.3-0.1c0.1-0.1,0.2-0.1,0.3-0.2l0.4-0.8c-0.1,0-0.2-0.1-0.3-0.1c-0.1,0-0.2-0.1-0.3-0.1c-0.2-0.1-0.4-0.2-0.6-0.2
		c-0.2-0.1-0.4-0.1-0.5-0.1s-0.3,0-0.4,0.1c-0.1,0.1-0.2,0.2-0.3,0.3c-0.1,0.2-0.1,0.4,0,0.6S269.5,407.7,269.7,407.9z"/>
	<path d="M275.6,411.3l1.2-2.6c0.2-0.5,0.3-0.9,0.3-1.2c0-0.3-0.2-0.5-0.6-0.7c-0.3-0.2-0.6-0.2-0.9-0.1c-0.3,0.1-0.5,0.2-0.7,0.4
		l-1.4,3.1l-0.7-0.3l2.1-4.5l0.5,0.2l-0.1,0.6l0,0c0.2-0.1,0.5-0.2,0.8-0.2c0.3,0,0.6,0.1,1,0.2c0.2,0.1,0.5,0.2,0.6,0.4
		c0.2,0.1,0.3,0.3,0.3,0.5s0.1,0.4,0,0.7c-0.1,0.3-0.2,0.6-0.3,1l-1.3,2.7L275.6,411.3z"/>
	<path d="M279.9,407.8l0.7,0.3l-2.1,4.5l-0.7-0.3L279.9,407.8z M280.4,406.4c0.1-0.1,0.2-0.2,0.3-0.3c0.1-0.1,0.3,0,0.4,0
		c0.1,0.1,0.2,0.2,0.3,0.3c0.1,0.1,0.1,0.3,0,0.4s-0.2,0.2-0.3,0.3c-0.1,0-0.3,0-0.4,0c-0.1-0.1-0.2-0.2-0.3-0.3
		C280.4,406.6,280.4,406.5,280.4,406.4z"/>
	<path d="M283.3,414.5c-0.2,0-0.5,0.1-0.8,0c-0.3,0-0.6-0.1-0.8-0.3c-0.4-0.2-0.6-0.4-0.8-0.6s-0.3-0.5-0.4-0.8
		c-0.1-0.3-0.1-0.6,0-0.9c0.1-0.3,0.2-0.7,0.4-1c0.4-0.8,0.8-1.3,1.3-1.5c0.5-0.3,1.1-0.2,1.7,0.1c0.3,0.1,0.5,0.3,0.7,0.4
		c0.2,0.1,0.3,0.3,0.5,0.4l-0.5,0.5c-0.1-0.1-0.2-0.3-0.4-0.4c-0.1-0.1-0.3-0.2-0.5-0.3c-0.9-0.4-1.6,0-2.1,1.1
		c-0.1,0.2-0.2,0.5-0.2,0.7c-0.1,0.2-0.1,0.4,0,0.7c0,0.2,0.1,0.4,0.2,0.6c0.1,0.2,0.3,0.3,0.6,0.4c0.2,0.1,0.4,0.2,0.6,0.2
		c0.2,0,0.4,0,0.5,0L283.3,414.5z"/>
	<path d="M287.4,414c0.4-0.8,0.8-1.3,1.3-1.5c0.5-0.2,1.1-0.2,1.8,0.1c0.3,0.2,0.6,0.4,0.8,0.6c0.2,0.2,0.3,0.5,0.4,0.8
		c0.1,0.3,0.1,0.6,0,0.9c-0.1,0.3-0.2,0.7-0.3,1c-0.4,0.8-0.8,1.3-1.3,1.5c-0.5,0.2-1.1,0.2-1.8-0.1c-0.3-0.2-0.6-0.4-0.8-0.6
		c-0.2-0.2-0.3-0.5-0.4-0.8c-0.1-0.3-0.1-0.6,0-0.9S287.2,414.4,287.4,414z M288.2,414.4c-0.1,0.2-0.2,0.5-0.2,0.7
		c-0.1,0.2-0.1,0.4,0,0.7c0,0.2,0.1,0.4,0.2,0.6c0.1,0.2,0.3,0.3,0.5,0.4c0.8,0.4,1.5,0,2-1.2c0.1-0.2,0.2-0.5,0.2-0.7
		c0.1-0.2,0.1-0.5,0-0.7c0-0.2-0.1-0.4-0.2-0.6c-0.1-0.2-0.3-0.3-0.5-0.4C289.4,412.8,288.7,413.2,288.2,414.4z"/>
	<path d="M295.4,415.9c-0.2-0.1-0.3-0.3-0.5-0.3c-0.3-0.1-0.5-0.1-0.7-0.1c-0.2,0.1-0.4,0.2-0.5,0.4l-1.5,3.2l-0.7-0.3l2.1-4.5
		l0.5,0.2L294,415l0,0c0.2-0.2,0.4-0.2,0.6-0.3c0.2,0,0.4,0,0.7,0.1c0.2,0.1,0.4,0.2,0.5,0.4L295.4,415.9z"/>
	<path d="M300.8,423.1l-3.8-1.8l3-6.3l0.8,0.4l-2.6,5.7l3,1.4L300.8,423.1z"/>
	<path d="M303.5,419.2c0.3,0,0.6,0,0.9,0.1c0.3,0.1,0.7,0.2,1,0.3c0.3,0.1,0.5,0.3,0.7,0.5c0.2,0.2,0.2,0.4,0.3,0.5
		c0,0.2,0,0.4,0,0.5c0,0.2-0.1,0.3-0.2,0.5c-0.2,0.4-0.3,0.7-0.5,1c-0.2,0.3-0.3,0.7-0.5,1c-0.1,0.2-0.2,0.4-0.3,0.6
		c-0.1,0.2-0.1,0.4-0.2,0.6l-0.5-0.2l0.1-0.7l0,0c-0.1,0.1-0.2,0.1-0.3,0.2c-0.1,0-0.3,0.1-0.4,0.1c-0.1,0-0.3,0-0.5,0
		c-0.2,0-0.4-0.1-0.5-0.2c-0.2-0.1-0.4-0.2-0.5-0.3c-0.1-0.1-0.2-0.3-0.3-0.5c-0.1-0.2-0.1-0.3-0.1-0.5c0-0.2,0.1-0.4,0.1-0.6
		c0.1-0.3,0.3-0.5,0.5-0.6c0.2-0.1,0.4-0.2,0.7-0.2c0.2,0,0.5,0,0.8,0.1c0.3,0.1,0.6,0.2,0.9,0.4c0.1,0,0.2,0.1,0.2,0.1
		c0.1,0,0.2,0.1,0.2,0.1c0.1-0.2,0.2-0.3,0.3-0.5c0.2-0.3,0.2-0.6,0.1-0.8c-0.1-0.2-0.3-0.4-0.6-0.5c-0.1,0-0.2-0.1-0.3-0.1
		c-0.1,0-0.3-0.1-0.4-0.1c-0.1,0-0.3-0.1-0.4-0.1c-0.1,0-0.2,0-0.4,0L303.5,419.2z M303.1,423.5c0.2,0.1,0.3,0.1,0.5,0.1
		c0.2,0,0.3,0,0.4,0c0.1,0,0.2-0.1,0.3-0.1s0.2-0.1,0.3-0.2l0.4-0.8c-0.1,0-0.2-0.1-0.3-0.1c-0.1,0-0.2-0.1-0.3-0.1
		c-0.2-0.1-0.4-0.2-0.6-0.2c-0.2-0.1-0.4-0.1-0.5-0.1s-0.3,0-0.4,0.1c-0.1,0.1-0.2,0.2-0.3,0.3c-0.1,0.2-0.1,0.4,0,0.6
		C302.7,423.2,302.9,423.3,303.1,423.5z"/>
	<path d="M307.7,420.7l0.7,0.3l0.4-0.9l0.8,0.1l-0.5,1.1l1.2,0.6l-0.3,0.6l-1.2-0.6l-1.2,2.5c-0.1,0.3-0.2,0.6-0.2,0.7
		c0,0.2,0.1,0.3,0.3,0.4c0.2,0.1,0.3,0.1,0.4,0.1c0.1,0,0.3,0,0.4,0l-0.1,0.6c-0.2,0-0.4,0-0.6-0.1c-0.2,0-0.4-0.1-0.7-0.2
		c-0.4-0.2-0.6-0.4-0.6-0.7c-0.1-0.3,0-0.7,0.3-1.2l1.2-2.6l-0.7-0.3L307.7,420.7z"/>
	<path d="M311.5,422.5l0.7,0.3l-2.1,4.5l-0.7-0.3L311.5,422.5z M312,421.1c0.1-0.1,0.2-0.2,0.3-0.3s0.3,0,0.4,0
		c0.1,0.1,0.2,0.2,0.3,0.3c0.1,0.1,0.1,0.3,0,0.4c-0.1,0.1-0.2,0.2-0.3,0.3s-0.3,0-0.4,0c-0.1-0.1-0.2-0.2-0.3-0.3
		C311.9,421.4,311.9,421.2,312,421.1z"/>
	<path d="M314.5,429.5l1.2-2.6c0.2-0.5,0.3-0.9,0.3-1.2s-0.2-0.5-0.6-0.7c-0.3-0.2-0.6-0.2-0.9-0.1s-0.5,0.2-0.7,0.4l-1.4,3.1
		l-0.7-0.3l2.1-4.5l0.5,0.2l-0.1,0.6l0,0c0.2-0.1,0.5-0.2,0.8-0.2s0.6,0.1,1,0.2c0.2,0.1,0.5,0.2,0.6,0.4c0.2,0.1,0.3,0.3,0.3,0.5
		c0.1,0.2,0.1,0.4,0,0.7c-0.1,0.3-0.2,0.6-0.3,1l-1.3,2.7L314.5,429.5z"/>
	<path d="M317.4,428.1c0.4-0.8,0.8-1.3,1.3-1.5s1.1-0.2,1.8,0.1c0.3,0.2,0.6,0.4,0.8,0.6c0.2,0.2,0.3,0.5,0.4,0.8
		c0.1,0.3,0.1,0.6,0,0.9s-0.2,0.7-0.3,1c-0.4,0.8-0.8,1.3-1.3,1.5c-0.5,0.2-1.1,0.2-1.8-0.1c-0.3-0.2-0.6-0.4-0.8-0.6
		c-0.2-0.2-0.3-0.5-0.4-0.8c-0.1-0.3-0.1-0.6,0-0.9C317.1,428.8,317.2,428.4,317.4,428.1z M318.2,428.4c-0.1,0.2-0.2,0.5-0.2,0.7
		c-0.1,0.2-0.1,0.5,0,0.7c0,0.2,0.1,0.4,0.2,0.6c0.1,0.2,0.3,0.3,0.5,0.4c0.8,0.4,1.5,0,2-1.2c0.1-0.2,0.2-0.5,0.2-0.7
		c0.1-0.2,0.1-0.4,0-0.7c0-0.2-0.1-0.4-0.2-0.6c-0.1-0.2-0.3-0.3-0.5-0.4C319.4,426.8,318.7,427.2,318.2,428.4z"/>
</g>
<g>
	<path d="M337.4,397.9l0.5-0.9l0,0l-0.8,0.7l-3,2.1l-0.2-0.1l-0.4-3.7l0.1-1l0,0l-0.3,1l-2,4.3l-0.7-0.3l3-6.3l0.6,0.3l0.5,4.2
		l0,0.8l0,0l0.6-0.6l3.4-2.3l0.6,0.3l-3,6.3l-0.8-0.4L337.4,397.9z"/>
	<path d="M340.4,398.9l-1.2,2.6c-0.1,0.2-0.2,0.4-0.2,0.6c-0.1,0.2-0.1,0.4-0.1,0.5c0,0.1,0.1,0.3,0.1,0.4c0.1,0.1,0.2,0.2,0.4,0.3
		c0.2,0.1,0.3,0.1,0.5,0.1c0.2,0,0.3,0,0.4-0.1c0.1,0,0.3-0.1,0.4-0.2c0.1-0.1,0.3-0.2,0.4-0.3l1.4-3l0.7,0.3l-1.5,3.2
		c-0.1,0.2-0.2,0.4-0.3,0.7c-0.1,0.2-0.2,0.5-0.2,0.6l-0.5-0.2l0.2-0.8l0,0c-0.2,0.2-0.5,0.3-0.8,0.3c-0.3,0-0.6,0-1-0.2
		c-0.2-0.1-0.4-0.2-0.6-0.4c-0.2-0.1-0.3-0.3-0.3-0.5c-0.1-0.2-0.1-0.4,0-0.7s0.2-0.6,0.3-1l1.3-2.7L340.4,398.9z"/>
	<path d="M343.9,404.7c-0.1,0.2-0.1,0.4-0.1,0.5c0,0.1,0.1,0.2,0.2,0.3c0.1,0,0.2,0.1,0.3,0.1c0.1,0,0.2,0.1,0.3,0.1l-0.2,0.6
		c-0.1,0-0.3,0-0.5-0.1c-0.2-0.1-0.3-0.1-0.5-0.2c-0.3-0.1-0.5-0.3-0.6-0.5c-0.1-0.2-0.1-0.5,0.1-0.9l2.5-5.4l0.7,0.3L343.9,404.7z"
		/>
	<path d="M346.7,401.9l0.7,0.3l0.4-0.9l0.8,0.1l-0.5,1.1l1.2,0.6l-0.3,0.6l-1.2-0.6l-1.2,2.5c-0.1,0.3-0.2,0.6-0.2,0.7
		c0,0.2,0.1,0.3,0.3,0.4c0.2,0.1,0.3,0.1,0.4,0.1c0.1,0,0.3,0,0.4,0l-0.1,0.6c-0.2,0-0.4,0-0.6-0.1c-0.2,0-0.4-0.1-0.7-0.2
		c-0.4-0.2-0.6-0.4-0.6-0.7c-0.1-0.3,0-0.7,0.3-1.2l1.2-2.6l-0.7-0.3L346.7,401.9z"/>
	<path d="M350.5,403.6l0.7,0.3l-2.1,4.5l-0.7-0.3L350.5,403.6z M351,402.2c0.1-0.1,0.2-0.2,0.3-0.3c0.1-0.1,0.3,0,0.4,0
		s0.2,0.2,0.3,0.3c0.1,0.1,0.1,0.3,0,0.4c-0.1,0.1-0.2,0.2-0.3,0.3s-0.3,0-0.4,0c-0.1-0.1-0.2-0.2-0.3-0.3
		C351,402.5,351,402.3,351,402.2z"/>
	<path d="M354.6,406.4c-0.2-0.1-0.3-0.3-0.5-0.3c-0.3-0.1-0.5-0.1-0.7-0.1s-0.4,0.2-0.5,0.4l-1.5,3.2l-0.7-0.3l2.1-4.5l0.5,0.2
		l-0.1,0.6l0,0c0.2-0.2,0.4-0.2,0.6-0.3c0.2,0,0.4,0,0.7,0.1c0.2,0.1,0.4,0.2,0.5,0.4L354.6,406.4z"/>
	<path d="M355.7,406.4c0.3,0,0.6,0,0.9,0.1c0.3,0.1,0.7,0.2,1,0.3c0.3,0.1,0.5,0.3,0.7,0.5c0.2,0.2,0.2,0.4,0.3,0.5
		c0,0.2,0,0.4,0,0.5c0,0.2-0.1,0.3-0.2,0.5c-0.2,0.4-0.3,0.7-0.5,1c-0.2,0.3-0.3,0.7-0.5,1c-0.1,0.2-0.2,0.4-0.3,0.6
		c-0.1,0.2-0.1,0.4-0.2,0.6l-0.5-0.2l0.1-0.7l0,0c-0.1,0.1-0.2,0.1-0.3,0.2c-0.1,0-0.3,0.1-0.4,0.1c-0.1,0-0.3,0-0.5,0
		c-0.2,0-0.4-0.1-0.5-0.2c-0.2-0.1-0.4-0.2-0.5-0.3c-0.1-0.1-0.2-0.3-0.3-0.5c-0.1-0.2-0.1-0.3-0.1-0.5c0-0.2,0.1-0.4,0.1-0.6
		c0.1-0.3,0.3-0.5,0.5-0.6c0.2-0.1,0.4-0.2,0.7-0.2c0.2,0,0.5,0,0.8,0.1c0.3,0.1,0.6,0.2,0.9,0.4c0.1,0,0.2,0.1,0.2,0.1
		c0.1,0,0.2,0.1,0.2,0.1c0.1-0.2,0.2-0.3,0.3-0.5c0.2-0.3,0.2-0.6,0.1-0.8c-0.1-0.2-0.3-0.4-0.6-0.5c-0.1,0-0.2-0.1-0.3-0.1
		c-0.1,0-0.3-0.1-0.4-0.1c-0.1,0-0.3-0.1-0.4-0.1c-0.1,0-0.2,0-0.4,0L355.7,406.4z M355.3,410.7c0.2,0.1,0.3,0.1,0.5,0.1
		c0.2,0,0.3,0,0.4,0c0.1,0,0.2-0.1,0.3-0.1c0.1-0.1,0.2-0.1,0.3-0.2l0.4-0.8c-0.1,0-0.2-0.1-0.3-0.1c-0.1,0-0.2-0.1-0.3-0.1
		c-0.2-0.1-0.4-0.2-0.6-0.2c-0.2-0.1-0.4-0.1-0.5-0.1s-0.3,0-0.4,0.1c-0.1,0.1-0.2,0.2-0.3,0.3c-0.1,0.2-0.1,0.4,0,0.6
		C354.9,410.4,355,410.6,355.3,410.7z"/>
	<path d="M361.5,413.9c-0.2,0-0.5,0-0.8,0c-0.3,0-0.6-0.1-0.8-0.3c-0.4-0.2-0.6-0.4-0.8-0.6c-0.2-0.2-0.3-0.5-0.4-0.8
		s-0.1-0.6,0-0.9c0.1-0.3,0.2-0.7,0.4-1c0.4-0.8,0.8-1.3,1.3-1.5s1.1-0.2,1.7,0.1c0.3,0.1,0.5,0.3,0.7,0.4c0.2,0.1,0.3,0.3,0.5,0.5
		l-0.5,0.5c-0.1-0.1-0.2-0.3-0.4-0.4s-0.3-0.2-0.5-0.3c-0.9-0.4-1.6,0-2.1,1.1c-0.1,0.2-0.2,0.5-0.2,0.7c-0.1,0.2-0.1,0.4,0,0.7
		c0,0.2,0.1,0.4,0.2,0.6c0.1,0.2,0.3,0.3,0.6,0.4c0.2,0.1,0.4,0.2,0.6,0.2c0.2,0,0.4,0,0.5,0L361.5,413.9z"/>
	<path d="M364.6,410.2l0.7,0.3l-2.1,4.5l-0.7-0.3L364.6,410.2z M365.1,408.8c0.1-0.1,0.2-0.2,0.3-0.3c0.1-0.1,0.3-0.1,0.4,0
		c0.1,0.1,0.2,0.2,0.3,0.3c0.1,0.1,0.1,0.3,0,0.4s-0.2,0.2-0.3,0.3c-0.1,0-0.3,0-0.4,0c-0.1-0.1-0.2-0.2-0.3-0.3
		C365.1,409,365.1,408.9,365.1,408.8z"/>
	<path d="M366.7,411.6c0.3,0,0.6,0,0.9,0.1c0.3,0.1,0.7,0.2,1,0.3c0.3,0.1,0.5,0.3,0.7,0.5c0.2,0.2,0.2,0.4,0.3,0.5
		c0,0.2,0,0.4,0,0.5c0,0.2-0.1,0.3-0.2,0.5c-0.2,0.4-0.3,0.7-0.5,1c-0.2,0.3-0.3,0.7-0.5,1c-0.1,0.2-0.2,0.4-0.3,0.6
		c-0.1,0.2-0.1,0.4-0.2,0.6l-0.5-0.2l0.1-0.7l0,0c-0.1,0.1-0.2,0.1-0.3,0.2c-0.1,0-0.3,0.1-0.4,0.1c-0.1,0-0.3,0-0.5,0
		c-0.2,0-0.4-0.1-0.5-0.2c-0.2-0.1-0.4-0.2-0.5-0.3c-0.1-0.1-0.2-0.3-0.3-0.5c-0.1-0.2-0.1-0.3-0.1-0.5c0-0.2,0.1-0.4,0.1-0.6
		c0.1-0.3,0.3-0.5,0.5-0.6c0.2-0.1,0.4-0.2,0.7-0.2c0.2,0,0.5,0,0.8,0.1c0.3,0.1,0.6,0.2,0.9,0.4c0.1,0,0.2,0.1,0.2,0.1
		c0.1,0,0.2,0.1,0.2,0.1c0.1-0.2,0.2-0.3,0.3-0.5c0.2-0.3,0.2-0.6,0.1-0.8s-0.3-0.4-0.6-0.5c-0.1,0-0.2-0.1-0.3-0.1
		c-0.1,0-0.3-0.1-0.4-0.1c-0.1,0-0.3-0.1-0.4-0.1c-0.1,0-0.2,0-0.4,0L366.7,411.6z M366.3,415.8c0.2,0.1,0.3,0.1,0.5,0.1
		c0.2,0,0.3,0,0.4,0s0.2-0.1,0.3-0.1c0.1-0.1,0.2-0.1,0.3-0.2l0.4-0.8c-0.1,0-0.2-0.1-0.3-0.1c-0.1,0-0.2-0.1-0.3-0.1
		c-0.2-0.1-0.4-0.2-0.6-0.2c-0.2-0.1-0.4-0.1-0.5-0.1c-0.2,0-0.3,0-0.4,0.1c-0.1,0.1-0.2,0.2-0.3,0.3c-0.1,0.2-0.1,0.4,0,0.6
		C365.9,415.5,366,415.7,366.3,415.8z"/>
	<path d="M370.6,417.2c-0.1,0.2-0.1,0.4-0.1,0.5c0,0.1,0.1,0.2,0.2,0.3c0.1,0,0.2,0.1,0.3,0.1c0.1,0,0.2,0.1,0.3,0.1l-0.2,0.6
		c-0.1,0-0.3,0-0.5-0.1c-0.2-0.1-0.3-0.1-0.5-0.2c-0.3-0.1-0.5-0.3-0.6-0.5c-0.1-0.2-0.1-0.5,0.1-0.9l2.5-5.4l0.7,0.3L370.6,417.2z"
		/>
</g>
<g>
	<path d="M413.2,396.2l-0.1-1.1l0,0l-0.3,1l-1.9,4.2l-0.7-0.3l3-6.4l0.4,0.2l1.1,5.6l0.1,1.1l0,0l0.3-0.9l1.9-4.1l0.7,0.3l-3,6.4
		l-0.4-0.2L413.2,396.2z"/>
	<path d="M416.9,400.3c0.4-0.8,0.8-1.3,1.3-1.5c0.5-0.2,1.1-0.2,1.8,0.1c0.3,0.2,0.6,0.4,0.8,0.6s0.3,0.5,0.4,0.8
		c0.1,0.3,0.1,0.6,0,0.9c-0.1,0.3-0.2,0.7-0.3,1c-0.4,0.8-0.8,1.3-1.3,1.5s-1.1,0.2-1.8-0.1c-0.3-0.2-0.6-0.3-0.8-0.6
		c-0.2-0.2-0.3-0.5-0.4-0.8c-0.1-0.3-0.1-0.6,0-0.9C416.7,401,416.8,400.6,416.9,400.3z M417.7,400.6c-0.1,0.2-0.2,0.5-0.2,0.7
		c-0.1,0.2-0.1,0.5,0,0.7c0,0.2,0.1,0.4,0.2,0.6c0.1,0.2,0.3,0.3,0.5,0.4c0.8,0.4,1.5,0,2-1.2c0.1-0.2,0.2-0.5,0.2-0.7
		c0.1-0.2,0.1-0.4,0-0.7c0-0.2-0.1-0.4-0.2-0.6c-0.1-0.2-0.3-0.3-0.5-0.4C418.9,399.1,418.2,399.5,417.7,400.6z"/>
	<path d="M423.9,406.3l1.2-2.6c0.2-0.5,0.3-0.9,0.3-1.2c0-0.3-0.2-0.5-0.6-0.7c-0.3-0.1-0.6-0.2-0.9-0.1c-0.3,0.1-0.5,0.2-0.7,0.4
		l-1.4,3.1l-0.7-0.3l2.1-4.5l0.5,0.2l-0.1,0.6l0,0c0.2-0.1,0.5-0.2,0.8-0.2s0.6,0.1,1,0.2c0.2,0.1,0.5,0.2,0.6,0.4s0.3,0.3,0.3,0.5
		c0.1,0.2,0.1,0.4,0,0.7c-0.1,0.3-0.2,0.6-0.3,1l-1.3,2.7L423.9,406.3z"/>
	<path d="M427.2,403.7l3.8,1.8l-0.3,0.7l-3.8-1.8L427.2,403.7z"/>
	<path d="M435.8,408.3l-3-1.4l-1.4,2.9l-0.8-0.4l3-6.3l0.8,0.4l-1.3,2.8l3,1.4l1.3-2.8l0.8,0.4l-3,6.3l-0.8-0.4L435.8,408.3z"/>
	<path d="M438.9,407.8l0.7,0.3l-2.1,4.5l-0.7-0.3L438.9,407.8z M439.4,406.3c0.1-0.1,0.2-0.2,0.3-0.3c0.1-0.1,0.3-0.1,0.4,0
		c0.1,0.1,0.2,0.2,0.3,0.3c0.1,0.1,0.1,0.3,0,0.4c-0.1,0.1-0.2,0.2-0.3,0.3c-0.1,0-0.3,0-0.4,0c-0.1-0.1-0.2-0.2-0.3-0.3
		C439.3,406.6,439.3,406.4,439.4,406.3z"/>
	<path d="M441.6,413c0.1-0.2,0.1-0.3,0-0.5c-0.1-0.2-0.2-0.3-0.3-0.4c-0.1-0.1-0.3-0.3-0.4-0.4c-0.2-0.2-0.3-0.3-0.4-0.5
		c-0.1-0.2-0.2-0.4-0.2-0.6c0-0.2,0-0.4,0.1-0.7c0.2-0.4,0.5-0.7,0.8-0.8c0.3-0.1,0.7,0,1.2,0.2c0.3,0.2,0.6,0.3,0.8,0.5
		c0.2,0.2,0.4,0.3,0.5,0.5l-0.5,0.5c-0.1-0.1-0.2-0.3-0.4-0.4c-0.2-0.1-0.4-0.3-0.6-0.4c-0.3-0.1-0.5-0.2-0.6-0.1
		c-0.2,0-0.3,0.2-0.4,0.4c-0.1,0.2-0.1,0.3,0,0.4c0.1,0.1,0.2,0.3,0.3,0.4c0.1,0.1,0.3,0.3,0.4,0.4c0.2,0.2,0.3,0.3,0.4,0.5
		s0.2,0.4,0.2,0.6c0,0.2,0,0.5-0.1,0.7c-0.1,0.2-0.2,0.4-0.3,0.5c-0.1,0.1-0.3,0.2-0.5,0.3s-0.4,0.1-0.6,0.1c-0.2,0-0.5-0.1-0.7-0.2
		c-0.3-0.2-0.6-0.3-0.8-0.5c-0.2-0.2-0.4-0.4-0.5-0.5l0.5-0.5c0.1,0.1,0.2,0.3,0.4,0.5c0.2,0.2,0.4,0.3,0.6,0.4
		c0.3,0.1,0.5,0.2,0.7,0.1S441.5,413.3,441.6,413z"/>
	<path d="M445,410.6l0.5,0.2l-0.1,0.6l0,0c0.2-0.1,0.5-0.2,0.8-0.2c0.3,0,0.6,0.1,0.8,0.2c0.6,0.3,1,0.7,1.1,1.2
		c0.1,0.5,0,1.1-0.4,2c-0.2,0.4-0.4,0.7-0.6,1c-0.2,0.3-0.5,0.5-0.8,0.6c-0.3,0.1-0.6,0.2-0.9,0.2c-0.3,0-0.6-0.1-0.9-0.2
		c-0.2-0.1-0.4-0.2-0.5-0.3c-0.1-0.1-0.2-0.2-0.4-0.3l-0.9,1.9l-0.7-0.3L445,410.6z M446.6,412c-0.3-0.1-0.6-0.2-0.8-0.1
		c-0.3,0.1-0.5,0.3-0.7,0.6l-1,2.2c0.1,0.1,0.2,0.3,0.3,0.4c0.1,0.1,0.3,0.2,0.5,0.3c0.4,0.2,0.8,0.2,1.2,0s0.7-0.6,1-1.2
		c0.1-0.2,0.2-0.5,0.3-0.7s0.1-0.4,0-0.6c0-0.2-0.1-0.4-0.2-0.5S446.8,412.1,446.6,412z"/>
	<path d="M449.6,413.2c0.3,0,0.6,0,0.9,0.1c0.3,0.1,0.7,0.2,1,0.3c0.3,0.1,0.5,0.3,0.7,0.5c0.2,0.2,0.2,0.4,0.3,0.5
		c0,0.2,0,0.4,0,0.5c0,0.2-0.1,0.3-0.2,0.5c-0.2,0.4-0.3,0.7-0.5,1c-0.2,0.3-0.3,0.7-0.5,1c-0.1,0.2-0.2,0.4-0.3,0.6
		c-0.1,0.2-0.1,0.4-0.2,0.6l-0.5-0.2l0.1-0.7l0,0c-0.1,0.1-0.2,0.1-0.3,0.2c-0.1,0-0.3,0.1-0.4,0.1s-0.3,0-0.5,0
		c-0.2,0-0.4-0.1-0.5-0.2s-0.4-0.2-0.5-0.3c-0.1-0.1-0.2-0.3-0.3-0.5c-0.1-0.2-0.1-0.3-0.1-0.5s0.1-0.4,0.1-0.6
		c0.1-0.3,0.3-0.5,0.5-0.6c0.2-0.1,0.4-0.2,0.7-0.2s0.5,0,0.8,0.1c0.3,0.1,0.6,0.2,0.9,0.4c0.1,0,0.2,0.1,0.2,0.1s0.2,0.1,0.2,0.1
		c0.1-0.2,0.2-0.3,0.3-0.5c0.2-0.3,0.2-0.6,0.1-0.8c-0.1-0.2-0.3-0.4-0.6-0.5c-0.1,0-0.2-0.1-0.3-0.1c-0.1,0-0.3-0.1-0.4-0.1
		c-0.1,0-0.3-0.1-0.4-0.1c-0.1,0-0.2,0-0.4,0L449.6,413.2z M449.2,417.4c0.2,0.1,0.3,0.1,0.5,0.1c0.2,0,0.3,0,0.4,0
		c0.1,0,0.2-0.1,0.3-0.1c0.1-0.1,0.2-0.1,0.3-0.2l0.4-0.8c-0.1,0-0.2-0.1-0.2-0.1c-0.1,0-0.2-0.1-0.3-0.1c-0.2-0.1-0.4-0.2-0.6-0.2
		c-0.2-0.1-0.4-0.1-0.5-0.1s-0.3,0-0.4,0.1c-0.1,0.1-0.2,0.2-0.3,0.3c-0.1,0.2-0.1,0.4,0,0.6C448.8,417.2,449,417.3,449.2,417.4z"/>
	<path d="M455.2,420.9l1.2-2.6c0.2-0.5,0.3-0.9,0.3-1.2s-0.2-0.5-0.6-0.7c-0.3-0.2-0.6-0.2-0.9-0.1c-0.3,0.1-0.5,0.2-0.7,0.4
		l-1.4,3.1l-0.7-0.3l2.1-4.5l0.5,0.2l-0.1,0.6l0,0c0.2-0.1,0.5-0.2,0.8-0.2c0.3,0,0.6,0.1,1,0.2c0.2,0.1,0.5,0.2,0.6,0.4
		c0.2,0.1,0.3,0.3,0.3,0.5c0.1,0.2,0.1,0.4,0,0.7c-0.1,0.3-0.2,0.6-0.3,1l-1.3,2.7L455.2,420.9z"/>
	<path d="M459.5,417.4l0.7,0.3l-2.1,4.5l-0.7-0.3L459.5,417.4z M460,415.9c0.1-0.1,0.2-0.2,0.3-0.3c0.1-0.1,0.3-0.1,0.4,0
		c0.1,0.1,0.2,0.2,0.3,0.3c0.1,0.1,0.1,0.3,0,0.4s-0.2,0.2-0.3,0.3c-0.1,0-0.3,0-0.4,0c-0.1-0.1-0.2-0.2-0.3-0.3
		C459.9,416.2,459.9,416.1,460,415.9z"/>
	<path d="M462.9,424.1c-0.2,0-0.5,0.1-0.8,0s-0.6-0.1-0.8-0.3c-0.4-0.2-0.6-0.4-0.8-0.6s-0.3-0.5-0.4-0.8c-0.1-0.3-0.1-0.6,0-0.9
		c0.1-0.3,0.2-0.7,0.4-1c0.4-0.8,0.8-1.3,1.3-1.5s1.1-0.2,1.7,0.1c0.3,0.1,0.5,0.3,0.7,0.4s0.3,0.3,0.5,0.5l-0.5,0.5
		c-0.1-0.1-0.2-0.3-0.4-0.4c-0.1-0.1-0.3-0.2-0.5-0.3c-0.9-0.4-1.6,0-2.1,1.1c-0.1,0.2-0.2,0.5-0.2,0.7c-0.1,0.2-0.1,0.4,0,0.7
		c0,0.2,0.1,0.4,0.2,0.6c0.1,0.2,0.3,0.3,0.6,0.4c0.2,0.1,0.4,0.2,0.6,0.2s0.4,0,0.5,0L462.9,424.1z"/>
	<path d="M468.4,424.5l-0.3,1.1l0,0l0.7-1l3.3-3.6l0.4,0.2l-0.7,4.9l-0.3,1.1l0,0l0.7-1l3-3.7l0.7,0.3l-4.8,5.6l-0.4-0.2l0.7-4.8
		l0.3-1l0,0l-0.6,0.9l-3.3,3.6l-0.4-0.2l1.2-7.3l0.8,0.4L468.4,424.5z"/>
	<path d="M476.6,430.9l1.2-2.6c0.1-0.2,0.2-0.4,0.2-0.6c0.1-0.2,0.1-0.4,0.1-0.5c0-0.2-0.1-0.3-0.2-0.4c-0.1-0.1-0.2-0.2-0.4-0.3
		c-0.3-0.1-0.6-0.2-0.9-0.1c-0.3,0.1-0.6,0.2-0.8,0.5l-1.4,3l-0.7-0.3l3-6.3l0.7,0.3l-1.1,2.3l0,0c0.2-0.1,0.5-0.2,0.8-0.2
		c0.3,0,0.6,0.1,0.9,0.2c0.3,0.1,0.5,0.2,0.6,0.4s0.3,0.3,0.3,0.5c0.1,0.2,0.1,0.4,0,0.7s-0.2,0.6-0.3,1l-1.3,2.7L476.6,430.9z"/>
	<path d="M480.9,427.4l0.7,0.3l-2.1,4.5l-0.7-0.3L480.9,427.4z M481.4,425.9c0.1-0.1,0.2-0.2,0.3-0.3c0.1-0.1,0.3-0.1,0.4,0
		c0.1,0.1,0.2,0.2,0.3,0.3c0.1,0.1,0.1,0.3,0,0.4c-0.1,0.1-0.2,0.2-0.3,0.3s-0.3,0-0.4,0c-0.1-0.1-0.2-0.2-0.3-0.3
		C481.3,426.2,481.3,426,481.4,425.9z"/>
	<path d="M482.5,428.1l0.7,0.3l0.4-0.9l0.8,0.1l-0.5,1.1l1.2,0.6l-0.3,0.6l-1.2-0.6l-1.2,2.5c-0.1,0.3-0.2,0.6-0.2,0.7
		c0,0.2,0.1,0.3,0.3,0.4c0.2,0.1,0.3,0.1,0.4,0.1c0.1,0,0.3,0,0.4,0l-0.1,0.6c-0.2,0-0.4,0-0.6-0.1c-0.2,0-0.4-0.1-0.7-0.2
		c-0.4-0.2-0.6-0.4-0.6-0.7c-0.1-0.3,0-0.7,0.3-1.2l1.2-2.6l-0.7-0.3L482.5,428.1z"/>
	<path d="M487.6,435.6c-0.2,0.1-0.5,0.1-0.8,0c-0.3,0-0.6-0.1-0.9-0.3c-0.3-0.2-0.6-0.4-0.8-0.6c-0.2-0.2-0.3-0.5-0.4-0.8
		s-0.1-0.6,0-0.9c0.1-0.3,0.2-0.7,0.3-1c0.4-0.8,0.8-1.3,1.3-1.5c0.5-0.2,1.1-0.2,1.8,0.1c0.2,0.1,0.4,0.2,0.6,0.4
		c0.2,0.1,0.3,0.3,0.4,0.5s0.2,0.4,0.1,0.7c0,0.3-0.1,0.6-0.3,1c-0.1,0.2-0.2,0.4-0.4,0.6l-2.9-1.4c-0.1,0.3-0.2,0.5-0.2,0.7
		c0,0.2,0,0.4,0,0.6c0,0.2,0.1,0.4,0.3,0.5c0.1,0.2,0.4,0.3,0.6,0.4c0.2,0.1,0.4,0.2,0.7,0.2c0.2,0,0.4,0,0.6,0L487.6,435.6z
		 M487.7,431.2c-0.4-0.2-0.7-0.2-1-0.1c-0.3,0.1-0.6,0.3-0.8,0.8l2.2,1c0.2-0.5,0.3-0.8,0.2-1.1S488,431.3,487.7,431.2z"/>
</g>
<g>
	<path d="M17.8,249.3c-0.1-0.3-0.1-0.7-0.1-1c0-0.4,0-0.8,0-1.1c0-0.4,0-0.7,0.1-1.1s0.2-0.6,0.4-0.9s0.4-0.5,0.7-0.6
		s0.7-0.2,1.1-0.2c0.7,0,1.2,0.2,1.6,0.5s0.7,0.8,0.8,1.4l0.4-0.6l3.3-2.1v1.2l-3.6,2.3l-0.2,1.2h3.8v1H17.8z M18.5,247.2
		c0,0.1,0,0.2,0,0.3c0,0.1,0,0.2,0,0.3c0,0.1,0,0.2,0,0.3c0,0.1,0,0.2,0,0.2h3.1v-0.9c0-0.6-0.1-1-0.4-1.4c-0.3-0.4-0.7-0.5-1.3-0.5
		c-0.4,0-0.8,0.1-1.1,0.4C18.7,246.2,18.5,246.6,18.5,247.2z"/>
	<path d="M20.6,242.4c-0.2-0.3-0.3-0.7-0.4-1.1c-0.1-0.4-0.1-0.8-0.1-1.3c0-0.4,0.1-0.8,0.2-1c0.1-0.3,0.3-0.4,0.4-0.6
		c0.2-0.1,0.4-0.2,0.6-0.3s0.4-0.1,0.6-0.1c0.5,0,0.9,0,1.4,0c0.5,0,0.9,0,1.3,0c0.3,0,0.6,0,0.8,0s0.5-0.1,0.7-0.1v0.7l-0.8,0.3
		v0.1c0.1,0.1,0.2,0.2,0.3,0.3c0.1,0.1,0.2,0.2,0.3,0.4c0.1,0.2,0.2,0.3,0.2,0.5c0.1,0.2,0.1,0.4,0.1,0.7c0,0.3,0,0.5-0.1,0.7
		c-0.1,0.2-0.2,0.4-0.3,0.6c-0.1,0.2-0.3,0.3-0.5,0.4s-0.4,0.1-0.7,0.1c-0.4,0-0.6-0.1-0.9-0.2c-0.2-0.1-0.4-0.3-0.6-0.6
		c-0.1-0.3-0.2-0.6-0.3-0.9c-0.1-0.4-0.1-0.8-0.1-1.2c0-0.1,0-0.2,0-0.3c0-0.1,0-0.2,0-0.3c-0.2,0-0.5,0-0.6,0
		c-0.4,0-0.7,0.1-0.9,0.3c-0.2,0.2-0.3,0.5-0.3,1c0,0.1,0,0.3,0,0.4c0,0.2,0,0.3,0.1,0.5s0.1,0.3,0.1,0.5c0.1,0.1,0.1,0.3,0.2,0.4
		L20.6,242.4z M25.4,240.7c0-0.2,0-0.4-0.1-0.6c-0.1-0.2-0.1-0.3-0.2-0.5c-0.1-0.1-0.2-0.2-0.3-0.3c-0.1-0.1-0.2-0.1-0.3-0.2h-1
		c0,0.1,0,0.2,0,0.3c0,0.1,0,0.2,0,0.3c0,0.2,0,0.5,0,0.7c0,0.2,0.1,0.4,0.2,0.6c0.1,0.2,0.2,0.3,0.3,0.4c0.1,0.1,0.3,0.2,0.5,0.2
		c0.3,0,0.5-0.1,0.7-0.3C25.3,241.2,25.4,241,25.4,240.7z"/>
	<path d="M20.1,237.1v-0.9H19l-0.3-1h1.5v-1.6H21v1.6h3.3c0.4,0,0.7-0.1,0.9-0.2c0.2-0.1,0.3-0.3,0.3-0.5c0-0.2,0-0.4-0.1-0.5
		c0-0.1-0.1-0.3-0.2-0.5l0.7-0.2c0.1,0.2,0.2,0.5,0.3,0.7c0.1,0.3,0.1,0.5,0.1,0.8c0,0.5-0.1,0.8-0.4,1c-0.3,0.2-0.7,0.3-1.4,0.3H21
		v0.9H20.1z"/>
	<path d="M25.7,227.9c0.2,0.2,0.3,0.5,0.5,0.9c0.1,0.4,0.2,0.8,0.2,1.2c0,0.5-0.1,0.9-0.2,1.2c-0.1,0.3-0.4,0.6-0.6,0.8
		c-0.3,0.2-0.6,0.4-1,0.5c-0.4,0.1-0.8,0.2-1.3,0.2c-1,0-1.8-0.2-2.3-0.7s-0.8-1.1-0.8-2c0-0.3,0-0.5,0.1-0.8
		c0.1-0.3,0.2-0.5,0.3-0.7c0.2-0.2,0.4-0.4,0.7-0.5c0.3-0.1,0.7-0.2,1.2-0.2c0.3,0,0.6,0,0.9,0.1v3.9c0.4,0,0.7,0,0.9-0.1
		c0.3-0.1,0.5-0.2,0.7-0.3s0.3-0.4,0.4-0.6c0.1-0.2,0.2-0.5,0.2-0.9c0-0.3,0-0.5-0.1-0.8c-0.1-0.3-0.2-0.5-0.3-0.6L25.7,227.9z
		 M20.8,229.9c0,0.5,0.1,0.9,0.4,1.1c0.2,0.3,0.7,0.5,1.3,0.5v-3c-0.6,0-1,0.1-1.3,0.3C21,229.2,20.8,229.5,20.8,229.9z"/>
	<path d="M28.8,221.1c-0.4,0.4-0.8,0.7-1.3,0.9c-0.5,0.3-0.9,0.5-1.4,0.6c-0.5,0.2-1,0.3-1.5,0.3c-0.5,0.1-1,0.1-1.4,0.1
		c-0.4,0-0.9,0-1.4-0.1c-0.5-0.1-1-0.2-1.5-0.3c-0.5-0.2-1-0.4-1.4-0.6c-0.5-0.3-0.9-0.6-1.3-1l0.4-0.6c0.4,0.3,0.8,0.6,1.3,0.8
		s0.9,0.4,1.3,0.5c0.4,0.1,0.9,0.2,1.3,0.3c0.4,0.1,0.9,0.1,1.3,0.1c0.4,0,0.8,0,1.3-0.1c0.5-0.1,0.9-0.2,1.4-0.3
		c0.5-0.1,0.9-0.3,1.3-0.5c0.4-0.2,0.8-0.5,1.2-0.8L28.8,221.1z"/>
	<path d="M20.1,219.6v-0.7l0.7-0.2v0c-0.3-0.2-0.5-0.4-0.6-0.7s-0.2-0.6-0.2-1c0-0.8,0.2-1.4,0.7-1.8c0.5-0.4,1.2-0.6,2.3-0.6
		c0.5,0,1,0.1,1.4,0.2c0.4,0.1,0.7,0.3,1,0.6c0.3,0.2,0.5,0.5,0.6,0.9c0.2,0.3,0.2,0.7,0.2,1.1c0,0.3,0,0.5-0.1,0.7
		c0,0.2-0.1,0.4-0.2,0.6h2.5v1H20.1z M20.8,217.2c0,0.4,0.1,0.7,0.3,1s0.5,0.4,1,0.5h3c0.1-0.1,0.2-0.3,0.3-0.5s0.1-0.4,0.1-0.7
		c0-0.6-0.2-1-0.6-1.3c-0.4-0.3-1-0.5-1.8-0.5c-0.3,0-0.6,0-0.9,0.1c-0.3,0.1-0.5,0.1-0.7,0.3c-0.2,0.1-0.3,0.3-0.4,0.5
		C20.9,216.6,20.8,216.9,20.8,217.2z"/>
	<path d="M25.7,208.7c0.2,0.2,0.3,0.5,0.5,0.9c0.1,0.4,0.2,0.8,0.2,1.2c0,0.5-0.1,0.9-0.2,1.2c-0.1,0.3-0.4,0.6-0.6,0.8
		c-0.3,0.2-0.6,0.4-1,0.5c-0.4,0.1-0.8,0.2-1.3,0.2c-1,0-1.8-0.2-2.3-0.7s-0.8-1.1-0.8-2c0-0.3,0-0.5,0.1-0.8
		c0.1-0.3,0.2-0.5,0.3-0.7c0.2-0.2,0.4-0.4,0.7-0.5c0.3-0.1,0.7-0.2,1.2-0.2c0.3,0,0.6,0,0.9,0.1v3.9c0.4,0,0.7,0,0.9-0.1
		c0.3-0.1,0.5-0.2,0.7-0.3s0.3-0.4,0.4-0.6c0.1-0.2,0.2-0.5,0.2-0.9c0-0.3,0-0.5-0.1-0.8c-0.1-0.3-0.2-0.5-0.3-0.6L25.7,208.7z
		 M20.8,210.8c0,0.5,0.1,0.9,0.4,1.1c0.2,0.3,0.7,0.5,1.3,0.5v-3c-0.6,0-1,0.1-1.3,0.3C21,210,20.8,210.4,20.8,210.8z"/>
	<path d="M21.1,204.2c-0.1,0.2-0.1,0.5-0.1,0.7c0,0.3,0.1,0.6,0.3,0.8c0.2,0.2,0.4,0.3,0.7,0.4h4.2v1h-6v-0.7l0.7-0.2v0
		c-0.3-0.2-0.5-0.3-0.6-0.5c-0.1-0.2-0.2-0.5-0.2-0.8c0-0.2,0-0.5,0.1-0.8L21.1,204.2z"/>
	<path d="M25.3,199.3v-1.7h-5.8l-0.7-0.1l0.6,0.5l0.9,1.3l-0.6,0.5l-2-2.6v-0.4h7.7v-1.6h0.9v4.3H25.3z"/>
	<path d="M25.6,193.5c-0.2,0-0.3-0.1-0.5-0.2S25,193,25,192.8c0-0.2,0.1-0.5,0.3-0.6c0.2-0.2,0.4-0.2,0.8-0.2c0.3,0,0.5,0,0.8,0.1
		c0.2,0.1,0.4,0.2,0.6,0.3c0.2,0.1,0.3,0.3,0.4,0.4c0.1,0.2,0.2,0.3,0.2,0.5l-0.5,0.3c-0.1-0.3-0.3-0.5-0.5-0.6
		c-0.2-0.1-0.5-0.2-0.7-0.2c0,0.1,0,0.1,0,0.2c0,0.2-0.1,0.3-0.2,0.4S25.8,193.5,25.6,193.5z"/>
	<path d="M21.9,191.2c-1.4,0-2.5-0.2-3.3-0.7c-0.7-0.5-1.1-1.2-1.1-2c0-1,0.4-1.7,1.1-2.1c0.7-0.4,1.8-0.7,3.3-0.7
		c1.4,0,2.5,0.2,3.3,0.7c0.7,0.5,1.1,1.2,1.1,2.1c0,1-0.4,1.6-1.1,2.1C24.4,191,23.3,191.2,21.9,191.2z M21.9,190.2
		c0.5,0,1,0,1.4-0.1c0.4-0.1,0.8-0.2,1.1-0.3s0.5-0.3,0.7-0.5c0.2-0.2,0.3-0.5,0.3-0.8c0-0.6-0.3-1.1-0.8-1.3
		c-0.6-0.3-1.4-0.4-2.7-0.4c-0.5,0-1,0-1.4,0.1c-0.4,0.1-0.8,0.2-1.1,0.3c-0.3,0.1-0.6,0.3-0.7,0.5c-0.2,0.2-0.3,0.5-0.3,0.8
		c0,0.6,0.3,1,0.9,1.3C19.9,190.1,20.8,190.2,21.9,190.2z"/>
	<path d="M21.9,184.7c-1.4,0-2.5-0.2-3.3-0.7c-0.7-0.5-1.1-1.2-1.1-2c0-1,0.4-1.7,1.1-2.1c0.7-0.4,1.8-0.7,3.3-0.7
		c1.4,0,2.5,0.2,3.3,0.7c0.7,0.5,1.1,1.2,1.1,2.1c0,1-0.4,1.6-1.1,2.1C24.4,184.5,23.3,184.7,21.9,184.7z M21.9,183.7
		c0.5,0,1,0,1.4-0.1c0.4-0.1,0.8-0.2,1.1-0.3s0.5-0.3,0.7-0.5c0.2-0.2,0.3-0.5,0.3-0.8c0-0.6-0.3-1.1-0.8-1.3
		c-0.6-0.3-1.4-0.4-2.7-0.4c-0.5,0-1,0-1.4,0.1c-0.4,0.1-0.8,0.2-1.1,0.3c-0.3,0.1-0.6,0.3-0.7,0.5c-0.2,0.2-0.3,0.5-0.3,0.8
		c0,0.6,0.3,1,0.9,1.3C19.9,183.6,20.8,183.7,21.9,183.7z"/>
	<path d="M21.9,178.2c-1.4,0-2.5-0.2-3.3-0.7c-0.7-0.5-1.1-1.2-1.1-2c0-1,0.4-1.7,1.1-2.1c0.7-0.4,1.8-0.7,3.3-0.7
		c1.4,0,2.5,0.2,3.3,0.7c0.7,0.5,1.1,1.2,1.1,2.1c0,1-0.4,1.6-1.1,2.1C24.4,177.9,23.3,178.2,21.9,178.2z M21.9,177.2
		c0.5,0,1,0,1.4-0.1c0.4-0.1,0.8-0.2,1.1-0.3s0.5-0.3,0.7-0.5c0.2-0.2,0.3-0.5,0.3-0.8c0-0.6-0.3-1.1-0.8-1.3
		c-0.6-0.3-1.4-0.4-2.7-0.4c-0.5,0-1,0-1.4,0.1c-0.4,0.1-0.8,0.2-1.1,0.3c-0.3,0.1-0.6,0.3-0.7,0.5c-0.2,0.2-0.3,0.5-0.3,0.8
		c0,0.6,0.3,1,0.9,1.3C19.9,177,20.8,177.2,21.9,177.2z"/>
	<path d="M17.6,171.5c0.4-0.4,0.8-0.7,1.3-0.9c0.5-0.3,0.9-0.5,1.4-0.6c0.5-0.2,1-0.3,1.5-0.3c0.5-0.1,1-0.1,1.4-0.1
		c0.4,0,0.9,0,1.4,0.1c0.5,0.1,1,0.2,1.5,0.3c0.5,0.2,1,0.4,1.4,0.6c0.5,0.3,0.9,0.6,1.3,1l-0.4,0.6c-0.4-0.3-0.8-0.6-1.3-0.8
		c-0.4-0.2-0.9-0.4-1.3-0.5c-0.4-0.1-0.9-0.2-1.3-0.3c-0.4-0.1-0.9-0.1-1.3-0.1c-0.4,0-0.8,0-1.2,0.1c-0.4,0.1-0.9,0.2-1.4,0.3
		c-0.5,0.1-0.9,0.3-1.3,0.5c-0.4,0.2-0.8,0.5-1.2,0.8L17.6,171.5z"/>
</g>
<line fill="#3B6E8F" stroke="#3B6E8F" stroke-miterlimit="10" x1="48" y1="31.9" x2="48" y2="386.1"/>
<line fill="#3B6E8F" stroke="#3B6E8F" stroke-miterlimit="10" x1="48" y1="386.1" x2="449.5" y2="386.1"/>
</svg>
