<?xml version="1.0" encoding="utf-8"?>
<!-- Generator: Adobe Illustrator 18.0.0, SVG Export Plug-In . SVG Version: 6.00 Build 0)  -->
<!DOCTYPE svg PUBLIC "-//W3C//DTD SVG 1.1//EN" "http://www.w3.org/Graphics/SVG/1.1/DTD/svg11.dtd">
<svg version="1.1" xmlns="http://www.w3.org/2000/svg" xmlns:xlink="http://www.w3.org/1999/xlink" x="0px" y="0px"
	 viewBox="0 0 342 258.4" enable-background="new 0 0 342 258.4" xml:space="preserve">
<g id="grid">
</g>
<g id="axes">
	<line fill="none" stroke="#E6E7E8" stroke-miterlimit="10" x1="46.7" y1="0" x2="46.7" y2="249.3"/>
	<line fill="none" stroke="#E6E7E8" stroke-miterlimit="10" x1="226.1" y1="0" x2="226.1" y2="249.3"/>
	<line fill="none" stroke="#E6E7E8" stroke-miterlimit="10" x1="190.7" y1="0" x2="190.7" y2="249.3"/>
	<line fill="none" stroke="#E6E7E8" stroke-miterlimit="10" x1="153.4" y1="0" x2="153.4" y2="249.3"/>
	<line fill="none" stroke="#E6E7E8" stroke-miterlimit="10" x1="119.4" y1="0" x2="119.4" y2="249.3"/>
	<line fill="none" stroke="#E6E7E8" stroke-miterlimit="10" x1="81.4" y1="0" x2="81.4" y2="249.3"/>
	<line fill="none" stroke="#E6E7E8" stroke-miterlimit="10" x1="261.4" y1="0" x2="261.4" y2="249.3"/>
	<line fill="none" stroke="#E6E7E8" stroke-miterlimit="10" x1="297.4" y1="0" x2="297.4" y2="249.3"/>
	<line fill="none" stroke="#E6E7E8" stroke-miterlimit="10" x1="11.1" y1="36.7" x2="331.1" y2="36.7"/>
	<line fill="none" stroke="#E6E7E8" stroke-miterlimit="10" x1="11.1" y1="72.7" x2="331.1" y2="72.7"/>
	<line fill="none" stroke="#E6E7E8" stroke-miterlimit="10" x1="10.1" y1="106.7" x2="330.1" y2="106.7"/>
	<line fill="none" stroke="#E6E7E8" stroke-miterlimit="10" x1="10.1" y1="143.3" x2="330.1" y2="143.3"/>
	<line fill="none" stroke="#E6E7E8" stroke-miterlimit="10" x1="10.1" y1="180.3" x2="330.1" y2="180.3"/>
	<line fill="none" stroke="#E6E7E8" stroke-miterlimit="10" x1="10.1" y1="216" x2="330.1" y2="216"/>
	<g>
		<line fill="none" stroke="#939598" stroke-width="2" stroke-miterlimit="10" x1="11.1" y1="0" x2="11.1" y2="249.3"/>
		<line fill="none" stroke="#939598" stroke-width="2" stroke-miterlimit="10" x1="10.1" y1="249.3" x2="330.1" y2="249.3"/>
	</g>
</g>
<g id="line">
	<g>
		<polyline fill="none" stroke="#5AB066" stroke-width="4" stroke-miterlimit="10" points="11.1,249.3 81.4,180.3 119.4,214.8 
			190.7,124 195.1,128.8 226.1,163.3 331.1,54 		"/>
		<polygon fill="#5AB066" stroke="#5AB066" stroke-width="4" stroke-miterlimit="10" points="322.8,72.6 312.7,62 331,54.7 		"/>
	</g>
</g>
</svg>
